%TF.GenerationSoftware,KiCad,Pcbnew,9.0.6*%
%TF.CreationDate,2025-11-14T08:25:56+01:00*%
%TF.ProjectId,gaia-battery,67616961-2d62-4617-9474-6572792e6b69,1.0*%
%TF.SameCoordinates,Original*%
%TF.FileFunction,Legend,Bot*%
%TF.FilePolarity,Positive*%
%FSLAX46Y46*%
G04 Gerber Fmt 4.6, Leading zero omitted, Abs format (unit mm)*
G04 Created by KiCad (PCBNEW 9.0.6) date 2025-11-14 08:25:56*
%MOMM*%
%LPD*%
G01*
G04 APERTURE LIST*
%ADD10C,0.140000*%
%ADD11C,0.100000*%
%ADD12C,0.112500*%
%ADD13C,0.017999*%
%ADD14C,0.120000*%
G04 APERTURE END LIST*
D10*
X129866891Y-77411536D02*
X129610068Y-77781951D01*
X129610068Y-76581800D01*
X129866891Y-76581800D01*
X129866891Y-77411536D01*
G36*
X129866891Y-77411536D02*
G01*
X129610068Y-77781951D01*
X129610068Y-76581800D01*
X129866891Y-76581800D01*
X129866891Y-77411536D01*
G37*
X136588512Y-76558799D02*
X136647720Y-76563927D01*
X136706530Y-76572572D01*
X136764396Y-76584811D01*
X136820772Y-76600727D01*
X136875112Y-76620397D01*
X136926868Y-76643901D01*
X136975496Y-76671319D01*
X136998465Y-76686521D01*
X137020448Y-76702731D01*
X137041375Y-76719960D01*
X137061179Y-76738216D01*
X137079790Y-76757511D01*
X137097142Y-76777854D01*
X137113165Y-76799255D01*
X137127791Y-76821724D01*
X137140952Y-76845271D01*
X137152580Y-76869906D01*
X137162607Y-76895639D01*
X137170963Y-76922480D01*
X137177581Y-76950438D01*
X137182393Y-76979524D01*
X137185331Y-77009748D01*
X137186325Y-77041119D01*
X137185629Y-77068356D01*
X137183568Y-77094521D01*
X137180178Y-77119645D01*
X137175497Y-77143756D01*
X137169563Y-77166883D01*
X137162412Y-77189055D01*
X137154084Y-77210301D01*
X137144614Y-77230649D01*
X137134042Y-77250130D01*
X137122403Y-77268772D01*
X137109737Y-77286603D01*
X137096079Y-77303652D01*
X137081469Y-77319950D01*
X137065943Y-77335524D01*
X137049538Y-77350403D01*
X137032293Y-77364617D01*
X137014245Y-77378194D01*
X136995432Y-77391163D01*
X136975891Y-77403554D01*
X136955659Y-77415394D01*
X136913273Y-77437542D01*
X136868577Y-77457838D01*
X136821869Y-77476513D01*
X136773450Y-77493799D01*
X136723620Y-77509927D01*
X136672680Y-77525130D01*
X136647580Y-77533242D01*
X136622365Y-77540950D01*
X136572050Y-77555381D01*
X136475125Y-77581928D01*
X136421641Y-77597830D01*
X136364887Y-77616539D01*
X136336143Y-77627245D01*
X136307612Y-77639010D01*
X136279639Y-77651955D01*
X136252566Y-77666198D01*
X136226737Y-77681860D01*
X136202497Y-77699058D01*
X136180188Y-77717914D01*
X136169865Y-77728000D01*
X136160154Y-77738545D01*
X136151098Y-77749564D01*
X136142740Y-77761072D01*
X136135122Y-77773084D01*
X136128288Y-77785614D01*
X136122280Y-77798677D01*
X136117142Y-77812290D01*
X136112916Y-77826465D01*
X136109646Y-77841219D01*
X135855293Y-77848627D01*
X135857523Y-77824126D01*
X135860951Y-77800610D01*
X135865543Y-77778052D01*
X135871267Y-77756424D01*
X135878091Y-77735698D01*
X135885983Y-77715847D01*
X135894908Y-77696844D01*
X135904836Y-77678660D01*
X135915733Y-77661269D01*
X135927568Y-77644642D01*
X135940306Y-77628752D01*
X135953916Y-77613572D01*
X135968366Y-77599073D01*
X135983622Y-77585229D01*
X135999652Y-77572012D01*
X136016424Y-77559393D01*
X136033905Y-77547347D01*
X136052062Y-77535844D01*
X136070864Y-77524857D01*
X136090276Y-77514360D01*
X136130805Y-77494720D01*
X136173388Y-77476705D01*
X136217766Y-77460094D01*
X136263678Y-77444665D01*
X136310862Y-77430199D01*
X136359060Y-77416474D01*
X136383344Y-77408468D01*
X136407947Y-77401040D01*
X136432724Y-77394076D01*
X136457529Y-77387458D01*
X136506648Y-77374802D01*
X136554146Y-77362146D01*
X136646751Y-77330043D01*
X136690275Y-77314223D01*
X136711342Y-77306169D01*
X136731946Y-77297941D01*
X136751553Y-77287949D01*
X136770498Y-77277385D01*
X136788697Y-77266199D01*
X136806068Y-77254340D01*
X136822528Y-77241758D01*
X136837992Y-77228401D01*
X136852379Y-77214220D01*
X136865605Y-77199163D01*
X136871756Y-77191291D01*
X136877586Y-77183181D01*
X136883084Y-77174826D01*
X136888240Y-77166222D01*
X136893043Y-77157360D01*
X136897483Y-77148235D01*
X136901549Y-77138841D01*
X136905232Y-77129170D01*
X136908520Y-77119218D01*
X136911403Y-77108977D01*
X136913872Y-77098442D01*
X136915915Y-77087605D01*
X136917522Y-77076460D01*
X136918683Y-77065002D01*
X136919387Y-77053224D01*
X136919624Y-77041119D01*
X136918876Y-77020548D01*
X136916678Y-77000953D01*
X136913100Y-76982314D01*
X136908212Y-76964610D01*
X136902083Y-76947820D01*
X136894783Y-76931921D01*
X136886382Y-76916893D01*
X136876949Y-76902715D01*
X136866553Y-76889365D01*
X136855265Y-76876823D01*
X136843154Y-76865066D01*
X136830290Y-76854074D01*
X136816742Y-76843825D01*
X136802579Y-76834298D01*
X136787873Y-76825473D01*
X136772692Y-76817326D01*
X136757105Y-76809839D01*
X136741183Y-76802988D01*
X136724995Y-76796753D01*
X136708611Y-76791113D01*
X136675533Y-76781531D01*
X136642505Y-76774072D01*
X136610085Y-76768567D01*
X136578830Y-76764846D01*
X136549297Y-76762737D01*
X136522043Y-76762072D01*
X136482899Y-76763239D01*
X136444342Y-76766780D01*
X136406609Y-76772751D01*
X136369940Y-76781211D01*
X136334573Y-76792217D01*
X136300748Y-76805828D01*
X136284487Y-76813628D01*
X136268702Y-76822102D01*
X136253420Y-76831255D01*
X136238674Y-76841095D01*
X136224492Y-76851630D01*
X136210903Y-76862867D01*
X136197939Y-76874813D01*
X136185629Y-76887475D01*
X136174002Y-76900860D01*
X136163089Y-76914976D01*
X136152920Y-76929830D01*
X136143523Y-76945430D01*
X136134930Y-76961781D01*
X136127169Y-76978892D01*
X136120271Y-76996771D01*
X136114266Y-77015423D01*
X136109183Y-77034856D01*
X136105052Y-77055079D01*
X136101904Y-77076097D01*
X136099767Y-77097918D01*
X135825660Y-77097915D01*
X135828120Y-77061384D01*
X135832234Y-77026323D01*
X135837963Y-76992711D01*
X135845266Y-76960529D01*
X135854105Y-76929755D01*
X135864440Y-76900370D01*
X135876232Y-76872354D01*
X135889441Y-76845685D01*
X135904029Y-76820344D01*
X135919955Y-76796310D01*
X135937181Y-76773563D01*
X135955668Y-76752083D01*
X135975375Y-76731848D01*
X135996263Y-76712840D01*
X136018294Y-76695037D01*
X136041428Y-76678419D01*
X136065625Y-76662966D01*
X136090846Y-76648657D01*
X136117053Y-76635472D01*
X136144204Y-76623392D01*
X136172262Y-76612394D01*
X136201187Y-76602460D01*
X136230939Y-76593568D01*
X136261479Y-76585699D01*
X136292768Y-76578832D01*
X136324766Y-76572946D01*
X136390734Y-76564038D01*
X136459068Y-76558813D01*
X136529452Y-76557107D01*
X136588512Y-76558799D01*
G36*
X136588512Y-76558799D02*
G01*
X136647720Y-76563927D01*
X136706530Y-76572572D01*
X136764396Y-76584811D01*
X136820772Y-76600727D01*
X136875112Y-76620397D01*
X136926868Y-76643901D01*
X136975496Y-76671319D01*
X136998465Y-76686521D01*
X137020448Y-76702731D01*
X137041375Y-76719960D01*
X137061179Y-76738216D01*
X137079790Y-76757511D01*
X137097142Y-76777854D01*
X137113165Y-76799255D01*
X137127791Y-76821724D01*
X137140952Y-76845271D01*
X137152580Y-76869906D01*
X137162607Y-76895639D01*
X137170963Y-76922480D01*
X137177581Y-76950438D01*
X137182393Y-76979524D01*
X137185331Y-77009748D01*
X137186325Y-77041119D01*
X137185629Y-77068356D01*
X137183568Y-77094521D01*
X137180178Y-77119645D01*
X137175497Y-77143756D01*
X137169563Y-77166883D01*
X137162412Y-77189055D01*
X137154084Y-77210301D01*
X137144614Y-77230649D01*
X137134042Y-77250130D01*
X137122403Y-77268772D01*
X137109737Y-77286603D01*
X137096079Y-77303652D01*
X137081469Y-77319950D01*
X137065943Y-77335524D01*
X137049538Y-77350403D01*
X137032293Y-77364617D01*
X137014245Y-77378194D01*
X136995432Y-77391163D01*
X136975891Y-77403554D01*
X136955659Y-77415394D01*
X136913273Y-77437542D01*
X136868577Y-77457838D01*
X136821869Y-77476513D01*
X136773450Y-77493799D01*
X136723620Y-77509927D01*
X136672680Y-77525130D01*
X136647580Y-77533242D01*
X136622365Y-77540950D01*
X136572050Y-77555381D01*
X136475125Y-77581928D01*
X136421641Y-77597830D01*
X136364887Y-77616539D01*
X136336143Y-77627245D01*
X136307612Y-77639010D01*
X136279639Y-77651955D01*
X136252566Y-77666198D01*
X136226737Y-77681860D01*
X136202497Y-77699058D01*
X136180188Y-77717914D01*
X136169865Y-77728000D01*
X136160154Y-77738545D01*
X136151098Y-77749564D01*
X136142740Y-77761072D01*
X136135122Y-77773084D01*
X136128288Y-77785614D01*
X136122280Y-77798677D01*
X136117142Y-77812290D01*
X136112916Y-77826465D01*
X136109646Y-77841219D01*
X135855293Y-77848627D01*
X135857523Y-77824126D01*
X135860951Y-77800610D01*
X135865543Y-77778052D01*
X135871267Y-77756424D01*
X135878091Y-77735698D01*
X135885983Y-77715847D01*
X135894908Y-77696844D01*
X135904836Y-77678660D01*
X135915733Y-77661269D01*
X135927568Y-77644642D01*
X135940306Y-77628752D01*
X135953916Y-77613572D01*
X135968366Y-77599073D01*
X135983622Y-77585229D01*
X135999652Y-77572012D01*
X136016424Y-77559393D01*
X136033905Y-77547347D01*
X136052062Y-77535844D01*
X136070864Y-77524857D01*
X136090276Y-77514360D01*
X136130805Y-77494720D01*
X136173388Y-77476705D01*
X136217766Y-77460094D01*
X136263678Y-77444665D01*
X136310862Y-77430199D01*
X136359060Y-77416474D01*
X136383344Y-77408468D01*
X136407947Y-77401040D01*
X136432724Y-77394076D01*
X136457529Y-77387458D01*
X136506648Y-77374802D01*
X136554146Y-77362146D01*
X136646751Y-77330043D01*
X136690275Y-77314223D01*
X136711342Y-77306169D01*
X136731946Y-77297941D01*
X136751553Y-77287949D01*
X136770498Y-77277385D01*
X136788697Y-77266199D01*
X136806068Y-77254340D01*
X136822528Y-77241758D01*
X136837992Y-77228401D01*
X136852379Y-77214220D01*
X136865605Y-77199163D01*
X136871756Y-77191291D01*
X136877586Y-77183181D01*
X136883084Y-77174826D01*
X136888240Y-77166222D01*
X136893043Y-77157360D01*
X136897483Y-77148235D01*
X136901549Y-77138841D01*
X136905232Y-77129170D01*
X136908520Y-77119218D01*
X136911403Y-77108977D01*
X136913872Y-77098442D01*
X136915915Y-77087605D01*
X136917522Y-77076460D01*
X136918683Y-77065002D01*
X136919387Y-77053224D01*
X136919624Y-77041119D01*
X136918876Y-77020548D01*
X136916678Y-77000953D01*
X136913100Y-76982314D01*
X136908212Y-76964610D01*
X136902083Y-76947820D01*
X136894783Y-76931921D01*
X136886382Y-76916893D01*
X136876949Y-76902715D01*
X136866553Y-76889365D01*
X136855265Y-76876823D01*
X136843154Y-76865066D01*
X136830290Y-76854074D01*
X136816742Y-76843825D01*
X136802579Y-76834298D01*
X136787873Y-76825473D01*
X136772692Y-76817326D01*
X136757105Y-76809839D01*
X136741183Y-76802988D01*
X136724995Y-76796753D01*
X136708611Y-76791113D01*
X136675533Y-76781531D01*
X136642505Y-76774072D01*
X136610085Y-76768567D01*
X136578830Y-76764846D01*
X136549297Y-76762737D01*
X136522043Y-76762072D01*
X136482899Y-76763239D01*
X136444342Y-76766780D01*
X136406609Y-76772751D01*
X136369940Y-76781211D01*
X136334573Y-76792217D01*
X136300748Y-76805828D01*
X136284487Y-76813628D01*
X136268702Y-76822102D01*
X136253420Y-76831255D01*
X136238674Y-76841095D01*
X136224492Y-76851630D01*
X136210903Y-76862867D01*
X136197939Y-76874813D01*
X136185629Y-76887475D01*
X136174002Y-76900860D01*
X136163089Y-76914976D01*
X136152920Y-76929830D01*
X136143523Y-76945430D01*
X136134930Y-76961781D01*
X136127169Y-76978892D01*
X136120271Y-76996771D01*
X136114266Y-77015423D01*
X136109183Y-77034856D01*
X136105052Y-77055079D01*
X136101904Y-77076097D01*
X136099767Y-77097918D01*
X135825660Y-77097915D01*
X135828120Y-77061384D01*
X135832234Y-77026323D01*
X135837963Y-76992711D01*
X135845266Y-76960529D01*
X135854105Y-76929755D01*
X135864440Y-76900370D01*
X135876232Y-76872354D01*
X135889441Y-76845685D01*
X135904029Y-76820344D01*
X135919955Y-76796310D01*
X135937181Y-76773563D01*
X135955668Y-76752083D01*
X135975375Y-76731848D01*
X135996263Y-76712840D01*
X136018294Y-76695037D01*
X136041428Y-76678419D01*
X136065625Y-76662966D01*
X136090846Y-76648657D01*
X136117053Y-76635472D01*
X136144204Y-76623392D01*
X136172262Y-76612394D01*
X136201187Y-76602460D01*
X136230939Y-76593568D01*
X136261479Y-76585699D01*
X136292768Y-76578832D01*
X136324766Y-76572946D01*
X136390734Y-76564038D01*
X136459068Y-76558813D01*
X136529452Y-76557107D01*
X136588512Y-76558799D01*
G37*
X137186325Y-77791829D02*
X137183712Y-77826153D01*
X137179599Y-77859217D01*
X137174021Y-77891033D01*
X137167013Y-77921616D01*
X137158608Y-77950977D01*
X137148842Y-77979131D01*
X137137748Y-78006090D01*
X137125360Y-78031868D01*
X137111714Y-78056477D01*
X137096843Y-78079931D01*
X137080783Y-78102243D01*
X137063566Y-78123425D01*
X137045228Y-78143492D01*
X137025803Y-78162456D01*
X137005326Y-78180330D01*
X136983830Y-78197127D01*
X136961350Y-78212861D01*
X136937921Y-78227545D01*
X136913577Y-78241191D01*
X136888351Y-78253813D01*
X136862279Y-78265425D01*
X136835396Y-78276038D01*
X136807734Y-78285666D01*
X136779329Y-78294323D01*
X136750215Y-78302021D01*
X136720427Y-78308773D01*
X136658963Y-78319494D01*
X136595213Y-78326591D01*
X136529452Y-78330168D01*
X136531923Y-78127673D01*
X136567395Y-78124226D01*
X136602360Y-78118509D01*
X136636602Y-78110505D01*
X136669903Y-78100200D01*
X136702047Y-78087580D01*
X136732817Y-78072631D01*
X136761994Y-78055338D01*
X136775918Y-78045807D01*
X136789363Y-78035686D01*
X136802302Y-78024971D01*
X136814706Y-78013661D01*
X136826550Y-78001754D01*
X136837807Y-77989249D01*
X136848448Y-77976143D01*
X136858447Y-77962434D01*
X136867777Y-77948122D01*
X136876411Y-77933204D01*
X136884321Y-77917678D01*
X136891481Y-77901542D01*
X136897863Y-77884795D01*
X136903440Y-77867435D01*
X136908185Y-77849460D01*
X136912071Y-77830868D01*
X136915070Y-77811658D01*
X136917157Y-77791827D01*
X137186325Y-77791829D01*
G36*
X137186325Y-77791829D02*
G01*
X137183712Y-77826153D01*
X137179599Y-77859217D01*
X137174021Y-77891033D01*
X137167013Y-77921616D01*
X137158608Y-77950977D01*
X137148842Y-77979131D01*
X137137748Y-78006090D01*
X137125360Y-78031868D01*
X137111714Y-78056477D01*
X137096843Y-78079931D01*
X137080783Y-78102243D01*
X137063566Y-78123425D01*
X137045228Y-78143492D01*
X137025803Y-78162456D01*
X137005326Y-78180330D01*
X136983830Y-78197127D01*
X136961350Y-78212861D01*
X136937921Y-78227545D01*
X136913577Y-78241191D01*
X136888351Y-78253813D01*
X136862279Y-78265425D01*
X136835396Y-78276038D01*
X136807734Y-78285666D01*
X136779329Y-78294323D01*
X136750215Y-78302021D01*
X136720427Y-78308773D01*
X136658963Y-78319494D01*
X136595213Y-78326591D01*
X136529452Y-78330168D01*
X136531923Y-78127673D01*
X136567395Y-78124226D01*
X136602360Y-78118509D01*
X136636602Y-78110505D01*
X136669903Y-78100200D01*
X136702047Y-78087580D01*
X136732817Y-78072631D01*
X136761994Y-78055338D01*
X136775918Y-78045807D01*
X136789363Y-78035686D01*
X136802302Y-78024971D01*
X136814706Y-78013661D01*
X136826550Y-78001754D01*
X136837807Y-77989249D01*
X136848448Y-77976143D01*
X136858447Y-77962434D01*
X136867777Y-77948122D01*
X136876411Y-77933204D01*
X136884321Y-77917678D01*
X136891481Y-77901542D01*
X136897863Y-77884795D01*
X136903440Y-77867435D01*
X136908185Y-77849460D01*
X136912071Y-77830868D01*
X136915070Y-77811658D01*
X136917157Y-77791827D01*
X137186325Y-77791829D01*
G37*
X128477330Y-76558064D02*
X128526284Y-76560930D01*
X128574040Y-76565684D01*
X128620569Y-76572308D01*
X128665846Y-76580784D01*
X128709841Y-76591094D01*
X128752528Y-76603220D01*
X128793879Y-76617143D01*
X128833866Y-76632847D01*
X128872462Y-76650312D01*
X128909639Y-76669521D01*
X128945369Y-76690455D01*
X128979625Y-76713096D01*
X129012380Y-76737427D01*
X129043605Y-76763429D01*
X129073274Y-76791085D01*
X129101358Y-76820375D01*
X129127830Y-76851282D01*
X129152663Y-76883788D01*
X129175828Y-76917875D01*
X129197299Y-76953525D01*
X129217048Y-76990719D01*
X129235046Y-77029440D01*
X129251267Y-77069669D01*
X129265683Y-77111389D01*
X129278267Y-77154581D01*
X129288990Y-77199227D01*
X129297825Y-77245309D01*
X129304745Y-77292809D01*
X129309722Y-77341709D01*
X129312728Y-77391991D01*
X129313737Y-77443637D01*
X129312736Y-77492850D01*
X129309758Y-77540925D01*
X129304835Y-77587835D01*
X129297999Y-77633557D01*
X129289284Y-77678065D01*
X129278722Y-77721335D01*
X129266348Y-77763342D01*
X129252193Y-77804060D01*
X129236291Y-77843465D01*
X129218675Y-77881532D01*
X129199378Y-77918236D01*
X129178433Y-77953553D01*
X129155872Y-77987457D01*
X129131730Y-78019923D01*
X129106038Y-78050928D01*
X129078830Y-78080445D01*
X129050139Y-78108450D01*
X129019998Y-78134918D01*
X128988440Y-78159824D01*
X128955498Y-78183144D01*
X128921204Y-78204852D01*
X128885593Y-78224924D01*
X128848696Y-78243334D01*
X128810548Y-78260059D01*
X128771180Y-78275072D01*
X128730627Y-78288349D01*
X128688920Y-78299866D01*
X128646093Y-78309597D01*
X128602179Y-78317518D01*
X128557212Y-78323603D01*
X128511223Y-78327828D01*
X128464246Y-78330168D01*
X128464246Y-78078285D01*
X128497646Y-78076233D01*
X128530234Y-78072867D01*
X128561994Y-78068203D01*
X128592908Y-78062258D01*
X128622962Y-78055048D01*
X128652139Y-78046592D01*
X128680422Y-78036904D01*
X128707796Y-78026002D01*
X128734243Y-78013903D01*
X128759748Y-78000624D01*
X128784294Y-77986180D01*
X128807866Y-77970589D01*
X128830446Y-77953868D01*
X128852019Y-77936033D01*
X128872569Y-77917102D01*
X128892078Y-77897090D01*
X128910531Y-77876014D01*
X128927911Y-77853892D01*
X128944203Y-77830740D01*
X128959390Y-77806574D01*
X128973455Y-77781412D01*
X128986382Y-77755270D01*
X128998156Y-77728165D01*
X129008759Y-77700113D01*
X129018176Y-77671132D01*
X129026390Y-77641238D01*
X129033385Y-77610448D01*
X129039145Y-77578778D01*
X129043653Y-77546245D01*
X129046893Y-77512867D01*
X129048850Y-77478659D01*
X129049505Y-77443639D01*
X129048806Y-77407483D01*
X129046722Y-77372185D01*
X129043269Y-77337764D01*
X129038465Y-77304240D01*
X129032328Y-77271631D01*
X129024876Y-77239956D01*
X129016127Y-77209234D01*
X129006097Y-77179484D01*
X128994805Y-77150726D01*
X128982268Y-77122978D01*
X128968503Y-77096259D01*
X128953530Y-77070587D01*
X128937364Y-77045984D01*
X128920024Y-77022466D01*
X128901527Y-77000053D01*
X128881891Y-76978765D01*
X128861134Y-76958619D01*
X128839274Y-76939636D01*
X128816327Y-76921833D01*
X128792311Y-76905231D01*
X128767245Y-76889848D01*
X128741146Y-76875703D01*
X128714031Y-76862814D01*
X128685918Y-76851202D01*
X128656825Y-76840885D01*
X128626769Y-76831882D01*
X128595768Y-76824212D01*
X128563840Y-76817894D01*
X128531002Y-76812947D01*
X128497271Y-76809389D01*
X128462667Y-76807241D01*
X128427205Y-76806521D01*
X128393125Y-76807205D01*
X128359882Y-76809244D01*
X128327490Y-76812619D01*
X128295963Y-76817310D01*
X128265312Y-76823298D01*
X128235552Y-76830564D01*
X128206696Y-76839087D01*
X128178756Y-76848849D01*
X128151745Y-76859830D01*
X128125678Y-76872010D01*
X128100566Y-76885371D01*
X128076423Y-76899892D01*
X128053263Y-76915555D01*
X128031097Y-76932339D01*
X128009940Y-76950226D01*
X127989804Y-76969196D01*
X127970703Y-76989229D01*
X127952650Y-77010307D01*
X127935657Y-77032409D01*
X127919739Y-77055516D01*
X127904907Y-77079609D01*
X127891175Y-77104668D01*
X127878557Y-77130674D01*
X127867065Y-77157607D01*
X127856713Y-77185449D01*
X127847513Y-77214178D01*
X127839478Y-77243777D01*
X127832623Y-77274226D01*
X127826960Y-77305504D01*
X127822501Y-77337594D01*
X127819261Y-77370475D01*
X127817252Y-77404127D01*
X127548082Y-77404125D01*
X127550667Y-77356504D01*
X127555161Y-77309967D01*
X127561533Y-77264542D01*
X127569752Y-77220258D01*
X127579790Y-77177142D01*
X127591615Y-77135222D01*
X127605197Y-77094527D01*
X127620506Y-77055085D01*
X127637512Y-77016923D01*
X127656184Y-76980069D01*
X127676491Y-76944552D01*
X127698405Y-76910400D01*
X127721893Y-76877641D01*
X127746927Y-76846302D01*
X127773476Y-76816412D01*
X127801509Y-76787999D01*
X127830996Y-76761090D01*
X127861907Y-76735715D01*
X127894212Y-76711900D01*
X127927880Y-76689674D01*
X127962881Y-76669065D01*
X127999185Y-76650101D01*
X128036761Y-76632811D01*
X128075579Y-76617221D01*
X128115609Y-76603360D01*
X128156821Y-76591257D01*
X128199183Y-76580938D01*
X128242667Y-76572433D01*
X128287241Y-76565769D01*
X128332876Y-76560975D01*
X128379541Y-76558077D01*
X128427205Y-76557105D01*
X128477330Y-76558064D01*
G36*
X128477330Y-76558064D02*
G01*
X128526284Y-76560930D01*
X128574040Y-76565684D01*
X128620569Y-76572308D01*
X128665846Y-76580784D01*
X128709841Y-76591094D01*
X128752528Y-76603220D01*
X128793879Y-76617143D01*
X128833866Y-76632847D01*
X128872462Y-76650312D01*
X128909639Y-76669521D01*
X128945369Y-76690455D01*
X128979625Y-76713096D01*
X129012380Y-76737427D01*
X129043605Y-76763429D01*
X129073274Y-76791085D01*
X129101358Y-76820375D01*
X129127830Y-76851282D01*
X129152663Y-76883788D01*
X129175828Y-76917875D01*
X129197299Y-76953525D01*
X129217048Y-76990719D01*
X129235046Y-77029440D01*
X129251267Y-77069669D01*
X129265683Y-77111389D01*
X129278267Y-77154581D01*
X129288990Y-77199227D01*
X129297825Y-77245309D01*
X129304745Y-77292809D01*
X129309722Y-77341709D01*
X129312728Y-77391991D01*
X129313737Y-77443637D01*
X129312736Y-77492850D01*
X129309758Y-77540925D01*
X129304835Y-77587835D01*
X129297999Y-77633557D01*
X129289284Y-77678065D01*
X129278722Y-77721335D01*
X129266348Y-77763342D01*
X129252193Y-77804060D01*
X129236291Y-77843465D01*
X129218675Y-77881532D01*
X129199378Y-77918236D01*
X129178433Y-77953553D01*
X129155872Y-77987457D01*
X129131730Y-78019923D01*
X129106038Y-78050928D01*
X129078830Y-78080445D01*
X129050139Y-78108450D01*
X129019998Y-78134918D01*
X128988440Y-78159824D01*
X128955498Y-78183144D01*
X128921204Y-78204852D01*
X128885593Y-78224924D01*
X128848696Y-78243334D01*
X128810548Y-78260059D01*
X128771180Y-78275072D01*
X128730627Y-78288349D01*
X128688920Y-78299866D01*
X128646093Y-78309597D01*
X128602179Y-78317518D01*
X128557212Y-78323603D01*
X128511223Y-78327828D01*
X128464246Y-78330168D01*
X128464246Y-78078285D01*
X128497646Y-78076233D01*
X128530234Y-78072867D01*
X128561994Y-78068203D01*
X128592908Y-78062258D01*
X128622962Y-78055048D01*
X128652139Y-78046592D01*
X128680422Y-78036904D01*
X128707796Y-78026002D01*
X128734243Y-78013903D01*
X128759748Y-78000624D01*
X128784294Y-77986180D01*
X128807866Y-77970589D01*
X128830446Y-77953868D01*
X128852019Y-77936033D01*
X128872569Y-77917102D01*
X128892078Y-77897090D01*
X128910531Y-77876014D01*
X128927911Y-77853892D01*
X128944203Y-77830740D01*
X128959390Y-77806574D01*
X128973455Y-77781412D01*
X128986382Y-77755270D01*
X128998156Y-77728165D01*
X129008759Y-77700113D01*
X129018176Y-77671132D01*
X129026390Y-77641238D01*
X129033385Y-77610448D01*
X129039145Y-77578778D01*
X129043653Y-77546245D01*
X129046893Y-77512867D01*
X129048850Y-77478659D01*
X129049505Y-77443639D01*
X129048806Y-77407483D01*
X129046722Y-77372185D01*
X129043269Y-77337764D01*
X129038465Y-77304240D01*
X129032328Y-77271631D01*
X129024876Y-77239956D01*
X129016127Y-77209234D01*
X129006097Y-77179484D01*
X128994805Y-77150726D01*
X128982268Y-77122978D01*
X128968503Y-77096259D01*
X128953530Y-77070587D01*
X128937364Y-77045984D01*
X128920024Y-77022466D01*
X128901527Y-77000053D01*
X128881891Y-76978765D01*
X128861134Y-76958619D01*
X128839274Y-76939636D01*
X128816327Y-76921833D01*
X128792311Y-76905231D01*
X128767245Y-76889848D01*
X128741146Y-76875703D01*
X128714031Y-76862814D01*
X128685918Y-76851202D01*
X128656825Y-76840885D01*
X128626769Y-76831882D01*
X128595768Y-76824212D01*
X128563840Y-76817894D01*
X128531002Y-76812947D01*
X128497271Y-76809389D01*
X128462667Y-76807241D01*
X128427205Y-76806521D01*
X128393125Y-76807205D01*
X128359882Y-76809244D01*
X128327490Y-76812619D01*
X128295963Y-76817310D01*
X128265312Y-76823298D01*
X128235552Y-76830564D01*
X128206696Y-76839087D01*
X128178756Y-76848849D01*
X128151745Y-76859830D01*
X128125678Y-76872010D01*
X128100566Y-76885371D01*
X128076423Y-76899892D01*
X128053263Y-76915555D01*
X128031097Y-76932339D01*
X128009940Y-76950226D01*
X127989804Y-76969196D01*
X127970703Y-76989229D01*
X127952650Y-77010307D01*
X127935657Y-77032409D01*
X127919739Y-77055516D01*
X127904907Y-77079609D01*
X127891175Y-77104668D01*
X127878557Y-77130674D01*
X127867065Y-77157607D01*
X127856713Y-77185449D01*
X127847513Y-77214178D01*
X127839478Y-77243777D01*
X127832623Y-77274226D01*
X127826960Y-77305504D01*
X127822501Y-77337594D01*
X127819261Y-77370475D01*
X127817252Y-77404127D01*
X127548082Y-77404125D01*
X127550667Y-77356504D01*
X127555161Y-77309967D01*
X127561533Y-77264542D01*
X127569752Y-77220258D01*
X127579790Y-77177142D01*
X127591615Y-77135222D01*
X127605197Y-77094527D01*
X127620506Y-77055085D01*
X127637512Y-77016923D01*
X127656184Y-76980069D01*
X127676491Y-76944552D01*
X127698405Y-76910400D01*
X127721893Y-76877641D01*
X127746927Y-76846302D01*
X127773476Y-76816412D01*
X127801509Y-76787999D01*
X127830996Y-76761090D01*
X127861907Y-76735715D01*
X127894212Y-76711900D01*
X127927880Y-76689674D01*
X127962881Y-76669065D01*
X127999185Y-76650101D01*
X128036761Y-76632811D01*
X128075579Y-76617221D01*
X128115609Y-76603360D01*
X128156821Y-76591257D01*
X128199183Y-76580938D01*
X128242667Y-76572433D01*
X128287241Y-76565769D01*
X128332876Y-76560975D01*
X128379541Y-76558077D01*
X128427205Y-76557105D01*
X128477330Y-76558064D01*
G37*
X140396605Y-78305473D02*
X139070512Y-78305473D01*
X139070512Y-78046182D01*
X140396605Y-78046182D01*
X140396605Y-78305473D01*
G36*
X140396605Y-78305473D02*
G01*
X139070512Y-78305473D01*
X139070512Y-78046182D01*
X140396605Y-78046182D01*
X140396605Y-78305473D01*
G37*
X134348931Y-77411536D02*
X134092109Y-77781951D01*
X134092109Y-76581800D01*
X134348931Y-76581800D01*
X134348931Y-77411536D01*
G36*
X134348931Y-77411536D02*
G01*
X134092109Y-77781951D01*
X134092109Y-76581800D01*
X134348931Y-76581800D01*
X134348931Y-77411536D01*
G37*
X131059633Y-78305473D02*
X130810219Y-78305473D01*
X130802811Y-76984319D01*
X129889116Y-78305473D01*
X129629825Y-78305473D01*
X130785525Y-76581800D01*
X131059633Y-76581800D01*
X131059633Y-78305473D01*
G36*
X131059633Y-78305473D02*
G01*
X130810219Y-78305473D01*
X130802811Y-76984319D01*
X129889116Y-78305473D01*
X129629825Y-78305473D01*
X130785525Y-76581800D01*
X131059633Y-76581800D01*
X131059633Y-78305473D01*
G37*
X132959370Y-76558064D02*
X133008324Y-76560930D01*
X133056080Y-76565684D01*
X133102610Y-76572308D01*
X133147886Y-76580784D01*
X133191882Y-76591094D01*
X133234569Y-76603220D01*
X133275920Y-76617143D01*
X133315907Y-76632847D01*
X133354503Y-76650312D01*
X133391679Y-76669521D01*
X133427410Y-76690455D01*
X133461666Y-76713096D01*
X133494421Y-76737427D01*
X133525646Y-76763429D01*
X133555314Y-76791085D01*
X133583399Y-76820375D01*
X133609871Y-76851282D01*
X133634703Y-76883788D01*
X133657869Y-76917875D01*
X133679340Y-76953525D01*
X133699088Y-76990719D01*
X133717086Y-77029440D01*
X133733307Y-77069669D01*
X133747723Y-77111389D01*
X133760307Y-77154581D01*
X133771030Y-77199227D01*
X133779865Y-77245309D01*
X133786785Y-77292809D01*
X133791762Y-77341709D01*
X133794768Y-77391991D01*
X133795777Y-77443637D01*
X133794777Y-77492850D01*
X133791798Y-77540925D01*
X133786875Y-77587835D01*
X133780039Y-77633557D01*
X133771324Y-77678065D01*
X133760762Y-77721335D01*
X133748388Y-77763342D01*
X133734233Y-77804060D01*
X133718332Y-77843465D01*
X133700716Y-77881532D01*
X133681418Y-77918236D01*
X133660473Y-77953553D01*
X133637913Y-77987457D01*
X133613770Y-78019923D01*
X133588078Y-78050928D01*
X133560870Y-78080445D01*
X133532179Y-78108450D01*
X133502038Y-78134918D01*
X133470480Y-78159824D01*
X133437538Y-78183144D01*
X133403244Y-78204852D01*
X133367633Y-78224924D01*
X133330736Y-78243334D01*
X133292588Y-78260059D01*
X133253220Y-78275072D01*
X133212667Y-78288349D01*
X133170960Y-78299866D01*
X133128133Y-78309597D01*
X133084220Y-78317518D01*
X133039252Y-78323603D01*
X132993263Y-78327828D01*
X132946287Y-78330168D01*
X132946287Y-78078285D01*
X132979686Y-78076233D01*
X133012274Y-78072867D01*
X133044034Y-78068203D01*
X133074949Y-78062258D01*
X133105002Y-78055048D01*
X133134179Y-78046592D01*
X133162462Y-78036904D01*
X133189836Y-78026002D01*
X133216283Y-78013903D01*
X133241788Y-78000624D01*
X133266335Y-77986180D01*
X133289906Y-77970589D01*
X133312487Y-77953868D01*
X133334059Y-77936033D01*
X133354609Y-77917102D01*
X133374118Y-77897090D01*
X133392571Y-77876014D01*
X133409952Y-77853892D01*
X133426243Y-77830740D01*
X133441430Y-77806574D01*
X133455495Y-77781412D01*
X133468422Y-77755270D01*
X133480196Y-77728165D01*
X133490799Y-77700113D01*
X133500216Y-77671132D01*
X133508430Y-77641238D01*
X133515425Y-77610448D01*
X133521185Y-77578778D01*
X133525693Y-77546245D01*
X133528934Y-77512867D01*
X133530890Y-77478659D01*
X133531545Y-77443639D01*
X133530846Y-77407483D01*
X133528762Y-77372185D01*
X133525309Y-77337764D01*
X133520505Y-77304240D01*
X133514369Y-77271631D01*
X133506917Y-77239956D01*
X133498167Y-77209234D01*
X133488137Y-77179484D01*
X133476845Y-77150726D01*
X133464308Y-77122978D01*
X133450543Y-77096259D01*
X133435570Y-77070587D01*
X133419404Y-77045984D01*
X133402064Y-77022466D01*
X133383567Y-77000053D01*
X133363931Y-76978765D01*
X133343174Y-76958619D01*
X133321314Y-76939636D01*
X133298367Y-76921833D01*
X133274351Y-76905231D01*
X133249285Y-76889848D01*
X133223186Y-76875703D01*
X133196071Y-76862814D01*
X133167958Y-76851202D01*
X133138864Y-76840885D01*
X133108808Y-76831882D01*
X133077807Y-76824212D01*
X133045879Y-76817894D01*
X133013041Y-76812947D01*
X132979311Y-76809389D01*
X132944706Y-76807241D01*
X132909244Y-76806521D01*
X132875164Y-76807205D01*
X132841921Y-76809244D01*
X132809529Y-76812619D01*
X132778002Y-76817310D01*
X132747351Y-76823298D01*
X132717591Y-76830564D01*
X132688735Y-76839087D01*
X132660795Y-76848849D01*
X132633784Y-76859830D01*
X132607717Y-76872010D01*
X132582605Y-76885371D01*
X132558462Y-76899892D01*
X132535302Y-76915555D01*
X132513136Y-76932339D01*
X132491979Y-76950226D01*
X132471844Y-76969196D01*
X132452743Y-76989229D01*
X132434689Y-77010307D01*
X132417697Y-77032409D01*
X132401778Y-77055516D01*
X132386946Y-77079609D01*
X132373215Y-77104668D01*
X132360597Y-77130674D01*
X132349105Y-77157607D01*
X132338752Y-77185449D01*
X132329552Y-77214178D01*
X132321518Y-77243777D01*
X132314663Y-77274226D01*
X132308999Y-77305504D01*
X132304541Y-77337594D01*
X132301301Y-77370475D01*
X132299292Y-77404127D01*
X132030123Y-77404125D01*
X132032708Y-77356504D01*
X132037202Y-77309967D01*
X132043574Y-77264542D01*
X132051794Y-77220258D01*
X132061831Y-77177142D01*
X132073656Y-77135222D01*
X132087238Y-77094527D01*
X132102547Y-77055085D01*
X132119553Y-77016923D01*
X132138225Y-76980069D01*
X132158532Y-76944552D01*
X132180446Y-76910400D01*
X132203935Y-76877641D01*
X132228968Y-76846302D01*
X132255517Y-76816412D01*
X132283550Y-76787999D01*
X132313037Y-76761090D01*
X132343948Y-76735715D01*
X132376253Y-76711900D01*
X132409921Y-76689674D01*
X132444922Y-76669065D01*
X132481226Y-76650101D01*
X132518802Y-76632811D01*
X132557620Y-76617221D01*
X132597650Y-76603360D01*
X132638861Y-76591257D01*
X132681224Y-76580938D01*
X132724708Y-76572433D01*
X132769282Y-76565769D01*
X132814916Y-76560975D01*
X132861581Y-76558077D01*
X132909245Y-76557105D01*
X132959370Y-76558064D01*
G36*
X132959370Y-76558064D02*
G01*
X133008324Y-76560930D01*
X133056080Y-76565684D01*
X133102610Y-76572308D01*
X133147886Y-76580784D01*
X133191882Y-76591094D01*
X133234569Y-76603220D01*
X133275920Y-76617143D01*
X133315907Y-76632847D01*
X133354503Y-76650312D01*
X133391679Y-76669521D01*
X133427410Y-76690455D01*
X133461666Y-76713096D01*
X133494421Y-76737427D01*
X133525646Y-76763429D01*
X133555314Y-76791085D01*
X133583399Y-76820375D01*
X133609871Y-76851282D01*
X133634703Y-76883788D01*
X133657869Y-76917875D01*
X133679340Y-76953525D01*
X133699088Y-76990719D01*
X133717086Y-77029440D01*
X133733307Y-77069669D01*
X133747723Y-77111389D01*
X133760307Y-77154581D01*
X133771030Y-77199227D01*
X133779865Y-77245309D01*
X133786785Y-77292809D01*
X133791762Y-77341709D01*
X133794768Y-77391991D01*
X133795777Y-77443637D01*
X133794777Y-77492850D01*
X133791798Y-77540925D01*
X133786875Y-77587835D01*
X133780039Y-77633557D01*
X133771324Y-77678065D01*
X133760762Y-77721335D01*
X133748388Y-77763342D01*
X133734233Y-77804060D01*
X133718332Y-77843465D01*
X133700716Y-77881532D01*
X133681418Y-77918236D01*
X133660473Y-77953553D01*
X133637913Y-77987457D01*
X133613770Y-78019923D01*
X133588078Y-78050928D01*
X133560870Y-78080445D01*
X133532179Y-78108450D01*
X133502038Y-78134918D01*
X133470480Y-78159824D01*
X133437538Y-78183144D01*
X133403244Y-78204852D01*
X133367633Y-78224924D01*
X133330736Y-78243334D01*
X133292588Y-78260059D01*
X133253220Y-78275072D01*
X133212667Y-78288349D01*
X133170960Y-78299866D01*
X133128133Y-78309597D01*
X133084220Y-78317518D01*
X133039252Y-78323603D01*
X132993263Y-78327828D01*
X132946287Y-78330168D01*
X132946287Y-78078285D01*
X132979686Y-78076233D01*
X133012274Y-78072867D01*
X133044034Y-78068203D01*
X133074949Y-78062258D01*
X133105002Y-78055048D01*
X133134179Y-78046592D01*
X133162462Y-78036904D01*
X133189836Y-78026002D01*
X133216283Y-78013903D01*
X133241788Y-78000624D01*
X133266335Y-77986180D01*
X133289906Y-77970589D01*
X133312487Y-77953868D01*
X133334059Y-77936033D01*
X133354609Y-77917102D01*
X133374118Y-77897090D01*
X133392571Y-77876014D01*
X133409952Y-77853892D01*
X133426243Y-77830740D01*
X133441430Y-77806574D01*
X133455495Y-77781412D01*
X133468422Y-77755270D01*
X133480196Y-77728165D01*
X133490799Y-77700113D01*
X133500216Y-77671132D01*
X133508430Y-77641238D01*
X133515425Y-77610448D01*
X133521185Y-77578778D01*
X133525693Y-77546245D01*
X133528934Y-77512867D01*
X133530890Y-77478659D01*
X133531545Y-77443639D01*
X133530846Y-77407483D01*
X133528762Y-77372185D01*
X133525309Y-77337764D01*
X133520505Y-77304240D01*
X133514369Y-77271631D01*
X133506917Y-77239956D01*
X133498167Y-77209234D01*
X133488137Y-77179484D01*
X133476845Y-77150726D01*
X133464308Y-77122978D01*
X133450543Y-77096259D01*
X133435570Y-77070587D01*
X133419404Y-77045984D01*
X133402064Y-77022466D01*
X133383567Y-77000053D01*
X133363931Y-76978765D01*
X133343174Y-76958619D01*
X133321314Y-76939636D01*
X133298367Y-76921833D01*
X133274351Y-76905231D01*
X133249285Y-76889848D01*
X133223186Y-76875703D01*
X133196071Y-76862814D01*
X133167958Y-76851202D01*
X133138864Y-76840885D01*
X133108808Y-76831882D01*
X133077807Y-76824212D01*
X133045879Y-76817894D01*
X133013041Y-76812947D01*
X132979311Y-76809389D01*
X132944706Y-76807241D01*
X132909244Y-76806521D01*
X132875164Y-76807205D01*
X132841921Y-76809244D01*
X132809529Y-76812619D01*
X132778002Y-76817310D01*
X132747351Y-76823298D01*
X132717591Y-76830564D01*
X132688735Y-76839087D01*
X132660795Y-76848849D01*
X132633784Y-76859830D01*
X132607717Y-76872010D01*
X132582605Y-76885371D01*
X132558462Y-76899892D01*
X132535302Y-76915555D01*
X132513136Y-76932339D01*
X132491979Y-76950226D01*
X132471844Y-76969196D01*
X132452743Y-76989229D01*
X132434689Y-77010307D01*
X132417697Y-77032409D01*
X132401778Y-77055516D01*
X132386946Y-77079609D01*
X132373215Y-77104668D01*
X132360597Y-77130674D01*
X132349105Y-77157607D01*
X132338752Y-77185449D01*
X132329552Y-77214178D01*
X132321518Y-77243777D01*
X132314663Y-77274226D01*
X132308999Y-77305504D01*
X132304541Y-77337594D01*
X132301301Y-77370475D01*
X132299292Y-77404127D01*
X132030123Y-77404125D01*
X132032708Y-77356504D01*
X132037202Y-77309967D01*
X132043574Y-77264542D01*
X132051794Y-77220258D01*
X132061831Y-77177142D01*
X132073656Y-77135222D01*
X132087238Y-77094527D01*
X132102547Y-77055085D01*
X132119553Y-77016923D01*
X132138225Y-76980069D01*
X132158532Y-76944552D01*
X132180446Y-76910400D01*
X132203935Y-76877641D01*
X132228968Y-76846302D01*
X132255517Y-76816412D01*
X132283550Y-76787999D01*
X132313037Y-76761090D01*
X132343948Y-76735715D01*
X132376253Y-76711900D01*
X132409921Y-76689674D01*
X132444922Y-76669065D01*
X132481226Y-76650101D01*
X132518802Y-76632811D01*
X132557620Y-76617221D01*
X132597650Y-76603360D01*
X132638861Y-76591257D01*
X132681224Y-76580938D01*
X132724708Y-76572433D01*
X132769282Y-76565769D01*
X132814916Y-76560975D01*
X132861581Y-76558077D01*
X132909245Y-76557105D01*
X132959370Y-76558064D01*
G37*
X138124713Y-78090632D02*
X138139530Y-78090632D01*
X138675400Y-76581800D01*
X138984081Y-76581800D01*
X138322270Y-78305473D01*
X137941975Y-78305473D01*
X137334492Y-76581800D01*
X137623417Y-76581800D01*
X138124713Y-78090632D01*
G36*
X138124713Y-78090632D02*
G01*
X138139530Y-78090632D01*
X138675400Y-76581800D01*
X138984081Y-76581800D01*
X138322270Y-78305473D01*
X137941975Y-78305473D01*
X137334492Y-76581800D01*
X137623417Y-76581800D01*
X138124713Y-78090632D01*
G37*
X135541674Y-78305473D02*
X135292261Y-78305473D01*
X135284852Y-76984319D01*
X134371158Y-78305473D01*
X134111866Y-78305473D01*
X135267566Y-76581800D01*
X135541674Y-76581800D01*
X135541674Y-78305473D01*
G36*
X135541674Y-78305473D02*
G01*
X135292261Y-78305473D01*
X135284852Y-76984319D01*
X134371158Y-78305473D01*
X134111866Y-78305473D01*
X135267566Y-76581800D01*
X135541674Y-76581800D01*
X135541674Y-78305473D01*
G37*
X139868143Y-77739970D02*
X139603912Y-77739970D01*
X139603912Y-76581800D01*
X139868143Y-76581800D01*
X139868143Y-77739970D01*
G36*
X139868143Y-77739970D02*
G01*
X139603912Y-77739970D01*
X139603912Y-76581800D01*
X139868143Y-76581800D01*
X139868143Y-77739970D01*
G37*
X131706628Y-78305475D02*
X131437458Y-78305475D01*
X131437458Y-78105449D01*
X131706628Y-78105449D01*
X131706628Y-78305475D01*
G36*
X131706628Y-78305475D02*
G01*
X131437458Y-78305475D01*
X131437458Y-78105449D01*
X131706628Y-78105449D01*
X131706628Y-78305475D01*
G37*
X131704158Y-77791829D02*
X131437458Y-77791829D01*
X131437458Y-76581800D01*
X131704158Y-76581800D01*
X131704158Y-77791829D01*
G36*
X131704158Y-77791829D02*
G01*
X131437458Y-77791829D01*
X131437458Y-76581800D01*
X131704158Y-76581800D01*
X131704158Y-77791829D01*
G37*
D11*
X131217581Y-73263584D02*
X131217581Y-73696917D01*
X131217581Y-73573108D02*
X131248534Y-73635013D01*
X131248534Y-73635013D02*
X131279486Y-73665965D01*
X131279486Y-73665965D02*
X131341391Y-73696917D01*
X131341391Y-73696917D02*
X131403296Y-73696917D01*
X131867581Y-73294537D02*
X131805677Y-73263584D01*
X131805677Y-73263584D02*
X131681867Y-73263584D01*
X131681867Y-73263584D02*
X131619962Y-73294537D01*
X131619962Y-73294537D02*
X131589010Y-73356441D01*
X131589010Y-73356441D02*
X131589010Y-73604060D01*
X131589010Y-73604060D02*
X131619962Y-73665965D01*
X131619962Y-73665965D02*
X131681867Y-73696917D01*
X131681867Y-73696917D02*
X131805677Y-73696917D01*
X131805677Y-73696917D02*
X131867581Y-73665965D01*
X131867581Y-73665965D02*
X131898534Y-73604060D01*
X131898534Y-73604060D02*
X131898534Y-73542156D01*
X131898534Y-73542156D02*
X131589010Y-73480251D01*
X132115201Y-73696917D02*
X132269963Y-73263584D01*
X132269963Y-73263584D02*
X132424724Y-73696917D01*
X132672343Y-73263584D02*
X132672343Y-73696917D01*
X132672343Y-73913584D02*
X132641391Y-73882632D01*
X132641391Y-73882632D02*
X132672343Y-73851679D01*
X132672343Y-73851679D02*
X132703296Y-73882632D01*
X132703296Y-73882632D02*
X132672343Y-73913584D01*
X132672343Y-73913584D02*
X132672343Y-73851679D01*
X132950915Y-73294537D02*
X133012820Y-73263584D01*
X133012820Y-73263584D02*
X133136629Y-73263584D01*
X133136629Y-73263584D02*
X133198534Y-73294537D01*
X133198534Y-73294537D02*
X133229486Y-73356441D01*
X133229486Y-73356441D02*
X133229486Y-73387394D01*
X133229486Y-73387394D02*
X133198534Y-73449298D01*
X133198534Y-73449298D02*
X133136629Y-73480251D01*
X133136629Y-73480251D02*
X133043772Y-73480251D01*
X133043772Y-73480251D02*
X132981867Y-73511203D01*
X132981867Y-73511203D02*
X132950915Y-73573108D01*
X132950915Y-73573108D02*
X132950915Y-73604060D01*
X132950915Y-73604060D02*
X132981867Y-73665965D01*
X132981867Y-73665965D02*
X133043772Y-73696917D01*
X133043772Y-73696917D02*
X133136629Y-73696917D01*
X133136629Y-73696917D02*
X133198534Y-73665965D01*
X133508057Y-73263584D02*
X133508057Y-73696917D01*
X133508057Y-73913584D02*
X133477105Y-73882632D01*
X133477105Y-73882632D02*
X133508057Y-73851679D01*
X133508057Y-73851679D02*
X133539010Y-73882632D01*
X133539010Y-73882632D02*
X133508057Y-73913584D01*
X133508057Y-73913584D02*
X133508057Y-73851679D01*
X133910439Y-73263584D02*
X133848534Y-73294537D01*
X133848534Y-73294537D02*
X133817581Y-73325489D01*
X133817581Y-73325489D02*
X133786629Y-73387394D01*
X133786629Y-73387394D02*
X133786629Y-73573108D01*
X133786629Y-73573108D02*
X133817581Y-73635013D01*
X133817581Y-73635013D02*
X133848534Y-73665965D01*
X133848534Y-73665965D02*
X133910439Y-73696917D01*
X133910439Y-73696917D02*
X134003296Y-73696917D01*
X134003296Y-73696917D02*
X134065200Y-73665965D01*
X134065200Y-73665965D02*
X134096153Y-73635013D01*
X134096153Y-73635013D02*
X134127105Y-73573108D01*
X134127105Y-73573108D02*
X134127105Y-73387394D01*
X134127105Y-73387394D02*
X134096153Y-73325489D01*
X134096153Y-73325489D02*
X134065200Y-73294537D01*
X134065200Y-73294537D02*
X134003296Y-73263584D01*
X134003296Y-73263584D02*
X133910439Y-73263584D01*
X134405676Y-73696917D02*
X134405676Y-73263584D01*
X134405676Y-73635013D02*
X134436629Y-73665965D01*
X134436629Y-73665965D02*
X134498534Y-73696917D01*
X134498534Y-73696917D02*
X134591391Y-73696917D01*
X134591391Y-73696917D02*
X134653295Y-73665965D01*
X134653295Y-73665965D02*
X134684248Y-73604060D01*
X134684248Y-73604060D02*
X134684248Y-73263584D01*
X135829486Y-73263584D02*
X135458057Y-73263584D01*
X135643771Y-73263584D02*
X135643771Y-73913584D01*
X135643771Y-73913584D02*
X135581867Y-73820727D01*
X135581867Y-73820727D02*
X135519962Y-73758822D01*
X135519962Y-73758822D02*
X135458057Y-73727870D01*
X136108057Y-73325489D02*
X136139010Y-73294537D01*
X136139010Y-73294537D02*
X136108057Y-73263584D01*
X136108057Y-73263584D02*
X136077105Y-73294537D01*
X136077105Y-73294537D02*
X136108057Y-73325489D01*
X136108057Y-73325489D02*
X136108057Y-73263584D01*
X136541391Y-73913584D02*
X136603296Y-73913584D01*
X136603296Y-73913584D02*
X136665200Y-73882632D01*
X136665200Y-73882632D02*
X136696153Y-73851679D01*
X136696153Y-73851679D02*
X136727105Y-73789775D01*
X136727105Y-73789775D02*
X136758058Y-73665965D01*
X136758058Y-73665965D02*
X136758058Y-73511203D01*
X136758058Y-73511203D02*
X136727105Y-73387394D01*
X136727105Y-73387394D02*
X136696153Y-73325489D01*
X136696153Y-73325489D02*
X136665200Y-73294537D01*
X136665200Y-73294537D02*
X136603296Y-73263584D01*
X136603296Y-73263584D02*
X136541391Y-73263584D01*
X136541391Y-73263584D02*
X136479486Y-73294537D01*
X136479486Y-73294537D02*
X136448534Y-73325489D01*
X136448534Y-73325489D02*
X136417581Y-73387394D01*
X136417581Y-73387394D02*
X136386629Y-73511203D01*
X136386629Y-73511203D02*
X136386629Y-73665965D01*
X136386629Y-73665965D02*
X136417581Y-73789775D01*
X136417581Y-73789775D02*
X136448534Y-73851679D01*
X136448534Y-73851679D02*
X136479486Y-73882632D01*
X136479486Y-73882632D02*
X136541391Y-73913584D01*
D12*
X128031890Y-75638704D02*
X128160462Y-75595847D01*
X128160462Y-75595847D02*
X128203319Y-75552990D01*
X128203319Y-75552990D02*
X128246176Y-75467275D01*
X128246176Y-75467275D02*
X128246176Y-75338704D01*
X128246176Y-75338704D02*
X128203319Y-75252990D01*
X128203319Y-75252990D02*
X128160462Y-75210133D01*
X128160462Y-75210133D02*
X128074747Y-75167275D01*
X128074747Y-75167275D02*
X127731890Y-75167275D01*
X127731890Y-75167275D02*
X127731890Y-76067275D01*
X127731890Y-76067275D02*
X128031890Y-76067275D01*
X128031890Y-76067275D02*
X128117605Y-76024418D01*
X128117605Y-76024418D02*
X128160462Y-75981561D01*
X128160462Y-75981561D02*
X128203319Y-75895847D01*
X128203319Y-75895847D02*
X128203319Y-75810133D01*
X128203319Y-75810133D02*
X128160462Y-75724418D01*
X128160462Y-75724418D02*
X128117605Y-75681561D01*
X128117605Y-75681561D02*
X128031890Y-75638704D01*
X128031890Y-75638704D02*
X127731890Y-75638704D01*
X129017605Y-75167275D02*
X129017605Y-75638704D01*
X129017605Y-75638704D02*
X128974747Y-75724418D01*
X128974747Y-75724418D02*
X128889033Y-75767275D01*
X128889033Y-75767275D02*
X128717605Y-75767275D01*
X128717605Y-75767275D02*
X128631890Y-75724418D01*
X129017605Y-75210133D02*
X128931890Y-75167275D01*
X128931890Y-75167275D02*
X128717605Y-75167275D01*
X128717605Y-75167275D02*
X128631890Y-75210133D01*
X128631890Y-75210133D02*
X128589033Y-75295847D01*
X128589033Y-75295847D02*
X128589033Y-75381561D01*
X128589033Y-75381561D02*
X128631890Y-75467275D01*
X128631890Y-75467275D02*
X128717605Y-75510133D01*
X128717605Y-75510133D02*
X128931890Y-75510133D01*
X128931890Y-75510133D02*
X129017605Y-75552990D01*
X129317605Y-75767275D02*
X129660462Y-75767275D01*
X129446176Y-76067275D02*
X129446176Y-75295847D01*
X129446176Y-75295847D02*
X129489033Y-75210133D01*
X129489033Y-75210133D02*
X129574748Y-75167275D01*
X129574748Y-75167275D02*
X129660462Y-75167275D01*
X129831891Y-75767275D02*
X130174748Y-75767275D01*
X129960462Y-76067275D02*
X129960462Y-75295847D01*
X129960462Y-75295847D02*
X130003319Y-75210133D01*
X130003319Y-75210133D02*
X130089034Y-75167275D01*
X130089034Y-75167275D02*
X130174748Y-75167275D01*
X130817605Y-75210133D02*
X130731891Y-75167275D01*
X130731891Y-75167275D02*
X130560463Y-75167275D01*
X130560463Y-75167275D02*
X130474748Y-75210133D01*
X130474748Y-75210133D02*
X130431891Y-75295847D01*
X130431891Y-75295847D02*
X130431891Y-75638704D01*
X130431891Y-75638704D02*
X130474748Y-75724418D01*
X130474748Y-75724418D02*
X130560463Y-75767275D01*
X130560463Y-75767275D02*
X130731891Y-75767275D01*
X130731891Y-75767275D02*
X130817605Y-75724418D01*
X130817605Y-75724418D02*
X130860463Y-75638704D01*
X130860463Y-75638704D02*
X130860463Y-75552990D01*
X130860463Y-75552990D02*
X130431891Y-75467275D01*
X131246177Y-75167275D02*
X131246177Y-75767275D01*
X131246177Y-75595847D02*
X131289034Y-75681561D01*
X131289034Y-75681561D02*
X131331892Y-75724418D01*
X131331892Y-75724418D02*
X131417606Y-75767275D01*
X131417606Y-75767275D02*
X131503320Y-75767275D01*
X131717606Y-75767275D02*
X131931892Y-75167275D01*
X132146177Y-75767275D02*
X131931892Y-75167275D01*
X131931892Y-75167275D02*
X131846177Y-74952990D01*
X131846177Y-74952990D02*
X131803320Y-74910133D01*
X131803320Y-74910133D02*
X131717606Y-74867275D01*
X133689034Y-75252990D02*
X133646177Y-75210133D01*
X133646177Y-75210133D02*
X133517605Y-75167275D01*
X133517605Y-75167275D02*
X133431891Y-75167275D01*
X133431891Y-75167275D02*
X133303320Y-75210133D01*
X133303320Y-75210133D02*
X133217605Y-75295847D01*
X133217605Y-75295847D02*
X133174748Y-75381561D01*
X133174748Y-75381561D02*
X133131891Y-75552990D01*
X133131891Y-75552990D02*
X133131891Y-75681561D01*
X133131891Y-75681561D02*
X133174748Y-75852990D01*
X133174748Y-75852990D02*
X133217605Y-75938704D01*
X133217605Y-75938704D02*
X133303320Y-76024418D01*
X133303320Y-76024418D02*
X133431891Y-76067275D01*
X133431891Y-76067275D02*
X133517605Y-76067275D01*
X133517605Y-76067275D02*
X133646177Y-76024418D01*
X133646177Y-76024418D02*
X133689034Y-75981561D01*
X134203320Y-75167275D02*
X134117605Y-75210133D01*
X134117605Y-75210133D02*
X134074748Y-75252990D01*
X134074748Y-75252990D02*
X134031891Y-75338704D01*
X134031891Y-75338704D02*
X134031891Y-75595847D01*
X134031891Y-75595847D02*
X134074748Y-75681561D01*
X134074748Y-75681561D02*
X134117605Y-75724418D01*
X134117605Y-75724418D02*
X134203320Y-75767275D01*
X134203320Y-75767275D02*
X134331891Y-75767275D01*
X134331891Y-75767275D02*
X134417605Y-75724418D01*
X134417605Y-75724418D02*
X134460463Y-75681561D01*
X134460463Y-75681561D02*
X134503320Y-75595847D01*
X134503320Y-75595847D02*
X134503320Y-75338704D01*
X134503320Y-75338704D02*
X134460463Y-75252990D01*
X134460463Y-75252990D02*
X134417605Y-75210133D01*
X134417605Y-75210133D02*
X134331891Y-75167275D01*
X134331891Y-75167275D02*
X134203320Y-75167275D01*
X134889034Y-75767275D02*
X134889034Y-75167275D01*
X134889034Y-75681561D02*
X134931891Y-75724418D01*
X134931891Y-75724418D02*
X135017606Y-75767275D01*
X135017606Y-75767275D02*
X135146177Y-75767275D01*
X135146177Y-75767275D02*
X135231891Y-75724418D01*
X135231891Y-75724418D02*
X135274749Y-75638704D01*
X135274749Y-75638704D02*
X135274749Y-75167275D01*
X135703320Y-75767275D02*
X135703320Y-75167275D01*
X135703320Y-75681561D02*
X135746177Y-75724418D01*
X135746177Y-75724418D02*
X135831892Y-75767275D01*
X135831892Y-75767275D02*
X135960463Y-75767275D01*
X135960463Y-75767275D02*
X136046177Y-75724418D01*
X136046177Y-75724418D02*
X136089035Y-75638704D01*
X136089035Y-75638704D02*
X136089035Y-75167275D01*
X136860463Y-75210133D02*
X136774749Y-75167275D01*
X136774749Y-75167275D02*
X136603321Y-75167275D01*
X136603321Y-75167275D02*
X136517606Y-75210133D01*
X136517606Y-75210133D02*
X136474749Y-75295847D01*
X136474749Y-75295847D02*
X136474749Y-75638704D01*
X136474749Y-75638704D02*
X136517606Y-75724418D01*
X136517606Y-75724418D02*
X136603321Y-75767275D01*
X136603321Y-75767275D02*
X136774749Y-75767275D01*
X136774749Y-75767275D02*
X136860463Y-75724418D01*
X136860463Y-75724418D02*
X136903321Y-75638704D01*
X136903321Y-75638704D02*
X136903321Y-75552990D01*
X136903321Y-75552990D02*
X136474749Y-75467275D01*
X137674750Y-75210133D02*
X137589035Y-75167275D01*
X137589035Y-75167275D02*
X137417607Y-75167275D01*
X137417607Y-75167275D02*
X137331892Y-75210133D01*
X137331892Y-75210133D02*
X137289035Y-75252990D01*
X137289035Y-75252990D02*
X137246178Y-75338704D01*
X137246178Y-75338704D02*
X137246178Y-75595847D01*
X137246178Y-75595847D02*
X137289035Y-75681561D01*
X137289035Y-75681561D02*
X137331892Y-75724418D01*
X137331892Y-75724418D02*
X137417607Y-75767275D01*
X137417607Y-75767275D02*
X137589035Y-75767275D01*
X137589035Y-75767275D02*
X137674750Y-75724418D01*
X137931893Y-75767275D02*
X138274750Y-75767275D01*
X138060464Y-76067275D02*
X138060464Y-75295847D01*
X138060464Y-75295847D02*
X138103321Y-75210133D01*
X138103321Y-75210133D02*
X138189036Y-75167275D01*
X138189036Y-75167275D02*
X138274750Y-75167275D01*
X138574750Y-75167275D02*
X138574750Y-75767275D01*
X138574750Y-76067275D02*
X138531893Y-76024418D01*
X138531893Y-76024418D02*
X138574750Y-75981561D01*
X138574750Y-75981561D02*
X138617607Y-76024418D01*
X138617607Y-76024418D02*
X138574750Y-76067275D01*
X138574750Y-76067275D02*
X138574750Y-75981561D01*
X139131893Y-75167275D02*
X139046178Y-75210133D01*
X139046178Y-75210133D02*
X139003321Y-75252990D01*
X139003321Y-75252990D02*
X138960464Y-75338704D01*
X138960464Y-75338704D02*
X138960464Y-75595847D01*
X138960464Y-75595847D02*
X139003321Y-75681561D01*
X139003321Y-75681561D02*
X139046178Y-75724418D01*
X139046178Y-75724418D02*
X139131893Y-75767275D01*
X139131893Y-75767275D02*
X139260464Y-75767275D01*
X139260464Y-75767275D02*
X139346178Y-75724418D01*
X139346178Y-75724418D02*
X139389036Y-75681561D01*
X139389036Y-75681561D02*
X139431893Y-75595847D01*
X139431893Y-75595847D02*
X139431893Y-75338704D01*
X139431893Y-75338704D02*
X139389036Y-75252990D01*
X139389036Y-75252990D02*
X139346178Y-75210133D01*
X139346178Y-75210133D02*
X139260464Y-75167275D01*
X139260464Y-75167275D02*
X139131893Y-75167275D01*
X139817607Y-75767275D02*
X139817607Y-75167275D01*
X139817607Y-75681561D02*
X139860464Y-75724418D01*
X139860464Y-75724418D02*
X139946179Y-75767275D01*
X139946179Y-75767275D02*
X140074750Y-75767275D01*
X140074750Y-75767275D02*
X140160464Y-75724418D01*
X140160464Y-75724418D02*
X140203322Y-75638704D01*
X140203322Y-75638704D02*
X140203322Y-75167275D01*
D13*
X115501526Y-75984319D02*
X116231413Y-76292656D01*
X115501526Y-76600993D01*
X115193188Y-77330881D01*
X114884851Y-76600993D01*
X114154964Y-76292656D01*
X114884851Y-75984319D01*
X115193188Y-75254431D01*
X115501526Y-75984319D01*
G36*
X115501526Y-75984319D02*
G01*
X116231413Y-76292656D01*
X115501526Y-76600993D01*
X115193188Y-77330881D01*
X114884851Y-76600993D01*
X114154964Y-76292656D01*
X114884851Y-75984319D01*
X115193188Y-75254431D01*
X115501526Y-75984319D01*
G37*
D14*
%TO.C,J1*%
X115999852Y-105294319D02*
X111779852Y-105294319D01*
X115999852Y-104994319D02*
X115999852Y-105294319D01*
X115999852Y-102994319D02*
X115999852Y-103374319D01*
X115999852Y-100994319D02*
X115999852Y-101374319D01*
X115999852Y-98994319D02*
X115999852Y-99374319D01*
X115999852Y-96994319D02*
X115999852Y-97374319D01*
X115999852Y-94994319D02*
X115999852Y-95374319D01*
X115999852Y-92994319D02*
X115999852Y-93374319D01*
X115999852Y-90994319D02*
X115999852Y-91374319D01*
X115999852Y-88994319D02*
X115999852Y-89374319D01*
X115999852Y-86994319D02*
X115999852Y-87374319D01*
X115999852Y-85074319D02*
X115999852Y-85374319D01*
X115999852Y-85074319D02*
X111779852Y-85074319D01*
X111779852Y-104994319D02*
X111779852Y-105294319D01*
X111779852Y-102994319D02*
X111779852Y-103374319D01*
X111779852Y-100994319D02*
X111779852Y-101374319D01*
X111779852Y-98994319D02*
X111779852Y-99374319D01*
X111779852Y-96994319D02*
X111779852Y-97374319D01*
X111779852Y-94994319D02*
X111779852Y-95374319D01*
X111779852Y-92994319D02*
X111779852Y-93374319D01*
X111779852Y-90994319D02*
X111779852Y-91374319D01*
X111779852Y-88994319D02*
X111779852Y-89374319D01*
X111779852Y-86994319D02*
X111779852Y-87374319D01*
X111779852Y-85074319D02*
X111779852Y-85374319D01*
%TO.C,J2*%
X156389852Y-105294319D02*
X152169852Y-105294319D01*
X156389852Y-104994319D02*
X156389852Y-105294319D01*
X156389852Y-102994319D02*
X156389852Y-103374319D01*
X156389852Y-100994319D02*
X156389852Y-101374319D01*
X156389852Y-98994319D02*
X156389852Y-99374319D01*
X156389852Y-96994319D02*
X156389852Y-97374319D01*
X156389852Y-94994319D02*
X156389852Y-95374319D01*
X156389852Y-92994319D02*
X156389852Y-93374319D01*
X156389852Y-90994319D02*
X156389852Y-91374319D01*
X156389852Y-88994319D02*
X156389852Y-89374319D01*
X156389852Y-86994319D02*
X156389852Y-87374319D01*
X156389852Y-85074319D02*
X156389852Y-85374319D01*
X156389852Y-85074319D02*
X152169852Y-85074319D01*
X152169852Y-104994319D02*
X152169852Y-105294319D01*
X152169852Y-102994319D02*
X152169852Y-103374319D01*
X152169852Y-100994319D02*
X152169852Y-101374319D01*
X152169852Y-98994319D02*
X152169852Y-99374319D01*
X152169852Y-96994319D02*
X152169852Y-97374319D01*
X152169852Y-94994319D02*
X152169852Y-95374319D01*
X152169852Y-92994319D02*
X152169852Y-93374319D01*
X152169852Y-90994319D02*
X152169852Y-91374319D01*
X152169852Y-88994319D02*
X152169852Y-89374319D01*
X152169852Y-86994319D02*
X152169852Y-87374319D01*
X152169852Y-85074319D02*
X152169852Y-85374319D01*
%TD*%
M02*
