%TF.GenerationSoftware,KiCad,Pcbnew,9.0.6*%
%TF.CreationDate,2025-11-14T08:25:56+01:00*%
%TF.ProjectId,gaia-battery,67616961-2d62-4617-9474-6572792e6b69,1.0*%
%TF.SameCoordinates,Original*%
%TF.FileFunction,Copper,L1,Top*%
%TF.FilePolarity,Positive*%
%FSLAX46Y46*%
G04 Gerber Fmt 4.6, Leading zero omitted, Abs format (unit mm)*
G04 Created by KiCad (PCBNEW 9.0.6) date 2025-11-14 08:25:56*
%MOMM*%
%LPD*%
G01*
G04 APERTURE LIST*
%TA.AperFunction,EtchedComponent*%
%ADD10C,0.000000*%
%TD*%
%TA.AperFunction,ComponentPad*%
%ADD11R,2.580000X1.000000*%
%TD*%
%TA.AperFunction,ComponentPad*%
%ADD12C,1.900000*%
%TD*%
%TA.AperFunction,Conductor*%
%ADD13C,1.000000*%
%TD*%
G04 APERTURE END LIST*
D10*
%TA.AperFunction,EtchedComponent*%
%TO.C,REF\u002A\u002A*%
G36*
X126485206Y-112415303D02*
G01*
X126613769Y-113013833D01*
X126712916Y-113447975D01*
X126755840Y-113619579D01*
X126788475Y-113730706D01*
X126781052Y-113806157D01*
X126766004Y-113998794D01*
X126759005Y-114123254D01*
X126754161Y-114258047D01*
X126752825Y-114396851D01*
X126756352Y-114533344D01*
X126794934Y-115612152D01*
X126795556Y-115629906D01*
X126799911Y-115677717D01*
X126804656Y-115710338D01*
X126811734Y-115747408D01*
X126821612Y-115787903D01*
X126834757Y-115830802D01*
X126851637Y-115875083D01*
X126872716Y-115919723D01*
X126884977Y-115941859D01*
X126898463Y-115963701D01*
X126913232Y-115985122D01*
X126929343Y-116005994D01*
X126946855Y-116026189D01*
X126965825Y-116045580D01*
X126986311Y-116064038D01*
X127008373Y-116081437D01*
X127032069Y-116097648D01*
X127057456Y-116112544D01*
X127084593Y-116125996D01*
X127113540Y-116137877D01*
X127128913Y-116143224D01*
X127144461Y-116147962D01*
X127160164Y-116152099D01*
X127176004Y-116155646D01*
X127191959Y-116158613D01*
X127208013Y-116161009D01*
X127224143Y-116162844D01*
X127240333Y-116164128D01*
X127246963Y-116164500D01*
X127253597Y-116164783D01*
X127260235Y-116164976D01*
X127266875Y-116165081D01*
X127273518Y-116165096D01*
X127280163Y-116165021D01*
X127286810Y-116164857D01*
X127293457Y-116164604D01*
X127323921Y-116162710D01*
X127358195Y-116159272D01*
X127395551Y-116153901D01*
X127435260Y-116146213D01*
X127476593Y-116135820D01*
X127518823Y-116122336D01*
X127540046Y-116114314D01*
X127561221Y-116105374D01*
X127582255Y-116095468D01*
X127603058Y-116084548D01*
X127623539Y-116072565D01*
X127643607Y-116059471D01*
X127663170Y-116045217D01*
X127682139Y-116029756D01*
X127700421Y-116013039D01*
X127717925Y-115995018D01*
X127734562Y-115975643D01*
X127750239Y-115954868D01*
X127764865Y-115932644D01*
X127778350Y-115908922D01*
X127790602Y-115883654D01*
X127801531Y-115856792D01*
X127811045Y-115828287D01*
X127819053Y-115798091D01*
X127825465Y-115766156D01*
X127830189Y-115732434D01*
X127831603Y-115718008D01*
X127832652Y-115703566D01*
X127833341Y-115689116D01*
X127833674Y-115674662D01*
X127833654Y-115660211D01*
X127833285Y-115645768D01*
X127832572Y-115631339D01*
X127831518Y-115616930D01*
X127830127Y-115602548D01*
X127828404Y-115588197D01*
X127826351Y-115573885D01*
X127823974Y-115559616D01*
X127821276Y-115545396D01*
X127818261Y-115531232D01*
X127814933Y-115517130D01*
X127811296Y-115503094D01*
X127798282Y-115457411D01*
X127781425Y-115403414D01*
X127760421Y-115342038D01*
X127734966Y-115274216D01*
X127704760Y-115200883D01*
X127669498Y-115122972D01*
X127649876Y-115082592D01*
X127628877Y-115041417D01*
X127606463Y-114999566D01*
X127582596Y-114957153D01*
X127559825Y-114916491D01*
X127506511Y-114804091D01*
X127475432Y-114725483D01*
X127445155Y-114634333D01*
X127418492Y-114532437D01*
X127398255Y-114421595D01*
X127387258Y-114303602D01*
X127386103Y-114242487D01*
X127388312Y-114180257D01*
X127394237Y-114117140D01*
X127404230Y-114053357D01*
X127418642Y-113989136D01*
X127437825Y-113924700D01*
X127462130Y-113860273D01*
X127491909Y-113796082D01*
X127527513Y-113732349D01*
X127569294Y-113669301D01*
X127617603Y-113607161D01*
X127672793Y-113546155D01*
X127735214Y-113486506D01*
X127805218Y-113428440D01*
X127854317Y-113392091D01*
X127906782Y-113356547D01*
X127962706Y-113321866D01*
X128022182Y-113288111D01*
X128085301Y-113255339D01*
X128152157Y-113223613D01*
X128222841Y-113192992D01*
X128297447Y-113163537D01*
X128279118Y-113177398D01*
X128234526Y-113215253D01*
X128205152Y-113242901D01*
X128172536Y-113276213D01*
X128137788Y-113315079D01*
X128102014Y-113359388D01*
X128066323Y-113409027D01*
X128031824Y-113463886D01*
X127999624Y-113523855D01*
X127970831Y-113588820D01*
X127958059Y-113623142D01*
X127946554Y-113658672D01*
X127936456Y-113695395D01*
X127927901Y-113733299D01*
X127921030Y-113772368D01*
X127915980Y-113812589D01*
X127912890Y-113853949D01*
X127911899Y-113896432D01*
X127911890Y-113905569D01*
X127911796Y-113914715D01*
X127911631Y-113923862D01*
X127911413Y-113932998D01*
X127911603Y-113968778D01*
X127915092Y-114025043D01*
X127924236Y-114101920D01*
X127941389Y-114199534D01*
X127953706Y-114256157D01*
X127968909Y-114318011D01*
X127987292Y-114385113D01*
X128009150Y-114457477D01*
X128034777Y-114535121D01*
X128064468Y-114618059D01*
X128098517Y-114706307D01*
X128137219Y-114799881D01*
X128149698Y-114828593D01*
X128162522Y-114857144D01*
X128175678Y-114885540D01*
X128189153Y-114913783D01*
X128202936Y-114941877D01*
X128217014Y-114969826D01*
X128231376Y-114997633D01*
X128246008Y-115025304D01*
X128291965Y-115118428D01*
X128318025Y-115178639D01*
X128344406Y-115246879D01*
X128369810Y-115322348D01*
X128392937Y-115404243D01*
X128412488Y-115491762D01*
X128427164Y-115584104D01*
X128435666Y-115680467D01*
X128436693Y-115780049D01*
X128428948Y-115882048D01*
X128421379Y-115933703D01*
X128411130Y-115985662D01*
X128398038Y-116037825D01*
X128381941Y-116090090D01*
X128362676Y-116142359D01*
X128340081Y-116194530D01*
X128313994Y-116246504D01*
X128284251Y-116298180D01*
X128250692Y-116349458D01*
X128213153Y-116400238D01*
X128213100Y-116400238D01*
X128135997Y-116440934D01*
X128058868Y-116477132D01*
X127981865Y-116509038D01*
X127905140Y-116536857D01*
X127828845Y-116560796D01*
X127753131Y-116581059D01*
X127678149Y-116597854D01*
X127604052Y-116611385D01*
X127530991Y-116621859D01*
X127459117Y-116629482D01*
X127388583Y-116634459D01*
X127319539Y-116636995D01*
X127252138Y-116637298D01*
X127186531Y-116635573D01*
X127122870Y-116632025D01*
X127061306Y-116626860D01*
X127122870Y-116632026D01*
X127186531Y-116635575D01*
X127252138Y-116637303D01*
X127319539Y-116637002D01*
X127388583Y-116634468D01*
X127459117Y-116629494D01*
X127530991Y-116621874D01*
X127604052Y-116611403D01*
X127678149Y-116597875D01*
X127753131Y-116581084D01*
X127828845Y-116560825D01*
X127905140Y-116536890D01*
X127981865Y-116509076D01*
X128058868Y-116477175D01*
X128135997Y-116440981D01*
X128213100Y-116400290D01*
X128205529Y-116409837D01*
X128197813Y-116419356D01*
X128189948Y-116428856D01*
X128181929Y-116438344D01*
X128165214Y-116458315D01*
X128115446Y-116510770D01*
X128078345Y-116545682D01*
X128033194Y-116584520D01*
X127980063Y-116625885D01*
X127919025Y-116668379D01*
X127850150Y-116710603D01*
X127773509Y-116751159D01*
X127689172Y-116788648D01*
X127597212Y-116821672D01*
X127548395Y-116836073D01*
X127497698Y-116848833D01*
X127445132Y-116859777D01*
X127390703Y-116868732D01*
X127334422Y-116875521D01*
X127276297Y-116879970D01*
X127216337Y-116881905D01*
X127154550Y-116881150D01*
X127142340Y-116880918D01*
X127130143Y-116881058D01*
X127117970Y-116881573D01*
X127105834Y-116882465D01*
X127093745Y-116883736D01*
X127081714Y-116885388D01*
X127069753Y-116887425D01*
X127057872Y-116889848D01*
X127046084Y-116892660D01*
X127034398Y-116895863D01*
X127022826Y-116899459D01*
X127011379Y-116903452D01*
X127000069Y-116907843D01*
X126988906Y-116912635D01*
X126977903Y-116917830D01*
X126967069Y-116923431D01*
X126949624Y-116933506D01*
X126932191Y-116945001D01*
X126914943Y-116958010D01*
X126898053Y-116972626D01*
X126881695Y-116988943D01*
X126866041Y-117007054D01*
X126851265Y-117027052D01*
X126837540Y-117049031D01*
X126825040Y-117073084D01*
X126813936Y-117099306D01*
X126804403Y-117127788D01*
X126796614Y-117158625D01*
X126790741Y-117191909D01*
X126786958Y-117227736D01*
X126785439Y-117266197D01*
X126786356Y-117307386D01*
X126788253Y-117321281D01*
X126791406Y-117337578D01*
X126796721Y-117359155D01*
X126804721Y-117385297D01*
X126815926Y-117415289D01*
X126830855Y-117448417D01*
X126850030Y-117483965D01*
X126873971Y-117521220D01*
X126887892Y-117540263D01*
X126903199Y-117559465D01*
X126919958Y-117578736D01*
X126938234Y-117597987D01*
X126958093Y-117617128D01*
X126979598Y-117636071D01*
X127002815Y-117654725D01*
X127027810Y-117673001D01*
X127054646Y-117690810D01*
X127083391Y-117708063D01*
X127114107Y-117724671D01*
X127146861Y-117740543D01*
X127181718Y-117755591D01*
X127218742Y-117769725D01*
X127198036Y-117780072D01*
X127141208Y-117813982D01*
X127101723Y-117841121D01*
X127056177Y-117875768D01*
X127005561Y-117918462D01*
X126950865Y-117969740D01*
X126893078Y-118030144D01*
X126833191Y-118100210D01*
X126772194Y-118180479D01*
X126711076Y-118271489D01*
X126650829Y-118373778D01*
X126592441Y-118487887D01*
X126564254Y-118549542D01*
X126536903Y-118614354D01*
X126510513Y-118682389D01*
X126485206Y-118753717D01*
X126485206Y-118754348D01*
X126485180Y-118754269D01*
X126485155Y-118754188D01*
X126485129Y-118754107D01*
X126485103Y-118754027D01*
X126484999Y-118754348D01*
X126484999Y-118753717D01*
X126459693Y-118682390D01*
X126433302Y-118614354D01*
X126405952Y-118549543D01*
X126377765Y-118487889D01*
X126348865Y-118429324D01*
X126319377Y-118373781D01*
X126289424Y-118321192D01*
X126259130Y-118271491D01*
X126228618Y-118224610D01*
X126198013Y-118180482D01*
X126167438Y-118139039D01*
X126137016Y-118100213D01*
X126106872Y-118063938D01*
X126077129Y-118030147D01*
X126047912Y-117998771D01*
X126019343Y-117969744D01*
X125991546Y-117942997D01*
X125964646Y-117918465D01*
X125914030Y-117875771D01*
X125868485Y-117841124D01*
X125829000Y-117813985D01*
X125796565Y-117793814D01*
X125772170Y-117780073D01*
X125751463Y-117769725D01*
X125788487Y-117755591D01*
X125823344Y-117740543D01*
X125856098Y-117724671D01*
X125886815Y-117708063D01*
X125915559Y-117690810D01*
X125942396Y-117673001D01*
X125967390Y-117654725D01*
X125990607Y-117636071D01*
X126012113Y-117617128D01*
X126031971Y-117597987D01*
X126050247Y-117578736D01*
X126067006Y-117559465D01*
X126082314Y-117540263D01*
X126096234Y-117521220D01*
X126108833Y-117502424D01*
X126120175Y-117483965D01*
X126130326Y-117465933D01*
X126139350Y-117448417D01*
X126154280Y-117415289D01*
X126165484Y-117385297D01*
X126173484Y-117359155D01*
X126178800Y-117337578D01*
X126181952Y-117321281D01*
X126183850Y-117307386D01*
X126184623Y-117286445D01*
X126184766Y-117266197D01*
X126184300Y-117246631D01*
X126183247Y-117227736D01*
X126181628Y-117209499D01*
X126179464Y-117191909D01*
X126176778Y-117174955D01*
X126173592Y-117158625D01*
X126169926Y-117142906D01*
X126165802Y-117127788D01*
X126161243Y-117113258D01*
X126156269Y-117099306D01*
X126150903Y-117085918D01*
X126145166Y-117073084D01*
X126139079Y-117060793D01*
X126132665Y-117049031D01*
X126125945Y-117037788D01*
X126118940Y-117027052D01*
X126111673Y-117016811D01*
X126104164Y-117007054D01*
X126096436Y-116997768D01*
X126088511Y-116988943D01*
X126080409Y-116980566D01*
X126072153Y-116972626D01*
X126063763Y-116965111D01*
X126055263Y-116958010D01*
X126038015Y-116945001D01*
X126020582Y-116933506D01*
X126003137Y-116923431D01*
X125992303Y-116917830D01*
X125981299Y-116912635D01*
X125970137Y-116907843D01*
X125958826Y-116903452D01*
X125947380Y-116899459D01*
X125935808Y-116895863D01*
X125924122Y-116892660D01*
X125912333Y-116889848D01*
X125900452Y-116887425D01*
X125888491Y-116885388D01*
X125876460Y-116883736D01*
X125864371Y-116882465D01*
X125852235Y-116881573D01*
X125840063Y-116881058D01*
X125827866Y-116880918D01*
X125815655Y-116881150D01*
X125753869Y-116881905D01*
X125693909Y-116879970D01*
X125635784Y-116875521D01*
X125579502Y-116868732D01*
X125525074Y-116859777D01*
X125472507Y-116848833D01*
X125421811Y-116836073D01*
X125372994Y-116821672D01*
X125326065Y-116805806D01*
X125281034Y-116788648D01*
X125237908Y-116770374D01*
X125196697Y-116751159D01*
X125157410Y-116731177D01*
X125120056Y-116710603D01*
X125084643Y-116689612D01*
X125051181Y-116668379D01*
X125019677Y-116647078D01*
X124990142Y-116625885D01*
X124937012Y-116584520D01*
X124891861Y-116545682D01*
X124854760Y-116510770D01*
X124825780Y-116481181D01*
X124804992Y-116458315D01*
X124788276Y-116438344D01*
X124780258Y-116428856D01*
X124772393Y-116419356D01*
X124764677Y-116409837D01*
X124757105Y-116400290D01*
X124806503Y-116387642D01*
X124862619Y-116374669D01*
X124936897Y-116359151D01*
X125027249Y-116342503D01*
X125131587Y-116326141D01*
X125247824Y-116311479D01*
X125373873Y-116299934D01*
X125309753Y-116305227D01*
X125247824Y-116311476D01*
X125188349Y-116318504D01*
X125131587Y-116326134D01*
X125077800Y-116334189D01*
X125027249Y-116342491D01*
X124980194Y-116350865D01*
X124936897Y-116359133D01*
X124862619Y-116374644D01*
X124806503Y-116387608D01*
X124757105Y-116400238D01*
X124757053Y-116400238D01*
X124719514Y-116349458D01*
X124685954Y-116298180D01*
X124656212Y-116246504D01*
X124630125Y-116194530D01*
X124607530Y-116142359D01*
X124588265Y-116090090D01*
X124572168Y-116037825D01*
X124559076Y-115985662D01*
X124548827Y-115933703D01*
X124541258Y-115882048D01*
X124536207Y-115830796D01*
X124533513Y-115780049D01*
X124533011Y-115729905D01*
X124534540Y-115680467D01*
X124537938Y-115631833D01*
X124543041Y-115584104D01*
X124557717Y-115491762D01*
X124577268Y-115404243D01*
X124600395Y-115322348D01*
X124625799Y-115246879D01*
X124652180Y-115178639D01*
X124678240Y-115118428D01*
X124724197Y-115025304D01*
X124738830Y-114997633D01*
X124753191Y-114969826D01*
X124767270Y-114941877D01*
X124781053Y-114913783D01*
X124794528Y-114885540D01*
X124807684Y-114857144D01*
X124820507Y-114828593D01*
X124832987Y-114799881D01*
X124871688Y-114706307D01*
X124905738Y-114618059D01*
X124935429Y-114535121D01*
X124961056Y-114457477D01*
X124982914Y-114385113D01*
X125001297Y-114318011D01*
X125016500Y-114256157D01*
X125028816Y-114199534D01*
X125038542Y-114148127D01*
X125045970Y-114101920D01*
X125051396Y-114060897D01*
X125055114Y-114025043D01*
X125057418Y-113994342D01*
X125058602Y-113968778D01*
X125058792Y-113932998D01*
X125058575Y-113923862D01*
X125058410Y-113914715D01*
X125058315Y-113905569D01*
X125058306Y-113896432D01*
X125057315Y-113853949D01*
X125054225Y-113812589D01*
X125049175Y-113772368D01*
X125042304Y-113733299D01*
X125033750Y-113695395D01*
X125023651Y-113658672D01*
X125012146Y-113623142D01*
X124999374Y-113588820D01*
X124985473Y-113555720D01*
X124970582Y-113523855D01*
X124954838Y-113493239D01*
X124938382Y-113463886D01*
X124921350Y-113435811D01*
X124903882Y-113409027D01*
X124886117Y-113383548D01*
X124868192Y-113359388D01*
X124832418Y-113315079D01*
X124797669Y-113276213D01*
X124765054Y-113242901D01*
X124735680Y-113215253D01*
X124710655Y-113193382D01*
X124691088Y-113177398D01*
X124672759Y-113163537D01*
X124710557Y-113178115D01*
X124747364Y-113192992D01*
X124783191Y-113208161D01*
X124818048Y-113223613D01*
X124851949Y-113239341D01*
X124884904Y-113255337D01*
X124916925Y-113271594D01*
X124948023Y-113288105D01*
X124978211Y-113304860D01*
X125007499Y-113321854D01*
X125035899Y-113339078D01*
X125063423Y-113356525D01*
X125090082Y-113374187D01*
X125115888Y-113392057D01*
X125140853Y-113410127D01*
X125164987Y-113428388D01*
X125164987Y-113428440D01*
X125234992Y-113486506D01*
X125297413Y-113546155D01*
X125352602Y-113607161D01*
X125400912Y-113669301D01*
X125442693Y-113732349D01*
X125478297Y-113796082D01*
X125508075Y-113860273D01*
X125532380Y-113924700D01*
X125551563Y-113989136D01*
X125565975Y-114053357D01*
X125575968Y-114117140D01*
X125581893Y-114180257D01*
X125584103Y-114242487D01*
X125582948Y-114303602D01*
X125578780Y-114363380D01*
X125571950Y-114421595D01*
X125562811Y-114478022D01*
X125551714Y-114532437D01*
X125539010Y-114584616D01*
X125525051Y-114634333D01*
X125494773Y-114725483D01*
X125463694Y-114804091D01*
X125434626Y-114868359D01*
X125410380Y-114916491D01*
X125387609Y-114957153D01*
X125363742Y-114999566D01*
X125341328Y-115041417D01*
X125320329Y-115082592D01*
X125300708Y-115122972D01*
X125282426Y-115162441D01*
X125265445Y-115200883D01*
X125249729Y-115238180D01*
X125235239Y-115274216D01*
X125209785Y-115342038D01*
X125188780Y-115403414D01*
X125171923Y-115457411D01*
X125158910Y-115503094D01*
X125155273Y-115517130D01*
X125151945Y-115531232D01*
X125148930Y-115545396D01*
X125146232Y-115559616D01*
X125143855Y-115573885D01*
X125141802Y-115588197D01*
X125140079Y-115602548D01*
X125138688Y-115616930D01*
X125137634Y-115631339D01*
X125136921Y-115645768D01*
X125136552Y-115660211D01*
X125136532Y-115674662D01*
X125136865Y-115689116D01*
X125137554Y-115703566D01*
X125138603Y-115718008D01*
X125140017Y-115732434D01*
X125144741Y-115766156D01*
X125151153Y-115798091D01*
X125159161Y-115828287D01*
X125168675Y-115856792D01*
X125179604Y-115883654D01*
X125191856Y-115908922D01*
X125205341Y-115932644D01*
X125219967Y-115954868D01*
X125235644Y-115975643D01*
X125252280Y-115995018D01*
X125269785Y-116013039D01*
X125288067Y-116029756D01*
X125307035Y-116045217D01*
X125326599Y-116059471D01*
X125346667Y-116072565D01*
X125367148Y-116084548D01*
X125387951Y-116095468D01*
X125408985Y-116105374D01*
X125451383Y-116122336D01*
X125493612Y-116135820D01*
X125534946Y-116146213D01*
X125574654Y-116153901D01*
X125612010Y-116159272D01*
X125646284Y-116162710D01*
X125676749Y-116164604D01*
X125683396Y-116164857D01*
X125690043Y-116165021D01*
X125696688Y-116165096D01*
X125703331Y-116165081D01*
X125709971Y-116164976D01*
X125716609Y-116164783D01*
X125723243Y-116164500D01*
X125729873Y-116164128D01*
X125746062Y-116162844D01*
X125762193Y-116161009D01*
X125778246Y-116158613D01*
X125794202Y-116155646D01*
X125810041Y-116152099D01*
X125825744Y-116147962D01*
X125841292Y-116143224D01*
X125856666Y-116137877D01*
X125885612Y-116125996D01*
X125912749Y-116112544D01*
X125938137Y-116097648D01*
X125961832Y-116081437D01*
X125983894Y-116064038D01*
X126004381Y-116045580D01*
X126023351Y-116026189D01*
X126040862Y-116005994D01*
X126056973Y-115985122D01*
X126071742Y-115963701D01*
X126085228Y-115941859D01*
X126097489Y-115919723D01*
X126108583Y-115897422D01*
X126118569Y-115875083D01*
X126127504Y-115852834D01*
X126135448Y-115830802D01*
X126148593Y-115787903D01*
X126158472Y-115747408D01*
X126165550Y-115710338D01*
X126170294Y-115677717D01*
X126174650Y-115629906D01*
X126175272Y-115612152D01*
X126213853Y-114533344D01*
X126216309Y-114465782D01*
X126217380Y-114396851D01*
X126217236Y-114327343D01*
X126216045Y-114258047D01*
X126211201Y-114123254D01*
X126204202Y-113998794D01*
X126196402Y-113890988D01*
X126189154Y-113806157D01*
X126181732Y-113730706D01*
X126214367Y-113619579D01*
X126257290Y-113447975D01*
X126356436Y-113013833D01*
X126484999Y-112415303D01*
X126484999Y-112414290D01*
X126485025Y-112414417D01*
X126485103Y-112414796D01*
X126485149Y-112414575D01*
X126485181Y-112414417D01*
X126485206Y-112414290D01*
X126485206Y-112415303D01*
G37*
%TD.AperFunction*%
%TD*%
D11*
%TO.P,J1,20,Pin_20*%
%TO.N,GND*%
X115974852Y-104184319D03*
%TO.P,J1,19,Pin_19*%
X111804852Y-104184319D03*
%TO.P,J1,18,Pin_18*%
X115974852Y-102184319D03*
%TO.P,J1,17,Pin_17*%
X111804852Y-102184319D03*
%TO.P,J1,16,Pin_16*%
%TO.N,unconnected-(J1-Pin_16-Pad16)*%
X115974852Y-100184319D03*
%TO.P,J1,15,Pin_15*%
%TO.N,unconnected-(J1-Pin_15-Pad15)*%
X111804852Y-100184319D03*
%TO.P,J1,14,Pin_14*%
%TO.N,unconnected-(J1-Pin_14-Pad14)*%
X115974852Y-98184319D03*
%TO.P,J1,13,Pin_13*%
%TO.N,unconnected-(J1-Pin_13-Pad13)*%
X111804852Y-98184319D03*
%TO.P,J1,12,Pin_12*%
%TO.N,unconnected-(J1-Pin_12-Pad12)*%
X115974852Y-96184319D03*
%TO.P,J1,11,Pin_11*%
%TO.N,unconnected-(J1-Pin_11-Pad11)*%
X111804852Y-96184319D03*
%TO.P,J1,10,Pin_10*%
%TO.N,unconnected-(J1-Pin_10-Pad10)*%
X115974852Y-94184319D03*
%TO.P,J1,9,Pin_9*%
%TO.N,unconnected-(J1-Pin_9-Pad9)*%
X111804852Y-94184319D03*
%TO.P,J1,8,Pin_8*%
%TO.N,unconnected-(J1-Pin_8-Pad8)*%
X115974852Y-92184319D03*
%TO.P,J1,7,Pin_7*%
%TO.N,GND*%
X111804852Y-92184319D03*
%TO.P,J1,6,Pin_6*%
%TO.N,unconnected-(J1-Pin_6-Pad6)*%
X115974852Y-90184319D03*
%TO.P,J1,5,Pin_5*%
%TO.N,unconnected-(J1-Pin_5-Pad5)*%
X111804852Y-90184319D03*
%TO.P,J1,4,Pin_4*%
%TO.N,unconnected-(J1-Pin_4-Pad4)*%
X115974852Y-88184319D03*
%TO.P,J1,3,Pin_3*%
%TO.N,unconnected-(J1-Pin_3-Pad3)*%
X111804852Y-88184319D03*
%TO.P,J1,2,Pin_2*%
%TO.N,unconnected-(J1-Pin_2-Pad2)*%
X115974852Y-86184319D03*
%TO.P,J1,1,Pin_1*%
%TO.N,unconnected-(J1-Pin_1-Pad1)*%
X111804852Y-86184319D03*
%TD*%
%TO.P,J2,20,Pin_20*%
%TO.N,-BATT*%
X156364852Y-104184319D03*
%TO.P,J2,19,Pin_19*%
X152194852Y-104184319D03*
%TO.P,J2,18,Pin_18*%
%TO.N,+BATT*%
X156364852Y-102184319D03*
%TO.P,J2,17,Pin_17*%
X152194852Y-102184319D03*
%TO.P,J2,16,Pin_16*%
%TO.N,GND*%
X156364852Y-100184319D03*
%TO.P,J2,15,Pin_15*%
X152194852Y-100184319D03*
%TO.P,J2,14,Pin_14*%
X156364852Y-98184319D03*
%TO.P,J2,13,Pin_13*%
X152194852Y-98184319D03*
%TO.P,J2,12,Pin_12*%
%TO.N,unconnected-(J2-Pin_12-Pad12)*%
X156364852Y-96184319D03*
%TO.P,J2,11,Pin_11*%
%TO.N,unconnected-(J2-Pin_11-Pad11)*%
X152194852Y-96184319D03*
%TO.P,J2,10,Pin_10*%
%TO.N,unconnected-(J2-Pin_10-Pad10)*%
X156364852Y-94184319D03*
%TO.P,J2,9,Pin_9*%
%TO.N,unconnected-(J2-Pin_9-Pad9)*%
X152194852Y-94184319D03*
%TO.P,J2,8,Pin_8*%
%TO.N,unconnected-(J2-Pin_8-Pad8)*%
X156364852Y-92184319D03*
%TO.P,J2,7,Pin_7*%
%TO.N,unconnected-(J2-Pin_7-Pad7)*%
X152194852Y-92184319D03*
%TO.P,J2,6,Pin_6*%
%TO.N,unconnected-(J2-Pin_6-Pad6)*%
X156364852Y-90184319D03*
%TO.P,J2,5,Pin_5*%
%TO.N,unconnected-(J2-Pin_5-Pad5)*%
X152194852Y-90184319D03*
%TO.P,J2,4,Pin_4*%
%TO.N,unconnected-(J2-Pin_4-Pad4)*%
X156364852Y-88184319D03*
%TO.P,J2,3,Pin_3*%
%TO.N,unconnected-(J2-Pin_3-Pad3)*%
X152194852Y-88184319D03*
%TO.P,J2,2,Pin_2*%
%TO.N,unconnected-(J2-Pin_2-Pad2)*%
X156364852Y-86184319D03*
%TO.P,J2,1,Pin_1*%
%TO.N,unconnected-(J2-Pin_1-Pad1)*%
X152194852Y-86184319D03*
%TD*%
D12*
%TO.P,J3,2,Pin_2*%
%TO.N,-BATT*%
X144483852Y-114575319D03*
%TO.P,J3,1,Pin_1*%
%TO.N,+BATT*%
X144483852Y-117075319D03*
%TD*%
D13*
%TO.N,-BATT*%
X154384852Y-104184319D02*
X156364852Y-104184319D01*
X150893852Y-114575319D02*
X154284852Y-111184319D01*
X154284852Y-111184319D02*
X154284852Y-104284319D01*
X152194852Y-104184319D02*
X154384852Y-104184319D01*
X154284852Y-104284319D02*
X154384852Y-104184319D01*
X144483852Y-114575319D02*
X150893852Y-114575319D01*
%TD*%
%TA.AperFunction,Conductor*%
%TO.N,GND*%
G36*
X148670911Y-70703001D02*
G01*
X149349785Y-71117715D01*
X149353283Y-71119934D01*
X150155735Y-71648253D01*
X150155737Y-71648254D01*
X150159199Y-71650618D01*
X150159202Y-71650621D01*
X150159204Y-71650622D01*
X150943287Y-72205786D01*
X150946671Y-72208270D01*
X151711481Y-72789636D01*
X151714780Y-72792233D01*
X152459489Y-73399170D01*
X152462698Y-73401877D01*
X153186424Y-74033670D01*
X153189540Y-74036484D01*
X153891488Y-74692437D01*
X153894506Y-74695355D01*
X154573817Y-75374665D01*
X154576735Y-75377683D01*
X155232689Y-76079630D01*
X155235503Y-76082746D01*
X155867296Y-76806472D01*
X155870003Y-76809681D01*
X156476942Y-77554388D01*
X156479539Y-77557687D01*
X157060906Y-78322497D01*
X157063390Y-78325881D01*
X157618555Y-79109962D01*
X157620923Y-79113429D01*
X158149234Y-79915868D01*
X158151482Y-79919413D01*
X158418143Y-80355925D01*
X158536296Y-80549338D01*
X158566169Y-80598238D01*
X158584352Y-80662881D01*
X158584352Y-109705733D01*
X158566169Y-109770376D01*
X158151459Y-110449236D01*
X158149210Y-110452781D01*
X157620923Y-111255178D01*
X157618556Y-111258645D01*
X157063386Y-112042731D01*
X157060902Y-112046115D01*
X156479513Y-112810953D01*
X156476916Y-112814252D01*
X155869989Y-113558945D01*
X155867282Y-113562154D01*
X155235489Y-114285880D01*
X155232675Y-114288996D01*
X154576721Y-114990943D01*
X154573803Y-114993961D01*
X153894493Y-115673273D01*
X153891475Y-115676191D01*
X153189528Y-116332145D01*
X153186412Y-116334959D01*
X152462701Y-116966741D01*
X152459493Y-116969448D01*
X151714773Y-117576400D01*
X151711474Y-117578997D01*
X150946651Y-118160376D01*
X150943266Y-118162860D01*
X150159181Y-118718032D01*
X150155714Y-118720399D01*
X149353319Y-119248686D01*
X149349774Y-119250935D01*
X148670933Y-119665636D01*
X148606290Y-119683819D01*
X119563436Y-119683819D01*
X119498794Y-119665637D01*
X118841592Y-119264162D01*
X118819935Y-119250932D01*
X118816397Y-119248688D01*
X118791598Y-119232361D01*
X118141107Y-118804090D01*
X118013966Y-118720383D01*
X118010499Y-118718015D01*
X117226417Y-118162851D01*
X117223033Y-118160367D01*
X116458223Y-117579000D01*
X116454924Y-117576403D01*
X115710217Y-116969466D01*
X115707008Y-116966759D01*
X114983282Y-116334966D01*
X114980166Y-116332152D01*
X114908207Y-116264908D01*
X114341084Y-115734945D01*
X124027535Y-115734945D01*
X124028038Y-115785133D01*
X124028722Y-115806814D01*
X124031419Y-115857606D01*
X124033144Y-115880382D01*
X124038196Y-115931639D01*
X124041097Y-115955327D01*
X124048668Y-116006995D01*
X124052879Y-116031514D01*
X124063133Y-116083495D01*
X124066651Y-116099200D01*
X124068783Y-116108717D01*
X124074220Y-116130380D01*
X124081877Y-116160888D01*
X124089062Y-116186616D01*
X124105152Y-116238862D01*
X124113953Y-116264901D01*
X124133233Y-116317209D01*
X124143652Y-116343227D01*
X124166263Y-116395433D01*
X124178343Y-116421298D01*
X124204424Y-116473260D01*
X124218101Y-116498672D01*
X124247835Y-116550334D01*
X124262990Y-116575007D01*
X124296537Y-116626263D01*
X124313033Y-116649964D01*
X124350563Y-116700732D01*
X124355126Y-116706430D01*
X124355193Y-116706513D01*
X124359802Y-116712268D01*
X124361052Y-116714411D01*
X124368624Y-116723958D01*
X124371984Y-116728149D01*
X124379700Y-116737668D01*
X124383018Y-116741718D01*
X124390883Y-116751218D01*
X124394159Y-116755135D01*
X124401500Y-116763822D01*
X124402280Y-116764754D01*
X124402306Y-116764786D01*
X124412918Y-116777464D01*
X124417359Y-116782769D01*
X124430958Y-116798358D01*
X124451746Y-116821224D01*
X124462656Y-116832785D01*
X124464653Y-116834902D01*
X124493634Y-116864492D01*
X124508337Y-116878903D01*
X124545424Y-116913802D01*
X124545443Y-116913819D01*
X124545444Y-116913820D01*
X124562215Y-116928910D01*
X124607366Y-116967748D01*
X124607388Y-116967766D01*
X124626483Y-116983397D01*
X124679566Y-117024726D01*
X124686596Y-117029981D01*
X124695438Y-117036591D01*
X124724973Y-117057784D01*
X124736537Y-117065840D01*
X124768041Y-117087141D01*
X124780344Y-117095202D01*
X124813806Y-117116435D01*
X124826888Y-117124460D01*
X124862301Y-117145451D01*
X124876179Y-117153383D01*
X124913533Y-117173957D01*
X124928243Y-117181746D01*
X124928271Y-117181760D01*
X124928280Y-117181765D01*
X124960119Y-117197959D01*
X124967530Y-117201728D01*
X124976083Y-117205895D01*
X124983100Y-117209315D01*
X125019485Y-117226279D01*
X125024293Y-117228521D01*
X125040685Y-117235813D01*
X125057708Y-117243026D01*
X125083814Y-117254089D01*
X125101045Y-117261019D01*
X125146091Y-117278183D01*
X125164153Y-117284674D01*
X125211102Y-117300547D01*
X125221963Y-117303983D01*
X125229965Y-117306515D01*
X125256683Y-117314396D01*
X125315412Y-117352245D01*
X125344356Y-117415838D01*
X125334325Y-117484983D01*
X125332517Y-117488760D01*
X125271726Y-117610406D01*
X125271725Y-117610409D01*
X125246273Y-117752016D01*
X125246273Y-117752019D01*
X125261748Y-117895066D01*
X125261748Y-117895067D01*
X125316896Y-118027953D01*
X125316898Y-118027956D01*
X125407251Y-118139925D01*
X125407255Y-118139929D01*
X125525491Y-118221905D01*
X125525492Y-118221905D01*
X125525493Y-118221906D01*
X125531725Y-118225020D01*
X125541769Y-118230636D01*
X125549814Y-118235639D01*
X125554541Y-118238732D01*
X125569657Y-118249121D01*
X125574499Y-118252624D01*
X125595360Y-118268494D01*
X125600231Y-118272397D01*
X125629413Y-118297011D01*
X125632982Y-118300140D01*
X125644707Y-118310834D01*
X125647096Y-118313073D01*
X125662689Y-118328076D01*
X125665090Y-118330449D01*
X125681549Y-118347172D01*
X125683861Y-118349588D01*
X125698618Y-118365434D01*
X125701192Y-118368199D01*
X125703521Y-118370772D01*
X125721514Y-118391214D01*
X125723805Y-118393892D01*
X125742466Y-118416349D01*
X125744701Y-118419119D01*
X125750652Y-118426714D01*
X125763916Y-118443642D01*
X125766069Y-118446474D01*
X125785758Y-118473161D01*
X125787869Y-118476111D01*
X125807954Y-118505071D01*
X125809971Y-118508072D01*
X125824868Y-118530962D01*
X125830402Y-118539464D01*
X125832355Y-118542565D01*
X125852898Y-118576268D01*
X125854765Y-118579436D01*
X125875528Y-118615890D01*
X125877302Y-118619114D01*
X125897995Y-118658091D01*
X125899671Y-118661364D01*
X125920331Y-118703231D01*
X125921905Y-118706544D01*
X125942366Y-118751296D01*
X125943838Y-118754646D01*
X125963975Y-118802365D01*
X125965338Y-118805731D01*
X125985094Y-118856662D01*
X125986348Y-118860038D01*
X126008594Y-118922740D01*
X126015783Y-118943002D01*
X126019158Y-118948071D01*
X126022718Y-118951255D01*
X126029304Y-118963307D01*
X126035508Y-118976331D01*
X126037720Y-118981250D01*
X126052336Y-119015755D01*
X126055312Y-119020681D01*
X126055373Y-119020642D01*
X126059951Y-119027641D01*
X126097613Y-119071104D01*
X126099807Y-119073708D01*
X126143507Y-119127059D01*
X126149848Y-119131387D01*
X126154174Y-119136379D01*
X126205291Y-119169230D01*
X126206724Y-119170208D01*
X126262339Y-119208168D01*
X126262341Y-119208169D01*
X126262344Y-119208171D01*
X126265024Y-119209039D01*
X126269484Y-119210484D01*
X126275214Y-119214167D01*
X126335372Y-119231831D01*
X126399220Y-119252517D01*
X126406509Y-119252719D01*
X126413266Y-119254703D01*
X126478077Y-119254703D01*
X126479809Y-119254751D01*
X126543039Y-119256504D01*
X126543040Y-119256503D01*
X126543045Y-119256504D01*
X126543049Y-119256502D01*
X126551110Y-119255571D01*
X126557145Y-119254703D01*
X126557146Y-119254703D01*
X126621349Y-119235850D01*
X126682168Y-119219810D01*
X126688016Y-119216275D01*
X126695195Y-119214168D01*
X126695195Y-119214167D01*
X126695198Y-119214167D01*
X126753113Y-119176946D01*
X126805317Y-119145407D01*
X126809792Y-119140520D01*
X126812904Y-119138520D01*
X126816238Y-119136379D01*
X126862404Y-119083100D01*
X126902516Y-119039322D01*
X126905357Y-119033530D01*
X126910460Y-119027642D01*
X126938719Y-118965762D01*
X126951635Y-118950856D01*
X126961609Y-118922744D01*
X126983860Y-118860024D01*
X126985092Y-118856705D01*
X127004863Y-118805736D01*
X127006186Y-118802468D01*
X127026393Y-118754583D01*
X127027854Y-118751261D01*
X127046399Y-118710699D01*
X127048772Y-118705796D01*
X127092347Y-118620634D01*
X127095875Y-118614219D01*
X127137206Y-118544044D01*
X127141062Y-118537918D01*
X127181622Y-118477521D01*
X127185787Y-118471696D01*
X127224732Y-118420448D01*
X127229197Y-118414910D01*
X127249450Y-118391214D01*
X127265890Y-118371978D01*
X127270518Y-118366859D01*
X127304322Y-118331525D01*
X127309051Y-118326843D01*
X127339284Y-118298499D01*
X127344072Y-118294241D01*
X127370003Y-118272369D01*
X127374809Y-118268518D01*
X127395722Y-118252609D01*
X127400521Y-118249137D01*
X127410907Y-118241999D01*
X127417567Y-118237730D01*
X127436898Y-118226194D01*
X127443922Y-118222357D01*
X127443905Y-118222323D01*
X127444666Y-118221928D01*
X127444704Y-118221910D01*
X127457589Y-118215239D01*
X127573429Y-118129901D01*
X127660536Y-118015385D01*
X127711850Y-117880966D01*
X127711850Y-117880962D01*
X127711851Y-117880960D01*
X127723216Y-117737541D01*
X127723215Y-117737539D01*
X127723216Y-117737536D01*
X127693712Y-117596713D01*
X127637774Y-117492373D01*
X127623449Y-117423989D01*
X127648368Y-117358714D01*
X127704622Y-117317274D01*
X127711951Y-117314860D01*
X127740241Y-117306515D01*
X127768061Y-117297425D01*
X127860021Y-117264401D01*
X127894502Y-117250568D01*
X127978839Y-117213079D01*
X128009941Y-117197959D01*
X128086582Y-117157403D01*
X128114352Y-117141564D01*
X128183227Y-117099340D01*
X128207848Y-117083242D01*
X128268886Y-117040748D01*
X128290601Y-117024754D01*
X128343732Y-116983389D01*
X128362840Y-116967748D01*
X128407991Y-116928910D01*
X128424762Y-116913820D01*
X128461863Y-116878908D01*
X128482157Y-116858697D01*
X128531925Y-116806242D01*
X128552857Y-116782758D01*
X128568856Y-116763642D01*
X128576026Y-116755159D01*
X128579323Y-116751218D01*
X128587188Y-116741718D01*
X128590506Y-116737668D01*
X128598222Y-116728149D01*
X128601602Y-116723933D01*
X128609173Y-116714386D01*
X128612612Y-116709272D01*
X128615951Y-116705129D01*
X128616376Y-116704833D01*
X128618323Y-116702273D01*
X128619636Y-116700738D01*
X128619641Y-116700734D01*
X128657180Y-116649954D01*
X128673663Y-116626272D01*
X128707222Y-116574994D01*
X128722365Y-116550344D01*
X128752108Y-116498668D01*
X128765779Y-116473266D01*
X128791866Y-116421292D01*
X128803946Y-116395427D01*
X128826541Y-116343256D01*
X128836985Y-116317177D01*
X128856250Y-116264908D01*
X128865047Y-116238881D01*
X128881144Y-116186616D01*
X128888331Y-116160880D01*
X128901423Y-116108717D01*
X128907074Y-116083488D01*
X128917323Y-116031529D01*
X128921538Y-116006991D01*
X128929107Y-115955336D01*
X128932997Y-115920322D01*
X128940742Y-115818323D01*
X128942166Y-115774836D01*
X128941998Y-115758594D01*
X128941139Y-115675259D01*
X128941041Y-115673273D01*
X128939210Y-115636040D01*
X128930708Y-115539677D01*
X128926401Y-115504781D01*
X128926400Y-115504772D01*
X128919594Y-115461948D01*
X128911722Y-115412418D01*
X128905828Y-115381554D01*
X128886277Y-115294035D01*
X128879411Y-115266864D01*
X128856284Y-115184969D01*
X128848896Y-115161081D01*
X128823492Y-115085612D01*
X128815899Y-115064604D01*
X128789518Y-114996364D01*
X128781938Y-114977852D01*
X128755878Y-114917641D01*
X128745270Y-114894721D01*
X128745265Y-114894710D01*
X128745257Y-114894693D01*
X128699325Y-114801622D01*
X128699313Y-114801597D01*
X128692879Y-114789006D01*
X128679637Y-114763966D01*
X128679132Y-114762998D01*
X128667598Y-114740666D01*
X128667026Y-114739546D01*
X128655864Y-114717386D01*
X128655321Y-114716294D01*
X128644488Y-114694211D01*
X128643926Y-114693049D01*
X128633467Y-114671130D01*
X128632866Y-114669852D01*
X128622703Y-114647914D01*
X128622101Y-114646594D01*
X128612391Y-114624974D01*
X128611786Y-114623605D01*
X128603062Y-114603536D01*
X128602196Y-114601494D01*
X128602182Y-114601461D01*
X128568520Y-114520070D01*
X128567428Y-114517338D01*
X128561096Y-114500927D01*
X128561095Y-114500925D01*
X128545751Y-114461156D01*
X143033352Y-114461156D01*
X143033352Y-114689481D01*
X143069067Y-114914979D01*
X143139622Y-115132122D01*
X143239977Y-115329079D01*
X143243273Y-115335547D01*
X143377473Y-115520256D01*
X143538915Y-115681698D01*
X143538921Y-115681702D01*
X143598516Y-115725002D01*
X143641182Y-115780332D01*
X143647160Y-115849946D01*
X143614553Y-115911740D01*
X143598516Y-115925636D01*
X143538921Y-115968935D01*
X143538912Y-115968942D01*
X143377474Y-116130380D01*
X143243273Y-116315090D01*
X143139622Y-116518515D01*
X143069067Y-116735658D01*
X143033352Y-116961156D01*
X143033352Y-117189481D01*
X143069067Y-117414979D01*
X143139622Y-117632122D01*
X143200712Y-117752016D01*
X143243273Y-117835547D01*
X143377473Y-118020256D01*
X143538915Y-118181698D01*
X143723624Y-118315898D01*
X143789817Y-118349625D01*
X143927048Y-118419548D01*
X143927050Y-118419548D01*
X143927053Y-118419550D01*
X144043444Y-118457368D01*
X144144191Y-118490103D01*
X144369690Y-118525819D01*
X144369695Y-118525819D01*
X144598014Y-118525819D01*
X144823512Y-118490103D01*
X145040651Y-118419550D01*
X145244080Y-118315898D01*
X145428789Y-118181698D01*
X145590231Y-118020256D01*
X145724431Y-117835547D01*
X145828083Y-117632118D01*
X145898636Y-117414979D01*
X145904757Y-117376332D01*
X145934352Y-117189481D01*
X145934352Y-116961156D01*
X145898636Y-116735658D01*
X145846437Y-116575007D01*
X145828083Y-116518520D01*
X145828081Y-116518517D01*
X145828081Y-116518515D01*
X145765364Y-116395427D01*
X145724431Y-116315091D01*
X145590231Y-116130382D01*
X145428789Y-115968940D01*
X145369185Y-115925635D01*
X145355250Y-115907563D01*
X145337960Y-115892672D01*
X145334323Y-115880424D01*
X145326522Y-115870307D01*
X145324569Y-115847568D01*
X145318074Y-115825692D01*
X145321636Y-115813422D01*
X145320543Y-115800693D01*
X145331192Y-115780509D01*
X145337556Y-115758594D01*
X145349385Y-115746030D01*
X145353149Y-115738898D01*
X145360589Y-115731851D01*
X145364736Y-115728235D01*
X145428789Y-115681698D01*
X145501348Y-115609138D01*
X145504546Y-115606351D01*
X145532582Y-115593445D01*
X145559672Y-115578653D01*
X145566253Y-115577945D01*
X145568014Y-115577135D01*
X145570516Y-115577487D01*
X145586030Y-115575819D01*
X150992395Y-115575819D01*
X151051243Y-115564112D01*
X151102093Y-115553998D01*
X151185688Y-115537370D01*
X151264415Y-115504760D01*
X151367766Y-115461951D01*
X151531634Y-115352458D01*
X151670991Y-115213101D01*
X151670992Y-115213099D01*
X151678058Y-115206033D01*
X151678061Y-115206029D01*
X154922630Y-111961460D01*
X154922634Y-111961458D01*
X155061991Y-111822101D01*
X155171484Y-111658233D01*
X155246903Y-111476154D01*
X155285352Y-111282860D01*
X155285352Y-105308819D01*
X155305037Y-105241780D01*
X155357841Y-105196025D01*
X155409352Y-105184819D01*
X156477827Y-105184819D01*
X156477835Y-105184818D01*
X157702723Y-105184818D01*
X157702724Y-105184818D01*
X157762335Y-105178410D01*
X157897183Y-105128115D01*
X158012398Y-105041865D01*
X158098648Y-104926650D01*
X158148943Y-104791802D01*
X158155352Y-104732192D01*
X158155351Y-103636447D01*
X158148943Y-103576836D01*
X158137947Y-103547355D01*
X158098649Y-103441990D01*
X158098645Y-103441983D01*
X158046975Y-103372962D01*
X158012398Y-103326773D01*
X157954706Y-103283584D01*
X157912836Y-103227652D01*
X157907852Y-103157960D01*
X157941337Y-103096637D01*
X157954706Y-103085053D01*
X158012398Y-103041865D01*
X158098648Y-102926650D01*
X158148943Y-102791802D01*
X158155352Y-102732192D01*
X158155351Y-101636447D01*
X158148943Y-101576836D01*
X158098736Y-101442225D01*
X158098649Y-101441990D01*
X158098645Y-101441983D01*
X158012399Y-101326774D01*
X158012396Y-101326772D01*
X157994761Y-101313570D01*
X157954289Y-101283272D01*
X157912419Y-101227338D01*
X157907435Y-101157646D01*
X157940921Y-101096323D01*
X157954291Y-101084739D01*
X158012041Y-101041507D01*
X158012042Y-101041506D01*
X158098202Y-100926412D01*
X158098206Y-100926405D01*
X158148448Y-100791698D01*
X158148450Y-100791691D01*
X158154851Y-100732163D01*
X158154852Y-100732146D01*
X158154852Y-100434319D01*
X156609827Y-100434319D01*
X156644922Y-100399224D01*
X156691000Y-100319414D01*
X156714852Y-100230397D01*
X156714852Y-100138241D01*
X156691000Y-100049224D01*
X156644922Y-99969414D01*
X156609827Y-99934319D01*
X156614852Y-99934319D01*
X158154852Y-99934319D01*
X158154852Y-99636491D01*
X158154851Y-99636474D01*
X158148450Y-99576946D01*
X158148448Y-99576939D01*
X158098206Y-99442232D01*
X158098202Y-99442225D01*
X158012042Y-99327132D01*
X157953873Y-99283586D01*
X157912002Y-99227652D01*
X157907018Y-99157960D01*
X157940503Y-99096637D01*
X157953873Y-99085052D01*
X158012042Y-99041505D01*
X158098202Y-98926412D01*
X158098206Y-98926405D01*
X158148448Y-98791698D01*
X158148450Y-98791691D01*
X158154851Y-98732163D01*
X158154852Y-98732146D01*
X158154852Y-98434319D01*
X156614852Y-98434319D01*
X156614852Y-99934319D01*
X156609827Y-99934319D01*
X156579757Y-99904249D01*
X156499947Y-99858171D01*
X156410930Y-99834319D01*
X156318774Y-99834319D01*
X156229757Y-99858171D01*
X156149947Y-99904249D01*
X156084782Y-99969414D01*
X156038704Y-100049224D01*
X156014852Y-100138241D01*
X156014852Y-100230397D01*
X156038704Y-100319414D01*
X156084782Y-100399224D01*
X156119877Y-100434319D01*
X154574852Y-100434319D01*
X154574852Y-100732163D01*
X154581253Y-100791691D01*
X154581255Y-100791698D01*
X154631497Y-100926405D01*
X154631501Y-100926412D01*
X154717661Y-101041505D01*
X154775413Y-101084739D01*
X154817284Y-101140673D01*
X154822268Y-101210365D01*
X154788783Y-101271688D01*
X154775415Y-101283271D01*
X154717306Y-101326772D01*
X154717304Y-101326774D01*
X154631058Y-101441983D01*
X154631054Y-101441990D01*
X154580760Y-101576836D01*
X154574353Y-101636435D01*
X154574353Y-101636442D01*
X154574352Y-101636454D01*
X154574352Y-102732189D01*
X154574353Y-102732195D01*
X154580760Y-102791802D01*
X154631054Y-102926647D01*
X154631056Y-102926650D01*
X154675117Y-102985508D01*
X154699535Y-103050971D01*
X154684684Y-103119244D01*
X154635279Y-103168650D01*
X154575851Y-103183819D01*
X153983853Y-103183819D01*
X153916814Y-103164134D01*
X153871059Y-103111330D01*
X153861115Y-103042172D01*
X153884586Y-102985508D01*
X153928648Y-102926650D01*
X153978943Y-102791802D01*
X153985352Y-102732192D01*
X153985351Y-101636447D01*
X153978943Y-101576836D01*
X153928736Y-101442225D01*
X153928649Y-101441990D01*
X153928645Y-101441983D01*
X153842399Y-101326774D01*
X153842396Y-101326772D01*
X153824761Y-101313570D01*
X153784289Y-101283272D01*
X153742419Y-101227338D01*
X153737435Y-101157646D01*
X153770921Y-101096323D01*
X153784291Y-101084739D01*
X153842041Y-101041507D01*
X153842042Y-101041506D01*
X153928202Y-100926412D01*
X153928206Y-100926405D01*
X153978448Y-100791698D01*
X153978450Y-100791691D01*
X153984851Y-100732163D01*
X153984852Y-100732146D01*
X153984852Y-100434319D01*
X152439827Y-100434319D01*
X152474922Y-100399224D01*
X152521000Y-100319414D01*
X152544852Y-100230397D01*
X152544852Y-100138241D01*
X152521000Y-100049224D01*
X152474922Y-99969414D01*
X152439827Y-99934319D01*
X152444852Y-99934319D01*
X153984852Y-99934319D01*
X153984852Y-99636491D01*
X153984851Y-99636474D01*
X153978450Y-99576946D01*
X153978448Y-99576939D01*
X153928206Y-99442232D01*
X153928202Y-99442225D01*
X153842042Y-99327132D01*
X153783873Y-99283586D01*
X153742002Y-99227652D01*
X153737018Y-99157960D01*
X153770503Y-99096637D01*
X153783873Y-99085052D01*
X153842042Y-99041505D01*
X153928202Y-98926412D01*
X153928206Y-98926405D01*
X153978448Y-98791698D01*
X153978450Y-98791691D01*
X153984851Y-98732163D01*
X154574852Y-98732163D01*
X154581253Y-98791691D01*
X154581255Y-98791698D01*
X154631497Y-98926405D01*
X154631501Y-98926412D01*
X154717661Y-99041506D01*
X154775831Y-99085053D01*
X154817701Y-99140987D01*
X154822685Y-99210679D01*
X154789199Y-99272002D01*
X154775831Y-99283585D01*
X154717661Y-99327131D01*
X154631501Y-99442225D01*
X154631497Y-99442232D01*
X154581255Y-99576939D01*
X154581253Y-99576946D01*
X154574852Y-99636474D01*
X154574852Y-99934319D01*
X156114852Y-99934319D01*
X156114852Y-98434319D01*
X154574852Y-98434319D01*
X154574852Y-98732163D01*
X153984851Y-98732163D01*
X153984852Y-98732146D01*
X153984852Y-98434319D01*
X152444852Y-98434319D01*
X152444852Y-99934319D01*
X152439827Y-99934319D01*
X152409757Y-99904249D01*
X152329947Y-99858171D01*
X152240930Y-99834319D01*
X152148774Y-99834319D01*
X152059757Y-99858171D01*
X151979947Y-99904249D01*
X151914782Y-99969414D01*
X151868704Y-100049224D01*
X151844852Y-100138241D01*
X151844852Y-100230397D01*
X151868704Y-100319414D01*
X151914782Y-100399224D01*
X151949877Y-100434319D01*
X150404852Y-100434319D01*
X150404852Y-100732163D01*
X150411253Y-100791691D01*
X150411255Y-100791698D01*
X150461497Y-100926405D01*
X150461501Y-100926412D01*
X150547661Y-101041505D01*
X150605413Y-101084739D01*
X150647284Y-101140673D01*
X150652268Y-101210365D01*
X150618783Y-101271688D01*
X150605415Y-101283271D01*
X150547306Y-101326772D01*
X150547304Y-101326774D01*
X150461058Y-101441983D01*
X150461054Y-101441990D01*
X150410760Y-101576836D01*
X150404353Y-101636435D01*
X150404353Y-101636442D01*
X150404352Y-101636454D01*
X150404352Y-102732189D01*
X150404353Y-102732195D01*
X150410760Y-102791802D01*
X150461054Y-102926647D01*
X150461058Y-102926654D01*
X150547304Y-103041863D01*
X150547305Y-103041863D01*
X150547306Y-103041865D01*
X150559470Y-103050971D01*
X150604997Y-103085053D01*
X150646867Y-103140987D01*
X150651851Y-103210679D01*
X150618365Y-103272002D01*
X150604997Y-103283585D01*
X150547304Y-103326774D01*
X150461058Y-103441983D01*
X150461054Y-103441990D01*
X150410760Y-103576836D01*
X150404353Y-103636435D01*
X150404353Y-103636442D01*
X150404352Y-103636454D01*
X150404352Y-104732189D01*
X150404353Y-104732195D01*
X150410760Y-104791802D01*
X150461054Y-104926647D01*
X150461058Y-104926654D01*
X150547304Y-105041863D01*
X150547307Y-105041866D01*
X150662516Y-105128112D01*
X150662523Y-105128116D01*
X150797369Y-105178410D01*
X150797368Y-105178410D01*
X150804296Y-105179154D01*
X150856979Y-105184819D01*
X152086308Y-105184818D01*
X152086322Y-105184819D01*
X152096311Y-105184819D01*
X153160352Y-105184819D01*
X153227391Y-105204504D01*
X153273146Y-105257308D01*
X153284352Y-105308819D01*
X153284352Y-110718537D01*
X153264667Y-110785576D01*
X153248033Y-110806218D01*
X150515751Y-113538500D01*
X150454428Y-113571985D01*
X150428070Y-113574819D01*
X145586030Y-113574819D01*
X145518991Y-113555134D01*
X145498349Y-113538500D01*
X145428790Y-113468941D01*
X145422662Y-113464489D01*
X145244080Y-113334740D01*
X145169813Y-113296899D01*
X145040655Y-113231089D01*
X144823512Y-113160534D01*
X144598014Y-113124819D01*
X144598009Y-113124819D01*
X144369695Y-113124819D01*
X144369690Y-113124819D01*
X144144191Y-113160534D01*
X143927048Y-113231089D01*
X143723623Y-113334740D01*
X143538913Y-113468941D01*
X143377474Y-113630380D01*
X143243273Y-113815090D01*
X143139622Y-114018515D01*
X143069067Y-114235658D01*
X143033352Y-114461156D01*
X128545751Y-114461156D01*
X128538851Y-114443272D01*
X128537793Y-114440428D01*
X128513344Y-114372130D01*
X128512338Y-114369205D01*
X128491677Y-114306610D01*
X128490751Y-114303684D01*
X128473556Y-114246753D01*
X128472681Y-114243713D01*
X128458639Y-114192459D01*
X128457816Y-114189291D01*
X128446612Y-114143707D01*
X128445861Y-114140466D01*
X128438029Y-114104460D01*
X128437067Y-114099564D01*
X128425135Y-114031659D01*
X128424132Y-114024845D01*
X128419152Y-113982978D01*
X128418522Y-113976012D01*
X128417869Y-113965482D01*
X128417235Y-113955264D01*
X128417000Y-113948278D01*
X128416954Y-113939468D01*
X128416992Y-113936124D01*
X128416983Y-113936124D01*
X128416994Y-113935543D01*
X128417049Y-113932979D01*
X128417214Y-113923832D01*
X128417269Y-113919910D01*
X128417269Y-113919812D01*
X128417272Y-113919671D01*
X128417361Y-113910920D01*
X128417363Y-113910764D01*
X128417390Y-113906067D01*
X128417392Y-113903929D01*
X128417423Y-113901257D01*
X128417877Y-113881826D01*
X128418184Y-113875551D01*
X128418895Y-113866032D01*
X128419514Y-113859846D01*
X128420663Y-113850697D01*
X128420667Y-113850664D01*
X128421566Y-113844697D01*
X128423153Y-113835677D01*
X128424305Y-113829934D01*
X128426343Y-113820904D01*
X128427732Y-113815353D01*
X128430228Y-113806275D01*
X128431803Y-113801010D01*
X128434819Y-113791699D01*
X128436538Y-113786758D01*
X128437906Y-113783080D01*
X128440736Y-113776132D01*
X128452127Y-113750431D01*
X128456239Y-113742026D01*
X128466976Y-113722028D01*
X128471230Y-113714719D01*
X128483852Y-113694647D01*
X128488135Y-113688285D01*
X128494990Y-113678751D01*
X128502186Y-113668742D01*
X128506352Y-113663276D01*
X128521183Y-113644906D01*
X128525160Y-113640227D01*
X128539892Y-113623749D01*
X128543694Y-113619686D01*
X128557385Y-113605702D01*
X128560941Y-113602215D01*
X128569269Y-113594377D01*
X128573948Y-113590195D01*
X128592742Y-113574240D01*
X128598200Y-113569867D01*
X128602353Y-113566727D01*
X128608025Y-113562375D01*
X128707810Y-113458719D01*
X128774350Y-113331150D01*
X128802254Y-113190001D01*
X128802254Y-113190000D01*
X128789262Y-113046715D01*
X128789261Y-113046710D01*
X128786361Y-113039365D01*
X128736425Y-112912881D01*
X128736424Y-112912880D01*
X128736424Y-112912879D01*
X128704785Y-112872249D01*
X128648026Y-112799360D01*
X128531224Y-112715342D01*
X128443192Y-112684402D01*
X128395485Y-112667635D01*
X128395482Y-112667634D01*
X128266865Y-112660891D01*
X128251801Y-112660102D01*
X128251800Y-112660102D01*
X128251799Y-112660102D01*
X128111811Y-112693356D01*
X128111807Y-112693357D01*
X128037226Y-112722803D01*
X128021887Y-112729151D01*
X127951252Y-112759751D01*
X127935444Y-112766922D01*
X127868543Y-112798669D01*
X127852373Y-112806701D01*
X127789253Y-112839474D01*
X127772659Y-112848487D01*
X127713208Y-112882228D01*
X127696283Y-112892273D01*
X127640386Y-112926938D01*
X127623246Y-112938052D01*
X127570793Y-112973588D01*
X127553551Y-112985802D01*
X127504427Y-113022170D01*
X127486093Y-113036542D01*
X127482493Y-113039365D01*
X127437741Y-113076484D01*
X127412474Y-113097443D01*
X127385980Y-113121038D01*
X127355749Y-113149927D01*
X127349542Y-113153135D01*
X127345413Y-113158772D01*
X127318909Y-113168969D01*
X127293681Y-113182011D01*
X127286724Y-113181354D01*
X127280204Y-113183863D01*
X127252392Y-113178113D01*
X127224121Y-113175444D01*
X127218625Y-113171131D01*
X127211782Y-113169717D01*
X127191490Y-113149840D01*
X127169153Y-113132313D01*
X127165659Y-113124537D01*
X127161869Y-113120824D01*
X127149195Y-113087888D01*
X127114975Y-112938046D01*
X127107480Y-112905225D01*
X127107133Y-112903659D01*
X127089347Y-112820857D01*
X126979433Y-112309144D01*
X126979432Y-112309144D01*
X126973092Y-112279627D01*
X126970158Y-112272261D01*
X126970025Y-112271880D01*
X126970023Y-112271877D01*
X126970023Y-112271874D01*
X126965853Y-112262744D01*
X126958030Y-112239994D01*
X126955237Y-112228277D01*
X126929832Y-112183869D01*
X126910253Y-112140996D01*
X126895694Y-112124194D01*
X126883792Y-112103389D01*
X126883790Y-112103387D01*
X126883789Y-112103385D01*
X126851235Y-112072098D01*
X126847152Y-112068174D01*
X126816031Y-112032259D01*
X126797171Y-112020138D01*
X126788458Y-112011764D01*
X126788457Y-112011762D01*
X126788455Y-112011761D01*
X126780056Y-112003688D01*
X126780054Y-112003687D01*
X126740435Y-111983062D01*
X126740435Y-111983063D01*
X126735414Y-111980449D01*
X126694991Y-111954471D01*
X126673241Y-111948084D01*
X126652432Y-111937252D01*
X126652431Y-111937251D01*
X126652430Y-111937251D01*
X126609185Y-111928738D01*
X126609185Y-111928737D01*
X126603624Y-111927642D01*
X126556939Y-111913935D01*
X126533986Y-111913935D01*
X126522124Y-111911600D01*
X126522123Y-111911600D01*
X126511261Y-111909461D01*
X126468007Y-111913419D01*
X126456710Y-111913935D01*
X126413056Y-111913935D01*
X126402341Y-111917080D01*
X126402342Y-111917081D01*
X126390741Y-111920487D01*
X126367979Y-111922570D01*
X126322917Y-111940401D01*
X126317482Y-111941998D01*
X126275008Y-111954470D01*
X126275004Y-111954472D01*
X126265361Y-111960668D01*
X126265362Y-111960669D01*
X126255193Y-111967204D01*
X126234194Y-111975515D01*
X126196449Y-112004955D01*
X126191686Y-112008017D01*
X126153968Y-112032257D01*
X126153962Y-112032262D01*
X126146283Y-112041123D01*
X126146284Y-112041124D01*
X126138366Y-112050261D01*
X126120745Y-112064007D01*
X126093115Y-112102482D01*
X126089408Y-112106761D01*
X126059747Y-112140992D01*
X126059745Y-112140994D01*
X126054780Y-112151867D01*
X126049760Y-112162859D01*
X126036822Y-112180877D01*
X126021268Y-112225244D01*
X126018913Y-112230401D01*
X126018912Y-112230405D01*
X125997714Y-112276824D01*
X125863063Y-112903693D01*
X125862716Y-112905259D01*
X125821010Y-113087882D01*
X125786894Y-113148857D01*
X125725228Y-113181707D01*
X125655592Y-113176003D01*
X125614455Y-113149925D01*
X125584226Y-113121039D01*
X125557712Y-113097427D01*
X125460481Y-113016778D01*
X125450130Y-113010243D01*
X125445866Y-113007017D01*
X125443947Y-113005596D01*
X125437219Y-113000616D01*
X125412293Y-112982576D01*
X125412282Y-112982568D01*
X125403671Y-112976471D01*
X125399508Y-112973588D01*
X125377938Y-112958651D01*
X125377901Y-112958626D01*
X125377865Y-112958601D01*
X125369271Y-112952780D01*
X125342612Y-112935118D01*
X125334059Y-112929575D01*
X125333993Y-112929532D01*
X125306522Y-112912119D01*
X125298053Y-112906868D01*
X125269705Y-112889675D01*
X125261161Y-112884606D01*
X125251396Y-112878940D01*
X125231907Y-112867632D01*
X125223523Y-112862873D01*
X125223520Y-112862871D01*
X125223493Y-112862856D01*
X125193384Y-112846145D01*
X125193367Y-112846136D01*
X125193335Y-112846118D01*
X125185071Y-112841632D01*
X125153973Y-112825121D01*
X125153929Y-112825098D01*
X125145740Y-112820844D01*
X125113785Y-112804620D01*
X125105638Y-112800577D01*
X125072735Y-112784606D01*
X125070321Y-112783460D01*
X125064690Y-112780787D01*
X125030789Y-112765059D01*
X125030615Y-112764980D01*
X125022963Y-112761509D01*
X125007022Y-112754442D01*
X124988051Y-112746033D01*
X124983438Y-112744034D01*
X124980267Y-112742659D01*
X124944482Y-112727508D01*
X124936793Y-112724327D01*
X124922854Y-112718693D01*
X124899986Y-112709450D01*
X124899956Y-112709438D01*
X124899921Y-112709424D01*
X124892520Y-112706501D01*
X124854711Y-112691919D01*
X124853919Y-112691616D01*
X124851722Y-112690777D01*
X124851720Y-112690776D01*
X124851716Y-112690775D01*
X124711284Y-112659507D01*
X124711281Y-112659507D01*
X124639500Y-112664289D01*
X124567716Y-112669071D01*
X124432664Y-112718694D01*
X124317069Y-112804349D01*
X124317062Y-112804356D01*
X124230281Y-112919112D01*
X124179341Y-113053676D01*
X124179340Y-113053679D01*
X124168377Y-113197132D01*
X124168377Y-113197136D01*
X124198274Y-113337879D01*
X124251065Y-113435689D01*
X124266612Y-113464493D01*
X124266615Y-113464496D01*
X124360153Y-113558952D01*
X124367853Y-113566727D01*
X124367857Y-113566730D01*
X124376778Y-113573477D01*
X124380402Y-113576326D01*
X124382772Y-113578262D01*
X124385876Y-113580884D01*
X124394302Y-113588248D01*
X124397663Y-113591297D01*
X124409240Y-113602194D01*
X124412824Y-113605707D01*
X124426501Y-113619677D01*
X124430314Y-113623753D01*
X124436241Y-113630382D01*
X124445015Y-113640195D01*
X124445020Y-113640200D01*
X124449064Y-113644959D01*
X124466790Y-113666915D01*
X124469895Y-113670925D01*
X124474615Y-113677287D01*
X124476746Y-113680250D01*
X124483666Y-113690175D01*
X124485780Y-113693308D01*
X124492347Y-113703377D01*
X124494479Y-113706767D01*
X124500601Y-113716859D01*
X124502737Y-113720520D01*
X124508366Y-113730560D01*
X124510466Y-113734469D01*
X124515589Y-113744431D01*
X124517656Y-113748644D01*
X124522242Y-113758458D01*
X124524229Y-113762940D01*
X124528264Y-113772548D01*
X124530154Y-113777323D01*
X124533652Y-113786725D01*
X124535402Y-113791757D01*
X124538391Y-113800986D01*
X124539985Y-113806313D01*
X124542471Y-113815353D01*
X124543868Y-113820936D01*
X124545885Y-113829874D01*
X124547051Y-113835684D01*
X124548630Y-113844659D01*
X124549540Y-113850697D01*
X124550689Y-113859848D01*
X124551311Y-113866063D01*
X124552017Y-113875518D01*
X124552327Y-113881859D01*
X124552778Y-113901191D01*
X124552812Y-113903929D01*
X124552814Y-113906051D01*
X124552842Y-113910920D01*
X124552936Y-113919957D01*
X124552988Y-113923592D01*
X124552990Y-113923744D01*
X124552992Y-113923832D01*
X124553157Y-113932979D01*
X124553159Y-113933065D01*
X124553222Y-113936040D01*
X124553222Y-113936043D01*
X124553225Y-113936186D01*
X124553250Y-113939446D01*
X124553177Y-113953189D01*
X124553046Y-113958274D01*
X124552876Y-113961940D01*
X124552661Y-113965482D01*
X124551698Y-113978305D01*
X124551385Y-113981803D01*
X124549503Y-113999961D01*
X124549093Y-114003441D01*
X124545985Y-114026932D01*
X124545484Y-114030348D01*
X124540833Y-114059281D01*
X124540244Y-114062651D01*
X124533718Y-114097146D01*
X124533046Y-114100453D01*
X124524335Y-114140499D01*
X124523585Y-114143736D01*
X124512394Y-114189271D01*
X124511570Y-114192442D01*
X124497523Y-114243713D01*
X124496634Y-114246801D01*
X124479480Y-114303596D01*
X124478527Y-114306610D01*
X124457866Y-114369205D01*
X124456860Y-114372131D01*
X124432403Y-114440450D01*
X124431345Y-114443294D01*
X124402770Y-114517352D01*
X124401669Y-114520107D01*
X124368022Y-114601461D01*
X124367158Y-114603498D01*
X124358429Y-114623581D01*
X124357821Y-114624958D01*
X124348104Y-114646592D01*
X124347504Y-114647908D01*
X124337339Y-114669851D01*
X124336738Y-114671128D01*
X124326279Y-114693048D01*
X124325691Y-114694264D01*
X124314945Y-114716168D01*
X124314364Y-114717337D01*
X124303126Y-114739647D01*
X124302556Y-114740764D01*
X124291095Y-114762955D01*
X124290539Y-114764019D01*
X124277315Y-114789025D01*
X124270909Y-114801563D01*
X124224939Y-114894710D01*
X124214325Y-114917645D01*
X124188271Y-114977842D01*
X124180679Y-114996383D01*
X124154297Y-115064625D01*
X124146725Y-115085575D01*
X124146713Y-115085612D01*
X124121309Y-115161081D01*
X124121304Y-115161098D01*
X124113924Y-115184958D01*
X124090788Y-115266883D01*
X124083929Y-115294028D01*
X124064379Y-115381544D01*
X124058483Y-115412416D01*
X124043803Y-115504781D01*
X124040405Y-115530360D01*
X124035303Y-115578082D01*
X124033665Y-115596615D01*
X124030268Y-115645222D01*
X124029282Y-115664818D01*
X124027752Y-115714298D01*
X124027535Y-115734945D01*
X114341084Y-115734945D01*
X114278219Y-115676199D01*
X114275201Y-115673281D01*
X113595891Y-114993970D01*
X113592973Y-114990952D01*
X113503037Y-114894710D01*
X112937014Y-114288996D01*
X112934207Y-114285888D01*
X112898728Y-114245246D01*
X112302409Y-113562154D01*
X112299708Y-113558952D01*
X112296596Y-113555134D01*
X111692770Y-112814243D01*
X111690174Y-112810945D01*
X111681368Y-112799360D01*
X111108792Y-112046111D01*
X111106315Y-112042736D01*
X111106311Y-112042731D01*
X110551147Y-111258645D01*
X110548794Y-111255200D01*
X110195466Y-110718537D01*
X110020496Y-110452777D01*
X110018250Y-110449237D01*
X110018249Y-110449236D01*
X109751595Y-110012729D01*
X109603534Y-109770357D01*
X109585352Y-109705715D01*
X109585352Y-104732163D01*
X110014852Y-104732163D01*
X110021253Y-104791691D01*
X110021255Y-104791698D01*
X110071497Y-104926405D01*
X110071501Y-104926412D01*
X110157661Y-105041506D01*
X110157664Y-105041509D01*
X110272758Y-105127669D01*
X110272765Y-105127673D01*
X110407472Y-105177915D01*
X110407479Y-105177917D01*
X110467007Y-105184318D01*
X110467024Y-105184319D01*
X111554852Y-105184319D01*
X112054852Y-105184319D01*
X113142680Y-105184319D01*
X113142696Y-105184318D01*
X113202224Y-105177917D01*
X113202231Y-105177915D01*
X113336938Y-105127673D01*
X113336945Y-105127669D01*
X113452039Y-105041509D01*
X113452042Y-105041506D01*
X113538202Y-104926412D01*
X113538206Y-104926405D01*
X113588448Y-104791698D01*
X113588450Y-104791691D01*
X113594851Y-104732163D01*
X114184852Y-104732163D01*
X114191253Y-104791691D01*
X114191255Y-104791698D01*
X114241497Y-104926405D01*
X114241501Y-104926412D01*
X114327661Y-105041506D01*
X114327664Y-105041509D01*
X114442758Y-105127669D01*
X114442765Y-105127673D01*
X114577472Y-105177915D01*
X114577479Y-105177917D01*
X114637007Y-105184318D01*
X114637024Y-105184319D01*
X115724852Y-105184319D01*
X116224852Y-105184319D01*
X117312680Y-105184319D01*
X117312696Y-105184318D01*
X117372224Y-105177917D01*
X117372231Y-105177915D01*
X117506938Y-105127673D01*
X117506945Y-105127669D01*
X117622039Y-105041509D01*
X117622042Y-105041506D01*
X117708202Y-104926412D01*
X117708206Y-104926405D01*
X117758448Y-104791698D01*
X117758450Y-104791691D01*
X117764851Y-104732163D01*
X117764852Y-104732146D01*
X117764852Y-104434319D01*
X116224852Y-104434319D01*
X116224852Y-105184319D01*
X115724852Y-105184319D01*
X115724852Y-104434319D01*
X114184852Y-104434319D01*
X114184852Y-104732163D01*
X113594851Y-104732163D01*
X113594852Y-104732146D01*
X113594852Y-104434319D01*
X112054852Y-104434319D01*
X112054852Y-105184319D01*
X111554852Y-105184319D01*
X111554852Y-104434319D01*
X110014852Y-104434319D01*
X110014852Y-104732163D01*
X109585352Y-104732163D01*
X109585352Y-104138241D01*
X111454852Y-104138241D01*
X111454852Y-104230397D01*
X111478704Y-104319414D01*
X111524782Y-104399224D01*
X111589947Y-104464389D01*
X111669757Y-104510467D01*
X111758774Y-104534319D01*
X111850930Y-104534319D01*
X111939947Y-104510467D01*
X112019757Y-104464389D01*
X112084922Y-104399224D01*
X112131000Y-104319414D01*
X112154852Y-104230397D01*
X112154852Y-104138241D01*
X115624852Y-104138241D01*
X115624852Y-104230397D01*
X115648704Y-104319414D01*
X115694782Y-104399224D01*
X115759947Y-104464389D01*
X115839757Y-104510467D01*
X115928774Y-104534319D01*
X116020930Y-104534319D01*
X116109947Y-104510467D01*
X116189757Y-104464389D01*
X116254922Y-104399224D01*
X116301000Y-104319414D01*
X116324852Y-104230397D01*
X116324852Y-104138241D01*
X116301000Y-104049224D01*
X116254922Y-103969414D01*
X116219827Y-103934319D01*
X116224852Y-103934319D01*
X117764852Y-103934319D01*
X117764852Y-103636491D01*
X117764851Y-103636474D01*
X117758450Y-103576946D01*
X117758448Y-103576939D01*
X117708206Y-103442232D01*
X117708202Y-103442225D01*
X117622042Y-103327132D01*
X117563873Y-103283586D01*
X117522002Y-103227652D01*
X117517018Y-103157960D01*
X117550503Y-103096637D01*
X117563873Y-103085052D01*
X117622042Y-103041505D01*
X117708202Y-102926412D01*
X117708206Y-102926405D01*
X117758448Y-102791698D01*
X117758450Y-102791691D01*
X117764851Y-102732163D01*
X117764852Y-102732146D01*
X117764852Y-102434319D01*
X116224852Y-102434319D01*
X116224852Y-103934319D01*
X116219827Y-103934319D01*
X116189757Y-103904249D01*
X116109947Y-103858171D01*
X116020930Y-103834319D01*
X115928774Y-103834319D01*
X115839757Y-103858171D01*
X115759947Y-103904249D01*
X115694782Y-103969414D01*
X115648704Y-104049224D01*
X115624852Y-104138241D01*
X112154852Y-104138241D01*
X112131000Y-104049224D01*
X112084922Y-103969414D01*
X112049827Y-103934319D01*
X112054852Y-103934319D01*
X113594852Y-103934319D01*
X113594852Y-103636491D01*
X113594851Y-103636474D01*
X113588450Y-103576946D01*
X113588448Y-103576939D01*
X113538206Y-103442232D01*
X113538202Y-103442225D01*
X113452042Y-103327132D01*
X113393873Y-103283586D01*
X113352002Y-103227652D01*
X113347018Y-103157960D01*
X113380503Y-103096637D01*
X113393873Y-103085052D01*
X113452042Y-103041505D01*
X113538202Y-102926412D01*
X113538206Y-102926405D01*
X113588448Y-102791698D01*
X113588450Y-102791691D01*
X113594851Y-102732163D01*
X114184852Y-102732163D01*
X114191253Y-102791691D01*
X114191255Y-102791698D01*
X114241497Y-102926405D01*
X114241501Y-102926412D01*
X114327661Y-103041506D01*
X114385831Y-103085053D01*
X114427701Y-103140987D01*
X114432685Y-103210679D01*
X114399199Y-103272002D01*
X114385831Y-103283585D01*
X114327661Y-103327131D01*
X114241501Y-103442225D01*
X114241497Y-103442232D01*
X114191255Y-103576939D01*
X114191253Y-103576946D01*
X114184852Y-103636474D01*
X114184852Y-103934319D01*
X115724852Y-103934319D01*
X115724852Y-102434319D01*
X114184852Y-102434319D01*
X114184852Y-102732163D01*
X113594851Y-102732163D01*
X113594852Y-102732146D01*
X113594852Y-102434319D01*
X112054852Y-102434319D01*
X112054852Y-103934319D01*
X112049827Y-103934319D01*
X112019757Y-103904249D01*
X111939947Y-103858171D01*
X111850930Y-103834319D01*
X111758774Y-103834319D01*
X111669757Y-103858171D01*
X111589947Y-103904249D01*
X111524782Y-103969414D01*
X111478704Y-104049224D01*
X111454852Y-104138241D01*
X109585352Y-104138241D01*
X109585352Y-102732163D01*
X110014852Y-102732163D01*
X110021253Y-102791691D01*
X110021255Y-102791698D01*
X110071497Y-102926405D01*
X110071501Y-102926412D01*
X110157661Y-103041506D01*
X110215831Y-103085053D01*
X110257701Y-103140987D01*
X110262685Y-103210679D01*
X110229199Y-103272002D01*
X110215831Y-103283585D01*
X110157661Y-103327131D01*
X110071501Y-103442225D01*
X110071497Y-103442232D01*
X110021255Y-103576939D01*
X110021253Y-103576946D01*
X110014852Y-103636474D01*
X110014852Y-103934319D01*
X111554852Y-103934319D01*
X111554852Y-102434319D01*
X110014852Y-102434319D01*
X110014852Y-102732163D01*
X109585352Y-102732163D01*
X109585352Y-85636454D01*
X110014352Y-85636454D01*
X110014352Y-86732189D01*
X110014353Y-86732195D01*
X110020760Y-86791802D01*
X110071054Y-86926647D01*
X110071058Y-86926654D01*
X110157304Y-87041863D01*
X110157305Y-87041863D01*
X110157306Y-87041865D01*
X110186467Y-87063695D01*
X110214997Y-87085053D01*
X110256867Y-87140987D01*
X110261851Y-87210679D01*
X110228365Y-87272002D01*
X110214997Y-87283585D01*
X110157304Y-87326774D01*
X110071058Y-87441983D01*
X110071054Y-87441990D01*
X110020760Y-87576836D01*
X110014353Y-87636435D01*
X110014353Y-87636442D01*
X110014352Y-87636454D01*
X110014352Y-88732189D01*
X110014353Y-88732195D01*
X110020760Y-88791802D01*
X110071054Y-88926647D01*
X110071058Y-88926654D01*
X110157304Y-89041863D01*
X110157305Y-89041863D01*
X110157306Y-89041865D01*
X110178548Y-89057767D01*
X110214997Y-89085053D01*
X110256867Y-89140987D01*
X110261851Y-89210679D01*
X110228365Y-89272002D01*
X110214997Y-89283585D01*
X110157304Y-89326774D01*
X110071058Y-89441983D01*
X110071054Y-89441990D01*
X110020760Y-89576836D01*
X110014353Y-89636435D01*
X110014353Y-89636442D01*
X110014352Y-89636454D01*
X110014352Y-90732189D01*
X110014353Y-90732195D01*
X110020760Y-90791802D01*
X110071054Y-90926647D01*
X110071058Y-90926654D01*
X110157304Y-91041863D01*
X110157305Y-91041863D01*
X110157306Y-91041865D01*
X110192579Y-91068270D01*
X110215414Y-91085365D01*
X110257284Y-91141299D01*
X110262268Y-91210991D01*
X110228782Y-91272313D01*
X110215414Y-91283897D01*
X110157661Y-91327131D01*
X110071501Y-91442225D01*
X110071497Y-91442232D01*
X110021255Y-91576939D01*
X110021253Y-91576946D01*
X110014852Y-91636474D01*
X110014852Y-91934319D01*
X111559877Y-91934319D01*
X111524782Y-91969414D01*
X111478704Y-92049224D01*
X111454852Y-92138241D01*
X111454852Y-92230397D01*
X111478704Y-92319414D01*
X111524782Y-92399224D01*
X111559877Y-92434319D01*
X110014852Y-92434319D01*
X110014852Y-92732163D01*
X110021253Y-92791691D01*
X110021255Y-92791698D01*
X110071497Y-92926405D01*
X110071501Y-92926412D01*
X110157661Y-93041505D01*
X110215413Y-93084739D01*
X110257284Y-93140673D01*
X110262268Y-93210365D01*
X110228783Y-93271688D01*
X110215415Y-93283271D01*
X110157306Y-93326772D01*
X110157304Y-93326774D01*
X110071058Y-93441983D01*
X110071054Y-93441990D01*
X110020760Y-93576836D01*
X110014353Y-93636435D01*
X110014353Y-93636442D01*
X110014352Y-93636454D01*
X110014352Y-94732189D01*
X110014353Y-94732195D01*
X110020760Y-94791802D01*
X110071054Y-94926647D01*
X110071058Y-94926654D01*
X110157304Y-95041863D01*
X110157305Y-95041863D01*
X110157306Y-95041865D01*
X110186467Y-95063695D01*
X110214997Y-95085053D01*
X110256867Y-95140987D01*
X110261851Y-95210679D01*
X110228365Y-95272002D01*
X110214997Y-95283585D01*
X110157304Y-95326774D01*
X110071058Y-95441983D01*
X110071054Y-95441990D01*
X110020760Y-95576836D01*
X110014353Y-95636435D01*
X110014353Y-95636442D01*
X110014352Y-95636454D01*
X110014352Y-96732189D01*
X110014353Y-96732195D01*
X110020760Y-96791802D01*
X110071054Y-96926647D01*
X110071058Y-96926654D01*
X110157304Y-97041863D01*
X110157305Y-97041863D01*
X110157306Y-97041865D01*
X110186467Y-97063695D01*
X110214997Y-97085053D01*
X110256867Y-97140987D01*
X110261851Y-97210679D01*
X110228365Y-97272002D01*
X110214997Y-97283585D01*
X110157304Y-97326774D01*
X110071058Y-97441983D01*
X110071054Y-97441990D01*
X110020760Y-97576836D01*
X110014353Y-97636435D01*
X110014353Y-97636442D01*
X110014352Y-97636454D01*
X110014352Y-98732189D01*
X110014353Y-98732195D01*
X110020760Y-98791802D01*
X110071054Y-98926647D01*
X110071058Y-98926654D01*
X110157304Y-99041863D01*
X110157305Y-99041863D01*
X110157306Y-99041865D01*
X110186467Y-99063695D01*
X110214997Y-99085053D01*
X110256867Y-99140987D01*
X110261851Y-99210679D01*
X110228365Y-99272002D01*
X110214997Y-99283585D01*
X110157304Y-99326774D01*
X110071058Y-99441983D01*
X110071054Y-99441990D01*
X110020760Y-99576836D01*
X110014353Y-99636435D01*
X110014353Y-99636442D01*
X110014352Y-99636454D01*
X110014352Y-100732189D01*
X110014353Y-100732195D01*
X110020760Y-100791802D01*
X110071054Y-100926647D01*
X110071058Y-100926654D01*
X110157304Y-101041863D01*
X110157305Y-101041863D01*
X110157306Y-101041865D01*
X110192579Y-101068270D01*
X110215414Y-101085365D01*
X110257284Y-101141299D01*
X110262268Y-101210991D01*
X110228782Y-101272313D01*
X110215414Y-101283897D01*
X110157661Y-101327131D01*
X110071501Y-101442225D01*
X110071497Y-101442232D01*
X110021255Y-101576939D01*
X110021253Y-101576946D01*
X110014852Y-101636474D01*
X110014852Y-101934319D01*
X111559877Y-101934319D01*
X111524782Y-101969414D01*
X111478704Y-102049224D01*
X111454852Y-102138241D01*
X111454852Y-102230397D01*
X111478704Y-102319414D01*
X111524782Y-102399224D01*
X111589947Y-102464389D01*
X111669757Y-102510467D01*
X111758774Y-102534319D01*
X111850930Y-102534319D01*
X111939947Y-102510467D01*
X112019757Y-102464389D01*
X112084922Y-102399224D01*
X112131000Y-102319414D01*
X112154852Y-102230397D01*
X112154852Y-102138241D01*
X112131000Y-102049224D01*
X112084922Y-101969414D01*
X112049827Y-101934319D01*
X113594852Y-101934319D01*
X113594852Y-101636491D01*
X113594851Y-101636474D01*
X113588450Y-101576946D01*
X113588448Y-101576939D01*
X113538206Y-101442232D01*
X113538202Y-101442225D01*
X113452042Y-101327131D01*
X113452039Y-101327128D01*
X113394290Y-101283897D01*
X113352419Y-101227964D01*
X113347435Y-101158272D01*
X113380921Y-101096949D01*
X113394284Y-101085368D01*
X113452398Y-101041865D01*
X113538648Y-100926650D01*
X113588943Y-100791802D01*
X113595352Y-100732192D01*
X113595351Y-99636447D01*
X113588943Y-99576836D01*
X113538736Y-99442225D01*
X113538649Y-99441990D01*
X113538645Y-99441983D01*
X113486975Y-99372962D01*
X113452398Y-99326773D01*
X113394706Y-99283584D01*
X113352836Y-99227652D01*
X113347852Y-99157960D01*
X113381337Y-99096637D01*
X113394706Y-99085053D01*
X113452398Y-99041865D01*
X113538648Y-98926650D01*
X113588943Y-98791802D01*
X113595352Y-98732192D01*
X113595351Y-97636447D01*
X113588943Y-97576836D01*
X113538736Y-97442225D01*
X113538649Y-97441990D01*
X113538645Y-97441983D01*
X113452666Y-97327131D01*
X113452398Y-97326773D01*
X113394706Y-97283584D01*
X113352836Y-97227652D01*
X113347852Y-97157960D01*
X113381337Y-97096637D01*
X113394706Y-97085053D01*
X113452398Y-97041865D01*
X113538648Y-96926650D01*
X113588943Y-96791802D01*
X113595352Y-96732192D01*
X113595351Y-95636447D01*
X113588943Y-95576836D01*
X113538648Y-95441988D01*
X113538647Y-95441987D01*
X113538645Y-95441983D01*
X113452399Y-95326775D01*
X113452400Y-95326775D01*
X113452398Y-95326773D01*
X113394706Y-95283584D01*
X113352836Y-95227652D01*
X113347852Y-95157960D01*
X113381337Y-95096637D01*
X113394706Y-95085053D01*
X113452398Y-95041865D01*
X113538648Y-94926650D01*
X113588943Y-94791802D01*
X113595352Y-94732192D01*
X113595351Y-93636447D01*
X113588943Y-93576836D01*
X113538648Y-93441988D01*
X113538647Y-93441987D01*
X113538645Y-93441983D01*
X113452399Y-93326774D01*
X113452396Y-93326772D01*
X113394708Y-93283586D01*
X113394289Y-93283272D01*
X113352419Y-93227338D01*
X113347435Y-93157646D01*
X113380921Y-93096323D01*
X113394291Y-93084739D01*
X113452041Y-93041507D01*
X113452042Y-93041506D01*
X113538202Y-92926412D01*
X113538206Y-92926405D01*
X113588448Y-92791698D01*
X113588450Y-92791691D01*
X113594851Y-92732163D01*
X113594852Y-92732146D01*
X113594852Y-92434319D01*
X112049827Y-92434319D01*
X112084922Y-92399224D01*
X112131000Y-92319414D01*
X112154852Y-92230397D01*
X112154852Y-92138241D01*
X112131000Y-92049224D01*
X112084922Y-91969414D01*
X112049827Y-91934319D01*
X113594852Y-91934319D01*
X113594852Y-91636491D01*
X113594851Y-91636474D01*
X113588450Y-91576946D01*
X113588448Y-91576939D01*
X113538206Y-91442232D01*
X113538202Y-91442225D01*
X113452042Y-91327131D01*
X113452039Y-91327128D01*
X113394290Y-91283897D01*
X113352419Y-91227964D01*
X113347435Y-91158272D01*
X113380921Y-91096949D01*
X113394284Y-91085368D01*
X113452398Y-91041865D01*
X113538648Y-90926650D01*
X113588943Y-90791802D01*
X113595352Y-90732192D01*
X113595351Y-89636447D01*
X113590151Y-89588076D01*
X113588943Y-89576835D01*
X113538649Y-89441990D01*
X113538645Y-89441983D01*
X113452399Y-89326775D01*
X113452400Y-89326775D01*
X113452398Y-89326773D01*
X113394706Y-89283584D01*
X113352836Y-89227652D01*
X113347852Y-89157960D01*
X113381337Y-89096637D01*
X113394706Y-89085053D01*
X113452398Y-89041865D01*
X113538648Y-88926650D01*
X113588943Y-88791802D01*
X113595352Y-88732192D01*
X113595351Y-87636447D01*
X113588943Y-87576836D01*
X113538648Y-87441988D01*
X113538647Y-87441987D01*
X113538645Y-87441983D01*
X113452399Y-87326775D01*
X113452400Y-87326775D01*
X113452398Y-87326773D01*
X113394706Y-87283584D01*
X113352836Y-87227652D01*
X113347852Y-87157960D01*
X113381337Y-87096637D01*
X113394706Y-87085053D01*
X113452398Y-87041865D01*
X113538648Y-86926650D01*
X113588943Y-86791802D01*
X113595352Y-86732192D01*
X113595351Y-85636454D01*
X114184352Y-85636454D01*
X114184352Y-86732189D01*
X114184353Y-86732195D01*
X114190760Y-86791802D01*
X114241054Y-86926647D01*
X114241058Y-86926654D01*
X114327304Y-87041863D01*
X114327305Y-87041863D01*
X114327306Y-87041865D01*
X114356467Y-87063695D01*
X114384997Y-87085053D01*
X114426867Y-87140987D01*
X114431851Y-87210679D01*
X114398365Y-87272002D01*
X114384997Y-87283585D01*
X114327304Y-87326774D01*
X114241058Y-87441983D01*
X114241054Y-87441990D01*
X114190760Y-87576836D01*
X114184353Y-87636435D01*
X114184353Y-87636442D01*
X114184352Y-87636454D01*
X114184352Y-88732189D01*
X114184353Y-88732195D01*
X114190760Y-88791802D01*
X114241054Y-88926647D01*
X114241058Y-88926654D01*
X114327304Y-89041863D01*
X114327305Y-89041863D01*
X114327306Y-89041865D01*
X114348548Y-89057767D01*
X114384997Y-89085053D01*
X114426867Y-89140987D01*
X114431851Y-89210679D01*
X114398365Y-89272002D01*
X114384997Y-89283585D01*
X114327304Y-89326774D01*
X114241058Y-89441983D01*
X114241054Y-89441990D01*
X114190760Y-89576836D01*
X114184353Y-89636435D01*
X114184353Y-89636442D01*
X114184352Y-89636454D01*
X114184352Y-90732189D01*
X114184353Y-90732195D01*
X114190760Y-90791802D01*
X114241054Y-90926647D01*
X114241058Y-90926654D01*
X114327304Y-91041863D01*
X114327305Y-91041863D01*
X114327306Y-91041865D01*
X114356467Y-91063695D01*
X114384997Y-91085053D01*
X114426867Y-91140987D01*
X114431851Y-91210679D01*
X114398365Y-91272002D01*
X114384997Y-91283585D01*
X114327304Y-91326774D01*
X114241058Y-91441983D01*
X114241054Y-91441990D01*
X114190760Y-91576836D01*
X114184353Y-91636435D01*
X114184353Y-91636442D01*
X114184352Y-91636454D01*
X114184352Y-92732189D01*
X114184353Y-92732195D01*
X114190760Y-92791802D01*
X114241054Y-92926647D01*
X114241058Y-92926654D01*
X114327304Y-93041863D01*
X114327305Y-93041863D01*
X114327306Y-93041865D01*
X114356467Y-93063695D01*
X114384997Y-93085053D01*
X114426867Y-93140987D01*
X114431851Y-93210679D01*
X114398365Y-93272002D01*
X114384997Y-93283585D01*
X114327304Y-93326774D01*
X114241058Y-93441983D01*
X114241054Y-93441990D01*
X114190760Y-93576836D01*
X114184353Y-93636435D01*
X114184353Y-93636442D01*
X114184352Y-93636454D01*
X114184352Y-94732189D01*
X114184353Y-94732195D01*
X114190760Y-94791802D01*
X114241054Y-94926647D01*
X114241058Y-94926654D01*
X114327304Y-95041863D01*
X114327305Y-95041863D01*
X114327306Y-95041865D01*
X114356467Y-95063695D01*
X114384997Y-95085053D01*
X114426867Y-95140987D01*
X114431851Y-95210679D01*
X114398365Y-95272002D01*
X114384997Y-95283585D01*
X114327304Y-95326774D01*
X114241058Y-95441983D01*
X114241054Y-95441990D01*
X114190760Y-95576836D01*
X114184353Y-95636435D01*
X114184353Y-95636442D01*
X114184352Y-95636454D01*
X114184352Y-96732189D01*
X114184353Y-96732195D01*
X114190760Y-96791802D01*
X114241054Y-96926647D01*
X114241058Y-96926654D01*
X114327304Y-97041863D01*
X114327305Y-97041863D01*
X114327306Y-97041865D01*
X114356467Y-97063695D01*
X114384997Y-97085053D01*
X114426867Y-97140987D01*
X114431851Y-97210679D01*
X114398365Y-97272002D01*
X114384997Y-97283585D01*
X114327304Y-97326774D01*
X114241058Y-97441983D01*
X114241054Y-97441990D01*
X114190760Y-97576836D01*
X114184353Y-97636435D01*
X114184353Y-97636442D01*
X114184352Y-97636454D01*
X114184352Y-98732189D01*
X114184353Y-98732195D01*
X114190760Y-98791802D01*
X114241054Y-98926647D01*
X114241058Y-98926654D01*
X114327304Y-99041863D01*
X114327305Y-99041863D01*
X114327306Y-99041865D01*
X114356467Y-99063695D01*
X114384997Y-99085053D01*
X114426867Y-99140987D01*
X114431851Y-99210679D01*
X114398365Y-99272002D01*
X114384997Y-99283585D01*
X114327304Y-99326774D01*
X114241058Y-99441983D01*
X114241054Y-99441990D01*
X114190760Y-99576836D01*
X114184353Y-99636435D01*
X114184353Y-99636442D01*
X114184352Y-99636454D01*
X114184352Y-100732189D01*
X114184353Y-100732195D01*
X114190760Y-100791802D01*
X114241054Y-100926647D01*
X114241058Y-100926654D01*
X114327304Y-101041863D01*
X114327305Y-101041863D01*
X114327306Y-101041865D01*
X114362579Y-101068270D01*
X114385414Y-101085365D01*
X114427284Y-101141299D01*
X114432268Y-101210991D01*
X114398782Y-101272313D01*
X114385414Y-101283897D01*
X114327661Y-101327131D01*
X114241501Y-101442225D01*
X114241497Y-101442232D01*
X114191255Y-101576939D01*
X114191253Y-101576946D01*
X114184852Y-101636474D01*
X114184852Y-101934319D01*
X115729877Y-101934319D01*
X115694782Y-101969414D01*
X115648704Y-102049224D01*
X115624852Y-102138241D01*
X115624852Y-102230397D01*
X115648704Y-102319414D01*
X115694782Y-102399224D01*
X115759947Y-102464389D01*
X115839757Y-102510467D01*
X115928774Y-102534319D01*
X116020930Y-102534319D01*
X116109947Y-102510467D01*
X116189757Y-102464389D01*
X116254922Y-102399224D01*
X116301000Y-102319414D01*
X116324852Y-102230397D01*
X116324852Y-102138241D01*
X116301000Y-102049224D01*
X116254922Y-101969414D01*
X116219827Y-101934319D01*
X117764852Y-101934319D01*
X117764852Y-101636491D01*
X117764851Y-101636474D01*
X117758450Y-101576946D01*
X117758448Y-101576939D01*
X117708206Y-101442232D01*
X117708202Y-101442225D01*
X117622042Y-101327131D01*
X117622039Y-101327128D01*
X117564290Y-101283897D01*
X117522419Y-101227964D01*
X117517435Y-101158272D01*
X117550921Y-101096949D01*
X117564284Y-101085368D01*
X117622398Y-101041865D01*
X117708648Y-100926650D01*
X117758943Y-100791802D01*
X117765352Y-100732192D01*
X117765351Y-99636447D01*
X117758943Y-99576836D01*
X117708736Y-99442225D01*
X117708649Y-99441990D01*
X117708645Y-99441983D01*
X117656975Y-99372962D01*
X117622398Y-99326773D01*
X117564706Y-99283584D01*
X117522836Y-99227652D01*
X117517852Y-99157960D01*
X117551337Y-99096637D01*
X117564706Y-99085053D01*
X117622398Y-99041865D01*
X117708648Y-98926650D01*
X117758943Y-98791802D01*
X117765352Y-98732192D01*
X117765351Y-97636447D01*
X117758943Y-97576836D01*
X117708736Y-97442225D01*
X117708649Y-97441990D01*
X117708645Y-97441983D01*
X117622666Y-97327131D01*
X117622398Y-97326773D01*
X117564706Y-97283584D01*
X117522836Y-97227652D01*
X117517852Y-97157960D01*
X117551337Y-97096637D01*
X117564706Y-97085053D01*
X117622398Y-97041865D01*
X117708648Y-96926650D01*
X117758943Y-96791802D01*
X117765352Y-96732192D01*
X117765351Y-95636447D01*
X117758943Y-95576836D01*
X117708648Y-95441988D01*
X117622398Y-95326773D01*
X117560658Y-95280555D01*
X117556874Y-95277208D01*
X117551081Y-95267991D01*
X124579734Y-95267991D01*
X124604874Y-95880216D01*
X124604876Y-95880246D01*
X124669406Y-96489550D01*
X124773066Y-97093481D01*
X124915411Y-97689435D01*
X124915413Y-97689440D01*
X124915417Y-97689455D01*
X125026286Y-98049224D01*
X125095871Y-98275026D01*
X125313683Y-98847766D01*
X125567924Y-99405243D01*
X125857581Y-99945229D01*
X126181402Y-100465390D01*
X126181423Y-100465422D01*
X126538071Y-100963623D01*
X126538085Y-100963641D01*
X126835221Y-101326774D01*
X126926113Y-101437853D01*
X126926119Y-101437861D01*
X127343893Y-101886089D01*
X127343903Y-101886099D01*
X127789681Y-102306472D01*
X127789691Y-102306480D01*
X127789695Y-102306484D01*
X128064847Y-102534319D01*
X128261651Y-102697279D01*
X128757796Y-103056849D01*
X129185802Y-103326773D01*
X129276082Y-103383708D01*
X129814349Y-103676495D01*
X130370363Y-103933994D01*
X130941811Y-104155135D01*
X131526320Y-104338999D01*
X132121461Y-104484821D01*
X132482041Y-104548876D01*
X132544604Y-104579983D01*
X132580417Y-104639976D01*
X132584352Y-104670965D01*
X132584352Y-110552416D01*
X132621298Y-110785687D01*
X132694285Y-111010315D01*
X132801509Y-111220752D01*
X132940335Y-111411829D01*
X133107342Y-111578836D01*
X133298419Y-111717662D01*
X133397843Y-111768321D01*
X133508855Y-111824885D01*
X133508857Y-111824885D01*
X133508860Y-111824887D01*
X133629264Y-111864008D01*
X133733483Y-111897872D01*
X133966755Y-111934819D01*
X133966760Y-111934819D01*
X134202949Y-111934819D01*
X134436220Y-111897872D01*
X134660844Y-111824887D01*
X134871285Y-111717662D01*
X135062362Y-111578836D01*
X135229369Y-111411829D01*
X135368195Y-111220752D01*
X135475420Y-111010311D01*
X135548405Y-110785687D01*
X135550906Y-110769899D01*
X135585352Y-110552416D01*
X135585352Y-104670965D01*
X135605037Y-104603926D01*
X135657841Y-104558171D01*
X135687659Y-104548877D01*
X136048243Y-104484821D01*
X136643384Y-104338999D01*
X137227893Y-104155135D01*
X137799341Y-103933994D01*
X138355355Y-103676495D01*
X138893622Y-103383708D01*
X139411908Y-103056849D01*
X139908057Y-102697276D01*
X140380009Y-102306484D01*
X140460695Y-102230397D01*
X140652817Y-102049224D01*
X140825802Y-101886098D01*
X141243584Y-101437862D01*
X141631619Y-100963641D01*
X141754635Y-100791801D01*
X141988280Y-100465422D01*
X141988293Y-100465404D01*
X142312126Y-99945223D01*
X142601772Y-99405258D01*
X142647609Y-99304752D01*
X142856020Y-98847766D01*
X142856019Y-98847766D01*
X142856026Y-98847753D01*
X142899985Y-98732163D01*
X150404852Y-98732163D01*
X150411253Y-98791691D01*
X150411255Y-98791698D01*
X150461497Y-98926405D01*
X150461501Y-98926412D01*
X150547661Y-99041506D01*
X150605831Y-99085053D01*
X150647701Y-99140987D01*
X150652685Y-99210679D01*
X150619199Y-99272002D01*
X150605831Y-99283585D01*
X150547661Y-99327131D01*
X150461501Y-99442225D01*
X150461497Y-99442232D01*
X150411255Y-99576939D01*
X150411253Y-99576946D01*
X150404852Y-99636474D01*
X150404852Y-99934319D01*
X151944852Y-99934319D01*
X151944852Y-98434319D01*
X150404852Y-98434319D01*
X150404852Y-98732163D01*
X142899985Y-98732163D01*
X143073833Y-98275026D01*
X143254287Y-97689455D01*
X143266947Y-97636454D01*
X143340914Y-97326775D01*
X143396639Y-97093474D01*
X143500296Y-96489561D01*
X143564829Y-95880223D01*
X143589969Y-95267994D01*
X143575611Y-94655417D01*
X143521816Y-94045038D01*
X143521815Y-94045033D01*
X143521814Y-94045021D01*
X143429205Y-93441990D01*
X143428806Y-93439393D01*
X143296969Y-92840999D01*
X143126852Y-92252342D01*
X142919161Y-91675869D01*
X142902033Y-91636491D01*
X142674767Y-91113988D01*
X142674764Y-91113983D01*
X142674761Y-91113975D01*
X142394667Y-90568994D01*
X142080042Y-90043192D01*
X142080037Y-90043186D01*
X142080029Y-90043172D01*
X141732204Y-89538767D01*
X141732201Y-89538763D01*
X141732194Y-89538753D01*
X141352568Y-89057774D01*
X141059645Y-88732191D01*
X140942742Y-88602253D01*
X140504419Y-88174083D01*
X140039420Y-87775044D01*
X139855100Y-87636448D01*
X139549681Y-87406794D01*
X139549676Y-87406791D01*
X139037227Y-87070859D01*
X138986086Y-87041863D01*
X138504187Y-86768635D01*
X138504184Y-86768633D01*
X137952824Y-86501402D01*
X137952794Y-86501389D01*
X137385346Y-86270229D01*
X136804156Y-86076101D01*
X136211689Y-85919827D01*
X135610365Y-85802046D01*
X135610355Y-85802044D01*
X135163223Y-85744065D01*
X135002695Y-85723250D01*
X135002673Y-85723248D01*
X134391228Y-85683773D01*
X134391225Y-85683773D01*
X133778479Y-85683773D01*
X133778476Y-85683773D01*
X133167030Y-85723248D01*
X133167008Y-85723250D01*
X132800750Y-85770742D01*
X132559349Y-85802044D01*
X132559340Y-85802045D01*
X132559338Y-85802046D01*
X131958014Y-85919827D01*
X131365547Y-86076101D01*
X130784357Y-86270229D01*
X130216909Y-86501389D01*
X130216879Y-86501402D01*
X129665519Y-86768633D01*
X129665516Y-86768635D01*
X129132488Y-87070852D01*
X129132479Y-87070857D01*
X129132477Y-87070859D01*
X129025500Y-87140987D01*
X128620027Y-87406791D01*
X128620022Y-87406794D01*
X128130291Y-87775038D01*
X128130284Y-87775043D01*
X127665290Y-88174078D01*
X127226961Y-88602253D01*
X126817141Y-89057767D01*
X126437499Y-89538767D01*
X126089674Y-90043172D01*
X126089655Y-90043202D01*
X125775043Y-90568982D01*
X125494936Y-91113988D01*
X125250552Y-91675845D01*
X125250548Y-91675855D01*
X125042848Y-92252353D01*
X124872736Y-92840992D01*
X124872734Y-92841002D01*
X124740896Y-93439400D01*
X124647889Y-94045021D01*
X124647886Y-94045050D01*
X124594094Y-94655391D01*
X124594093Y-94655421D01*
X124579734Y-95267991D01*
X117551081Y-95267991D01*
X117540866Y-95251738D01*
X117522836Y-95227652D01*
X117522464Y-95222458D01*
X117519695Y-95218052D01*
X117519998Y-95187969D01*
X117517852Y-95157960D01*
X117520346Y-95153391D01*
X117520399Y-95148186D01*
X117536916Y-95123045D01*
X117551337Y-95096637D01*
X117558141Y-95090740D01*
X117558765Y-95089792D01*
X117559733Y-95089361D01*
X117564706Y-95085053D01*
X117622398Y-95041865D01*
X117708648Y-94926650D01*
X117758943Y-94791802D01*
X117765352Y-94732192D01*
X117765351Y-93636447D01*
X117758943Y-93576836D01*
X117708648Y-93441988D01*
X117708647Y-93441987D01*
X117708645Y-93441983D01*
X117622399Y-93326775D01*
X117622400Y-93326775D01*
X117622398Y-93326773D01*
X117564706Y-93283584D01*
X117522836Y-93227652D01*
X117517852Y-93157960D01*
X117551337Y-93096637D01*
X117564706Y-93085053D01*
X117622398Y-93041865D01*
X117708648Y-92926650D01*
X117758943Y-92791802D01*
X117765352Y-92732192D01*
X117765351Y-91636447D01*
X117758943Y-91576836D01*
X117733500Y-91508621D01*
X117708649Y-91441990D01*
X117708645Y-91441983D01*
X117622666Y-91327131D01*
X117622398Y-91326773D01*
X117564706Y-91283584D01*
X117522836Y-91227652D01*
X117517852Y-91157960D01*
X117551337Y-91096637D01*
X117564706Y-91085053D01*
X117622398Y-91041865D01*
X117708648Y-90926650D01*
X117758943Y-90791802D01*
X117765352Y-90732192D01*
X117765351Y-89636447D01*
X117760151Y-89588076D01*
X117758943Y-89576835D01*
X117708649Y-89441990D01*
X117708645Y-89441983D01*
X117622399Y-89326775D01*
X117622400Y-89326775D01*
X117622398Y-89326773D01*
X117564706Y-89283584D01*
X117522836Y-89227652D01*
X117517852Y-89157960D01*
X117551337Y-89096637D01*
X117564706Y-89085053D01*
X117622398Y-89041865D01*
X117708648Y-88926650D01*
X117758943Y-88791802D01*
X117765352Y-88732192D01*
X117765351Y-87636447D01*
X117758943Y-87576836D01*
X117708648Y-87441988D01*
X117708647Y-87441987D01*
X117708645Y-87441983D01*
X117622399Y-87326775D01*
X117622400Y-87326775D01*
X117622398Y-87326773D01*
X117564706Y-87283584D01*
X117522836Y-87227652D01*
X117517852Y-87157960D01*
X117551337Y-87096637D01*
X117564706Y-87085053D01*
X117622398Y-87041865D01*
X117708648Y-86926650D01*
X117758943Y-86791802D01*
X117765352Y-86732192D01*
X117765351Y-85636454D01*
X150404352Y-85636454D01*
X150404352Y-86732189D01*
X150404353Y-86732195D01*
X150410760Y-86791802D01*
X150461054Y-86926647D01*
X150461058Y-86926654D01*
X150547304Y-87041863D01*
X150547305Y-87041863D01*
X150547306Y-87041865D01*
X150576467Y-87063695D01*
X150604997Y-87085053D01*
X150646867Y-87140987D01*
X150651851Y-87210679D01*
X150618365Y-87272002D01*
X150604997Y-87283585D01*
X150547304Y-87326774D01*
X150461058Y-87441983D01*
X150461054Y-87441990D01*
X150410760Y-87576836D01*
X150404353Y-87636435D01*
X150404353Y-87636442D01*
X150404352Y-87636454D01*
X150404352Y-88732189D01*
X150404353Y-88732195D01*
X150410760Y-88791802D01*
X150461054Y-88926647D01*
X150461058Y-88926654D01*
X150547304Y-89041863D01*
X150547305Y-89041863D01*
X150547306Y-89041865D01*
X150568548Y-89057767D01*
X150604997Y-89085053D01*
X150646867Y-89140987D01*
X150651851Y-89210679D01*
X150618365Y-89272002D01*
X150604997Y-89283585D01*
X150547304Y-89326774D01*
X150461058Y-89441983D01*
X150461054Y-89441990D01*
X150410760Y-89576836D01*
X150404353Y-89636435D01*
X150404353Y-89636442D01*
X150404352Y-89636454D01*
X150404352Y-90732189D01*
X150404353Y-90732195D01*
X150410760Y-90791802D01*
X150461054Y-90926647D01*
X150461058Y-90926654D01*
X150547304Y-91041863D01*
X150547305Y-91041863D01*
X150547306Y-91041865D01*
X150576467Y-91063695D01*
X150604997Y-91085053D01*
X150646867Y-91140987D01*
X150651851Y-91210679D01*
X150618365Y-91272002D01*
X150604997Y-91283585D01*
X150547304Y-91326774D01*
X150461058Y-91441983D01*
X150461054Y-91441990D01*
X150410760Y-91576836D01*
X150404353Y-91636435D01*
X150404353Y-91636442D01*
X150404352Y-91636454D01*
X150404352Y-92732189D01*
X150404353Y-92732195D01*
X150410760Y-92791802D01*
X150461054Y-92926647D01*
X150461058Y-92926654D01*
X150547304Y-93041863D01*
X150547305Y-93041863D01*
X150547306Y-93041865D01*
X150576467Y-93063695D01*
X150604997Y-93085053D01*
X150646867Y-93140987D01*
X150651851Y-93210679D01*
X150618365Y-93272002D01*
X150604997Y-93283585D01*
X150547304Y-93326774D01*
X150461058Y-93441983D01*
X150461054Y-93441990D01*
X150410760Y-93576836D01*
X150404353Y-93636435D01*
X150404353Y-93636442D01*
X150404352Y-93636454D01*
X150404352Y-94732189D01*
X150404353Y-94732195D01*
X150410760Y-94791802D01*
X150461054Y-94926647D01*
X150461058Y-94926654D01*
X150547304Y-95041863D01*
X150547305Y-95041863D01*
X150547306Y-95041865D01*
X150576467Y-95063695D01*
X150604997Y-95085053D01*
X150646867Y-95140987D01*
X150651851Y-95210679D01*
X150618365Y-95272002D01*
X150604997Y-95283585D01*
X150547304Y-95326774D01*
X150461058Y-95441983D01*
X150461054Y-95441990D01*
X150410760Y-95576836D01*
X150404353Y-95636435D01*
X150404353Y-95636442D01*
X150404352Y-95636454D01*
X150404352Y-96732189D01*
X150404353Y-96732195D01*
X150410760Y-96791802D01*
X150461054Y-96926647D01*
X150461058Y-96926654D01*
X150547304Y-97041863D01*
X150547305Y-97041863D01*
X150547306Y-97041865D01*
X150582579Y-97068270D01*
X150605414Y-97085365D01*
X150647284Y-97141299D01*
X150652268Y-97210991D01*
X150618782Y-97272313D01*
X150605414Y-97283897D01*
X150547661Y-97327131D01*
X150461501Y-97442225D01*
X150461497Y-97442232D01*
X150411255Y-97576939D01*
X150411253Y-97576946D01*
X150404852Y-97636474D01*
X150404852Y-97934319D01*
X151949877Y-97934319D01*
X151914782Y-97969414D01*
X151868704Y-98049224D01*
X151844852Y-98138241D01*
X151844852Y-98230397D01*
X151868704Y-98319414D01*
X151914782Y-98399224D01*
X151979947Y-98464389D01*
X152059757Y-98510467D01*
X152148774Y-98534319D01*
X152240930Y-98534319D01*
X152329947Y-98510467D01*
X152409757Y-98464389D01*
X152474922Y-98399224D01*
X152521000Y-98319414D01*
X152544852Y-98230397D01*
X152544852Y-98138241D01*
X152521000Y-98049224D01*
X152474922Y-97969414D01*
X152439827Y-97934319D01*
X153984852Y-97934319D01*
X153984852Y-97636491D01*
X153984851Y-97636474D01*
X153978450Y-97576946D01*
X153978448Y-97576939D01*
X153928206Y-97442232D01*
X153928202Y-97442225D01*
X153842042Y-97327131D01*
X153842039Y-97327128D01*
X153784290Y-97283897D01*
X153742419Y-97227964D01*
X153737435Y-97158272D01*
X153770921Y-97096949D01*
X153784284Y-97085368D01*
X153842398Y-97041865D01*
X153928648Y-96926650D01*
X153978943Y-96791802D01*
X153985352Y-96732192D01*
X153985351Y-95636447D01*
X153978943Y-95576836D01*
X153928648Y-95441988D01*
X153928647Y-95441987D01*
X153928645Y-95441983D01*
X153842399Y-95326775D01*
X153842400Y-95326775D01*
X153842398Y-95326773D01*
X153784706Y-95283584D01*
X153742836Y-95227652D01*
X153737852Y-95157960D01*
X153771337Y-95096637D01*
X153784706Y-95085053D01*
X153842398Y-95041865D01*
X153928648Y-94926650D01*
X153978943Y-94791802D01*
X153985352Y-94732192D01*
X153985351Y-93636447D01*
X153978943Y-93576836D01*
X153928648Y-93441988D01*
X153928647Y-93441987D01*
X153928645Y-93441983D01*
X153842399Y-93326775D01*
X153842400Y-93326775D01*
X153842398Y-93326773D01*
X153784706Y-93283584D01*
X153742836Y-93227652D01*
X153737852Y-93157960D01*
X153771337Y-93096637D01*
X153784706Y-93085053D01*
X153842398Y-93041865D01*
X153928648Y-92926650D01*
X153978943Y-92791802D01*
X153985352Y-92732192D01*
X153985351Y-91636447D01*
X153978943Y-91576836D01*
X153953500Y-91508621D01*
X153928649Y-91441990D01*
X153928645Y-91441983D01*
X153842666Y-91327131D01*
X153842398Y-91326773D01*
X153784706Y-91283584D01*
X153742836Y-91227652D01*
X153737852Y-91157960D01*
X153771337Y-91096637D01*
X153784706Y-91085053D01*
X153842398Y-91041865D01*
X153928648Y-90926650D01*
X153978943Y-90791802D01*
X153985352Y-90732192D01*
X153985351Y-89636447D01*
X153980151Y-89588076D01*
X153978943Y-89576835D01*
X153928649Y-89441990D01*
X153928645Y-89441983D01*
X153842399Y-89326775D01*
X153842400Y-89326775D01*
X153842398Y-89326773D01*
X153784706Y-89283584D01*
X153742836Y-89227652D01*
X153737852Y-89157960D01*
X153771337Y-89096637D01*
X153784706Y-89085053D01*
X153842398Y-89041865D01*
X153928648Y-88926650D01*
X153978943Y-88791802D01*
X153985352Y-88732192D01*
X153985351Y-87636447D01*
X153978943Y-87576836D01*
X153928648Y-87441988D01*
X153928647Y-87441987D01*
X153928645Y-87441983D01*
X153842399Y-87326775D01*
X153842400Y-87326775D01*
X153842398Y-87326773D01*
X153784706Y-87283584D01*
X153742836Y-87227652D01*
X153737852Y-87157960D01*
X153771337Y-87096637D01*
X153784706Y-87085053D01*
X153842398Y-87041865D01*
X153928648Y-86926650D01*
X153978943Y-86791802D01*
X153985352Y-86732192D01*
X153985351Y-85636454D01*
X154574352Y-85636454D01*
X154574352Y-86732189D01*
X154574353Y-86732195D01*
X154580760Y-86791802D01*
X154631054Y-86926647D01*
X154631058Y-86926654D01*
X154717304Y-87041863D01*
X154717305Y-87041863D01*
X154717306Y-87041865D01*
X154746467Y-87063695D01*
X154774997Y-87085053D01*
X154816867Y-87140987D01*
X154821851Y-87210679D01*
X154788365Y-87272002D01*
X154774997Y-87283585D01*
X154717304Y-87326774D01*
X154631058Y-87441983D01*
X154631054Y-87441990D01*
X154580760Y-87576836D01*
X154574353Y-87636435D01*
X154574353Y-87636442D01*
X154574352Y-87636454D01*
X154574352Y-88732189D01*
X154574353Y-88732195D01*
X154580760Y-88791802D01*
X154631054Y-88926647D01*
X154631058Y-88926654D01*
X154717304Y-89041863D01*
X154717305Y-89041863D01*
X154717306Y-89041865D01*
X154738548Y-89057767D01*
X154774997Y-89085053D01*
X154816867Y-89140987D01*
X154821851Y-89210679D01*
X154788365Y-89272002D01*
X154774997Y-89283585D01*
X154717304Y-89326774D01*
X154631058Y-89441983D01*
X154631054Y-89441990D01*
X154580760Y-89576836D01*
X154574353Y-89636435D01*
X154574353Y-89636442D01*
X154574352Y-89636454D01*
X154574352Y-90732189D01*
X154574353Y-90732195D01*
X154580760Y-90791802D01*
X154631054Y-90926647D01*
X154631058Y-90926654D01*
X154717304Y-91041863D01*
X154717305Y-91041863D01*
X154717306Y-91041865D01*
X154746467Y-91063695D01*
X154774997Y-91085053D01*
X154816867Y-91140987D01*
X154821851Y-91210679D01*
X154788365Y-91272002D01*
X154774997Y-91283585D01*
X154717304Y-91326774D01*
X154631058Y-91441983D01*
X154631054Y-91441990D01*
X154580760Y-91576836D01*
X154574353Y-91636435D01*
X154574353Y-91636442D01*
X154574352Y-91636454D01*
X154574352Y-92732189D01*
X154574353Y-92732195D01*
X154580760Y-92791802D01*
X154631054Y-92926647D01*
X154631058Y-92926654D01*
X154717304Y-93041863D01*
X154717305Y-93041863D01*
X154717306Y-93041865D01*
X154746467Y-93063695D01*
X154774997Y-93085053D01*
X154816867Y-93140987D01*
X154821851Y-93210679D01*
X154788365Y-93272002D01*
X154774997Y-93283585D01*
X154717304Y-93326774D01*
X154631058Y-93441983D01*
X154631054Y-93441990D01*
X154580760Y-93576836D01*
X154574353Y-93636435D01*
X154574353Y-93636442D01*
X154574352Y-93636454D01*
X154574352Y-94732189D01*
X154574353Y-94732195D01*
X154580760Y-94791802D01*
X154631054Y-94926647D01*
X154631058Y-94926654D01*
X154717304Y-95041863D01*
X154717305Y-95041863D01*
X154717306Y-95041865D01*
X154746467Y-95063695D01*
X154774997Y-95085053D01*
X154816867Y-95140987D01*
X154821851Y-95210679D01*
X154788365Y-95272002D01*
X154774997Y-95283585D01*
X154717304Y-95326774D01*
X154631058Y-95441983D01*
X154631054Y-95441990D01*
X154580760Y-95576836D01*
X154574353Y-95636435D01*
X154574353Y-95636442D01*
X154574352Y-95636454D01*
X154574352Y-96732189D01*
X154574353Y-96732195D01*
X154580760Y-96791802D01*
X154631054Y-96926647D01*
X154631058Y-96926654D01*
X154717304Y-97041863D01*
X154717305Y-97041863D01*
X154717306Y-97041865D01*
X154752579Y-97068270D01*
X154775414Y-97085365D01*
X154817284Y-97141299D01*
X154822268Y-97210991D01*
X154788782Y-97272313D01*
X154775414Y-97283897D01*
X154717661Y-97327131D01*
X154631501Y-97442225D01*
X154631497Y-97442232D01*
X154581255Y-97576939D01*
X154581253Y-97576946D01*
X154574852Y-97636474D01*
X154574852Y-97934319D01*
X156119877Y-97934319D01*
X156084782Y-97969414D01*
X156038704Y-98049224D01*
X156014852Y-98138241D01*
X156014852Y-98230397D01*
X156038704Y-98319414D01*
X156084782Y-98399224D01*
X156149947Y-98464389D01*
X156229757Y-98510467D01*
X156318774Y-98534319D01*
X156410930Y-98534319D01*
X156499947Y-98510467D01*
X156579757Y-98464389D01*
X156644922Y-98399224D01*
X156691000Y-98319414D01*
X156714852Y-98230397D01*
X156714852Y-98138241D01*
X156691000Y-98049224D01*
X156644922Y-97969414D01*
X156609827Y-97934319D01*
X158154852Y-97934319D01*
X158154852Y-97636491D01*
X158154851Y-97636474D01*
X158148450Y-97576946D01*
X158148448Y-97576939D01*
X158098206Y-97442232D01*
X158098202Y-97442225D01*
X158012042Y-97327131D01*
X158012039Y-97327128D01*
X157954290Y-97283897D01*
X157912419Y-97227964D01*
X157907435Y-97158272D01*
X157940921Y-97096949D01*
X157954284Y-97085368D01*
X158012398Y-97041865D01*
X158098648Y-96926650D01*
X158148943Y-96791802D01*
X158155352Y-96732192D01*
X158155351Y-95636447D01*
X158148943Y-95576836D01*
X158098648Y-95441988D01*
X158098647Y-95441987D01*
X158098645Y-95441983D01*
X158012399Y-95326775D01*
X158012400Y-95326775D01*
X158012398Y-95326773D01*
X157954706Y-95283584D01*
X157912836Y-95227652D01*
X157907852Y-95157960D01*
X157941337Y-95096637D01*
X157954706Y-95085053D01*
X158012398Y-95041865D01*
X158098648Y-94926650D01*
X158148943Y-94791802D01*
X158155352Y-94732192D01*
X158155351Y-93636447D01*
X158148943Y-93576836D01*
X158098648Y-93441988D01*
X158098647Y-93441987D01*
X158098645Y-93441983D01*
X158012399Y-93326775D01*
X158012400Y-93326775D01*
X158012398Y-93326773D01*
X157954706Y-93283584D01*
X157912836Y-93227652D01*
X157907852Y-93157960D01*
X157941337Y-93096637D01*
X157954706Y-93085053D01*
X158012398Y-93041865D01*
X158098648Y-92926650D01*
X158148943Y-92791802D01*
X158155352Y-92732192D01*
X158155351Y-91636447D01*
X158148943Y-91576836D01*
X158123500Y-91508621D01*
X158098649Y-91441990D01*
X158098645Y-91441983D01*
X158012666Y-91327131D01*
X158012398Y-91326773D01*
X157954706Y-91283584D01*
X157912836Y-91227652D01*
X157907852Y-91157960D01*
X157941337Y-91096637D01*
X157954706Y-91085053D01*
X158012398Y-91041865D01*
X158098648Y-90926650D01*
X158148943Y-90791802D01*
X158155352Y-90732192D01*
X158155351Y-89636447D01*
X158150151Y-89588076D01*
X158148943Y-89576835D01*
X158098649Y-89441990D01*
X158098645Y-89441983D01*
X158012399Y-89326775D01*
X158012400Y-89326775D01*
X158012398Y-89326773D01*
X157954706Y-89283584D01*
X157912836Y-89227652D01*
X157907852Y-89157960D01*
X157941337Y-89096637D01*
X157954706Y-89085053D01*
X158012398Y-89041865D01*
X158098648Y-88926650D01*
X158148943Y-88791802D01*
X158155352Y-88732192D01*
X158155351Y-87636447D01*
X158148943Y-87576836D01*
X158098648Y-87441988D01*
X158098647Y-87441987D01*
X158098645Y-87441983D01*
X158012399Y-87326775D01*
X158012400Y-87326775D01*
X158012398Y-87326773D01*
X157954706Y-87283584D01*
X157912836Y-87227652D01*
X157907852Y-87157960D01*
X157941337Y-87096637D01*
X157954706Y-87085053D01*
X158012398Y-87041865D01*
X158098648Y-86926650D01*
X158148943Y-86791802D01*
X158155352Y-86732192D01*
X158155351Y-85636447D01*
X158148943Y-85576836D01*
X158098648Y-85441988D01*
X158098647Y-85441987D01*
X158098645Y-85441983D01*
X158012399Y-85326774D01*
X158012396Y-85326771D01*
X157897187Y-85240525D01*
X157897180Y-85240521D01*
X157762334Y-85190227D01*
X157762335Y-85190227D01*
X157702735Y-85183820D01*
X157702733Y-85183819D01*
X157702725Y-85183819D01*
X157702716Y-85183819D01*
X155026981Y-85183819D01*
X155026975Y-85183820D01*
X154967368Y-85190227D01*
X154832523Y-85240521D01*
X154832516Y-85240525D01*
X154717307Y-85326771D01*
X154717304Y-85326774D01*
X154631058Y-85441983D01*
X154631054Y-85441990D01*
X154580760Y-85576836D01*
X154574353Y-85636435D01*
X154574353Y-85636442D01*
X154574352Y-85636454D01*
X153985351Y-85636454D01*
X153985351Y-85636447D01*
X153978943Y-85576836D01*
X153928648Y-85441988D01*
X153928647Y-85441987D01*
X153928645Y-85441983D01*
X153842399Y-85326774D01*
X153842396Y-85326771D01*
X153727187Y-85240525D01*
X153727180Y-85240521D01*
X153592334Y-85190227D01*
X153592335Y-85190227D01*
X153532735Y-85183820D01*
X153532733Y-85183819D01*
X153532725Y-85183819D01*
X153532716Y-85183819D01*
X150856981Y-85183819D01*
X150856975Y-85183820D01*
X150797368Y-85190227D01*
X150662523Y-85240521D01*
X150662516Y-85240525D01*
X150547307Y-85326771D01*
X150547304Y-85326774D01*
X150461058Y-85441983D01*
X150461054Y-85441990D01*
X150410760Y-85576836D01*
X150404353Y-85636435D01*
X150404353Y-85636442D01*
X150404352Y-85636454D01*
X117765351Y-85636454D01*
X117765351Y-85636447D01*
X117758943Y-85576836D01*
X117708648Y-85441988D01*
X117708647Y-85441987D01*
X117708645Y-85441983D01*
X117622399Y-85326774D01*
X117622396Y-85326771D01*
X117507187Y-85240525D01*
X117507180Y-85240521D01*
X117372334Y-85190227D01*
X117372335Y-85190227D01*
X117312735Y-85183820D01*
X117312733Y-85183819D01*
X117312725Y-85183819D01*
X117312716Y-85183819D01*
X114636981Y-85183819D01*
X114636975Y-85183820D01*
X114577368Y-85190227D01*
X114442523Y-85240521D01*
X114442516Y-85240525D01*
X114327307Y-85326771D01*
X114327304Y-85326774D01*
X114241058Y-85441983D01*
X114241054Y-85441990D01*
X114190760Y-85576836D01*
X114184353Y-85636435D01*
X114184353Y-85636442D01*
X114184352Y-85636454D01*
X113595351Y-85636454D01*
X113595351Y-85636447D01*
X113588943Y-85576836D01*
X113538648Y-85441988D01*
X113538647Y-85441987D01*
X113538645Y-85441983D01*
X113452399Y-85326774D01*
X113452396Y-85326771D01*
X113337187Y-85240525D01*
X113337180Y-85240521D01*
X113202334Y-85190227D01*
X113202335Y-85190227D01*
X113142735Y-85183820D01*
X113142733Y-85183819D01*
X113142725Y-85183819D01*
X113142716Y-85183819D01*
X110466981Y-85183819D01*
X110466975Y-85183820D01*
X110407368Y-85190227D01*
X110272523Y-85240521D01*
X110272516Y-85240525D01*
X110157307Y-85326771D01*
X110157304Y-85326774D01*
X110071058Y-85441983D01*
X110071054Y-85441990D01*
X110020760Y-85576836D01*
X110014353Y-85636435D01*
X110014353Y-85636442D01*
X110014352Y-85636454D01*
X109585352Y-85636454D01*
X109585352Y-80662901D01*
X109603535Y-80598258D01*
X109632236Y-80551276D01*
X110018273Y-79919352D01*
X110020462Y-79915901D01*
X110548799Y-79113429D01*
X110551127Y-79110018D01*
X111106333Y-78325881D01*
X111108799Y-78322521D01*
X111108817Y-78322497D01*
X111690223Y-77557640D01*
X111692750Y-77554430D01*
X112299742Y-76809658D01*
X112302389Y-76806519D01*
X112934243Y-76082727D01*
X112936998Y-76079676D01*
X113593011Y-75377666D01*
X113595870Y-75374709D01*
X114275241Y-74695339D01*
X114278198Y-74692480D01*
X114980209Y-74036468D01*
X114983260Y-74033713D01*
X115707053Y-73401862D01*
X115710192Y-73399214D01*
X116454964Y-72792223D01*
X116458176Y-72789694D01*
X117223104Y-72208237D01*
X117226393Y-72205823D01*
X118010554Y-71650602D01*
X118013928Y-71648298D01*
X118816439Y-71119938D01*
X118819938Y-71117720D01*
X119498815Y-70703002D01*
X119563458Y-70684819D01*
X148606269Y-70684819D01*
X148670911Y-70703001D01*
G37*
%TD.AperFunction*%
%TD*%
M02*
