%TF.GenerationSoftware,KiCad,Pcbnew,9.0.6*%
%TF.CreationDate,2025-11-09T22:11:44+01:00*%
%TF.ProjectId,gaia-battery,67616961-2d62-4617-9474-6572792e6b69,1.0*%
%TF.SameCoordinates,Original*%
%TF.FileFunction,Legend,Bot*%
%TF.FilePolarity,Positive*%
%FSLAX46Y46*%
G04 Gerber Fmt 4.6, Leading zero omitted, Abs format (unit mm)*
G04 Created by KiCad (PCBNEW 9.0.6) date 2025-11-09 22:11:44*
%MOMM*%
%LPD*%
G01*
G04 APERTURE LIST*
%ADD10C,0.140000*%
%ADD11C,0.100000*%
%ADD12C,0.112500*%
%ADD13C,0.017999*%
%ADD14C,0.120000*%
G04 APERTURE END LIST*
D10*
X133071879Y-75783296D02*
X133120833Y-75786162D01*
X133168589Y-75790916D01*
X133215119Y-75797540D01*
X133260395Y-75806016D01*
X133304391Y-75816326D01*
X133347078Y-75828452D01*
X133388429Y-75842375D01*
X133428416Y-75858079D01*
X133467012Y-75875544D01*
X133504188Y-75894753D01*
X133539919Y-75915687D01*
X133574175Y-75938328D01*
X133606930Y-75962659D01*
X133638155Y-75988661D01*
X133667823Y-76016317D01*
X133695908Y-76045607D01*
X133722380Y-76076514D01*
X133747212Y-76109020D01*
X133770378Y-76143107D01*
X133791849Y-76178757D01*
X133811597Y-76215951D01*
X133829595Y-76254672D01*
X133845816Y-76294901D01*
X133860232Y-76336621D01*
X133872816Y-76379813D01*
X133883539Y-76424459D01*
X133892374Y-76470541D01*
X133899294Y-76518041D01*
X133904271Y-76566941D01*
X133907277Y-76617223D01*
X133908286Y-76668869D01*
X133907286Y-76718082D01*
X133904307Y-76766157D01*
X133899384Y-76813067D01*
X133892548Y-76858789D01*
X133883833Y-76903297D01*
X133873271Y-76946567D01*
X133860897Y-76988574D01*
X133846742Y-77029292D01*
X133830841Y-77068697D01*
X133813225Y-77106764D01*
X133793927Y-77143468D01*
X133772982Y-77178785D01*
X133750422Y-77212689D01*
X133726279Y-77245155D01*
X133700587Y-77276160D01*
X133673379Y-77305677D01*
X133644688Y-77333682D01*
X133614547Y-77360150D01*
X133582989Y-77385056D01*
X133550047Y-77408376D01*
X133515753Y-77430084D01*
X133480142Y-77450156D01*
X133443245Y-77468566D01*
X133405097Y-77485291D01*
X133365729Y-77500304D01*
X133325176Y-77513581D01*
X133283469Y-77525098D01*
X133240642Y-77534829D01*
X133196729Y-77542750D01*
X133151761Y-77548835D01*
X133105772Y-77553060D01*
X133058796Y-77555400D01*
X133058796Y-77303517D01*
X133092195Y-77301465D01*
X133124783Y-77298099D01*
X133156543Y-77293435D01*
X133187458Y-77287490D01*
X133217511Y-77280280D01*
X133246688Y-77271824D01*
X133274971Y-77262136D01*
X133302345Y-77251234D01*
X133328792Y-77239135D01*
X133354297Y-77225856D01*
X133378844Y-77211412D01*
X133402415Y-77195821D01*
X133424996Y-77179100D01*
X133446568Y-77161265D01*
X133467118Y-77142334D01*
X133486627Y-77122322D01*
X133505080Y-77101246D01*
X133522461Y-77079124D01*
X133538752Y-77055972D01*
X133553939Y-77031806D01*
X133568004Y-77006644D01*
X133580931Y-76980502D01*
X133592705Y-76953397D01*
X133603308Y-76925345D01*
X133612725Y-76896364D01*
X133620939Y-76866470D01*
X133627934Y-76835680D01*
X133633694Y-76804010D01*
X133638202Y-76771477D01*
X133641443Y-76738099D01*
X133643399Y-76703891D01*
X133644054Y-76668871D01*
X133643355Y-76632715D01*
X133641271Y-76597417D01*
X133637818Y-76562996D01*
X133633014Y-76529472D01*
X133626878Y-76496863D01*
X133619426Y-76465188D01*
X133610676Y-76434466D01*
X133600646Y-76404716D01*
X133589354Y-76375958D01*
X133576817Y-76348210D01*
X133563052Y-76321491D01*
X133548079Y-76295819D01*
X133531913Y-76271216D01*
X133514573Y-76247698D01*
X133496076Y-76225285D01*
X133476440Y-76203997D01*
X133455683Y-76183851D01*
X133433823Y-76164868D01*
X133410876Y-76147065D01*
X133386860Y-76130463D01*
X133361794Y-76115080D01*
X133335695Y-76100935D01*
X133308580Y-76088046D01*
X133280467Y-76076434D01*
X133251373Y-76066117D01*
X133221317Y-76057114D01*
X133190316Y-76049444D01*
X133158388Y-76043126D01*
X133125550Y-76038179D01*
X133091820Y-76034621D01*
X133057215Y-76032473D01*
X133021753Y-76031753D01*
X132987673Y-76032437D01*
X132954430Y-76034476D01*
X132922038Y-76037851D01*
X132890511Y-76042542D01*
X132859860Y-76048530D01*
X132830100Y-76055796D01*
X132801244Y-76064319D01*
X132773304Y-76074081D01*
X132746293Y-76085062D01*
X132720226Y-76097242D01*
X132695114Y-76110603D01*
X132670971Y-76125124D01*
X132647811Y-76140787D01*
X132625645Y-76157571D01*
X132604488Y-76175458D01*
X132584353Y-76194428D01*
X132565252Y-76214461D01*
X132547198Y-76235539D01*
X132530206Y-76257641D01*
X132514287Y-76280748D01*
X132499455Y-76304841D01*
X132485724Y-76329900D01*
X132473106Y-76355906D01*
X132461614Y-76382839D01*
X132451261Y-76410681D01*
X132442061Y-76439410D01*
X132434027Y-76469009D01*
X132427172Y-76499458D01*
X132421508Y-76530736D01*
X132417050Y-76562826D01*
X132413810Y-76595707D01*
X132411801Y-76629359D01*
X132142632Y-76629357D01*
X132145217Y-76581736D01*
X132149711Y-76535199D01*
X132156083Y-76489774D01*
X132164303Y-76445490D01*
X132174340Y-76402374D01*
X132186165Y-76360454D01*
X132199747Y-76319759D01*
X132215056Y-76280317D01*
X132232062Y-76242155D01*
X132250734Y-76205301D01*
X132271041Y-76169784D01*
X132292955Y-76135632D01*
X132316444Y-76102873D01*
X132341477Y-76071534D01*
X132368026Y-76041644D01*
X132396059Y-76013231D01*
X132425546Y-75986322D01*
X132456457Y-75960947D01*
X132488762Y-75937132D01*
X132522430Y-75914906D01*
X132557431Y-75894297D01*
X132593735Y-75875333D01*
X132631311Y-75858043D01*
X132670129Y-75842453D01*
X132710159Y-75828592D01*
X132751370Y-75816489D01*
X132793733Y-75806170D01*
X132837217Y-75797665D01*
X132881791Y-75791001D01*
X132927425Y-75786207D01*
X132974090Y-75783309D01*
X133021754Y-75782337D01*
X133071879Y-75783296D01*
G36*
X133071879Y-75783296D02*
G01*
X133120833Y-75786162D01*
X133168589Y-75790916D01*
X133215119Y-75797540D01*
X133260395Y-75806016D01*
X133304391Y-75816326D01*
X133347078Y-75828452D01*
X133388429Y-75842375D01*
X133428416Y-75858079D01*
X133467012Y-75875544D01*
X133504188Y-75894753D01*
X133539919Y-75915687D01*
X133574175Y-75938328D01*
X133606930Y-75962659D01*
X133638155Y-75988661D01*
X133667823Y-76016317D01*
X133695908Y-76045607D01*
X133722380Y-76076514D01*
X133747212Y-76109020D01*
X133770378Y-76143107D01*
X133791849Y-76178757D01*
X133811597Y-76215951D01*
X133829595Y-76254672D01*
X133845816Y-76294901D01*
X133860232Y-76336621D01*
X133872816Y-76379813D01*
X133883539Y-76424459D01*
X133892374Y-76470541D01*
X133899294Y-76518041D01*
X133904271Y-76566941D01*
X133907277Y-76617223D01*
X133908286Y-76668869D01*
X133907286Y-76718082D01*
X133904307Y-76766157D01*
X133899384Y-76813067D01*
X133892548Y-76858789D01*
X133883833Y-76903297D01*
X133873271Y-76946567D01*
X133860897Y-76988574D01*
X133846742Y-77029292D01*
X133830841Y-77068697D01*
X133813225Y-77106764D01*
X133793927Y-77143468D01*
X133772982Y-77178785D01*
X133750422Y-77212689D01*
X133726279Y-77245155D01*
X133700587Y-77276160D01*
X133673379Y-77305677D01*
X133644688Y-77333682D01*
X133614547Y-77360150D01*
X133582989Y-77385056D01*
X133550047Y-77408376D01*
X133515753Y-77430084D01*
X133480142Y-77450156D01*
X133443245Y-77468566D01*
X133405097Y-77485291D01*
X133365729Y-77500304D01*
X133325176Y-77513581D01*
X133283469Y-77525098D01*
X133240642Y-77534829D01*
X133196729Y-77542750D01*
X133151761Y-77548835D01*
X133105772Y-77553060D01*
X133058796Y-77555400D01*
X133058796Y-77303517D01*
X133092195Y-77301465D01*
X133124783Y-77298099D01*
X133156543Y-77293435D01*
X133187458Y-77287490D01*
X133217511Y-77280280D01*
X133246688Y-77271824D01*
X133274971Y-77262136D01*
X133302345Y-77251234D01*
X133328792Y-77239135D01*
X133354297Y-77225856D01*
X133378844Y-77211412D01*
X133402415Y-77195821D01*
X133424996Y-77179100D01*
X133446568Y-77161265D01*
X133467118Y-77142334D01*
X133486627Y-77122322D01*
X133505080Y-77101246D01*
X133522461Y-77079124D01*
X133538752Y-77055972D01*
X133553939Y-77031806D01*
X133568004Y-77006644D01*
X133580931Y-76980502D01*
X133592705Y-76953397D01*
X133603308Y-76925345D01*
X133612725Y-76896364D01*
X133620939Y-76866470D01*
X133627934Y-76835680D01*
X133633694Y-76804010D01*
X133638202Y-76771477D01*
X133641443Y-76738099D01*
X133643399Y-76703891D01*
X133644054Y-76668871D01*
X133643355Y-76632715D01*
X133641271Y-76597417D01*
X133637818Y-76562996D01*
X133633014Y-76529472D01*
X133626878Y-76496863D01*
X133619426Y-76465188D01*
X133610676Y-76434466D01*
X133600646Y-76404716D01*
X133589354Y-76375958D01*
X133576817Y-76348210D01*
X133563052Y-76321491D01*
X133548079Y-76295819D01*
X133531913Y-76271216D01*
X133514573Y-76247698D01*
X133496076Y-76225285D01*
X133476440Y-76203997D01*
X133455683Y-76183851D01*
X133433823Y-76164868D01*
X133410876Y-76147065D01*
X133386860Y-76130463D01*
X133361794Y-76115080D01*
X133335695Y-76100935D01*
X133308580Y-76088046D01*
X133280467Y-76076434D01*
X133251373Y-76066117D01*
X133221317Y-76057114D01*
X133190316Y-76049444D01*
X133158388Y-76043126D01*
X133125550Y-76038179D01*
X133091820Y-76034621D01*
X133057215Y-76032473D01*
X133021753Y-76031753D01*
X132987673Y-76032437D01*
X132954430Y-76034476D01*
X132922038Y-76037851D01*
X132890511Y-76042542D01*
X132859860Y-76048530D01*
X132830100Y-76055796D01*
X132801244Y-76064319D01*
X132773304Y-76074081D01*
X132746293Y-76085062D01*
X132720226Y-76097242D01*
X132695114Y-76110603D01*
X132670971Y-76125124D01*
X132647811Y-76140787D01*
X132625645Y-76157571D01*
X132604488Y-76175458D01*
X132584353Y-76194428D01*
X132565252Y-76214461D01*
X132547198Y-76235539D01*
X132530206Y-76257641D01*
X132514287Y-76280748D01*
X132499455Y-76304841D01*
X132485724Y-76329900D01*
X132473106Y-76355906D01*
X132461614Y-76382839D01*
X132451261Y-76410681D01*
X132442061Y-76439410D01*
X132434027Y-76469009D01*
X132427172Y-76499458D01*
X132421508Y-76530736D01*
X132417050Y-76562826D01*
X132413810Y-76595707D01*
X132411801Y-76629359D01*
X132142632Y-76629357D01*
X132145217Y-76581736D01*
X132149711Y-76535199D01*
X132156083Y-76489774D01*
X132164303Y-76445490D01*
X132174340Y-76402374D01*
X132186165Y-76360454D01*
X132199747Y-76319759D01*
X132215056Y-76280317D01*
X132232062Y-76242155D01*
X132250734Y-76205301D01*
X132271041Y-76169784D01*
X132292955Y-76135632D01*
X132316444Y-76102873D01*
X132341477Y-76071534D01*
X132368026Y-76041644D01*
X132396059Y-76013231D01*
X132425546Y-75986322D01*
X132456457Y-75960947D01*
X132488762Y-75937132D01*
X132522430Y-75914906D01*
X132557431Y-75894297D01*
X132593735Y-75875333D01*
X132631311Y-75858043D01*
X132670129Y-75842453D01*
X132710159Y-75828592D01*
X132751370Y-75816489D01*
X132793733Y-75806170D01*
X132837217Y-75797665D01*
X132881791Y-75791001D01*
X132927425Y-75786207D01*
X132974090Y-75783309D01*
X133021754Y-75782337D01*
X133071879Y-75783296D01*
G37*
X138237222Y-77315864D02*
X138252039Y-77315864D01*
X138787909Y-75807032D01*
X139096590Y-75807032D01*
X138434779Y-77530705D01*
X138054484Y-77530705D01*
X137447001Y-75807032D01*
X137735926Y-75807032D01*
X138237222Y-77315864D01*
G36*
X138237222Y-77315864D02*
G01*
X138252039Y-77315864D01*
X138787909Y-75807032D01*
X139096590Y-75807032D01*
X138434779Y-77530705D01*
X138054484Y-77530705D01*
X137447001Y-75807032D01*
X137735926Y-75807032D01*
X138237222Y-77315864D01*
G37*
X129979400Y-76636768D02*
X129722577Y-77007183D01*
X129722577Y-75807032D01*
X129979400Y-75807032D01*
X129979400Y-76636768D01*
G36*
X129979400Y-76636768D02*
G01*
X129722577Y-77007183D01*
X129722577Y-75807032D01*
X129979400Y-75807032D01*
X129979400Y-76636768D01*
G37*
X136701021Y-75784031D02*
X136760229Y-75789159D01*
X136819039Y-75797804D01*
X136876905Y-75810043D01*
X136933281Y-75825959D01*
X136987621Y-75845629D01*
X137039377Y-75869133D01*
X137088005Y-75896551D01*
X137110974Y-75911753D01*
X137132957Y-75927963D01*
X137153884Y-75945192D01*
X137173688Y-75963448D01*
X137192299Y-75982743D01*
X137209651Y-76003086D01*
X137225674Y-76024487D01*
X137240300Y-76046956D01*
X137253461Y-76070503D01*
X137265089Y-76095138D01*
X137275116Y-76120871D01*
X137283472Y-76147712D01*
X137290090Y-76175670D01*
X137294902Y-76204756D01*
X137297840Y-76234980D01*
X137298834Y-76266351D01*
X137298138Y-76293588D01*
X137296077Y-76319753D01*
X137292687Y-76344877D01*
X137288006Y-76368988D01*
X137282072Y-76392115D01*
X137274921Y-76414287D01*
X137266593Y-76435533D01*
X137257123Y-76455881D01*
X137246551Y-76475362D01*
X137234912Y-76494004D01*
X137222246Y-76511835D01*
X137208588Y-76528884D01*
X137193978Y-76545182D01*
X137178452Y-76560756D01*
X137162047Y-76575635D01*
X137144802Y-76589849D01*
X137126754Y-76603426D01*
X137107941Y-76616395D01*
X137088400Y-76628786D01*
X137068168Y-76640626D01*
X137025782Y-76662774D01*
X136981086Y-76683070D01*
X136934378Y-76701745D01*
X136885959Y-76719031D01*
X136836129Y-76735159D01*
X136785189Y-76750362D01*
X136760089Y-76758474D01*
X136734874Y-76766182D01*
X136684559Y-76780613D01*
X136587634Y-76807160D01*
X136534150Y-76823062D01*
X136477396Y-76841771D01*
X136448652Y-76852477D01*
X136420121Y-76864242D01*
X136392148Y-76877187D01*
X136365075Y-76891430D01*
X136339246Y-76907092D01*
X136315006Y-76924290D01*
X136292697Y-76943146D01*
X136282374Y-76953232D01*
X136272663Y-76963777D01*
X136263607Y-76974796D01*
X136255249Y-76986304D01*
X136247631Y-76998316D01*
X136240797Y-77010846D01*
X136234789Y-77023909D01*
X136229651Y-77037522D01*
X136225425Y-77051697D01*
X136222155Y-77066451D01*
X135967802Y-77073859D01*
X135970032Y-77049358D01*
X135973460Y-77025842D01*
X135978052Y-77003284D01*
X135983776Y-76981656D01*
X135990600Y-76960930D01*
X135998492Y-76941079D01*
X136007417Y-76922076D01*
X136017345Y-76903892D01*
X136028242Y-76886501D01*
X136040077Y-76869874D01*
X136052815Y-76853984D01*
X136066425Y-76838804D01*
X136080875Y-76824305D01*
X136096131Y-76810461D01*
X136112161Y-76797244D01*
X136128933Y-76784625D01*
X136146414Y-76772579D01*
X136164571Y-76761076D01*
X136183373Y-76750089D01*
X136202785Y-76739592D01*
X136243314Y-76719952D01*
X136285897Y-76701937D01*
X136330275Y-76685326D01*
X136376187Y-76669897D01*
X136423371Y-76655431D01*
X136471569Y-76641706D01*
X136495853Y-76633700D01*
X136520456Y-76626272D01*
X136545233Y-76619308D01*
X136570038Y-76612690D01*
X136619157Y-76600034D01*
X136666655Y-76587378D01*
X136759260Y-76555275D01*
X136802784Y-76539455D01*
X136823851Y-76531401D01*
X136844455Y-76523173D01*
X136864062Y-76513181D01*
X136883007Y-76502617D01*
X136901206Y-76491431D01*
X136918577Y-76479572D01*
X136935037Y-76466990D01*
X136950501Y-76453633D01*
X136964888Y-76439452D01*
X136978114Y-76424395D01*
X136984265Y-76416523D01*
X136990095Y-76408413D01*
X136995593Y-76400058D01*
X137000749Y-76391454D01*
X137005552Y-76382592D01*
X137009992Y-76373467D01*
X137014058Y-76364073D01*
X137017741Y-76354402D01*
X137021029Y-76344450D01*
X137023912Y-76334209D01*
X137026381Y-76323674D01*
X137028424Y-76312837D01*
X137030031Y-76301692D01*
X137031192Y-76290234D01*
X137031896Y-76278456D01*
X137032133Y-76266351D01*
X137031385Y-76245780D01*
X137029187Y-76226185D01*
X137025609Y-76207546D01*
X137020721Y-76189842D01*
X137014592Y-76173052D01*
X137007292Y-76157153D01*
X136998891Y-76142125D01*
X136989458Y-76127947D01*
X136979062Y-76114597D01*
X136967774Y-76102055D01*
X136955663Y-76090298D01*
X136942799Y-76079306D01*
X136929251Y-76069057D01*
X136915088Y-76059530D01*
X136900382Y-76050705D01*
X136885201Y-76042558D01*
X136869614Y-76035071D01*
X136853692Y-76028220D01*
X136837504Y-76021985D01*
X136821120Y-76016345D01*
X136788042Y-76006763D01*
X136755014Y-75999304D01*
X136722594Y-75993799D01*
X136691339Y-75990078D01*
X136661806Y-75987969D01*
X136634552Y-75987304D01*
X136595408Y-75988471D01*
X136556851Y-75992012D01*
X136519118Y-75997983D01*
X136482449Y-76006443D01*
X136447082Y-76017449D01*
X136413257Y-76031060D01*
X136396996Y-76038860D01*
X136381211Y-76047334D01*
X136365929Y-76056487D01*
X136351183Y-76066327D01*
X136337001Y-76076862D01*
X136323412Y-76088099D01*
X136310448Y-76100045D01*
X136298138Y-76112707D01*
X136286511Y-76126092D01*
X136275598Y-76140208D01*
X136265429Y-76155062D01*
X136256032Y-76170662D01*
X136247439Y-76187013D01*
X136239678Y-76204124D01*
X136232780Y-76222003D01*
X136226775Y-76240655D01*
X136221692Y-76260088D01*
X136217561Y-76280311D01*
X136214413Y-76301329D01*
X136212276Y-76323150D01*
X135938169Y-76323147D01*
X135940629Y-76286616D01*
X135944743Y-76251555D01*
X135950472Y-76217943D01*
X135957775Y-76185761D01*
X135966614Y-76154987D01*
X135976949Y-76125602D01*
X135988741Y-76097586D01*
X136001950Y-76070917D01*
X136016538Y-76045576D01*
X136032464Y-76021542D01*
X136049690Y-75998795D01*
X136068177Y-75977315D01*
X136087884Y-75957080D01*
X136108772Y-75938072D01*
X136130803Y-75920269D01*
X136153937Y-75903651D01*
X136178134Y-75888198D01*
X136203355Y-75873889D01*
X136229562Y-75860704D01*
X136256713Y-75848624D01*
X136284771Y-75837626D01*
X136313696Y-75827692D01*
X136343448Y-75818800D01*
X136373988Y-75810931D01*
X136405277Y-75804064D01*
X136437275Y-75798178D01*
X136503243Y-75789270D01*
X136571577Y-75784045D01*
X136641961Y-75782339D01*
X136701021Y-75784031D01*
G36*
X136701021Y-75784031D02*
G01*
X136760229Y-75789159D01*
X136819039Y-75797804D01*
X136876905Y-75810043D01*
X136933281Y-75825959D01*
X136987621Y-75845629D01*
X137039377Y-75869133D01*
X137088005Y-75896551D01*
X137110974Y-75911753D01*
X137132957Y-75927963D01*
X137153884Y-75945192D01*
X137173688Y-75963448D01*
X137192299Y-75982743D01*
X137209651Y-76003086D01*
X137225674Y-76024487D01*
X137240300Y-76046956D01*
X137253461Y-76070503D01*
X137265089Y-76095138D01*
X137275116Y-76120871D01*
X137283472Y-76147712D01*
X137290090Y-76175670D01*
X137294902Y-76204756D01*
X137297840Y-76234980D01*
X137298834Y-76266351D01*
X137298138Y-76293588D01*
X137296077Y-76319753D01*
X137292687Y-76344877D01*
X137288006Y-76368988D01*
X137282072Y-76392115D01*
X137274921Y-76414287D01*
X137266593Y-76435533D01*
X137257123Y-76455881D01*
X137246551Y-76475362D01*
X137234912Y-76494004D01*
X137222246Y-76511835D01*
X137208588Y-76528884D01*
X137193978Y-76545182D01*
X137178452Y-76560756D01*
X137162047Y-76575635D01*
X137144802Y-76589849D01*
X137126754Y-76603426D01*
X137107941Y-76616395D01*
X137088400Y-76628786D01*
X137068168Y-76640626D01*
X137025782Y-76662774D01*
X136981086Y-76683070D01*
X136934378Y-76701745D01*
X136885959Y-76719031D01*
X136836129Y-76735159D01*
X136785189Y-76750362D01*
X136760089Y-76758474D01*
X136734874Y-76766182D01*
X136684559Y-76780613D01*
X136587634Y-76807160D01*
X136534150Y-76823062D01*
X136477396Y-76841771D01*
X136448652Y-76852477D01*
X136420121Y-76864242D01*
X136392148Y-76877187D01*
X136365075Y-76891430D01*
X136339246Y-76907092D01*
X136315006Y-76924290D01*
X136292697Y-76943146D01*
X136282374Y-76953232D01*
X136272663Y-76963777D01*
X136263607Y-76974796D01*
X136255249Y-76986304D01*
X136247631Y-76998316D01*
X136240797Y-77010846D01*
X136234789Y-77023909D01*
X136229651Y-77037522D01*
X136225425Y-77051697D01*
X136222155Y-77066451D01*
X135967802Y-77073859D01*
X135970032Y-77049358D01*
X135973460Y-77025842D01*
X135978052Y-77003284D01*
X135983776Y-76981656D01*
X135990600Y-76960930D01*
X135998492Y-76941079D01*
X136007417Y-76922076D01*
X136017345Y-76903892D01*
X136028242Y-76886501D01*
X136040077Y-76869874D01*
X136052815Y-76853984D01*
X136066425Y-76838804D01*
X136080875Y-76824305D01*
X136096131Y-76810461D01*
X136112161Y-76797244D01*
X136128933Y-76784625D01*
X136146414Y-76772579D01*
X136164571Y-76761076D01*
X136183373Y-76750089D01*
X136202785Y-76739592D01*
X136243314Y-76719952D01*
X136285897Y-76701937D01*
X136330275Y-76685326D01*
X136376187Y-76669897D01*
X136423371Y-76655431D01*
X136471569Y-76641706D01*
X136495853Y-76633700D01*
X136520456Y-76626272D01*
X136545233Y-76619308D01*
X136570038Y-76612690D01*
X136619157Y-76600034D01*
X136666655Y-76587378D01*
X136759260Y-76555275D01*
X136802784Y-76539455D01*
X136823851Y-76531401D01*
X136844455Y-76523173D01*
X136864062Y-76513181D01*
X136883007Y-76502617D01*
X136901206Y-76491431D01*
X136918577Y-76479572D01*
X136935037Y-76466990D01*
X136950501Y-76453633D01*
X136964888Y-76439452D01*
X136978114Y-76424395D01*
X136984265Y-76416523D01*
X136990095Y-76408413D01*
X136995593Y-76400058D01*
X137000749Y-76391454D01*
X137005552Y-76382592D01*
X137009992Y-76373467D01*
X137014058Y-76364073D01*
X137017741Y-76354402D01*
X137021029Y-76344450D01*
X137023912Y-76334209D01*
X137026381Y-76323674D01*
X137028424Y-76312837D01*
X137030031Y-76301692D01*
X137031192Y-76290234D01*
X137031896Y-76278456D01*
X137032133Y-76266351D01*
X137031385Y-76245780D01*
X137029187Y-76226185D01*
X137025609Y-76207546D01*
X137020721Y-76189842D01*
X137014592Y-76173052D01*
X137007292Y-76157153D01*
X136998891Y-76142125D01*
X136989458Y-76127947D01*
X136979062Y-76114597D01*
X136967774Y-76102055D01*
X136955663Y-76090298D01*
X136942799Y-76079306D01*
X136929251Y-76069057D01*
X136915088Y-76059530D01*
X136900382Y-76050705D01*
X136885201Y-76042558D01*
X136869614Y-76035071D01*
X136853692Y-76028220D01*
X136837504Y-76021985D01*
X136821120Y-76016345D01*
X136788042Y-76006763D01*
X136755014Y-75999304D01*
X136722594Y-75993799D01*
X136691339Y-75990078D01*
X136661806Y-75987969D01*
X136634552Y-75987304D01*
X136595408Y-75988471D01*
X136556851Y-75992012D01*
X136519118Y-75997983D01*
X136482449Y-76006443D01*
X136447082Y-76017449D01*
X136413257Y-76031060D01*
X136396996Y-76038860D01*
X136381211Y-76047334D01*
X136365929Y-76056487D01*
X136351183Y-76066327D01*
X136337001Y-76076862D01*
X136323412Y-76088099D01*
X136310448Y-76100045D01*
X136298138Y-76112707D01*
X136286511Y-76126092D01*
X136275598Y-76140208D01*
X136265429Y-76155062D01*
X136256032Y-76170662D01*
X136247439Y-76187013D01*
X136239678Y-76204124D01*
X136232780Y-76222003D01*
X136226775Y-76240655D01*
X136221692Y-76260088D01*
X136217561Y-76280311D01*
X136214413Y-76301329D01*
X136212276Y-76323150D01*
X135938169Y-76323147D01*
X135940629Y-76286616D01*
X135944743Y-76251555D01*
X135950472Y-76217943D01*
X135957775Y-76185761D01*
X135966614Y-76154987D01*
X135976949Y-76125602D01*
X135988741Y-76097586D01*
X136001950Y-76070917D01*
X136016538Y-76045576D01*
X136032464Y-76021542D01*
X136049690Y-75998795D01*
X136068177Y-75977315D01*
X136087884Y-75957080D01*
X136108772Y-75938072D01*
X136130803Y-75920269D01*
X136153937Y-75903651D01*
X136178134Y-75888198D01*
X136203355Y-75873889D01*
X136229562Y-75860704D01*
X136256713Y-75848624D01*
X136284771Y-75837626D01*
X136313696Y-75827692D01*
X136343448Y-75818800D01*
X136373988Y-75810931D01*
X136405277Y-75804064D01*
X136437275Y-75798178D01*
X136503243Y-75789270D01*
X136571577Y-75784045D01*
X136641961Y-75782339D01*
X136701021Y-75784031D01*
G37*
X137298834Y-77017061D02*
X137296221Y-77051385D01*
X137292108Y-77084449D01*
X137286530Y-77116265D01*
X137279522Y-77146848D01*
X137271117Y-77176209D01*
X137261351Y-77204363D01*
X137250257Y-77231322D01*
X137237869Y-77257100D01*
X137224223Y-77281709D01*
X137209352Y-77305163D01*
X137193292Y-77327475D01*
X137176075Y-77348657D01*
X137157737Y-77368724D01*
X137138312Y-77387688D01*
X137117835Y-77405562D01*
X137096339Y-77422359D01*
X137073859Y-77438093D01*
X137050430Y-77452777D01*
X137026086Y-77466423D01*
X137000860Y-77479045D01*
X136974788Y-77490657D01*
X136947905Y-77501270D01*
X136920243Y-77510898D01*
X136891838Y-77519555D01*
X136862724Y-77527253D01*
X136832936Y-77534005D01*
X136771472Y-77544726D01*
X136707722Y-77551823D01*
X136641961Y-77555400D01*
X136644432Y-77352905D01*
X136679904Y-77349458D01*
X136714869Y-77343741D01*
X136749111Y-77335737D01*
X136782412Y-77325432D01*
X136814556Y-77312812D01*
X136845326Y-77297863D01*
X136874503Y-77280570D01*
X136888427Y-77271039D01*
X136901872Y-77260918D01*
X136914811Y-77250203D01*
X136927215Y-77238893D01*
X136939059Y-77226986D01*
X136950316Y-77214481D01*
X136960957Y-77201375D01*
X136970956Y-77187666D01*
X136980286Y-77173354D01*
X136988920Y-77158436D01*
X136996830Y-77142910D01*
X137003990Y-77126774D01*
X137010372Y-77110027D01*
X137015949Y-77092667D01*
X137020694Y-77074692D01*
X137024580Y-77056100D01*
X137027579Y-77036890D01*
X137029666Y-77017059D01*
X137298834Y-77017061D01*
G36*
X137298834Y-77017061D02*
G01*
X137296221Y-77051385D01*
X137292108Y-77084449D01*
X137286530Y-77116265D01*
X137279522Y-77146848D01*
X137271117Y-77176209D01*
X137261351Y-77204363D01*
X137250257Y-77231322D01*
X137237869Y-77257100D01*
X137224223Y-77281709D01*
X137209352Y-77305163D01*
X137193292Y-77327475D01*
X137176075Y-77348657D01*
X137157737Y-77368724D01*
X137138312Y-77387688D01*
X137117835Y-77405562D01*
X137096339Y-77422359D01*
X137073859Y-77438093D01*
X137050430Y-77452777D01*
X137026086Y-77466423D01*
X137000860Y-77479045D01*
X136974788Y-77490657D01*
X136947905Y-77501270D01*
X136920243Y-77510898D01*
X136891838Y-77519555D01*
X136862724Y-77527253D01*
X136832936Y-77534005D01*
X136771472Y-77544726D01*
X136707722Y-77551823D01*
X136641961Y-77555400D01*
X136644432Y-77352905D01*
X136679904Y-77349458D01*
X136714869Y-77343741D01*
X136749111Y-77335737D01*
X136782412Y-77325432D01*
X136814556Y-77312812D01*
X136845326Y-77297863D01*
X136874503Y-77280570D01*
X136888427Y-77271039D01*
X136901872Y-77260918D01*
X136914811Y-77250203D01*
X136927215Y-77238893D01*
X136939059Y-77226986D01*
X136950316Y-77214481D01*
X136960957Y-77201375D01*
X136970956Y-77187666D01*
X136980286Y-77173354D01*
X136988920Y-77158436D01*
X136996830Y-77142910D01*
X137003990Y-77126774D01*
X137010372Y-77110027D01*
X137015949Y-77092667D01*
X137020694Y-77074692D01*
X137024580Y-77056100D01*
X137027579Y-77036890D01*
X137029666Y-77017059D01*
X137298834Y-77017061D01*
G37*
X134461440Y-76636768D02*
X134204618Y-77007183D01*
X134204618Y-75807032D01*
X134461440Y-75807032D01*
X134461440Y-76636768D01*
G36*
X134461440Y-76636768D02*
G01*
X134204618Y-77007183D01*
X134204618Y-75807032D01*
X134461440Y-75807032D01*
X134461440Y-76636768D01*
G37*
X140509114Y-77530705D02*
X139183021Y-77530705D01*
X139183021Y-77271414D01*
X140509114Y-77271414D01*
X140509114Y-77530705D01*
G36*
X140509114Y-77530705D02*
G01*
X139183021Y-77530705D01*
X139183021Y-77271414D01*
X140509114Y-77271414D01*
X140509114Y-77530705D01*
G37*
X131172142Y-77530705D02*
X130922728Y-77530705D01*
X130915320Y-76209551D01*
X130001625Y-77530705D01*
X129742334Y-77530705D01*
X130898034Y-75807032D01*
X131172142Y-75807032D01*
X131172142Y-77530705D01*
G36*
X131172142Y-77530705D02*
G01*
X130922728Y-77530705D01*
X130915320Y-76209551D01*
X130001625Y-77530705D01*
X129742334Y-77530705D01*
X130898034Y-75807032D01*
X131172142Y-75807032D01*
X131172142Y-77530705D01*
G37*
X135654183Y-77530705D02*
X135404770Y-77530705D01*
X135397361Y-76209551D01*
X134483667Y-77530705D01*
X134224375Y-77530705D01*
X135380075Y-75807032D01*
X135654183Y-75807032D01*
X135654183Y-77530705D01*
G36*
X135654183Y-77530705D02*
G01*
X135404770Y-77530705D01*
X135397361Y-76209551D01*
X134483667Y-77530705D01*
X134224375Y-77530705D01*
X135380075Y-75807032D01*
X135654183Y-75807032D01*
X135654183Y-77530705D01*
G37*
X139980652Y-76965202D02*
X139716421Y-76965202D01*
X139716421Y-75807032D01*
X139980652Y-75807032D01*
X139980652Y-76965202D01*
G36*
X139980652Y-76965202D02*
G01*
X139716421Y-76965202D01*
X139716421Y-75807032D01*
X139980652Y-75807032D01*
X139980652Y-76965202D01*
G37*
X128589839Y-75783296D02*
X128638793Y-75786162D01*
X128686549Y-75790916D01*
X128733078Y-75797540D01*
X128778355Y-75806016D01*
X128822350Y-75816326D01*
X128865037Y-75828452D01*
X128906388Y-75842375D01*
X128946375Y-75858079D01*
X128984971Y-75875544D01*
X129022148Y-75894753D01*
X129057878Y-75915687D01*
X129092134Y-75938328D01*
X129124889Y-75962659D01*
X129156114Y-75988661D01*
X129185783Y-76016317D01*
X129213867Y-76045607D01*
X129240339Y-76076514D01*
X129265172Y-76109020D01*
X129288337Y-76143107D01*
X129309808Y-76178757D01*
X129329557Y-76215951D01*
X129347555Y-76254672D01*
X129363776Y-76294901D01*
X129378192Y-76336621D01*
X129390776Y-76379813D01*
X129401499Y-76424459D01*
X129410334Y-76470541D01*
X129417254Y-76518041D01*
X129422231Y-76566941D01*
X129425237Y-76617223D01*
X129426246Y-76668869D01*
X129425245Y-76718082D01*
X129422267Y-76766157D01*
X129417344Y-76813067D01*
X129410508Y-76858789D01*
X129401793Y-76903297D01*
X129391231Y-76946567D01*
X129378857Y-76988574D01*
X129364702Y-77029292D01*
X129348800Y-77068697D01*
X129331184Y-77106764D01*
X129311887Y-77143468D01*
X129290942Y-77178785D01*
X129268381Y-77212689D01*
X129244239Y-77245155D01*
X129218547Y-77276160D01*
X129191339Y-77305677D01*
X129162648Y-77333682D01*
X129132507Y-77360150D01*
X129100949Y-77385056D01*
X129068007Y-77408376D01*
X129033713Y-77430084D01*
X128998102Y-77450156D01*
X128961205Y-77468566D01*
X128923057Y-77485291D01*
X128883689Y-77500304D01*
X128843136Y-77513581D01*
X128801429Y-77525098D01*
X128758602Y-77534829D01*
X128714688Y-77542750D01*
X128669721Y-77548835D01*
X128623732Y-77553060D01*
X128576755Y-77555400D01*
X128576755Y-77303517D01*
X128610155Y-77301465D01*
X128642743Y-77298099D01*
X128674503Y-77293435D01*
X128705417Y-77287490D01*
X128735471Y-77280280D01*
X128764648Y-77271824D01*
X128792931Y-77262136D01*
X128820305Y-77251234D01*
X128846752Y-77239135D01*
X128872257Y-77225856D01*
X128896803Y-77211412D01*
X128920375Y-77195821D01*
X128942955Y-77179100D01*
X128964528Y-77161265D01*
X128985078Y-77142334D01*
X129004587Y-77122322D01*
X129023040Y-77101246D01*
X129040420Y-77079124D01*
X129056712Y-77055972D01*
X129071899Y-77031806D01*
X129085964Y-77006644D01*
X129098891Y-76980502D01*
X129110665Y-76953397D01*
X129121268Y-76925345D01*
X129130685Y-76896364D01*
X129138899Y-76866470D01*
X129145894Y-76835680D01*
X129151654Y-76804010D01*
X129156162Y-76771477D01*
X129159402Y-76738099D01*
X129161359Y-76703891D01*
X129162014Y-76668871D01*
X129161315Y-76632715D01*
X129159231Y-76597417D01*
X129155778Y-76562996D01*
X129150974Y-76529472D01*
X129144837Y-76496863D01*
X129137385Y-76465188D01*
X129128636Y-76434466D01*
X129118606Y-76404716D01*
X129107314Y-76375958D01*
X129094777Y-76348210D01*
X129081012Y-76321491D01*
X129066039Y-76295819D01*
X129049873Y-76271216D01*
X129032533Y-76247698D01*
X129014036Y-76225285D01*
X128994400Y-76203997D01*
X128973643Y-76183851D01*
X128951783Y-76164868D01*
X128928836Y-76147065D01*
X128904820Y-76130463D01*
X128879754Y-76115080D01*
X128853655Y-76100935D01*
X128826540Y-76088046D01*
X128798427Y-76076434D01*
X128769334Y-76066117D01*
X128739278Y-76057114D01*
X128708277Y-76049444D01*
X128676349Y-76043126D01*
X128643511Y-76038179D01*
X128609780Y-76034621D01*
X128575176Y-76032473D01*
X128539714Y-76031753D01*
X128505634Y-76032437D01*
X128472391Y-76034476D01*
X128439999Y-76037851D01*
X128408472Y-76042542D01*
X128377821Y-76048530D01*
X128348061Y-76055796D01*
X128319205Y-76064319D01*
X128291265Y-76074081D01*
X128264254Y-76085062D01*
X128238187Y-76097242D01*
X128213075Y-76110603D01*
X128188932Y-76125124D01*
X128165772Y-76140787D01*
X128143606Y-76157571D01*
X128122449Y-76175458D01*
X128102313Y-76194428D01*
X128083212Y-76214461D01*
X128065159Y-76235539D01*
X128048166Y-76257641D01*
X128032248Y-76280748D01*
X128017416Y-76304841D01*
X128003684Y-76329900D01*
X127991066Y-76355906D01*
X127979574Y-76382839D01*
X127969222Y-76410681D01*
X127960022Y-76439410D01*
X127951987Y-76469009D01*
X127945132Y-76499458D01*
X127939469Y-76530736D01*
X127935010Y-76562826D01*
X127931770Y-76595707D01*
X127929761Y-76629359D01*
X127660591Y-76629357D01*
X127663176Y-76581736D01*
X127667670Y-76535199D01*
X127674042Y-76489774D01*
X127682261Y-76445490D01*
X127692299Y-76402374D01*
X127704124Y-76360454D01*
X127717706Y-76319759D01*
X127733015Y-76280317D01*
X127750021Y-76242155D01*
X127768693Y-76205301D01*
X127789000Y-76169784D01*
X127810914Y-76135632D01*
X127834402Y-76102873D01*
X127859436Y-76071534D01*
X127885985Y-76041644D01*
X127914018Y-76013231D01*
X127943505Y-75986322D01*
X127974416Y-75960947D01*
X128006721Y-75937132D01*
X128040389Y-75914906D01*
X128075390Y-75894297D01*
X128111694Y-75875333D01*
X128149270Y-75858043D01*
X128188088Y-75842453D01*
X128228118Y-75828592D01*
X128269330Y-75816489D01*
X128311692Y-75806170D01*
X128355176Y-75797665D01*
X128399750Y-75791001D01*
X128445385Y-75786207D01*
X128492050Y-75783309D01*
X128539714Y-75782337D01*
X128589839Y-75783296D01*
G36*
X128589839Y-75783296D02*
G01*
X128638793Y-75786162D01*
X128686549Y-75790916D01*
X128733078Y-75797540D01*
X128778355Y-75806016D01*
X128822350Y-75816326D01*
X128865037Y-75828452D01*
X128906388Y-75842375D01*
X128946375Y-75858079D01*
X128984971Y-75875544D01*
X129022148Y-75894753D01*
X129057878Y-75915687D01*
X129092134Y-75938328D01*
X129124889Y-75962659D01*
X129156114Y-75988661D01*
X129185783Y-76016317D01*
X129213867Y-76045607D01*
X129240339Y-76076514D01*
X129265172Y-76109020D01*
X129288337Y-76143107D01*
X129309808Y-76178757D01*
X129329557Y-76215951D01*
X129347555Y-76254672D01*
X129363776Y-76294901D01*
X129378192Y-76336621D01*
X129390776Y-76379813D01*
X129401499Y-76424459D01*
X129410334Y-76470541D01*
X129417254Y-76518041D01*
X129422231Y-76566941D01*
X129425237Y-76617223D01*
X129426246Y-76668869D01*
X129425245Y-76718082D01*
X129422267Y-76766157D01*
X129417344Y-76813067D01*
X129410508Y-76858789D01*
X129401793Y-76903297D01*
X129391231Y-76946567D01*
X129378857Y-76988574D01*
X129364702Y-77029292D01*
X129348800Y-77068697D01*
X129331184Y-77106764D01*
X129311887Y-77143468D01*
X129290942Y-77178785D01*
X129268381Y-77212689D01*
X129244239Y-77245155D01*
X129218547Y-77276160D01*
X129191339Y-77305677D01*
X129162648Y-77333682D01*
X129132507Y-77360150D01*
X129100949Y-77385056D01*
X129068007Y-77408376D01*
X129033713Y-77430084D01*
X128998102Y-77450156D01*
X128961205Y-77468566D01*
X128923057Y-77485291D01*
X128883689Y-77500304D01*
X128843136Y-77513581D01*
X128801429Y-77525098D01*
X128758602Y-77534829D01*
X128714688Y-77542750D01*
X128669721Y-77548835D01*
X128623732Y-77553060D01*
X128576755Y-77555400D01*
X128576755Y-77303517D01*
X128610155Y-77301465D01*
X128642743Y-77298099D01*
X128674503Y-77293435D01*
X128705417Y-77287490D01*
X128735471Y-77280280D01*
X128764648Y-77271824D01*
X128792931Y-77262136D01*
X128820305Y-77251234D01*
X128846752Y-77239135D01*
X128872257Y-77225856D01*
X128896803Y-77211412D01*
X128920375Y-77195821D01*
X128942955Y-77179100D01*
X128964528Y-77161265D01*
X128985078Y-77142334D01*
X129004587Y-77122322D01*
X129023040Y-77101246D01*
X129040420Y-77079124D01*
X129056712Y-77055972D01*
X129071899Y-77031806D01*
X129085964Y-77006644D01*
X129098891Y-76980502D01*
X129110665Y-76953397D01*
X129121268Y-76925345D01*
X129130685Y-76896364D01*
X129138899Y-76866470D01*
X129145894Y-76835680D01*
X129151654Y-76804010D01*
X129156162Y-76771477D01*
X129159402Y-76738099D01*
X129161359Y-76703891D01*
X129162014Y-76668871D01*
X129161315Y-76632715D01*
X129159231Y-76597417D01*
X129155778Y-76562996D01*
X129150974Y-76529472D01*
X129144837Y-76496863D01*
X129137385Y-76465188D01*
X129128636Y-76434466D01*
X129118606Y-76404716D01*
X129107314Y-76375958D01*
X129094777Y-76348210D01*
X129081012Y-76321491D01*
X129066039Y-76295819D01*
X129049873Y-76271216D01*
X129032533Y-76247698D01*
X129014036Y-76225285D01*
X128994400Y-76203997D01*
X128973643Y-76183851D01*
X128951783Y-76164868D01*
X128928836Y-76147065D01*
X128904820Y-76130463D01*
X128879754Y-76115080D01*
X128853655Y-76100935D01*
X128826540Y-76088046D01*
X128798427Y-76076434D01*
X128769334Y-76066117D01*
X128739278Y-76057114D01*
X128708277Y-76049444D01*
X128676349Y-76043126D01*
X128643511Y-76038179D01*
X128609780Y-76034621D01*
X128575176Y-76032473D01*
X128539714Y-76031753D01*
X128505634Y-76032437D01*
X128472391Y-76034476D01*
X128439999Y-76037851D01*
X128408472Y-76042542D01*
X128377821Y-76048530D01*
X128348061Y-76055796D01*
X128319205Y-76064319D01*
X128291265Y-76074081D01*
X128264254Y-76085062D01*
X128238187Y-76097242D01*
X128213075Y-76110603D01*
X128188932Y-76125124D01*
X128165772Y-76140787D01*
X128143606Y-76157571D01*
X128122449Y-76175458D01*
X128102313Y-76194428D01*
X128083212Y-76214461D01*
X128065159Y-76235539D01*
X128048166Y-76257641D01*
X128032248Y-76280748D01*
X128017416Y-76304841D01*
X128003684Y-76329900D01*
X127991066Y-76355906D01*
X127979574Y-76382839D01*
X127969222Y-76410681D01*
X127960022Y-76439410D01*
X127951987Y-76469009D01*
X127945132Y-76499458D01*
X127939469Y-76530736D01*
X127935010Y-76562826D01*
X127931770Y-76595707D01*
X127929761Y-76629359D01*
X127660591Y-76629357D01*
X127663176Y-76581736D01*
X127667670Y-76535199D01*
X127674042Y-76489774D01*
X127682261Y-76445490D01*
X127692299Y-76402374D01*
X127704124Y-76360454D01*
X127717706Y-76319759D01*
X127733015Y-76280317D01*
X127750021Y-76242155D01*
X127768693Y-76205301D01*
X127789000Y-76169784D01*
X127810914Y-76135632D01*
X127834402Y-76102873D01*
X127859436Y-76071534D01*
X127885985Y-76041644D01*
X127914018Y-76013231D01*
X127943505Y-75986322D01*
X127974416Y-75960947D01*
X128006721Y-75937132D01*
X128040389Y-75914906D01*
X128075390Y-75894297D01*
X128111694Y-75875333D01*
X128149270Y-75858043D01*
X128188088Y-75842453D01*
X128228118Y-75828592D01*
X128269330Y-75816489D01*
X128311692Y-75806170D01*
X128355176Y-75797665D01*
X128399750Y-75791001D01*
X128445385Y-75786207D01*
X128492050Y-75783309D01*
X128539714Y-75782337D01*
X128589839Y-75783296D01*
G37*
X131819137Y-77530707D02*
X131549967Y-77530707D01*
X131549967Y-77330681D01*
X131819137Y-77330681D01*
X131819137Y-77530707D01*
G36*
X131819137Y-77530707D02*
G01*
X131549967Y-77530707D01*
X131549967Y-77330681D01*
X131819137Y-77330681D01*
X131819137Y-77530707D01*
G37*
X131816667Y-77017061D02*
X131549967Y-77017061D01*
X131549967Y-75807032D01*
X131816667Y-75807032D01*
X131816667Y-77017061D01*
G36*
X131816667Y-77017061D02*
G01*
X131549967Y-77017061D01*
X131549967Y-75807032D01*
X131816667Y-75807032D01*
X131816667Y-77017061D01*
G37*
D11*
X131330090Y-72488816D02*
X131330090Y-72922149D01*
X131330090Y-72798340D02*
X131361043Y-72860245D01*
X131361043Y-72860245D02*
X131391995Y-72891197D01*
X131391995Y-72891197D02*
X131453900Y-72922149D01*
X131453900Y-72922149D02*
X131515805Y-72922149D01*
X131980090Y-72519769D02*
X131918186Y-72488816D01*
X131918186Y-72488816D02*
X131794376Y-72488816D01*
X131794376Y-72488816D02*
X131732471Y-72519769D01*
X131732471Y-72519769D02*
X131701519Y-72581673D01*
X131701519Y-72581673D02*
X131701519Y-72829292D01*
X131701519Y-72829292D02*
X131732471Y-72891197D01*
X131732471Y-72891197D02*
X131794376Y-72922149D01*
X131794376Y-72922149D02*
X131918186Y-72922149D01*
X131918186Y-72922149D02*
X131980090Y-72891197D01*
X131980090Y-72891197D02*
X132011043Y-72829292D01*
X132011043Y-72829292D02*
X132011043Y-72767388D01*
X132011043Y-72767388D02*
X131701519Y-72705483D01*
X132227710Y-72922149D02*
X132382472Y-72488816D01*
X132382472Y-72488816D02*
X132537233Y-72922149D01*
X132784852Y-72488816D02*
X132784852Y-72922149D01*
X132784852Y-73138816D02*
X132753900Y-73107864D01*
X132753900Y-73107864D02*
X132784852Y-73076911D01*
X132784852Y-73076911D02*
X132815805Y-73107864D01*
X132815805Y-73107864D02*
X132784852Y-73138816D01*
X132784852Y-73138816D02*
X132784852Y-73076911D01*
X133063424Y-72519769D02*
X133125329Y-72488816D01*
X133125329Y-72488816D02*
X133249138Y-72488816D01*
X133249138Y-72488816D02*
X133311043Y-72519769D01*
X133311043Y-72519769D02*
X133341995Y-72581673D01*
X133341995Y-72581673D02*
X133341995Y-72612626D01*
X133341995Y-72612626D02*
X133311043Y-72674530D01*
X133311043Y-72674530D02*
X133249138Y-72705483D01*
X133249138Y-72705483D02*
X133156281Y-72705483D01*
X133156281Y-72705483D02*
X133094376Y-72736435D01*
X133094376Y-72736435D02*
X133063424Y-72798340D01*
X133063424Y-72798340D02*
X133063424Y-72829292D01*
X133063424Y-72829292D02*
X133094376Y-72891197D01*
X133094376Y-72891197D02*
X133156281Y-72922149D01*
X133156281Y-72922149D02*
X133249138Y-72922149D01*
X133249138Y-72922149D02*
X133311043Y-72891197D01*
X133620566Y-72488816D02*
X133620566Y-72922149D01*
X133620566Y-73138816D02*
X133589614Y-73107864D01*
X133589614Y-73107864D02*
X133620566Y-73076911D01*
X133620566Y-73076911D02*
X133651519Y-73107864D01*
X133651519Y-73107864D02*
X133620566Y-73138816D01*
X133620566Y-73138816D02*
X133620566Y-73076911D01*
X134022948Y-72488816D02*
X133961043Y-72519769D01*
X133961043Y-72519769D02*
X133930090Y-72550721D01*
X133930090Y-72550721D02*
X133899138Y-72612626D01*
X133899138Y-72612626D02*
X133899138Y-72798340D01*
X133899138Y-72798340D02*
X133930090Y-72860245D01*
X133930090Y-72860245D02*
X133961043Y-72891197D01*
X133961043Y-72891197D02*
X134022948Y-72922149D01*
X134022948Y-72922149D02*
X134115805Y-72922149D01*
X134115805Y-72922149D02*
X134177709Y-72891197D01*
X134177709Y-72891197D02*
X134208662Y-72860245D01*
X134208662Y-72860245D02*
X134239614Y-72798340D01*
X134239614Y-72798340D02*
X134239614Y-72612626D01*
X134239614Y-72612626D02*
X134208662Y-72550721D01*
X134208662Y-72550721D02*
X134177709Y-72519769D01*
X134177709Y-72519769D02*
X134115805Y-72488816D01*
X134115805Y-72488816D02*
X134022948Y-72488816D01*
X134518185Y-72922149D02*
X134518185Y-72488816D01*
X134518185Y-72860245D02*
X134549138Y-72891197D01*
X134549138Y-72891197D02*
X134611043Y-72922149D01*
X134611043Y-72922149D02*
X134703900Y-72922149D01*
X134703900Y-72922149D02*
X134765804Y-72891197D01*
X134765804Y-72891197D02*
X134796757Y-72829292D01*
X134796757Y-72829292D02*
X134796757Y-72488816D01*
X135941995Y-72488816D02*
X135570566Y-72488816D01*
X135756280Y-72488816D02*
X135756280Y-73138816D01*
X135756280Y-73138816D02*
X135694376Y-73045959D01*
X135694376Y-73045959D02*
X135632471Y-72984054D01*
X135632471Y-72984054D02*
X135570566Y-72953102D01*
X136220566Y-72550721D02*
X136251519Y-72519769D01*
X136251519Y-72519769D02*
X136220566Y-72488816D01*
X136220566Y-72488816D02*
X136189614Y-72519769D01*
X136189614Y-72519769D02*
X136220566Y-72550721D01*
X136220566Y-72550721D02*
X136220566Y-72488816D01*
X136653900Y-73138816D02*
X136715805Y-73138816D01*
X136715805Y-73138816D02*
X136777709Y-73107864D01*
X136777709Y-73107864D02*
X136808662Y-73076911D01*
X136808662Y-73076911D02*
X136839614Y-73015007D01*
X136839614Y-73015007D02*
X136870567Y-72891197D01*
X136870567Y-72891197D02*
X136870567Y-72736435D01*
X136870567Y-72736435D02*
X136839614Y-72612626D01*
X136839614Y-72612626D02*
X136808662Y-72550721D01*
X136808662Y-72550721D02*
X136777709Y-72519769D01*
X136777709Y-72519769D02*
X136715805Y-72488816D01*
X136715805Y-72488816D02*
X136653900Y-72488816D01*
X136653900Y-72488816D02*
X136591995Y-72519769D01*
X136591995Y-72519769D02*
X136561043Y-72550721D01*
X136561043Y-72550721D02*
X136530090Y-72612626D01*
X136530090Y-72612626D02*
X136499138Y-72736435D01*
X136499138Y-72736435D02*
X136499138Y-72891197D01*
X136499138Y-72891197D02*
X136530090Y-73015007D01*
X136530090Y-73015007D02*
X136561043Y-73076911D01*
X136561043Y-73076911D02*
X136591995Y-73107864D01*
X136591995Y-73107864D02*
X136653900Y-73138816D01*
D12*
X128144399Y-74863936D02*
X128272971Y-74821079D01*
X128272971Y-74821079D02*
X128315828Y-74778222D01*
X128315828Y-74778222D02*
X128358685Y-74692507D01*
X128358685Y-74692507D02*
X128358685Y-74563936D01*
X128358685Y-74563936D02*
X128315828Y-74478222D01*
X128315828Y-74478222D02*
X128272971Y-74435365D01*
X128272971Y-74435365D02*
X128187256Y-74392507D01*
X128187256Y-74392507D02*
X127844399Y-74392507D01*
X127844399Y-74392507D02*
X127844399Y-75292507D01*
X127844399Y-75292507D02*
X128144399Y-75292507D01*
X128144399Y-75292507D02*
X128230114Y-75249650D01*
X128230114Y-75249650D02*
X128272971Y-75206793D01*
X128272971Y-75206793D02*
X128315828Y-75121079D01*
X128315828Y-75121079D02*
X128315828Y-75035365D01*
X128315828Y-75035365D02*
X128272971Y-74949650D01*
X128272971Y-74949650D02*
X128230114Y-74906793D01*
X128230114Y-74906793D02*
X128144399Y-74863936D01*
X128144399Y-74863936D02*
X127844399Y-74863936D01*
X129130114Y-74392507D02*
X129130114Y-74863936D01*
X129130114Y-74863936D02*
X129087256Y-74949650D01*
X129087256Y-74949650D02*
X129001542Y-74992507D01*
X129001542Y-74992507D02*
X128830114Y-74992507D01*
X128830114Y-74992507D02*
X128744399Y-74949650D01*
X129130114Y-74435365D02*
X129044399Y-74392507D01*
X129044399Y-74392507D02*
X128830114Y-74392507D01*
X128830114Y-74392507D02*
X128744399Y-74435365D01*
X128744399Y-74435365D02*
X128701542Y-74521079D01*
X128701542Y-74521079D02*
X128701542Y-74606793D01*
X128701542Y-74606793D02*
X128744399Y-74692507D01*
X128744399Y-74692507D02*
X128830114Y-74735365D01*
X128830114Y-74735365D02*
X129044399Y-74735365D01*
X129044399Y-74735365D02*
X129130114Y-74778222D01*
X129430114Y-74992507D02*
X129772971Y-74992507D01*
X129558685Y-75292507D02*
X129558685Y-74521079D01*
X129558685Y-74521079D02*
X129601542Y-74435365D01*
X129601542Y-74435365D02*
X129687257Y-74392507D01*
X129687257Y-74392507D02*
X129772971Y-74392507D01*
X129944400Y-74992507D02*
X130287257Y-74992507D01*
X130072971Y-75292507D02*
X130072971Y-74521079D01*
X130072971Y-74521079D02*
X130115828Y-74435365D01*
X130115828Y-74435365D02*
X130201543Y-74392507D01*
X130201543Y-74392507D02*
X130287257Y-74392507D01*
X130930114Y-74435365D02*
X130844400Y-74392507D01*
X130844400Y-74392507D02*
X130672972Y-74392507D01*
X130672972Y-74392507D02*
X130587257Y-74435365D01*
X130587257Y-74435365D02*
X130544400Y-74521079D01*
X130544400Y-74521079D02*
X130544400Y-74863936D01*
X130544400Y-74863936D02*
X130587257Y-74949650D01*
X130587257Y-74949650D02*
X130672972Y-74992507D01*
X130672972Y-74992507D02*
X130844400Y-74992507D01*
X130844400Y-74992507D02*
X130930114Y-74949650D01*
X130930114Y-74949650D02*
X130972972Y-74863936D01*
X130972972Y-74863936D02*
X130972972Y-74778222D01*
X130972972Y-74778222D02*
X130544400Y-74692507D01*
X131358686Y-74392507D02*
X131358686Y-74992507D01*
X131358686Y-74821079D02*
X131401543Y-74906793D01*
X131401543Y-74906793D02*
X131444401Y-74949650D01*
X131444401Y-74949650D02*
X131530115Y-74992507D01*
X131530115Y-74992507D02*
X131615829Y-74992507D01*
X131830115Y-74992507D02*
X132044401Y-74392507D01*
X132258686Y-74992507D02*
X132044401Y-74392507D01*
X132044401Y-74392507D02*
X131958686Y-74178222D01*
X131958686Y-74178222D02*
X131915829Y-74135365D01*
X131915829Y-74135365D02*
X131830115Y-74092507D01*
X133801543Y-74478222D02*
X133758686Y-74435365D01*
X133758686Y-74435365D02*
X133630114Y-74392507D01*
X133630114Y-74392507D02*
X133544400Y-74392507D01*
X133544400Y-74392507D02*
X133415829Y-74435365D01*
X133415829Y-74435365D02*
X133330114Y-74521079D01*
X133330114Y-74521079D02*
X133287257Y-74606793D01*
X133287257Y-74606793D02*
X133244400Y-74778222D01*
X133244400Y-74778222D02*
X133244400Y-74906793D01*
X133244400Y-74906793D02*
X133287257Y-75078222D01*
X133287257Y-75078222D02*
X133330114Y-75163936D01*
X133330114Y-75163936D02*
X133415829Y-75249650D01*
X133415829Y-75249650D02*
X133544400Y-75292507D01*
X133544400Y-75292507D02*
X133630114Y-75292507D01*
X133630114Y-75292507D02*
X133758686Y-75249650D01*
X133758686Y-75249650D02*
X133801543Y-75206793D01*
X134315829Y-74392507D02*
X134230114Y-74435365D01*
X134230114Y-74435365D02*
X134187257Y-74478222D01*
X134187257Y-74478222D02*
X134144400Y-74563936D01*
X134144400Y-74563936D02*
X134144400Y-74821079D01*
X134144400Y-74821079D02*
X134187257Y-74906793D01*
X134187257Y-74906793D02*
X134230114Y-74949650D01*
X134230114Y-74949650D02*
X134315829Y-74992507D01*
X134315829Y-74992507D02*
X134444400Y-74992507D01*
X134444400Y-74992507D02*
X134530114Y-74949650D01*
X134530114Y-74949650D02*
X134572972Y-74906793D01*
X134572972Y-74906793D02*
X134615829Y-74821079D01*
X134615829Y-74821079D02*
X134615829Y-74563936D01*
X134615829Y-74563936D02*
X134572972Y-74478222D01*
X134572972Y-74478222D02*
X134530114Y-74435365D01*
X134530114Y-74435365D02*
X134444400Y-74392507D01*
X134444400Y-74392507D02*
X134315829Y-74392507D01*
X135001543Y-74992507D02*
X135001543Y-74392507D01*
X135001543Y-74906793D02*
X135044400Y-74949650D01*
X135044400Y-74949650D02*
X135130115Y-74992507D01*
X135130115Y-74992507D02*
X135258686Y-74992507D01*
X135258686Y-74992507D02*
X135344400Y-74949650D01*
X135344400Y-74949650D02*
X135387258Y-74863936D01*
X135387258Y-74863936D02*
X135387258Y-74392507D01*
X135815829Y-74992507D02*
X135815829Y-74392507D01*
X135815829Y-74906793D02*
X135858686Y-74949650D01*
X135858686Y-74949650D02*
X135944401Y-74992507D01*
X135944401Y-74992507D02*
X136072972Y-74992507D01*
X136072972Y-74992507D02*
X136158686Y-74949650D01*
X136158686Y-74949650D02*
X136201544Y-74863936D01*
X136201544Y-74863936D02*
X136201544Y-74392507D01*
X136972972Y-74435365D02*
X136887258Y-74392507D01*
X136887258Y-74392507D02*
X136715830Y-74392507D01*
X136715830Y-74392507D02*
X136630115Y-74435365D01*
X136630115Y-74435365D02*
X136587258Y-74521079D01*
X136587258Y-74521079D02*
X136587258Y-74863936D01*
X136587258Y-74863936D02*
X136630115Y-74949650D01*
X136630115Y-74949650D02*
X136715830Y-74992507D01*
X136715830Y-74992507D02*
X136887258Y-74992507D01*
X136887258Y-74992507D02*
X136972972Y-74949650D01*
X136972972Y-74949650D02*
X137015830Y-74863936D01*
X137015830Y-74863936D02*
X137015830Y-74778222D01*
X137015830Y-74778222D02*
X136587258Y-74692507D01*
X137787259Y-74435365D02*
X137701544Y-74392507D01*
X137701544Y-74392507D02*
X137530116Y-74392507D01*
X137530116Y-74392507D02*
X137444401Y-74435365D01*
X137444401Y-74435365D02*
X137401544Y-74478222D01*
X137401544Y-74478222D02*
X137358687Y-74563936D01*
X137358687Y-74563936D02*
X137358687Y-74821079D01*
X137358687Y-74821079D02*
X137401544Y-74906793D01*
X137401544Y-74906793D02*
X137444401Y-74949650D01*
X137444401Y-74949650D02*
X137530116Y-74992507D01*
X137530116Y-74992507D02*
X137701544Y-74992507D01*
X137701544Y-74992507D02*
X137787259Y-74949650D01*
X138044402Y-74992507D02*
X138387259Y-74992507D01*
X138172973Y-75292507D02*
X138172973Y-74521079D01*
X138172973Y-74521079D02*
X138215830Y-74435365D01*
X138215830Y-74435365D02*
X138301545Y-74392507D01*
X138301545Y-74392507D02*
X138387259Y-74392507D01*
X138687259Y-74392507D02*
X138687259Y-74992507D01*
X138687259Y-75292507D02*
X138644402Y-75249650D01*
X138644402Y-75249650D02*
X138687259Y-75206793D01*
X138687259Y-75206793D02*
X138730116Y-75249650D01*
X138730116Y-75249650D02*
X138687259Y-75292507D01*
X138687259Y-75292507D02*
X138687259Y-75206793D01*
X139244402Y-74392507D02*
X139158687Y-74435365D01*
X139158687Y-74435365D02*
X139115830Y-74478222D01*
X139115830Y-74478222D02*
X139072973Y-74563936D01*
X139072973Y-74563936D02*
X139072973Y-74821079D01*
X139072973Y-74821079D02*
X139115830Y-74906793D01*
X139115830Y-74906793D02*
X139158687Y-74949650D01*
X139158687Y-74949650D02*
X139244402Y-74992507D01*
X139244402Y-74992507D02*
X139372973Y-74992507D01*
X139372973Y-74992507D02*
X139458687Y-74949650D01*
X139458687Y-74949650D02*
X139501545Y-74906793D01*
X139501545Y-74906793D02*
X139544402Y-74821079D01*
X139544402Y-74821079D02*
X139544402Y-74563936D01*
X139544402Y-74563936D02*
X139501545Y-74478222D01*
X139501545Y-74478222D02*
X139458687Y-74435365D01*
X139458687Y-74435365D02*
X139372973Y-74392507D01*
X139372973Y-74392507D02*
X139244402Y-74392507D01*
X139930116Y-74992507D02*
X139930116Y-74392507D01*
X139930116Y-74906793D02*
X139972973Y-74949650D01*
X139972973Y-74949650D02*
X140058688Y-74992507D01*
X140058688Y-74992507D02*
X140187259Y-74992507D01*
X140187259Y-74992507D02*
X140272973Y-74949650D01*
X140272973Y-74949650D02*
X140315831Y-74863936D01*
X140315831Y-74863936D02*
X140315831Y-74392507D01*
D13*
X115501526Y-75984319D02*
X116231413Y-76292656D01*
X115501526Y-76600993D01*
X115193188Y-77330881D01*
X114884851Y-76600993D01*
X114154964Y-76292656D01*
X114884851Y-75984319D01*
X115193188Y-75254431D01*
X115501526Y-75984319D01*
G36*
X115501526Y-75984319D02*
G01*
X116231413Y-76292656D01*
X115501526Y-76600993D01*
X115193188Y-77330881D01*
X114884851Y-76600993D01*
X114154964Y-76292656D01*
X114884851Y-75984319D01*
X115193188Y-75254431D01*
X115501526Y-75984319D01*
G37*
D14*
%TO.C,J1*%
X111779852Y-85074319D02*
X111779852Y-85374319D01*
X111779852Y-86994319D02*
X111779852Y-87374319D01*
X111779852Y-88994319D02*
X111779852Y-89374319D01*
X111779852Y-90994319D02*
X111779852Y-91374319D01*
X111779852Y-92994319D02*
X111779852Y-93374319D01*
X111779852Y-94994319D02*
X111779852Y-95374319D01*
X111779852Y-96994319D02*
X111779852Y-97374319D01*
X111779852Y-98994319D02*
X111779852Y-99374319D01*
X111779852Y-100994319D02*
X111779852Y-101374319D01*
X111779852Y-102994319D02*
X111779852Y-103374319D01*
X111779852Y-104994319D02*
X111779852Y-105294319D01*
X115999852Y-85074319D02*
X111779852Y-85074319D01*
X115999852Y-85074319D02*
X115999852Y-85374319D01*
X115999852Y-86994319D02*
X115999852Y-87374319D01*
X115999852Y-88994319D02*
X115999852Y-89374319D01*
X115999852Y-90994319D02*
X115999852Y-91374319D01*
X115999852Y-92994319D02*
X115999852Y-93374319D01*
X115999852Y-94994319D02*
X115999852Y-95374319D01*
X115999852Y-96994319D02*
X115999852Y-97374319D01*
X115999852Y-98994319D02*
X115999852Y-99374319D01*
X115999852Y-100994319D02*
X115999852Y-101374319D01*
X115999852Y-102994319D02*
X115999852Y-103374319D01*
X115999852Y-104994319D02*
X115999852Y-105294319D01*
X115999852Y-105294319D02*
X111779852Y-105294319D01*
%TO.C,J2*%
X152169852Y-85074319D02*
X152169852Y-85374319D01*
X152169852Y-86994319D02*
X152169852Y-87374319D01*
X152169852Y-88994319D02*
X152169852Y-89374319D01*
X152169852Y-90994319D02*
X152169852Y-91374319D01*
X152169852Y-92994319D02*
X152169852Y-93374319D01*
X152169852Y-94994319D02*
X152169852Y-95374319D01*
X152169852Y-96994319D02*
X152169852Y-97374319D01*
X152169852Y-98994319D02*
X152169852Y-99374319D01*
X152169852Y-100994319D02*
X152169852Y-101374319D01*
X152169852Y-102994319D02*
X152169852Y-103374319D01*
X152169852Y-104994319D02*
X152169852Y-105294319D01*
X156389852Y-85074319D02*
X152169852Y-85074319D01*
X156389852Y-85074319D02*
X156389852Y-85374319D01*
X156389852Y-86994319D02*
X156389852Y-87374319D01*
X156389852Y-88994319D02*
X156389852Y-89374319D01*
X156389852Y-90994319D02*
X156389852Y-91374319D01*
X156389852Y-92994319D02*
X156389852Y-93374319D01*
X156389852Y-94994319D02*
X156389852Y-95374319D01*
X156389852Y-96994319D02*
X156389852Y-97374319D01*
X156389852Y-98994319D02*
X156389852Y-99374319D01*
X156389852Y-100994319D02*
X156389852Y-101374319D01*
X156389852Y-102994319D02*
X156389852Y-103374319D01*
X156389852Y-104994319D02*
X156389852Y-105294319D01*
X156389852Y-105294319D02*
X152169852Y-105294319D01*
%TD*%
M02*
