%TF.GenerationSoftware,KiCad,Pcbnew,9.0.6*%
%TF.CreationDate,2025-11-09T22:11:44+01:00*%
%TF.ProjectId,gaia-battery,67616961-2d62-4617-9474-6572792e6b69,1.0*%
%TF.SameCoordinates,Original*%
%TF.FileFunction,Legend,Top*%
%TF.FilePolarity,Positive*%
%FSLAX46Y46*%
G04 Gerber Fmt 4.6, Leading zero omitted, Abs format (unit mm)*
G04 Created by KiCad (PCBNEW 9.0.6) date 2025-11-09 22:11:44*
%MOMM*%
%LPD*%
G01*
G04 APERTURE LIST*
%ADD10C,0.017999*%
%ADD11C,0.140000*%
%ADD12C,0.112500*%
%ADD13C,0.100000*%
%ADD14C,0.200000*%
%ADD15C,0.120000*%
G04 APERTURE END LIST*
D10*
X115501527Y-75984319D02*
X116231414Y-76292656D01*
X115501527Y-76600993D01*
X115193190Y-77330881D01*
X114884852Y-76600993D01*
X114154965Y-76292656D01*
X114884852Y-75984319D01*
X115193190Y-75254431D01*
X115501527Y-75984319D01*
G36*
X115501527Y-75984319D02*
G01*
X116231414Y-76292656D01*
X115501527Y-76600993D01*
X115193190Y-77330881D01*
X114884852Y-76600993D01*
X114154965Y-76292656D01*
X114884852Y-75984319D01*
X115193190Y-75254431D01*
X115501527Y-75984319D01*
G37*
D11*
X136619738Y-77017061D02*
X136353038Y-77017061D01*
X136353038Y-75807032D01*
X136619738Y-75807032D01*
X136619738Y-77017061D01*
G36*
X136619738Y-77017061D02*
G01*
X136353038Y-77017061D01*
X136353038Y-75807032D01*
X136619738Y-75807032D01*
X136619738Y-77017061D01*
G37*
X128453284Y-76965202D02*
X128189053Y-76965202D01*
X128189053Y-75807032D01*
X128453284Y-75807032D01*
X128453284Y-76965202D01*
G36*
X128453284Y-76965202D02*
G01*
X128189053Y-76965202D01*
X128189053Y-75807032D01*
X128453284Y-75807032D01*
X128453284Y-76965202D01*
G37*
X133945330Y-77530705D02*
X133686038Y-77530705D01*
X132772344Y-76209551D01*
X132764935Y-77530705D01*
X132515522Y-77530705D01*
X132515522Y-75807032D01*
X132789630Y-75807032D01*
X133945330Y-77530705D01*
G36*
X133945330Y-77530705D02*
G01*
X133686038Y-77530705D01*
X132772344Y-76209551D01*
X132764935Y-77530705D01*
X132515522Y-77530705D01*
X132515522Y-75807032D01*
X132789630Y-75807032D01*
X133945330Y-77530705D01*
G37*
X138427371Y-77530705D02*
X138168080Y-77530705D01*
X137254385Y-76209551D01*
X137246977Y-77530705D01*
X136997563Y-77530705D01*
X136997563Y-75807032D01*
X137271671Y-75807032D01*
X138427371Y-77530705D01*
G36*
X138427371Y-77530705D02*
G01*
X138168080Y-77530705D01*
X137254385Y-76209551D01*
X137246977Y-77530705D01*
X136997563Y-77530705D01*
X136997563Y-75807032D01*
X137271671Y-75807032D01*
X138427371Y-77530705D01*
G37*
X128986684Y-77530705D02*
X127660591Y-77530705D01*
X127660591Y-77271414D01*
X128986684Y-77271414D01*
X128986684Y-77530705D01*
G36*
X128986684Y-77530705D02*
G01*
X127660591Y-77530705D01*
X127660591Y-77271414D01*
X128986684Y-77271414D01*
X128986684Y-77530705D01*
G37*
X136619738Y-77530707D02*
X136350568Y-77530707D01*
X136350568Y-77330681D01*
X136619738Y-77330681D01*
X136619738Y-77530707D01*
G36*
X136619738Y-77530707D02*
G01*
X136350568Y-77530707D01*
X136350568Y-77330681D01*
X136619738Y-77330681D01*
X136619738Y-77530707D01*
G37*
X133965087Y-77007183D02*
X133708265Y-76636768D01*
X133708265Y-75807032D01*
X133965087Y-75807032D01*
X133965087Y-77007183D01*
G36*
X133965087Y-77007183D02*
G01*
X133708265Y-76636768D01*
X133708265Y-75807032D01*
X133965087Y-75807032D01*
X133965087Y-77007183D01*
G37*
X139677655Y-75783309D02*
X139724320Y-75786207D01*
X139769955Y-75791001D01*
X139814529Y-75797665D01*
X139858013Y-75806170D01*
X139900375Y-75816489D01*
X139941587Y-75828592D01*
X139981617Y-75842453D01*
X140020435Y-75858043D01*
X140058011Y-75875333D01*
X140094315Y-75894297D01*
X140129316Y-75914906D01*
X140162984Y-75937132D01*
X140195289Y-75960947D01*
X140226200Y-75986322D01*
X140255687Y-76013231D01*
X140283720Y-76041644D01*
X140310269Y-76071534D01*
X140335303Y-76102873D01*
X140358791Y-76135632D01*
X140380705Y-76169784D01*
X140401012Y-76205301D01*
X140419684Y-76242155D01*
X140436690Y-76280317D01*
X140451999Y-76319759D01*
X140465581Y-76360454D01*
X140477406Y-76402374D01*
X140487444Y-76445490D01*
X140495663Y-76489774D01*
X140502035Y-76535199D01*
X140506529Y-76581736D01*
X140509114Y-76629357D01*
X140239944Y-76629359D01*
X140237935Y-76595707D01*
X140234695Y-76562826D01*
X140230236Y-76530736D01*
X140224573Y-76499458D01*
X140217718Y-76469009D01*
X140209683Y-76439410D01*
X140200483Y-76410681D01*
X140190131Y-76382839D01*
X140178639Y-76355906D01*
X140166021Y-76329900D01*
X140152289Y-76304841D01*
X140137457Y-76280748D01*
X140121539Y-76257641D01*
X140104546Y-76235539D01*
X140086493Y-76214461D01*
X140067392Y-76194428D01*
X140047256Y-76175458D01*
X140026099Y-76157571D01*
X140003933Y-76140787D01*
X139980773Y-76125124D01*
X139956630Y-76110603D01*
X139931518Y-76097242D01*
X139905451Y-76085062D01*
X139878440Y-76074081D01*
X139850500Y-76064319D01*
X139821644Y-76055796D01*
X139791884Y-76048530D01*
X139761233Y-76042542D01*
X139729706Y-76037851D01*
X139697314Y-76034476D01*
X139664071Y-76032437D01*
X139629991Y-76031753D01*
X139594529Y-76032473D01*
X139559925Y-76034621D01*
X139526194Y-76038179D01*
X139493356Y-76043126D01*
X139461428Y-76049444D01*
X139430427Y-76057114D01*
X139400371Y-76066117D01*
X139371278Y-76076434D01*
X139343165Y-76088046D01*
X139316050Y-76100935D01*
X139289951Y-76115080D01*
X139264885Y-76130463D01*
X139240869Y-76147065D01*
X139217922Y-76164868D01*
X139196062Y-76183851D01*
X139175305Y-76203997D01*
X139155669Y-76225285D01*
X139137172Y-76247698D01*
X139119832Y-76271216D01*
X139103666Y-76295819D01*
X139088693Y-76321491D01*
X139074928Y-76348210D01*
X139062391Y-76375958D01*
X139051099Y-76404716D01*
X139041069Y-76434466D01*
X139032320Y-76465188D01*
X139024868Y-76496863D01*
X139018731Y-76529472D01*
X139013927Y-76562996D01*
X139010474Y-76597417D01*
X139008390Y-76632715D01*
X139007691Y-76668871D01*
X139008346Y-76703891D01*
X139010303Y-76738099D01*
X139013543Y-76771477D01*
X139018051Y-76804010D01*
X139023811Y-76835680D01*
X139030806Y-76866470D01*
X139039020Y-76896364D01*
X139048437Y-76925345D01*
X139059040Y-76953397D01*
X139070814Y-76980502D01*
X139083741Y-77006644D01*
X139097806Y-77031806D01*
X139112993Y-77055972D01*
X139129285Y-77079124D01*
X139146665Y-77101246D01*
X139165118Y-77122322D01*
X139184627Y-77142334D01*
X139205177Y-77161265D01*
X139226750Y-77179100D01*
X139249330Y-77195821D01*
X139272902Y-77211412D01*
X139297448Y-77225856D01*
X139322953Y-77239135D01*
X139349400Y-77251234D01*
X139376774Y-77262136D01*
X139405057Y-77271824D01*
X139434234Y-77280280D01*
X139464288Y-77287490D01*
X139495202Y-77293435D01*
X139526962Y-77298099D01*
X139559550Y-77301465D01*
X139592950Y-77303517D01*
X139592950Y-77555400D01*
X139545973Y-77553060D01*
X139499984Y-77548835D01*
X139455017Y-77542750D01*
X139411103Y-77534829D01*
X139368276Y-77525098D01*
X139326569Y-77513581D01*
X139286016Y-77500304D01*
X139246648Y-77485291D01*
X139208500Y-77468566D01*
X139171603Y-77450156D01*
X139135992Y-77430084D01*
X139101698Y-77408376D01*
X139068756Y-77385056D01*
X139037198Y-77360150D01*
X139007057Y-77333682D01*
X138978366Y-77305677D01*
X138951158Y-77276160D01*
X138925466Y-77245155D01*
X138901324Y-77212689D01*
X138878763Y-77178785D01*
X138857818Y-77143468D01*
X138838521Y-77106764D01*
X138820905Y-77068697D01*
X138805003Y-77029292D01*
X138790848Y-76988574D01*
X138778474Y-76946567D01*
X138767912Y-76903297D01*
X138759197Y-76858789D01*
X138752361Y-76813067D01*
X138747438Y-76766157D01*
X138744460Y-76718082D01*
X138743459Y-76668869D01*
X138744468Y-76617223D01*
X138747474Y-76566941D01*
X138752451Y-76518041D01*
X138759371Y-76470541D01*
X138768206Y-76424459D01*
X138778929Y-76379813D01*
X138791513Y-76336621D01*
X138805929Y-76294901D01*
X138822150Y-76254672D01*
X138840148Y-76215951D01*
X138859897Y-76178757D01*
X138881368Y-76143107D01*
X138904533Y-76109020D01*
X138929366Y-76076514D01*
X138955838Y-76045607D01*
X138983922Y-76016317D01*
X139013591Y-75988661D01*
X139044816Y-75962659D01*
X139077571Y-75938328D01*
X139111827Y-75915687D01*
X139147557Y-75894753D01*
X139184734Y-75875544D01*
X139223330Y-75858079D01*
X139263317Y-75842375D01*
X139304668Y-75828452D01*
X139347355Y-75816326D01*
X139391350Y-75806016D01*
X139436627Y-75797540D01*
X139483156Y-75790916D01*
X139530912Y-75786162D01*
X139579866Y-75783296D01*
X139629991Y-75782337D01*
X139677655Y-75783309D01*
G36*
X139677655Y-75783309D02*
G01*
X139724320Y-75786207D01*
X139769955Y-75791001D01*
X139814529Y-75797665D01*
X139858013Y-75806170D01*
X139900375Y-75816489D01*
X139941587Y-75828592D01*
X139981617Y-75842453D01*
X140020435Y-75858043D01*
X140058011Y-75875333D01*
X140094315Y-75894297D01*
X140129316Y-75914906D01*
X140162984Y-75937132D01*
X140195289Y-75960947D01*
X140226200Y-75986322D01*
X140255687Y-76013231D01*
X140283720Y-76041644D01*
X140310269Y-76071534D01*
X140335303Y-76102873D01*
X140358791Y-76135632D01*
X140380705Y-76169784D01*
X140401012Y-76205301D01*
X140419684Y-76242155D01*
X140436690Y-76280317D01*
X140451999Y-76319759D01*
X140465581Y-76360454D01*
X140477406Y-76402374D01*
X140487444Y-76445490D01*
X140495663Y-76489774D01*
X140502035Y-76535199D01*
X140506529Y-76581736D01*
X140509114Y-76629357D01*
X140239944Y-76629359D01*
X140237935Y-76595707D01*
X140234695Y-76562826D01*
X140230236Y-76530736D01*
X140224573Y-76499458D01*
X140217718Y-76469009D01*
X140209683Y-76439410D01*
X140200483Y-76410681D01*
X140190131Y-76382839D01*
X140178639Y-76355906D01*
X140166021Y-76329900D01*
X140152289Y-76304841D01*
X140137457Y-76280748D01*
X140121539Y-76257641D01*
X140104546Y-76235539D01*
X140086493Y-76214461D01*
X140067392Y-76194428D01*
X140047256Y-76175458D01*
X140026099Y-76157571D01*
X140003933Y-76140787D01*
X139980773Y-76125124D01*
X139956630Y-76110603D01*
X139931518Y-76097242D01*
X139905451Y-76085062D01*
X139878440Y-76074081D01*
X139850500Y-76064319D01*
X139821644Y-76055796D01*
X139791884Y-76048530D01*
X139761233Y-76042542D01*
X139729706Y-76037851D01*
X139697314Y-76034476D01*
X139664071Y-76032437D01*
X139629991Y-76031753D01*
X139594529Y-76032473D01*
X139559925Y-76034621D01*
X139526194Y-76038179D01*
X139493356Y-76043126D01*
X139461428Y-76049444D01*
X139430427Y-76057114D01*
X139400371Y-76066117D01*
X139371278Y-76076434D01*
X139343165Y-76088046D01*
X139316050Y-76100935D01*
X139289951Y-76115080D01*
X139264885Y-76130463D01*
X139240869Y-76147065D01*
X139217922Y-76164868D01*
X139196062Y-76183851D01*
X139175305Y-76203997D01*
X139155669Y-76225285D01*
X139137172Y-76247698D01*
X139119832Y-76271216D01*
X139103666Y-76295819D01*
X139088693Y-76321491D01*
X139074928Y-76348210D01*
X139062391Y-76375958D01*
X139051099Y-76404716D01*
X139041069Y-76434466D01*
X139032320Y-76465188D01*
X139024868Y-76496863D01*
X139018731Y-76529472D01*
X139013927Y-76562996D01*
X139010474Y-76597417D01*
X139008390Y-76632715D01*
X139007691Y-76668871D01*
X139008346Y-76703891D01*
X139010303Y-76738099D01*
X139013543Y-76771477D01*
X139018051Y-76804010D01*
X139023811Y-76835680D01*
X139030806Y-76866470D01*
X139039020Y-76896364D01*
X139048437Y-76925345D01*
X139059040Y-76953397D01*
X139070814Y-76980502D01*
X139083741Y-77006644D01*
X139097806Y-77031806D01*
X139112993Y-77055972D01*
X139129285Y-77079124D01*
X139146665Y-77101246D01*
X139165118Y-77122322D01*
X139184627Y-77142334D01*
X139205177Y-77161265D01*
X139226750Y-77179100D01*
X139249330Y-77195821D01*
X139272902Y-77211412D01*
X139297448Y-77225856D01*
X139322953Y-77239135D01*
X139349400Y-77251234D01*
X139376774Y-77262136D01*
X139405057Y-77271824D01*
X139434234Y-77280280D01*
X139464288Y-77287490D01*
X139495202Y-77293435D01*
X139526962Y-77298099D01*
X139559550Y-77301465D01*
X139592950Y-77303517D01*
X139592950Y-77555400D01*
X139545973Y-77553060D01*
X139499984Y-77548835D01*
X139455017Y-77542750D01*
X139411103Y-77534829D01*
X139368276Y-77525098D01*
X139326569Y-77513581D01*
X139286016Y-77500304D01*
X139246648Y-77485291D01*
X139208500Y-77468566D01*
X139171603Y-77450156D01*
X139135992Y-77430084D01*
X139101698Y-77408376D01*
X139068756Y-77385056D01*
X139037198Y-77360150D01*
X139007057Y-77333682D01*
X138978366Y-77305677D01*
X138951158Y-77276160D01*
X138925466Y-77245155D01*
X138901324Y-77212689D01*
X138878763Y-77178785D01*
X138857818Y-77143468D01*
X138838521Y-77106764D01*
X138820905Y-77068697D01*
X138805003Y-77029292D01*
X138790848Y-76988574D01*
X138778474Y-76946567D01*
X138767912Y-76903297D01*
X138759197Y-76858789D01*
X138752361Y-76813067D01*
X138747438Y-76766157D01*
X138744460Y-76718082D01*
X138743459Y-76668869D01*
X138744468Y-76617223D01*
X138747474Y-76566941D01*
X138752451Y-76518041D01*
X138759371Y-76470541D01*
X138768206Y-76424459D01*
X138778929Y-76379813D01*
X138791513Y-76336621D01*
X138805929Y-76294901D01*
X138822150Y-76254672D01*
X138840148Y-76215951D01*
X138859897Y-76178757D01*
X138881368Y-76143107D01*
X138904533Y-76109020D01*
X138929366Y-76076514D01*
X138955838Y-76045607D01*
X138983922Y-76016317D01*
X139013591Y-75988661D01*
X139044816Y-75962659D01*
X139077571Y-75938328D01*
X139111827Y-75915687D01*
X139147557Y-75894753D01*
X139184734Y-75875544D01*
X139223330Y-75858079D01*
X139263317Y-75842375D01*
X139304668Y-75828452D01*
X139347355Y-75816326D01*
X139391350Y-75806016D01*
X139436627Y-75797540D01*
X139483156Y-75790916D01*
X139530912Y-75786162D01*
X139579866Y-75783296D01*
X139629991Y-75782337D01*
X139677655Y-75783309D01*
G37*
X131142126Y-77036890D02*
X131145125Y-77056100D01*
X131149011Y-77074692D01*
X131153756Y-77092667D01*
X131159333Y-77110027D01*
X131165715Y-77126774D01*
X131172875Y-77142910D01*
X131180785Y-77158436D01*
X131189419Y-77173354D01*
X131198749Y-77187666D01*
X131208748Y-77201375D01*
X131219389Y-77214481D01*
X131230646Y-77226986D01*
X131242490Y-77238893D01*
X131254894Y-77250203D01*
X131267833Y-77260918D01*
X131281278Y-77271039D01*
X131295202Y-77280570D01*
X131324379Y-77297863D01*
X131355149Y-77312812D01*
X131387293Y-77325432D01*
X131420594Y-77335737D01*
X131454836Y-77343741D01*
X131489801Y-77349458D01*
X131525273Y-77352905D01*
X131527744Y-77555400D01*
X131461983Y-77551823D01*
X131398233Y-77544726D01*
X131336769Y-77534005D01*
X131306981Y-77527253D01*
X131277867Y-77519555D01*
X131249462Y-77510898D01*
X131221800Y-77501270D01*
X131194917Y-77490657D01*
X131168845Y-77479045D01*
X131143619Y-77466423D01*
X131119275Y-77452777D01*
X131095846Y-77438093D01*
X131073366Y-77422359D01*
X131051870Y-77405562D01*
X131031393Y-77387688D01*
X131011968Y-77368724D01*
X130993630Y-77348657D01*
X130976413Y-77327475D01*
X130960353Y-77305163D01*
X130945482Y-77281709D01*
X130931836Y-77257100D01*
X130919448Y-77231322D01*
X130908354Y-77204363D01*
X130898588Y-77176209D01*
X130890183Y-77146848D01*
X130883175Y-77116265D01*
X130877597Y-77084449D01*
X130873484Y-77051385D01*
X130870871Y-77017061D01*
X131140039Y-77017059D01*
X131142126Y-77036890D01*
G36*
X131142126Y-77036890D02*
G01*
X131145125Y-77056100D01*
X131149011Y-77074692D01*
X131153756Y-77092667D01*
X131159333Y-77110027D01*
X131165715Y-77126774D01*
X131172875Y-77142910D01*
X131180785Y-77158436D01*
X131189419Y-77173354D01*
X131198749Y-77187666D01*
X131208748Y-77201375D01*
X131219389Y-77214481D01*
X131230646Y-77226986D01*
X131242490Y-77238893D01*
X131254894Y-77250203D01*
X131267833Y-77260918D01*
X131281278Y-77271039D01*
X131295202Y-77280570D01*
X131324379Y-77297863D01*
X131355149Y-77312812D01*
X131387293Y-77325432D01*
X131420594Y-77335737D01*
X131454836Y-77343741D01*
X131489801Y-77349458D01*
X131525273Y-77352905D01*
X131527744Y-77555400D01*
X131461983Y-77551823D01*
X131398233Y-77544726D01*
X131336769Y-77534005D01*
X131306981Y-77527253D01*
X131277867Y-77519555D01*
X131249462Y-77510898D01*
X131221800Y-77501270D01*
X131194917Y-77490657D01*
X131168845Y-77479045D01*
X131143619Y-77466423D01*
X131119275Y-77452777D01*
X131095846Y-77438093D01*
X131073366Y-77422359D01*
X131051870Y-77405562D01*
X131031393Y-77387688D01*
X131011968Y-77368724D01*
X130993630Y-77348657D01*
X130976413Y-77327475D01*
X130960353Y-77305163D01*
X130945482Y-77281709D01*
X130931836Y-77257100D01*
X130919448Y-77231322D01*
X130908354Y-77204363D01*
X130898588Y-77176209D01*
X130890183Y-77146848D01*
X130883175Y-77116265D01*
X130877597Y-77084449D01*
X130873484Y-77051385D01*
X130870871Y-77017061D01*
X131140039Y-77017059D01*
X131142126Y-77036890D01*
G37*
X131598128Y-75784045D02*
X131666462Y-75789270D01*
X131732430Y-75798178D01*
X131764428Y-75804064D01*
X131795717Y-75810931D01*
X131826257Y-75818800D01*
X131856009Y-75827692D01*
X131884934Y-75837626D01*
X131912992Y-75848624D01*
X131940143Y-75860704D01*
X131966350Y-75873889D01*
X131991571Y-75888198D01*
X132015768Y-75903651D01*
X132038902Y-75920269D01*
X132060933Y-75938072D01*
X132081821Y-75957080D01*
X132101528Y-75977315D01*
X132120015Y-75998795D01*
X132137241Y-76021542D01*
X132153167Y-76045576D01*
X132167755Y-76070917D01*
X132180964Y-76097586D01*
X132192756Y-76125602D01*
X132203091Y-76154987D01*
X132211930Y-76185761D01*
X132219233Y-76217943D01*
X132224962Y-76251555D01*
X132229076Y-76286616D01*
X132231536Y-76323147D01*
X131957429Y-76323150D01*
X131955292Y-76301329D01*
X131952144Y-76280311D01*
X131948013Y-76260088D01*
X131942930Y-76240655D01*
X131936925Y-76222003D01*
X131930027Y-76204124D01*
X131922266Y-76187013D01*
X131913673Y-76170662D01*
X131904276Y-76155062D01*
X131894107Y-76140208D01*
X131883194Y-76126092D01*
X131871567Y-76112707D01*
X131859257Y-76100045D01*
X131846293Y-76088099D01*
X131832704Y-76076862D01*
X131818522Y-76066327D01*
X131803776Y-76056487D01*
X131788494Y-76047334D01*
X131772709Y-76038860D01*
X131756448Y-76031060D01*
X131722623Y-76017449D01*
X131687256Y-76006443D01*
X131650587Y-75997983D01*
X131612854Y-75992012D01*
X131574297Y-75988471D01*
X131535153Y-75987304D01*
X131507899Y-75987969D01*
X131478366Y-75990078D01*
X131447111Y-75993799D01*
X131414691Y-75999304D01*
X131381663Y-76006763D01*
X131348585Y-76016345D01*
X131332201Y-76021985D01*
X131316013Y-76028220D01*
X131300091Y-76035071D01*
X131284504Y-76042558D01*
X131269323Y-76050705D01*
X131254617Y-76059530D01*
X131240454Y-76069057D01*
X131226906Y-76079306D01*
X131214042Y-76090298D01*
X131201931Y-76102055D01*
X131190643Y-76114597D01*
X131180247Y-76127947D01*
X131170814Y-76142125D01*
X131162413Y-76157153D01*
X131155113Y-76173052D01*
X131148984Y-76189842D01*
X131144096Y-76207546D01*
X131140518Y-76226185D01*
X131138320Y-76245780D01*
X131137572Y-76266351D01*
X131137809Y-76278456D01*
X131138513Y-76290234D01*
X131139674Y-76301692D01*
X131141281Y-76312837D01*
X131143324Y-76323674D01*
X131145793Y-76334209D01*
X131148676Y-76344450D01*
X131151964Y-76354402D01*
X131155647Y-76364073D01*
X131159713Y-76373467D01*
X131164153Y-76382592D01*
X131168956Y-76391454D01*
X131174112Y-76400058D01*
X131179610Y-76408413D01*
X131185440Y-76416523D01*
X131191591Y-76424395D01*
X131204817Y-76439452D01*
X131219204Y-76453633D01*
X131234668Y-76466990D01*
X131251128Y-76479572D01*
X131268499Y-76491431D01*
X131286698Y-76502617D01*
X131305643Y-76513181D01*
X131325250Y-76523173D01*
X131345854Y-76531401D01*
X131366921Y-76539455D01*
X131410445Y-76555275D01*
X131503050Y-76587378D01*
X131550548Y-76600034D01*
X131599667Y-76612690D01*
X131624472Y-76619308D01*
X131649249Y-76626272D01*
X131673852Y-76633700D01*
X131698136Y-76641706D01*
X131746334Y-76655431D01*
X131793518Y-76669897D01*
X131839430Y-76685326D01*
X131883808Y-76701937D01*
X131926391Y-76719952D01*
X131966920Y-76739592D01*
X131986332Y-76750089D01*
X132005134Y-76761076D01*
X132023291Y-76772579D01*
X132040772Y-76784625D01*
X132057544Y-76797244D01*
X132073574Y-76810461D01*
X132088830Y-76824305D01*
X132103280Y-76838804D01*
X132116890Y-76853984D01*
X132129628Y-76869874D01*
X132141463Y-76886501D01*
X132152360Y-76903892D01*
X132162288Y-76922076D01*
X132171213Y-76941079D01*
X132179105Y-76960930D01*
X132185929Y-76981656D01*
X132191653Y-77003284D01*
X132196245Y-77025842D01*
X132199673Y-77049358D01*
X132201903Y-77073859D01*
X131947550Y-77066451D01*
X131944280Y-77051697D01*
X131940054Y-77037522D01*
X131934916Y-77023909D01*
X131928908Y-77010846D01*
X131922074Y-76998316D01*
X131914456Y-76986304D01*
X131906098Y-76974796D01*
X131897042Y-76963777D01*
X131887331Y-76953232D01*
X131877008Y-76943146D01*
X131854699Y-76924290D01*
X131830459Y-76907092D01*
X131804630Y-76891430D01*
X131777557Y-76877187D01*
X131749584Y-76864242D01*
X131721053Y-76852477D01*
X131692309Y-76841771D01*
X131635555Y-76823062D01*
X131582071Y-76807160D01*
X131485146Y-76780613D01*
X131434831Y-76766182D01*
X131409616Y-76758474D01*
X131384516Y-76750362D01*
X131333576Y-76735159D01*
X131283746Y-76719031D01*
X131235327Y-76701745D01*
X131188619Y-76683070D01*
X131143923Y-76662774D01*
X131101537Y-76640626D01*
X131081305Y-76628786D01*
X131061764Y-76616395D01*
X131042951Y-76603426D01*
X131024903Y-76589849D01*
X131007658Y-76575635D01*
X130991253Y-76560756D01*
X130975727Y-76545182D01*
X130961117Y-76528884D01*
X130947459Y-76511835D01*
X130934793Y-76494004D01*
X130923154Y-76475362D01*
X130912582Y-76455881D01*
X130903112Y-76435533D01*
X130894784Y-76414287D01*
X130887633Y-76392115D01*
X130881699Y-76368988D01*
X130877018Y-76344877D01*
X130873628Y-76319753D01*
X130871567Y-76293588D01*
X130870871Y-76266351D01*
X130871865Y-76234980D01*
X130874803Y-76204756D01*
X130879615Y-76175670D01*
X130886233Y-76147712D01*
X130894589Y-76120871D01*
X130904616Y-76095138D01*
X130916244Y-76070503D01*
X130929405Y-76046956D01*
X130944031Y-76024487D01*
X130960054Y-76003086D01*
X130977406Y-75982743D01*
X130996017Y-75963448D01*
X131015821Y-75945192D01*
X131036748Y-75927963D01*
X131058731Y-75911753D01*
X131081700Y-75896551D01*
X131130328Y-75869133D01*
X131182084Y-75845629D01*
X131236424Y-75825959D01*
X131292800Y-75810043D01*
X131350666Y-75797804D01*
X131409476Y-75789159D01*
X131468684Y-75784031D01*
X131527744Y-75782339D01*
X131598128Y-75784045D01*
G36*
X131598128Y-75784045D02*
G01*
X131666462Y-75789270D01*
X131732430Y-75798178D01*
X131764428Y-75804064D01*
X131795717Y-75810931D01*
X131826257Y-75818800D01*
X131856009Y-75827692D01*
X131884934Y-75837626D01*
X131912992Y-75848624D01*
X131940143Y-75860704D01*
X131966350Y-75873889D01*
X131991571Y-75888198D01*
X132015768Y-75903651D01*
X132038902Y-75920269D01*
X132060933Y-75938072D01*
X132081821Y-75957080D01*
X132101528Y-75977315D01*
X132120015Y-75998795D01*
X132137241Y-76021542D01*
X132153167Y-76045576D01*
X132167755Y-76070917D01*
X132180964Y-76097586D01*
X132192756Y-76125602D01*
X132203091Y-76154987D01*
X132211930Y-76185761D01*
X132219233Y-76217943D01*
X132224962Y-76251555D01*
X132229076Y-76286616D01*
X132231536Y-76323147D01*
X131957429Y-76323150D01*
X131955292Y-76301329D01*
X131952144Y-76280311D01*
X131948013Y-76260088D01*
X131942930Y-76240655D01*
X131936925Y-76222003D01*
X131930027Y-76204124D01*
X131922266Y-76187013D01*
X131913673Y-76170662D01*
X131904276Y-76155062D01*
X131894107Y-76140208D01*
X131883194Y-76126092D01*
X131871567Y-76112707D01*
X131859257Y-76100045D01*
X131846293Y-76088099D01*
X131832704Y-76076862D01*
X131818522Y-76066327D01*
X131803776Y-76056487D01*
X131788494Y-76047334D01*
X131772709Y-76038860D01*
X131756448Y-76031060D01*
X131722623Y-76017449D01*
X131687256Y-76006443D01*
X131650587Y-75997983D01*
X131612854Y-75992012D01*
X131574297Y-75988471D01*
X131535153Y-75987304D01*
X131507899Y-75987969D01*
X131478366Y-75990078D01*
X131447111Y-75993799D01*
X131414691Y-75999304D01*
X131381663Y-76006763D01*
X131348585Y-76016345D01*
X131332201Y-76021985D01*
X131316013Y-76028220D01*
X131300091Y-76035071D01*
X131284504Y-76042558D01*
X131269323Y-76050705D01*
X131254617Y-76059530D01*
X131240454Y-76069057D01*
X131226906Y-76079306D01*
X131214042Y-76090298D01*
X131201931Y-76102055D01*
X131190643Y-76114597D01*
X131180247Y-76127947D01*
X131170814Y-76142125D01*
X131162413Y-76157153D01*
X131155113Y-76173052D01*
X131148984Y-76189842D01*
X131144096Y-76207546D01*
X131140518Y-76226185D01*
X131138320Y-76245780D01*
X131137572Y-76266351D01*
X131137809Y-76278456D01*
X131138513Y-76290234D01*
X131139674Y-76301692D01*
X131141281Y-76312837D01*
X131143324Y-76323674D01*
X131145793Y-76334209D01*
X131148676Y-76344450D01*
X131151964Y-76354402D01*
X131155647Y-76364073D01*
X131159713Y-76373467D01*
X131164153Y-76382592D01*
X131168956Y-76391454D01*
X131174112Y-76400058D01*
X131179610Y-76408413D01*
X131185440Y-76416523D01*
X131191591Y-76424395D01*
X131204817Y-76439452D01*
X131219204Y-76453633D01*
X131234668Y-76466990D01*
X131251128Y-76479572D01*
X131268499Y-76491431D01*
X131286698Y-76502617D01*
X131305643Y-76513181D01*
X131325250Y-76523173D01*
X131345854Y-76531401D01*
X131366921Y-76539455D01*
X131410445Y-76555275D01*
X131503050Y-76587378D01*
X131550548Y-76600034D01*
X131599667Y-76612690D01*
X131624472Y-76619308D01*
X131649249Y-76626272D01*
X131673852Y-76633700D01*
X131698136Y-76641706D01*
X131746334Y-76655431D01*
X131793518Y-76669897D01*
X131839430Y-76685326D01*
X131883808Y-76701937D01*
X131926391Y-76719952D01*
X131966920Y-76739592D01*
X131986332Y-76750089D01*
X132005134Y-76761076D01*
X132023291Y-76772579D01*
X132040772Y-76784625D01*
X132057544Y-76797244D01*
X132073574Y-76810461D01*
X132088830Y-76824305D01*
X132103280Y-76838804D01*
X132116890Y-76853984D01*
X132129628Y-76869874D01*
X132141463Y-76886501D01*
X132152360Y-76903892D01*
X132162288Y-76922076D01*
X132171213Y-76941079D01*
X132179105Y-76960930D01*
X132185929Y-76981656D01*
X132191653Y-77003284D01*
X132196245Y-77025842D01*
X132199673Y-77049358D01*
X132201903Y-77073859D01*
X131947550Y-77066451D01*
X131944280Y-77051697D01*
X131940054Y-77037522D01*
X131934916Y-77023909D01*
X131928908Y-77010846D01*
X131922074Y-76998316D01*
X131914456Y-76986304D01*
X131906098Y-76974796D01*
X131897042Y-76963777D01*
X131887331Y-76953232D01*
X131877008Y-76943146D01*
X131854699Y-76924290D01*
X131830459Y-76907092D01*
X131804630Y-76891430D01*
X131777557Y-76877187D01*
X131749584Y-76864242D01*
X131721053Y-76852477D01*
X131692309Y-76841771D01*
X131635555Y-76823062D01*
X131582071Y-76807160D01*
X131485146Y-76780613D01*
X131434831Y-76766182D01*
X131409616Y-76758474D01*
X131384516Y-76750362D01*
X131333576Y-76735159D01*
X131283746Y-76719031D01*
X131235327Y-76701745D01*
X131188619Y-76683070D01*
X131143923Y-76662774D01*
X131101537Y-76640626D01*
X131081305Y-76628786D01*
X131061764Y-76616395D01*
X131042951Y-76603426D01*
X131024903Y-76589849D01*
X131007658Y-76575635D01*
X130991253Y-76560756D01*
X130975727Y-76545182D01*
X130961117Y-76528884D01*
X130947459Y-76511835D01*
X130934793Y-76494004D01*
X130923154Y-76475362D01*
X130912582Y-76455881D01*
X130903112Y-76435533D01*
X130894784Y-76414287D01*
X130887633Y-76392115D01*
X130881699Y-76368988D01*
X130877018Y-76344877D01*
X130873628Y-76319753D01*
X130871567Y-76293588D01*
X130870871Y-76266351D01*
X130871865Y-76234980D01*
X130874803Y-76204756D01*
X130879615Y-76175670D01*
X130886233Y-76147712D01*
X130894589Y-76120871D01*
X130904616Y-76095138D01*
X130916244Y-76070503D01*
X130929405Y-76046956D01*
X130944031Y-76024487D01*
X130960054Y-76003086D01*
X130977406Y-75982743D01*
X130996017Y-75963448D01*
X131015821Y-75945192D01*
X131036748Y-75927963D01*
X131058731Y-75911753D01*
X131081700Y-75896551D01*
X131130328Y-75869133D01*
X131182084Y-75845629D01*
X131236424Y-75825959D01*
X131292800Y-75810043D01*
X131350666Y-75797804D01*
X131409476Y-75789159D01*
X131468684Y-75784031D01*
X131527744Y-75782339D01*
X131598128Y-75784045D01*
G37*
X138447128Y-77007183D02*
X138190305Y-76636768D01*
X138190305Y-75807032D01*
X138447128Y-75807032D01*
X138447128Y-77007183D01*
G36*
X138447128Y-77007183D02*
G01*
X138190305Y-76636768D01*
X138190305Y-75807032D01*
X138447128Y-75807032D01*
X138447128Y-77007183D01*
G37*
X129917666Y-77315864D02*
X129932483Y-77315864D01*
X130433779Y-75807032D01*
X130722704Y-75807032D01*
X130115221Y-77530705D01*
X129734926Y-77530705D01*
X129073115Y-75807032D01*
X129381796Y-75807032D01*
X129917666Y-77315864D01*
G36*
X129917666Y-77315864D02*
G01*
X129932483Y-77315864D01*
X130433779Y-75807032D01*
X130722704Y-75807032D01*
X130115221Y-77530705D01*
X129734926Y-77530705D01*
X129073115Y-75807032D01*
X129381796Y-75807032D01*
X129917666Y-77315864D01*
G37*
X135195615Y-75783309D02*
X135242280Y-75786207D01*
X135287914Y-75791001D01*
X135332488Y-75797665D01*
X135375972Y-75806170D01*
X135418335Y-75816489D01*
X135459546Y-75828592D01*
X135499576Y-75842453D01*
X135538394Y-75858043D01*
X135575970Y-75875333D01*
X135612274Y-75894297D01*
X135647275Y-75914906D01*
X135680943Y-75937132D01*
X135713248Y-75960947D01*
X135744159Y-75986322D01*
X135773646Y-76013231D01*
X135801679Y-76041644D01*
X135828228Y-76071534D01*
X135853261Y-76102873D01*
X135876750Y-76135632D01*
X135898664Y-76169784D01*
X135918971Y-76205301D01*
X135937643Y-76242155D01*
X135954649Y-76280317D01*
X135969958Y-76319759D01*
X135983540Y-76360454D01*
X135995365Y-76402374D01*
X136005402Y-76445490D01*
X136013622Y-76489774D01*
X136019994Y-76535199D01*
X136024488Y-76581736D01*
X136027073Y-76629357D01*
X135757904Y-76629359D01*
X135755895Y-76595707D01*
X135752655Y-76562826D01*
X135748197Y-76530736D01*
X135742533Y-76499458D01*
X135735678Y-76469009D01*
X135727644Y-76439410D01*
X135718444Y-76410681D01*
X135708091Y-76382839D01*
X135696599Y-76355906D01*
X135683981Y-76329900D01*
X135670250Y-76304841D01*
X135655418Y-76280748D01*
X135639499Y-76257641D01*
X135622507Y-76235539D01*
X135604453Y-76214461D01*
X135585352Y-76194428D01*
X135565217Y-76175458D01*
X135544060Y-76157571D01*
X135521894Y-76140787D01*
X135498734Y-76125124D01*
X135474591Y-76110603D01*
X135449479Y-76097242D01*
X135423412Y-76085062D01*
X135396401Y-76074081D01*
X135368461Y-76064319D01*
X135339605Y-76055796D01*
X135309845Y-76048530D01*
X135279194Y-76042542D01*
X135247667Y-76037851D01*
X135215275Y-76034476D01*
X135182032Y-76032437D01*
X135147952Y-76031753D01*
X135112490Y-76032473D01*
X135077885Y-76034621D01*
X135044155Y-76038179D01*
X135011317Y-76043126D01*
X134979389Y-76049444D01*
X134948388Y-76057114D01*
X134918332Y-76066117D01*
X134889238Y-76076434D01*
X134861125Y-76088046D01*
X134834010Y-76100935D01*
X134807911Y-76115080D01*
X134782845Y-76130463D01*
X134758829Y-76147065D01*
X134735882Y-76164868D01*
X134714022Y-76183851D01*
X134693265Y-76203997D01*
X134673629Y-76225285D01*
X134655132Y-76247698D01*
X134637792Y-76271216D01*
X134621626Y-76295819D01*
X134606653Y-76321491D01*
X134592888Y-76348210D01*
X134580351Y-76375958D01*
X134569059Y-76404716D01*
X134559029Y-76434466D01*
X134550279Y-76465188D01*
X134542827Y-76496863D01*
X134536691Y-76529472D01*
X134531887Y-76562996D01*
X134528434Y-76597417D01*
X134526350Y-76632715D01*
X134525651Y-76668871D01*
X134526306Y-76703891D01*
X134528262Y-76738099D01*
X134531503Y-76771477D01*
X134536011Y-76804010D01*
X134541771Y-76835680D01*
X134548766Y-76866470D01*
X134556980Y-76896364D01*
X134566397Y-76925345D01*
X134577000Y-76953397D01*
X134588774Y-76980502D01*
X134601701Y-77006644D01*
X134615766Y-77031806D01*
X134630953Y-77055972D01*
X134647244Y-77079124D01*
X134664625Y-77101246D01*
X134683078Y-77122322D01*
X134702587Y-77142334D01*
X134723137Y-77161265D01*
X134744709Y-77179100D01*
X134767290Y-77195821D01*
X134790861Y-77211412D01*
X134815408Y-77225856D01*
X134840913Y-77239135D01*
X134867360Y-77251234D01*
X134894734Y-77262136D01*
X134923017Y-77271824D01*
X134952194Y-77280280D01*
X134982247Y-77287490D01*
X135013162Y-77293435D01*
X135044922Y-77298099D01*
X135077510Y-77301465D01*
X135110909Y-77303517D01*
X135110909Y-77555400D01*
X135063933Y-77553060D01*
X135017944Y-77548835D01*
X134972976Y-77542750D01*
X134929063Y-77534829D01*
X134886236Y-77525098D01*
X134844529Y-77513581D01*
X134803976Y-77500304D01*
X134764608Y-77485291D01*
X134726460Y-77468566D01*
X134689563Y-77450156D01*
X134653952Y-77430084D01*
X134619658Y-77408376D01*
X134586716Y-77385056D01*
X134555158Y-77360150D01*
X134525017Y-77333682D01*
X134496326Y-77305677D01*
X134469118Y-77276160D01*
X134443426Y-77245155D01*
X134419283Y-77212689D01*
X134396723Y-77178785D01*
X134375778Y-77143468D01*
X134356480Y-77106764D01*
X134338864Y-77068697D01*
X134322963Y-77029292D01*
X134308808Y-76988574D01*
X134296434Y-76946567D01*
X134285872Y-76903297D01*
X134277157Y-76858789D01*
X134270321Y-76813067D01*
X134265398Y-76766157D01*
X134262419Y-76718082D01*
X134261419Y-76668869D01*
X134262428Y-76617223D01*
X134265434Y-76566941D01*
X134270411Y-76518041D01*
X134277331Y-76470541D01*
X134286166Y-76424459D01*
X134296889Y-76379813D01*
X134309473Y-76336621D01*
X134323889Y-76294901D01*
X134340110Y-76254672D01*
X134358108Y-76215951D01*
X134377856Y-76178757D01*
X134399327Y-76143107D01*
X134422493Y-76109020D01*
X134447325Y-76076514D01*
X134473797Y-76045607D01*
X134501882Y-76016317D01*
X134531550Y-75988661D01*
X134562775Y-75962659D01*
X134595530Y-75938328D01*
X134629786Y-75915687D01*
X134665517Y-75894753D01*
X134702693Y-75875544D01*
X134741289Y-75858079D01*
X134781276Y-75842375D01*
X134822627Y-75828452D01*
X134865314Y-75816326D01*
X134909310Y-75806016D01*
X134954586Y-75797540D01*
X135001116Y-75790916D01*
X135048872Y-75786162D01*
X135097826Y-75783296D01*
X135147951Y-75782337D01*
X135195615Y-75783309D01*
G36*
X135195615Y-75783309D02*
G01*
X135242280Y-75786207D01*
X135287914Y-75791001D01*
X135332488Y-75797665D01*
X135375972Y-75806170D01*
X135418335Y-75816489D01*
X135459546Y-75828592D01*
X135499576Y-75842453D01*
X135538394Y-75858043D01*
X135575970Y-75875333D01*
X135612274Y-75894297D01*
X135647275Y-75914906D01*
X135680943Y-75937132D01*
X135713248Y-75960947D01*
X135744159Y-75986322D01*
X135773646Y-76013231D01*
X135801679Y-76041644D01*
X135828228Y-76071534D01*
X135853261Y-76102873D01*
X135876750Y-76135632D01*
X135898664Y-76169784D01*
X135918971Y-76205301D01*
X135937643Y-76242155D01*
X135954649Y-76280317D01*
X135969958Y-76319759D01*
X135983540Y-76360454D01*
X135995365Y-76402374D01*
X136005402Y-76445490D01*
X136013622Y-76489774D01*
X136019994Y-76535199D01*
X136024488Y-76581736D01*
X136027073Y-76629357D01*
X135757904Y-76629359D01*
X135755895Y-76595707D01*
X135752655Y-76562826D01*
X135748197Y-76530736D01*
X135742533Y-76499458D01*
X135735678Y-76469009D01*
X135727644Y-76439410D01*
X135718444Y-76410681D01*
X135708091Y-76382839D01*
X135696599Y-76355906D01*
X135683981Y-76329900D01*
X135670250Y-76304841D01*
X135655418Y-76280748D01*
X135639499Y-76257641D01*
X135622507Y-76235539D01*
X135604453Y-76214461D01*
X135585352Y-76194428D01*
X135565217Y-76175458D01*
X135544060Y-76157571D01*
X135521894Y-76140787D01*
X135498734Y-76125124D01*
X135474591Y-76110603D01*
X135449479Y-76097242D01*
X135423412Y-76085062D01*
X135396401Y-76074081D01*
X135368461Y-76064319D01*
X135339605Y-76055796D01*
X135309845Y-76048530D01*
X135279194Y-76042542D01*
X135247667Y-76037851D01*
X135215275Y-76034476D01*
X135182032Y-76032437D01*
X135147952Y-76031753D01*
X135112490Y-76032473D01*
X135077885Y-76034621D01*
X135044155Y-76038179D01*
X135011317Y-76043126D01*
X134979389Y-76049444D01*
X134948388Y-76057114D01*
X134918332Y-76066117D01*
X134889238Y-76076434D01*
X134861125Y-76088046D01*
X134834010Y-76100935D01*
X134807911Y-76115080D01*
X134782845Y-76130463D01*
X134758829Y-76147065D01*
X134735882Y-76164868D01*
X134714022Y-76183851D01*
X134693265Y-76203997D01*
X134673629Y-76225285D01*
X134655132Y-76247698D01*
X134637792Y-76271216D01*
X134621626Y-76295819D01*
X134606653Y-76321491D01*
X134592888Y-76348210D01*
X134580351Y-76375958D01*
X134569059Y-76404716D01*
X134559029Y-76434466D01*
X134550279Y-76465188D01*
X134542827Y-76496863D01*
X134536691Y-76529472D01*
X134531887Y-76562996D01*
X134528434Y-76597417D01*
X134526350Y-76632715D01*
X134525651Y-76668871D01*
X134526306Y-76703891D01*
X134528262Y-76738099D01*
X134531503Y-76771477D01*
X134536011Y-76804010D01*
X134541771Y-76835680D01*
X134548766Y-76866470D01*
X134556980Y-76896364D01*
X134566397Y-76925345D01*
X134577000Y-76953397D01*
X134588774Y-76980502D01*
X134601701Y-77006644D01*
X134615766Y-77031806D01*
X134630953Y-77055972D01*
X134647244Y-77079124D01*
X134664625Y-77101246D01*
X134683078Y-77122322D01*
X134702587Y-77142334D01*
X134723137Y-77161265D01*
X134744709Y-77179100D01*
X134767290Y-77195821D01*
X134790861Y-77211412D01*
X134815408Y-77225856D01*
X134840913Y-77239135D01*
X134867360Y-77251234D01*
X134894734Y-77262136D01*
X134923017Y-77271824D01*
X134952194Y-77280280D01*
X134982247Y-77287490D01*
X135013162Y-77293435D01*
X135044922Y-77298099D01*
X135077510Y-77301465D01*
X135110909Y-77303517D01*
X135110909Y-77555400D01*
X135063933Y-77553060D01*
X135017944Y-77548835D01*
X134972976Y-77542750D01*
X134929063Y-77534829D01*
X134886236Y-77525098D01*
X134844529Y-77513581D01*
X134803976Y-77500304D01*
X134764608Y-77485291D01*
X134726460Y-77468566D01*
X134689563Y-77450156D01*
X134653952Y-77430084D01*
X134619658Y-77408376D01*
X134586716Y-77385056D01*
X134555158Y-77360150D01*
X134525017Y-77333682D01*
X134496326Y-77305677D01*
X134469118Y-77276160D01*
X134443426Y-77245155D01*
X134419283Y-77212689D01*
X134396723Y-77178785D01*
X134375778Y-77143468D01*
X134356480Y-77106764D01*
X134338864Y-77068697D01*
X134322963Y-77029292D01*
X134308808Y-76988574D01*
X134296434Y-76946567D01*
X134285872Y-76903297D01*
X134277157Y-76858789D01*
X134270321Y-76813067D01*
X134265398Y-76766157D01*
X134262419Y-76718082D01*
X134261419Y-76668869D01*
X134262428Y-76617223D01*
X134265434Y-76566941D01*
X134270411Y-76518041D01*
X134277331Y-76470541D01*
X134286166Y-76424459D01*
X134296889Y-76379813D01*
X134309473Y-76336621D01*
X134323889Y-76294901D01*
X134340110Y-76254672D01*
X134358108Y-76215951D01*
X134377856Y-76178757D01*
X134399327Y-76143107D01*
X134422493Y-76109020D01*
X134447325Y-76076514D01*
X134473797Y-76045607D01*
X134501882Y-76016317D01*
X134531550Y-75988661D01*
X134562775Y-75962659D01*
X134595530Y-75938328D01*
X134629786Y-75915687D01*
X134665517Y-75894753D01*
X134702693Y-75875544D01*
X134741289Y-75858079D01*
X134781276Y-75842375D01*
X134822627Y-75828452D01*
X134865314Y-75816326D01*
X134909310Y-75806016D01*
X134954586Y-75797540D01*
X135001116Y-75790916D01*
X135048872Y-75786162D01*
X135097826Y-75783296D01*
X135147951Y-75782337D01*
X135195615Y-75783309D01*
G37*
D12*
X140025305Y-74863936D02*
X139896733Y-74821079D01*
X139896733Y-74821079D02*
X139853876Y-74778222D01*
X139853876Y-74778222D02*
X139811019Y-74692507D01*
X139811019Y-74692507D02*
X139811019Y-74563936D01*
X139811019Y-74563936D02*
X139853876Y-74478222D01*
X139853876Y-74478222D02*
X139896733Y-74435365D01*
X139896733Y-74435365D02*
X139982448Y-74392507D01*
X139982448Y-74392507D02*
X140325305Y-74392507D01*
X140325305Y-74392507D02*
X140325305Y-75292507D01*
X140325305Y-75292507D02*
X140025305Y-75292507D01*
X140025305Y-75292507D02*
X139939591Y-75249650D01*
X139939591Y-75249650D02*
X139896733Y-75206793D01*
X139896733Y-75206793D02*
X139853876Y-75121079D01*
X139853876Y-75121079D02*
X139853876Y-75035365D01*
X139853876Y-75035365D02*
X139896733Y-74949650D01*
X139896733Y-74949650D02*
X139939591Y-74906793D01*
X139939591Y-74906793D02*
X140025305Y-74863936D01*
X140025305Y-74863936D02*
X140325305Y-74863936D01*
X139039591Y-74392507D02*
X139039591Y-74863936D01*
X139039591Y-74863936D02*
X139082448Y-74949650D01*
X139082448Y-74949650D02*
X139168162Y-74992507D01*
X139168162Y-74992507D02*
X139339591Y-74992507D01*
X139339591Y-74992507D02*
X139425305Y-74949650D01*
X139039591Y-74435365D02*
X139125305Y-74392507D01*
X139125305Y-74392507D02*
X139339591Y-74392507D01*
X139339591Y-74392507D02*
X139425305Y-74435365D01*
X139425305Y-74435365D02*
X139468162Y-74521079D01*
X139468162Y-74521079D02*
X139468162Y-74606793D01*
X139468162Y-74606793D02*
X139425305Y-74692507D01*
X139425305Y-74692507D02*
X139339591Y-74735365D01*
X139339591Y-74735365D02*
X139125305Y-74735365D01*
X139125305Y-74735365D02*
X139039591Y-74778222D01*
X138739590Y-74992507D02*
X138396733Y-74992507D01*
X138611019Y-75292507D02*
X138611019Y-74521079D01*
X138611019Y-74521079D02*
X138568162Y-74435365D01*
X138568162Y-74435365D02*
X138482447Y-74392507D01*
X138482447Y-74392507D02*
X138396733Y-74392507D01*
X138225304Y-74992507D02*
X137882447Y-74992507D01*
X138096733Y-75292507D02*
X138096733Y-74521079D01*
X138096733Y-74521079D02*
X138053876Y-74435365D01*
X138053876Y-74435365D02*
X137968161Y-74392507D01*
X137968161Y-74392507D02*
X137882447Y-74392507D01*
X137239590Y-74435365D02*
X137325304Y-74392507D01*
X137325304Y-74392507D02*
X137496733Y-74392507D01*
X137496733Y-74392507D02*
X137582447Y-74435365D01*
X137582447Y-74435365D02*
X137625304Y-74521079D01*
X137625304Y-74521079D02*
X137625304Y-74863936D01*
X137625304Y-74863936D02*
X137582447Y-74949650D01*
X137582447Y-74949650D02*
X137496733Y-74992507D01*
X137496733Y-74992507D02*
X137325304Y-74992507D01*
X137325304Y-74992507D02*
X137239590Y-74949650D01*
X137239590Y-74949650D02*
X137196733Y-74863936D01*
X137196733Y-74863936D02*
X137196733Y-74778222D01*
X137196733Y-74778222D02*
X137625304Y-74692507D01*
X136811018Y-74392507D02*
X136811018Y-74992507D01*
X136811018Y-74821079D02*
X136768161Y-74906793D01*
X136768161Y-74906793D02*
X136725304Y-74949650D01*
X136725304Y-74949650D02*
X136639589Y-74992507D01*
X136639589Y-74992507D02*
X136553875Y-74992507D01*
X136339589Y-74992507D02*
X136125303Y-74392507D01*
X135911018Y-74992507D02*
X136125303Y-74392507D01*
X136125303Y-74392507D02*
X136211018Y-74178222D01*
X136211018Y-74178222D02*
X136253875Y-74135365D01*
X136253875Y-74135365D02*
X136339589Y-74092507D01*
X134368161Y-74478222D02*
X134411018Y-74435365D01*
X134411018Y-74435365D02*
X134539590Y-74392507D01*
X134539590Y-74392507D02*
X134625304Y-74392507D01*
X134625304Y-74392507D02*
X134753875Y-74435365D01*
X134753875Y-74435365D02*
X134839590Y-74521079D01*
X134839590Y-74521079D02*
X134882447Y-74606793D01*
X134882447Y-74606793D02*
X134925304Y-74778222D01*
X134925304Y-74778222D02*
X134925304Y-74906793D01*
X134925304Y-74906793D02*
X134882447Y-75078222D01*
X134882447Y-75078222D02*
X134839590Y-75163936D01*
X134839590Y-75163936D02*
X134753875Y-75249650D01*
X134753875Y-75249650D02*
X134625304Y-75292507D01*
X134625304Y-75292507D02*
X134539590Y-75292507D01*
X134539590Y-75292507D02*
X134411018Y-75249650D01*
X134411018Y-75249650D02*
X134368161Y-75206793D01*
X133853875Y-74392507D02*
X133939590Y-74435365D01*
X133939590Y-74435365D02*
X133982447Y-74478222D01*
X133982447Y-74478222D02*
X134025304Y-74563936D01*
X134025304Y-74563936D02*
X134025304Y-74821079D01*
X134025304Y-74821079D02*
X133982447Y-74906793D01*
X133982447Y-74906793D02*
X133939590Y-74949650D01*
X133939590Y-74949650D02*
X133853875Y-74992507D01*
X133853875Y-74992507D02*
X133725304Y-74992507D01*
X133725304Y-74992507D02*
X133639590Y-74949650D01*
X133639590Y-74949650D02*
X133596733Y-74906793D01*
X133596733Y-74906793D02*
X133553875Y-74821079D01*
X133553875Y-74821079D02*
X133553875Y-74563936D01*
X133553875Y-74563936D02*
X133596733Y-74478222D01*
X133596733Y-74478222D02*
X133639590Y-74435365D01*
X133639590Y-74435365D02*
X133725304Y-74392507D01*
X133725304Y-74392507D02*
X133853875Y-74392507D01*
X133168161Y-74992507D02*
X133168161Y-74392507D01*
X133168161Y-74906793D02*
X133125304Y-74949650D01*
X133125304Y-74949650D02*
X133039589Y-74992507D01*
X133039589Y-74992507D02*
X132911018Y-74992507D01*
X132911018Y-74992507D02*
X132825304Y-74949650D01*
X132825304Y-74949650D02*
X132782447Y-74863936D01*
X132782447Y-74863936D02*
X132782447Y-74392507D01*
X132353875Y-74992507D02*
X132353875Y-74392507D01*
X132353875Y-74906793D02*
X132311018Y-74949650D01*
X132311018Y-74949650D02*
X132225303Y-74992507D01*
X132225303Y-74992507D02*
X132096732Y-74992507D01*
X132096732Y-74992507D02*
X132011018Y-74949650D01*
X132011018Y-74949650D02*
X131968161Y-74863936D01*
X131968161Y-74863936D02*
X131968161Y-74392507D01*
X131196732Y-74435365D02*
X131282446Y-74392507D01*
X131282446Y-74392507D02*
X131453875Y-74392507D01*
X131453875Y-74392507D02*
X131539589Y-74435365D01*
X131539589Y-74435365D02*
X131582446Y-74521079D01*
X131582446Y-74521079D02*
X131582446Y-74863936D01*
X131582446Y-74863936D02*
X131539589Y-74949650D01*
X131539589Y-74949650D02*
X131453875Y-74992507D01*
X131453875Y-74992507D02*
X131282446Y-74992507D01*
X131282446Y-74992507D02*
X131196732Y-74949650D01*
X131196732Y-74949650D02*
X131153875Y-74863936D01*
X131153875Y-74863936D02*
X131153875Y-74778222D01*
X131153875Y-74778222D02*
X131582446Y-74692507D01*
X130382446Y-74435365D02*
X130468160Y-74392507D01*
X130468160Y-74392507D02*
X130639588Y-74392507D01*
X130639588Y-74392507D02*
X130725303Y-74435365D01*
X130725303Y-74435365D02*
X130768160Y-74478222D01*
X130768160Y-74478222D02*
X130811017Y-74563936D01*
X130811017Y-74563936D02*
X130811017Y-74821079D01*
X130811017Y-74821079D02*
X130768160Y-74906793D01*
X130768160Y-74906793D02*
X130725303Y-74949650D01*
X130725303Y-74949650D02*
X130639588Y-74992507D01*
X130639588Y-74992507D02*
X130468160Y-74992507D01*
X130468160Y-74992507D02*
X130382446Y-74949650D01*
X130125302Y-74992507D02*
X129782445Y-74992507D01*
X129996731Y-75292507D02*
X129996731Y-74521079D01*
X129996731Y-74521079D02*
X129953874Y-74435365D01*
X129953874Y-74435365D02*
X129868159Y-74392507D01*
X129868159Y-74392507D02*
X129782445Y-74392507D01*
X129482445Y-74392507D02*
X129482445Y-74992507D01*
X129482445Y-75292507D02*
X129525302Y-75249650D01*
X129525302Y-75249650D02*
X129482445Y-75206793D01*
X129482445Y-75206793D02*
X129439588Y-75249650D01*
X129439588Y-75249650D02*
X129482445Y-75292507D01*
X129482445Y-75292507D02*
X129482445Y-75206793D01*
X128925302Y-74392507D02*
X129011017Y-74435365D01*
X129011017Y-74435365D02*
X129053874Y-74478222D01*
X129053874Y-74478222D02*
X129096731Y-74563936D01*
X129096731Y-74563936D02*
X129096731Y-74821079D01*
X129096731Y-74821079D02*
X129053874Y-74906793D01*
X129053874Y-74906793D02*
X129011017Y-74949650D01*
X129011017Y-74949650D02*
X128925302Y-74992507D01*
X128925302Y-74992507D02*
X128796731Y-74992507D01*
X128796731Y-74992507D02*
X128711017Y-74949650D01*
X128711017Y-74949650D02*
X128668160Y-74906793D01*
X128668160Y-74906793D02*
X128625302Y-74821079D01*
X128625302Y-74821079D02*
X128625302Y-74563936D01*
X128625302Y-74563936D02*
X128668160Y-74478222D01*
X128668160Y-74478222D02*
X128711017Y-74435365D01*
X128711017Y-74435365D02*
X128796731Y-74392507D01*
X128796731Y-74392507D02*
X128925302Y-74392507D01*
X128239588Y-74992507D02*
X128239588Y-74392507D01*
X128239588Y-74906793D02*
X128196731Y-74949650D01*
X128196731Y-74949650D02*
X128111016Y-74992507D01*
X128111016Y-74992507D02*
X127982445Y-74992507D01*
X127982445Y-74992507D02*
X127896731Y-74949650D01*
X127896731Y-74949650D02*
X127853874Y-74863936D01*
X127853874Y-74863936D02*
X127853874Y-74392507D01*
D13*
X136839614Y-72488816D02*
X136839614Y-72922149D01*
X136839614Y-72798340D02*
X136808661Y-72860245D01*
X136808661Y-72860245D02*
X136777709Y-72891197D01*
X136777709Y-72891197D02*
X136715804Y-72922149D01*
X136715804Y-72922149D02*
X136653899Y-72922149D01*
X136189614Y-72519769D02*
X136251518Y-72488816D01*
X136251518Y-72488816D02*
X136375328Y-72488816D01*
X136375328Y-72488816D02*
X136437233Y-72519769D01*
X136437233Y-72519769D02*
X136468185Y-72581673D01*
X136468185Y-72581673D02*
X136468185Y-72829292D01*
X136468185Y-72829292D02*
X136437233Y-72891197D01*
X136437233Y-72891197D02*
X136375328Y-72922149D01*
X136375328Y-72922149D02*
X136251518Y-72922149D01*
X136251518Y-72922149D02*
X136189614Y-72891197D01*
X136189614Y-72891197D02*
X136158661Y-72829292D01*
X136158661Y-72829292D02*
X136158661Y-72767388D01*
X136158661Y-72767388D02*
X136468185Y-72705483D01*
X135941994Y-72922149D02*
X135787232Y-72488816D01*
X135787232Y-72488816D02*
X135632471Y-72922149D01*
X135384852Y-72488816D02*
X135384852Y-72922149D01*
X135384852Y-73138816D02*
X135415804Y-73107864D01*
X135415804Y-73107864D02*
X135384852Y-73076911D01*
X135384852Y-73076911D02*
X135353899Y-73107864D01*
X135353899Y-73107864D02*
X135384852Y-73138816D01*
X135384852Y-73138816D02*
X135384852Y-73076911D01*
X135106280Y-72519769D02*
X135044375Y-72488816D01*
X135044375Y-72488816D02*
X134920566Y-72488816D01*
X134920566Y-72488816D02*
X134858661Y-72519769D01*
X134858661Y-72519769D02*
X134827709Y-72581673D01*
X134827709Y-72581673D02*
X134827709Y-72612626D01*
X134827709Y-72612626D02*
X134858661Y-72674530D01*
X134858661Y-72674530D02*
X134920566Y-72705483D01*
X134920566Y-72705483D02*
X135013423Y-72705483D01*
X135013423Y-72705483D02*
X135075328Y-72736435D01*
X135075328Y-72736435D02*
X135106280Y-72798340D01*
X135106280Y-72798340D02*
X135106280Y-72829292D01*
X135106280Y-72829292D02*
X135075328Y-72891197D01*
X135075328Y-72891197D02*
X135013423Y-72922149D01*
X135013423Y-72922149D02*
X134920566Y-72922149D01*
X134920566Y-72922149D02*
X134858661Y-72891197D01*
X134549138Y-72488816D02*
X134549138Y-72922149D01*
X134549138Y-73138816D02*
X134580090Y-73107864D01*
X134580090Y-73107864D02*
X134549138Y-73076911D01*
X134549138Y-73076911D02*
X134518185Y-73107864D01*
X134518185Y-73107864D02*
X134549138Y-73138816D01*
X134549138Y-73138816D02*
X134549138Y-73076911D01*
X134146756Y-72488816D02*
X134208661Y-72519769D01*
X134208661Y-72519769D02*
X134239614Y-72550721D01*
X134239614Y-72550721D02*
X134270566Y-72612626D01*
X134270566Y-72612626D02*
X134270566Y-72798340D01*
X134270566Y-72798340D02*
X134239614Y-72860245D01*
X134239614Y-72860245D02*
X134208661Y-72891197D01*
X134208661Y-72891197D02*
X134146756Y-72922149D01*
X134146756Y-72922149D02*
X134053899Y-72922149D01*
X134053899Y-72922149D02*
X133991995Y-72891197D01*
X133991995Y-72891197D02*
X133961042Y-72860245D01*
X133961042Y-72860245D02*
X133930090Y-72798340D01*
X133930090Y-72798340D02*
X133930090Y-72612626D01*
X133930090Y-72612626D02*
X133961042Y-72550721D01*
X133961042Y-72550721D02*
X133991995Y-72519769D01*
X133991995Y-72519769D02*
X134053899Y-72488816D01*
X134053899Y-72488816D02*
X134146756Y-72488816D01*
X133651519Y-72922149D02*
X133651519Y-72488816D01*
X133651519Y-72860245D02*
X133620566Y-72891197D01*
X133620566Y-72891197D02*
X133558661Y-72922149D01*
X133558661Y-72922149D02*
X133465804Y-72922149D01*
X133465804Y-72922149D02*
X133403900Y-72891197D01*
X133403900Y-72891197D02*
X133372947Y-72829292D01*
X133372947Y-72829292D02*
X133372947Y-72488816D01*
X132227709Y-72488816D02*
X132599138Y-72488816D01*
X132413424Y-72488816D02*
X132413424Y-73138816D01*
X132413424Y-73138816D02*
X132475328Y-73045959D01*
X132475328Y-73045959D02*
X132537233Y-72984054D01*
X132537233Y-72984054D02*
X132599138Y-72953102D01*
X131949138Y-72550721D02*
X131918185Y-72519769D01*
X131918185Y-72519769D02*
X131949138Y-72488816D01*
X131949138Y-72488816D02*
X131980090Y-72519769D01*
X131980090Y-72519769D02*
X131949138Y-72550721D01*
X131949138Y-72550721D02*
X131949138Y-72488816D01*
X131515804Y-73138816D02*
X131453899Y-73138816D01*
X131453899Y-73138816D02*
X131391995Y-73107864D01*
X131391995Y-73107864D02*
X131361042Y-73076911D01*
X131361042Y-73076911D02*
X131330090Y-73015007D01*
X131330090Y-73015007D02*
X131299137Y-72891197D01*
X131299137Y-72891197D02*
X131299137Y-72736435D01*
X131299137Y-72736435D02*
X131330090Y-72612626D01*
X131330090Y-72612626D02*
X131361042Y-72550721D01*
X131361042Y-72550721D02*
X131391995Y-72519769D01*
X131391995Y-72519769D02*
X131453899Y-72488816D01*
X131453899Y-72488816D02*
X131515804Y-72488816D01*
X131515804Y-72488816D02*
X131577709Y-72519769D01*
X131577709Y-72519769D02*
X131608661Y-72550721D01*
X131608661Y-72550721D02*
X131639614Y-72612626D01*
X131639614Y-72612626D02*
X131670566Y-72736435D01*
X131670566Y-72736435D02*
X131670566Y-72891197D01*
X131670566Y-72891197D02*
X131639614Y-73015007D01*
X131639614Y-73015007D02*
X131608661Y-73076911D01*
X131608661Y-73076911D02*
X131577709Y-73107864D01*
X131577709Y-73107864D02*
X131515804Y-73138816D01*
D14*
X148931661Y-114720085D02*
X147484042Y-114720085D01*
X148931661Y-117220085D02*
X147484042Y-117220085D01*
X148207851Y-117943895D02*
X148207851Y-116496276D01*
D15*
%TO.C,J1*%
X111779852Y-85074319D02*
X111779852Y-85374319D01*
X111779852Y-85074319D02*
X115999852Y-85074319D01*
X111779852Y-86994319D02*
X111779852Y-87374319D01*
X111779852Y-88994319D02*
X111779852Y-89374319D01*
X111779852Y-90994319D02*
X111779852Y-91374319D01*
X111779852Y-92994319D02*
X111779852Y-93374319D01*
X111779852Y-94994319D02*
X111779852Y-95374319D01*
X111779852Y-96994319D02*
X111779852Y-97374319D01*
X111779852Y-98994319D02*
X111779852Y-99374319D01*
X111779852Y-100994319D02*
X111779852Y-101374319D01*
X111779852Y-102994319D02*
X111779852Y-103374319D01*
X111779852Y-104994319D02*
X111779852Y-105294319D01*
X111779852Y-105294319D02*
X115999852Y-105294319D01*
X115999852Y-85074319D02*
X115999852Y-85374319D01*
X115999852Y-86994319D02*
X115999852Y-87374319D01*
X115999852Y-88994319D02*
X115999852Y-89374319D01*
X115999852Y-90994319D02*
X115999852Y-91374319D01*
X115999852Y-92994319D02*
X115999852Y-93374319D01*
X115999852Y-94994319D02*
X115999852Y-95374319D01*
X115999852Y-96994319D02*
X115999852Y-97374319D01*
X115999852Y-98994319D02*
X115999852Y-99374319D01*
X115999852Y-100994319D02*
X115999852Y-101374319D01*
X115999852Y-102994319D02*
X115999852Y-103374319D01*
X115999852Y-104994319D02*
X115999852Y-105294319D01*
D14*
%TO.C,J3*%
X135283852Y-112075319D02*
X135283852Y-119575319D01*
X146783852Y-112075319D02*
X135283852Y-112075319D01*
X146783852Y-119575319D02*
X135283852Y-119575319D01*
D15*
%TO.C,J2*%
X152169852Y-85074319D02*
X152169852Y-85374319D01*
X152169852Y-85074319D02*
X156389852Y-85074319D01*
X152169852Y-86994319D02*
X152169852Y-87374319D01*
X152169852Y-88994319D02*
X152169852Y-89374319D01*
X152169852Y-90994319D02*
X152169852Y-91374319D01*
X152169852Y-92994319D02*
X152169852Y-93374319D01*
X152169852Y-94994319D02*
X152169852Y-95374319D01*
X152169852Y-96994319D02*
X152169852Y-97374319D01*
X152169852Y-98994319D02*
X152169852Y-99374319D01*
X152169852Y-100994319D02*
X152169852Y-101374319D01*
X152169852Y-102994319D02*
X152169852Y-103374319D01*
X152169852Y-104994319D02*
X152169852Y-105294319D01*
X152169852Y-105294319D02*
X156389852Y-105294319D01*
X156389852Y-85074319D02*
X156389852Y-85374319D01*
X156389852Y-86994319D02*
X156389852Y-87374319D01*
X156389852Y-88994319D02*
X156389852Y-89374319D01*
X156389852Y-90994319D02*
X156389852Y-91374319D01*
X156389852Y-92994319D02*
X156389852Y-93374319D01*
X156389852Y-94994319D02*
X156389852Y-95374319D01*
X156389852Y-96994319D02*
X156389852Y-97374319D01*
X156389852Y-98994319D02*
X156389852Y-99374319D01*
X156389852Y-100994319D02*
X156389852Y-101374319D01*
X156389852Y-102994319D02*
X156389852Y-103374319D01*
X156389852Y-104994319D02*
X156389852Y-105294319D01*
%TD*%
M02*
