M48
; DRILL file {KiCad 9.0.6} date 2025-11-14T08:25:57+0100
; FORMAT={-:-/ absolute / metric / decimal}
; #@! TF.CreationDate,2025-11-14T08:25:57+01:00
; #@! TF.GenerationSoftware,Kicad,Pcbnew,9.0.6
; #@! TF.FileFunction,Plated,1,6,PTH
FMAT,2
METRIC
; #@! TA.AperFunction,Plated,PTH,ComponentDrill
T1C0.700
; #@! TA.AperFunction,Plated,PTH,ComponentDrill
T2C0.900
%
G90
G05
T1
X111.805Y-86.184
X111.805Y-88.184
X111.805Y-90.184
X111.805Y-92.184
X111.805Y-94.184
X111.805Y-96.184
X111.805Y-98.184
X111.805Y-100.184
X111.805Y-102.184
X111.805Y-104.184
X115.975Y-86.184
X115.975Y-88.184
X115.975Y-90.184
X115.975Y-92.184
X115.975Y-94.184
X115.975Y-96.184
X115.975Y-98.184
X115.975Y-100.184
X115.975Y-102.184
X115.975Y-104.184
X152.195Y-86.184
X152.195Y-88.184
X152.195Y-90.184
X152.195Y-92.184
X152.195Y-94.184
X152.195Y-96.184
X152.195Y-98.184
X152.195Y-100.184
X152.195Y-102.184
X152.195Y-104.184
X156.365Y-86.184
X156.365Y-88.184
X156.365Y-90.184
X156.365Y-92.184
X156.365Y-94.184
X156.365Y-96.184
X156.365Y-98.184
X156.365Y-100.184
X156.365Y-102.184
X156.365Y-104.184
T2
X144.484Y-114.575
X144.484Y-117.075
M30
