%TF.GenerationSoftware,KiCad,Pcbnew,9.0.6*%
%TF.CreationDate,2025-11-14T08:25:56+01:00*%
%TF.ProjectId,gaia-battery,67616961-2d62-4617-9474-6572792e6b69,1.0*%
%TF.SameCoordinates,Original*%
%TF.FileFunction,Legend,Top*%
%TF.FilePolarity,Positive*%
%FSLAX46Y46*%
G04 Gerber Fmt 4.6, Leading zero omitted, Abs format (unit mm)*
G04 Created by KiCad (PCBNEW 9.0.6) date 2025-11-14 08:25:56*
%MOMM*%
%LPD*%
G01*
G04 APERTURE LIST*
%ADD10C,0.017999*%
%ADD11C,0.200000*%
%ADD12C,0.140000*%
%ADD13C,0.112500*%
%ADD14C,0.100000*%
%ADD15C,0.000000*%
%ADD16C,0.120000*%
G04 APERTURE END LIST*
D10*
X115501527Y-75984319D02*
X116231414Y-76292656D01*
X115501527Y-76600993D01*
X115193190Y-77330881D01*
X114884852Y-76600993D01*
X114154965Y-76292656D01*
X114884852Y-75984319D01*
X115193190Y-75254431D01*
X115501527Y-75984319D01*
G36*
X115501527Y-75984319D02*
G01*
X116231414Y-76292656D01*
X115501527Y-76600993D01*
X115193190Y-77330881D01*
X114884852Y-76600993D01*
X114154965Y-76292656D01*
X114884852Y-75984319D01*
X115193190Y-75254431D01*
X115501527Y-75984319D01*
G37*
D11*
X148931661Y-114720085D02*
X147484042Y-114720085D01*
X148931661Y-117220085D02*
X147484042Y-117220085D01*
X148207851Y-117943895D02*
X148207851Y-116496276D01*
D12*
X136507228Y-77791829D02*
X136240528Y-77791829D01*
X136240528Y-76581800D01*
X136507228Y-76581800D01*
X136507228Y-77791829D01*
G36*
X136507228Y-77791829D02*
G01*
X136240528Y-77791829D01*
X136240528Y-76581800D01*
X136507228Y-76581800D01*
X136507228Y-77791829D01*
G37*
X128340774Y-77739970D02*
X128076543Y-77739970D01*
X128076543Y-76581800D01*
X128340774Y-76581800D01*
X128340774Y-77739970D01*
G36*
X128340774Y-77739970D02*
G01*
X128076543Y-77739970D01*
X128076543Y-76581800D01*
X128340774Y-76581800D01*
X128340774Y-77739970D01*
G37*
X133832820Y-78305473D02*
X133573528Y-78305473D01*
X132659834Y-76984319D01*
X132652425Y-78305473D01*
X132403012Y-78305473D01*
X132403012Y-76581800D01*
X132677120Y-76581800D01*
X133832820Y-78305473D01*
G36*
X133832820Y-78305473D02*
G01*
X133573528Y-78305473D01*
X132659834Y-76984319D01*
X132652425Y-78305473D01*
X132403012Y-78305473D01*
X132403012Y-76581800D01*
X132677120Y-76581800D01*
X133832820Y-78305473D01*
G37*
X138314861Y-78305473D02*
X138055570Y-78305473D01*
X137141875Y-76984319D01*
X137134467Y-78305473D01*
X136885053Y-78305473D01*
X136885053Y-76581800D01*
X137159161Y-76581800D01*
X138314861Y-78305473D01*
G36*
X138314861Y-78305473D02*
G01*
X138055570Y-78305473D01*
X137141875Y-76984319D01*
X137134467Y-78305473D01*
X136885053Y-78305473D01*
X136885053Y-76581800D01*
X137159161Y-76581800D01*
X138314861Y-78305473D01*
G37*
X128874174Y-78305473D02*
X127548081Y-78305473D01*
X127548081Y-78046182D01*
X128874174Y-78046182D01*
X128874174Y-78305473D01*
G36*
X128874174Y-78305473D02*
G01*
X127548081Y-78305473D01*
X127548081Y-78046182D01*
X128874174Y-78046182D01*
X128874174Y-78305473D01*
G37*
X136507228Y-78305475D02*
X136238058Y-78305475D01*
X136238058Y-78105449D01*
X136507228Y-78105449D01*
X136507228Y-78305475D01*
G36*
X136507228Y-78305475D02*
G01*
X136238058Y-78305475D01*
X136238058Y-78105449D01*
X136507228Y-78105449D01*
X136507228Y-78305475D01*
G37*
X133852577Y-77781951D02*
X133595755Y-77411536D01*
X133595755Y-76581800D01*
X133852577Y-76581800D01*
X133852577Y-77781951D01*
G36*
X133852577Y-77781951D02*
G01*
X133595755Y-77411536D01*
X133595755Y-76581800D01*
X133852577Y-76581800D01*
X133852577Y-77781951D01*
G37*
X139565145Y-76558077D02*
X139611810Y-76560975D01*
X139657445Y-76565769D01*
X139702019Y-76572433D01*
X139745503Y-76580938D01*
X139787865Y-76591257D01*
X139829077Y-76603360D01*
X139869107Y-76617221D01*
X139907925Y-76632811D01*
X139945501Y-76650101D01*
X139981805Y-76669065D01*
X140016806Y-76689674D01*
X140050474Y-76711900D01*
X140082779Y-76735715D01*
X140113690Y-76761090D01*
X140143177Y-76787999D01*
X140171210Y-76816412D01*
X140197759Y-76846302D01*
X140222793Y-76877641D01*
X140246281Y-76910400D01*
X140268195Y-76944552D01*
X140288502Y-76980069D01*
X140307174Y-77016923D01*
X140324180Y-77055085D01*
X140339489Y-77094527D01*
X140353071Y-77135222D01*
X140364896Y-77177142D01*
X140374934Y-77220258D01*
X140383153Y-77264542D01*
X140389525Y-77309967D01*
X140394019Y-77356504D01*
X140396604Y-77404125D01*
X140127434Y-77404127D01*
X140125425Y-77370475D01*
X140122185Y-77337594D01*
X140117726Y-77305504D01*
X140112063Y-77274226D01*
X140105208Y-77243777D01*
X140097173Y-77214178D01*
X140087973Y-77185449D01*
X140077621Y-77157607D01*
X140066129Y-77130674D01*
X140053511Y-77104668D01*
X140039779Y-77079609D01*
X140024947Y-77055516D01*
X140009029Y-77032409D01*
X139992036Y-77010307D01*
X139973983Y-76989229D01*
X139954882Y-76969196D01*
X139934746Y-76950226D01*
X139913589Y-76932339D01*
X139891423Y-76915555D01*
X139868263Y-76899892D01*
X139844120Y-76885371D01*
X139819008Y-76872010D01*
X139792941Y-76859830D01*
X139765930Y-76848849D01*
X139737990Y-76839087D01*
X139709134Y-76830564D01*
X139679374Y-76823298D01*
X139648723Y-76817310D01*
X139617196Y-76812619D01*
X139584804Y-76809244D01*
X139551561Y-76807205D01*
X139517481Y-76806521D01*
X139482019Y-76807241D01*
X139447415Y-76809389D01*
X139413684Y-76812947D01*
X139380846Y-76817894D01*
X139348918Y-76824212D01*
X139317917Y-76831882D01*
X139287861Y-76840885D01*
X139258768Y-76851202D01*
X139230655Y-76862814D01*
X139203540Y-76875703D01*
X139177441Y-76889848D01*
X139152375Y-76905231D01*
X139128359Y-76921833D01*
X139105412Y-76939636D01*
X139083552Y-76958619D01*
X139062795Y-76978765D01*
X139043159Y-77000053D01*
X139024662Y-77022466D01*
X139007322Y-77045984D01*
X138991156Y-77070587D01*
X138976183Y-77096259D01*
X138962418Y-77122978D01*
X138949881Y-77150726D01*
X138938589Y-77179484D01*
X138928559Y-77209234D01*
X138919810Y-77239956D01*
X138912358Y-77271631D01*
X138906221Y-77304240D01*
X138901417Y-77337764D01*
X138897964Y-77372185D01*
X138895880Y-77407483D01*
X138895181Y-77443639D01*
X138895836Y-77478659D01*
X138897793Y-77512867D01*
X138901033Y-77546245D01*
X138905541Y-77578778D01*
X138911301Y-77610448D01*
X138918296Y-77641238D01*
X138926510Y-77671132D01*
X138935927Y-77700113D01*
X138946530Y-77728165D01*
X138958304Y-77755270D01*
X138971231Y-77781412D01*
X138985296Y-77806574D01*
X139000483Y-77830740D01*
X139016775Y-77853892D01*
X139034155Y-77876014D01*
X139052608Y-77897090D01*
X139072117Y-77917102D01*
X139092667Y-77936033D01*
X139114240Y-77953868D01*
X139136820Y-77970589D01*
X139160392Y-77986180D01*
X139184938Y-78000624D01*
X139210443Y-78013903D01*
X139236890Y-78026002D01*
X139264264Y-78036904D01*
X139292547Y-78046592D01*
X139321724Y-78055048D01*
X139351778Y-78062258D01*
X139382692Y-78068203D01*
X139414452Y-78072867D01*
X139447040Y-78076233D01*
X139480440Y-78078285D01*
X139480440Y-78330168D01*
X139433463Y-78327828D01*
X139387474Y-78323603D01*
X139342507Y-78317518D01*
X139298593Y-78309597D01*
X139255766Y-78299866D01*
X139214059Y-78288349D01*
X139173506Y-78275072D01*
X139134138Y-78260059D01*
X139095990Y-78243334D01*
X139059093Y-78224924D01*
X139023482Y-78204852D01*
X138989188Y-78183144D01*
X138956246Y-78159824D01*
X138924688Y-78134918D01*
X138894547Y-78108450D01*
X138865856Y-78080445D01*
X138838648Y-78050928D01*
X138812956Y-78019923D01*
X138788814Y-77987457D01*
X138766253Y-77953553D01*
X138745308Y-77918236D01*
X138726011Y-77881532D01*
X138708395Y-77843465D01*
X138692493Y-77804060D01*
X138678338Y-77763342D01*
X138665964Y-77721335D01*
X138655402Y-77678065D01*
X138646687Y-77633557D01*
X138639851Y-77587835D01*
X138634928Y-77540925D01*
X138631950Y-77492850D01*
X138630949Y-77443637D01*
X138631958Y-77391991D01*
X138634964Y-77341709D01*
X138639941Y-77292809D01*
X138646861Y-77245309D01*
X138655696Y-77199227D01*
X138666419Y-77154581D01*
X138679003Y-77111389D01*
X138693419Y-77069669D01*
X138709640Y-77029440D01*
X138727638Y-76990719D01*
X138747387Y-76953525D01*
X138768858Y-76917875D01*
X138792023Y-76883788D01*
X138816856Y-76851282D01*
X138843328Y-76820375D01*
X138871412Y-76791085D01*
X138901081Y-76763429D01*
X138932306Y-76737427D01*
X138965061Y-76713096D01*
X138999317Y-76690455D01*
X139035047Y-76669521D01*
X139072224Y-76650312D01*
X139110820Y-76632847D01*
X139150807Y-76617143D01*
X139192158Y-76603220D01*
X139234845Y-76591094D01*
X139278840Y-76580784D01*
X139324117Y-76572308D01*
X139370646Y-76565684D01*
X139418402Y-76560930D01*
X139467356Y-76558064D01*
X139517481Y-76557105D01*
X139565145Y-76558077D01*
G36*
X139565145Y-76558077D02*
G01*
X139611810Y-76560975D01*
X139657445Y-76565769D01*
X139702019Y-76572433D01*
X139745503Y-76580938D01*
X139787865Y-76591257D01*
X139829077Y-76603360D01*
X139869107Y-76617221D01*
X139907925Y-76632811D01*
X139945501Y-76650101D01*
X139981805Y-76669065D01*
X140016806Y-76689674D01*
X140050474Y-76711900D01*
X140082779Y-76735715D01*
X140113690Y-76761090D01*
X140143177Y-76787999D01*
X140171210Y-76816412D01*
X140197759Y-76846302D01*
X140222793Y-76877641D01*
X140246281Y-76910400D01*
X140268195Y-76944552D01*
X140288502Y-76980069D01*
X140307174Y-77016923D01*
X140324180Y-77055085D01*
X140339489Y-77094527D01*
X140353071Y-77135222D01*
X140364896Y-77177142D01*
X140374934Y-77220258D01*
X140383153Y-77264542D01*
X140389525Y-77309967D01*
X140394019Y-77356504D01*
X140396604Y-77404125D01*
X140127434Y-77404127D01*
X140125425Y-77370475D01*
X140122185Y-77337594D01*
X140117726Y-77305504D01*
X140112063Y-77274226D01*
X140105208Y-77243777D01*
X140097173Y-77214178D01*
X140087973Y-77185449D01*
X140077621Y-77157607D01*
X140066129Y-77130674D01*
X140053511Y-77104668D01*
X140039779Y-77079609D01*
X140024947Y-77055516D01*
X140009029Y-77032409D01*
X139992036Y-77010307D01*
X139973983Y-76989229D01*
X139954882Y-76969196D01*
X139934746Y-76950226D01*
X139913589Y-76932339D01*
X139891423Y-76915555D01*
X139868263Y-76899892D01*
X139844120Y-76885371D01*
X139819008Y-76872010D01*
X139792941Y-76859830D01*
X139765930Y-76848849D01*
X139737990Y-76839087D01*
X139709134Y-76830564D01*
X139679374Y-76823298D01*
X139648723Y-76817310D01*
X139617196Y-76812619D01*
X139584804Y-76809244D01*
X139551561Y-76807205D01*
X139517481Y-76806521D01*
X139482019Y-76807241D01*
X139447415Y-76809389D01*
X139413684Y-76812947D01*
X139380846Y-76817894D01*
X139348918Y-76824212D01*
X139317917Y-76831882D01*
X139287861Y-76840885D01*
X139258768Y-76851202D01*
X139230655Y-76862814D01*
X139203540Y-76875703D01*
X139177441Y-76889848D01*
X139152375Y-76905231D01*
X139128359Y-76921833D01*
X139105412Y-76939636D01*
X139083552Y-76958619D01*
X139062795Y-76978765D01*
X139043159Y-77000053D01*
X139024662Y-77022466D01*
X139007322Y-77045984D01*
X138991156Y-77070587D01*
X138976183Y-77096259D01*
X138962418Y-77122978D01*
X138949881Y-77150726D01*
X138938589Y-77179484D01*
X138928559Y-77209234D01*
X138919810Y-77239956D01*
X138912358Y-77271631D01*
X138906221Y-77304240D01*
X138901417Y-77337764D01*
X138897964Y-77372185D01*
X138895880Y-77407483D01*
X138895181Y-77443639D01*
X138895836Y-77478659D01*
X138897793Y-77512867D01*
X138901033Y-77546245D01*
X138905541Y-77578778D01*
X138911301Y-77610448D01*
X138918296Y-77641238D01*
X138926510Y-77671132D01*
X138935927Y-77700113D01*
X138946530Y-77728165D01*
X138958304Y-77755270D01*
X138971231Y-77781412D01*
X138985296Y-77806574D01*
X139000483Y-77830740D01*
X139016775Y-77853892D01*
X139034155Y-77876014D01*
X139052608Y-77897090D01*
X139072117Y-77917102D01*
X139092667Y-77936033D01*
X139114240Y-77953868D01*
X139136820Y-77970589D01*
X139160392Y-77986180D01*
X139184938Y-78000624D01*
X139210443Y-78013903D01*
X139236890Y-78026002D01*
X139264264Y-78036904D01*
X139292547Y-78046592D01*
X139321724Y-78055048D01*
X139351778Y-78062258D01*
X139382692Y-78068203D01*
X139414452Y-78072867D01*
X139447040Y-78076233D01*
X139480440Y-78078285D01*
X139480440Y-78330168D01*
X139433463Y-78327828D01*
X139387474Y-78323603D01*
X139342507Y-78317518D01*
X139298593Y-78309597D01*
X139255766Y-78299866D01*
X139214059Y-78288349D01*
X139173506Y-78275072D01*
X139134138Y-78260059D01*
X139095990Y-78243334D01*
X139059093Y-78224924D01*
X139023482Y-78204852D01*
X138989188Y-78183144D01*
X138956246Y-78159824D01*
X138924688Y-78134918D01*
X138894547Y-78108450D01*
X138865856Y-78080445D01*
X138838648Y-78050928D01*
X138812956Y-78019923D01*
X138788814Y-77987457D01*
X138766253Y-77953553D01*
X138745308Y-77918236D01*
X138726011Y-77881532D01*
X138708395Y-77843465D01*
X138692493Y-77804060D01*
X138678338Y-77763342D01*
X138665964Y-77721335D01*
X138655402Y-77678065D01*
X138646687Y-77633557D01*
X138639851Y-77587835D01*
X138634928Y-77540925D01*
X138631950Y-77492850D01*
X138630949Y-77443637D01*
X138631958Y-77391991D01*
X138634964Y-77341709D01*
X138639941Y-77292809D01*
X138646861Y-77245309D01*
X138655696Y-77199227D01*
X138666419Y-77154581D01*
X138679003Y-77111389D01*
X138693419Y-77069669D01*
X138709640Y-77029440D01*
X138727638Y-76990719D01*
X138747387Y-76953525D01*
X138768858Y-76917875D01*
X138792023Y-76883788D01*
X138816856Y-76851282D01*
X138843328Y-76820375D01*
X138871412Y-76791085D01*
X138901081Y-76763429D01*
X138932306Y-76737427D01*
X138965061Y-76713096D01*
X138999317Y-76690455D01*
X139035047Y-76669521D01*
X139072224Y-76650312D01*
X139110820Y-76632847D01*
X139150807Y-76617143D01*
X139192158Y-76603220D01*
X139234845Y-76591094D01*
X139278840Y-76580784D01*
X139324117Y-76572308D01*
X139370646Y-76565684D01*
X139418402Y-76560930D01*
X139467356Y-76558064D01*
X139517481Y-76557105D01*
X139565145Y-76558077D01*
G37*
X131029616Y-77811658D02*
X131032615Y-77830868D01*
X131036501Y-77849460D01*
X131041246Y-77867435D01*
X131046823Y-77884795D01*
X131053205Y-77901542D01*
X131060365Y-77917678D01*
X131068275Y-77933204D01*
X131076909Y-77948122D01*
X131086239Y-77962434D01*
X131096238Y-77976143D01*
X131106879Y-77989249D01*
X131118136Y-78001754D01*
X131129980Y-78013661D01*
X131142384Y-78024971D01*
X131155323Y-78035686D01*
X131168768Y-78045807D01*
X131182692Y-78055338D01*
X131211869Y-78072631D01*
X131242639Y-78087580D01*
X131274783Y-78100200D01*
X131308084Y-78110505D01*
X131342326Y-78118509D01*
X131377291Y-78124226D01*
X131412763Y-78127673D01*
X131415234Y-78330168D01*
X131349473Y-78326591D01*
X131285723Y-78319494D01*
X131224259Y-78308773D01*
X131194471Y-78302021D01*
X131165357Y-78294323D01*
X131136952Y-78285666D01*
X131109290Y-78276038D01*
X131082407Y-78265425D01*
X131056335Y-78253813D01*
X131031109Y-78241191D01*
X131006765Y-78227545D01*
X130983336Y-78212861D01*
X130960856Y-78197127D01*
X130939360Y-78180330D01*
X130918883Y-78162456D01*
X130899458Y-78143492D01*
X130881120Y-78123425D01*
X130863903Y-78102243D01*
X130847843Y-78079931D01*
X130832972Y-78056477D01*
X130819326Y-78031868D01*
X130806938Y-78006090D01*
X130795844Y-77979131D01*
X130786078Y-77950977D01*
X130777673Y-77921616D01*
X130770665Y-77891033D01*
X130765087Y-77859217D01*
X130760974Y-77826153D01*
X130758361Y-77791829D01*
X131027529Y-77791827D01*
X131029616Y-77811658D01*
G36*
X131029616Y-77811658D02*
G01*
X131032615Y-77830868D01*
X131036501Y-77849460D01*
X131041246Y-77867435D01*
X131046823Y-77884795D01*
X131053205Y-77901542D01*
X131060365Y-77917678D01*
X131068275Y-77933204D01*
X131076909Y-77948122D01*
X131086239Y-77962434D01*
X131096238Y-77976143D01*
X131106879Y-77989249D01*
X131118136Y-78001754D01*
X131129980Y-78013661D01*
X131142384Y-78024971D01*
X131155323Y-78035686D01*
X131168768Y-78045807D01*
X131182692Y-78055338D01*
X131211869Y-78072631D01*
X131242639Y-78087580D01*
X131274783Y-78100200D01*
X131308084Y-78110505D01*
X131342326Y-78118509D01*
X131377291Y-78124226D01*
X131412763Y-78127673D01*
X131415234Y-78330168D01*
X131349473Y-78326591D01*
X131285723Y-78319494D01*
X131224259Y-78308773D01*
X131194471Y-78302021D01*
X131165357Y-78294323D01*
X131136952Y-78285666D01*
X131109290Y-78276038D01*
X131082407Y-78265425D01*
X131056335Y-78253813D01*
X131031109Y-78241191D01*
X131006765Y-78227545D01*
X130983336Y-78212861D01*
X130960856Y-78197127D01*
X130939360Y-78180330D01*
X130918883Y-78162456D01*
X130899458Y-78143492D01*
X130881120Y-78123425D01*
X130863903Y-78102243D01*
X130847843Y-78079931D01*
X130832972Y-78056477D01*
X130819326Y-78031868D01*
X130806938Y-78006090D01*
X130795844Y-77979131D01*
X130786078Y-77950977D01*
X130777673Y-77921616D01*
X130770665Y-77891033D01*
X130765087Y-77859217D01*
X130760974Y-77826153D01*
X130758361Y-77791829D01*
X131027529Y-77791827D01*
X131029616Y-77811658D01*
G37*
X131485618Y-76558813D02*
X131553952Y-76564038D01*
X131619920Y-76572946D01*
X131651918Y-76578832D01*
X131683207Y-76585699D01*
X131713747Y-76593568D01*
X131743499Y-76602460D01*
X131772424Y-76612394D01*
X131800482Y-76623392D01*
X131827633Y-76635472D01*
X131853840Y-76648657D01*
X131879061Y-76662966D01*
X131903258Y-76678419D01*
X131926392Y-76695037D01*
X131948423Y-76712840D01*
X131969311Y-76731848D01*
X131989018Y-76752083D01*
X132007505Y-76773563D01*
X132024731Y-76796310D01*
X132040657Y-76820344D01*
X132055245Y-76845685D01*
X132068454Y-76872354D01*
X132080246Y-76900370D01*
X132090581Y-76929755D01*
X132099420Y-76960529D01*
X132106723Y-76992711D01*
X132112452Y-77026323D01*
X132116566Y-77061384D01*
X132119026Y-77097915D01*
X131844919Y-77097918D01*
X131842782Y-77076097D01*
X131839634Y-77055079D01*
X131835503Y-77034856D01*
X131830420Y-77015423D01*
X131824415Y-76996771D01*
X131817517Y-76978892D01*
X131809756Y-76961781D01*
X131801163Y-76945430D01*
X131791766Y-76929830D01*
X131781597Y-76914976D01*
X131770684Y-76900860D01*
X131759057Y-76887475D01*
X131746747Y-76874813D01*
X131733783Y-76862867D01*
X131720194Y-76851630D01*
X131706012Y-76841095D01*
X131691266Y-76831255D01*
X131675984Y-76822102D01*
X131660199Y-76813628D01*
X131643938Y-76805828D01*
X131610113Y-76792217D01*
X131574746Y-76781211D01*
X131538077Y-76772751D01*
X131500344Y-76766780D01*
X131461787Y-76763239D01*
X131422643Y-76762072D01*
X131395389Y-76762737D01*
X131365856Y-76764846D01*
X131334601Y-76768567D01*
X131302181Y-76774072D01*
X131269153Y-76781531D01*
X131236075Y-76791113D01*
X131219691Y-76796753D01*
X131203503Y-76802988D01*
X131187581Y-76809839D01*
X131171994Y-76817326D01*
X131156813Y-76825473D01*
X131142107Y-76834298D01*
X131127944Y-76843825D01*
X131114396Y-76854074D01*
X131101532Y-76865066D01*
X131089421Y-76876823D01*
X131078133Y-76889365D01*
X131067737Y-76902715D01*
X131058304Y-76916893D01*
X131049903Y-76931921D01*
X131042603Y-76947820D01*
X131036474Y-76964610D01*
X131031586Y-76982314D01*
X131028008Y-77000953D01*
X131025810Y-77020548D01*
X131025062Y-77041119D01*
X131025299Y-77053224D01*
X131026003Y-77065002D01*
X131027164Y-77076460D01*
X131028771Y-77087605D01*
X131030814Y-77098442D01*
X131033283Y-77108977D01*
X131036166Y-77119218D01*
X131039454Y-77129170D01*
X131043137Y-77138841D01*
X131047203Y-77148235D01*
X131051643Y-77157360D01*
X131056446Y-77166222D01*
X131061602Y-77174826D01*
X131067100Y-77183181D01*
X131072930Y-77191291D01*
X131079081Y-77199163D01*
X131092307Y-77214220D01*
X131106694Y-77228401D01*
X131122158Y-77241758D01*
X131138618Y-77254340D01*
X131155989Y-77266199D01*
X131174188Y-77277385D01*
X131193133Y-77287949D01*
X131212740Y-77297941D01*
X131233344Y-77306169D01*
X131254411Y-77314223D01*
X131297935Y-77330043D01*
X131390540Y-77362146D01*
X131438038Y-77374802D01*
X131487157Y-77387458D01*
X131511962Y-77394076D01*
X131536739Y-77401040D01*
X131561342Y-77408468D01*
X131585626Y-77416474D01*
X131633824Y-77430199D01*
X131681008Y-77444665D01*
X131726920Y-77460094D01*
X131771298Y-77476705D01*
X131813881Y-77494720D01*
X131854410Y-77514360D01*
X131873822Y-77524857D01*
X131892624Y-77535844D01*
X131910781Y-77547347D01*
X131928262Y-77559393D01*
X131945034Y-77572012D01*
X131961064Y-77585229D01*
X131976320Y-77599073D01*
X131990770Y-77613572D01*
X132004380Y-77628752D01*
X132017118Y-77644642D01*
X132028953Y-77661269D01*
X132039850Y-77678660D01*
X132049778Y-77696844D01*
X132058703Y-77715847D01*
X132066595Y-77735698D01*
X132073419Y-77756424D01*
X132079143Y-77778052D01*
X132083735Y-77800610D01*
X132087163Y-77824126D01*
X132089393Y-77848627D01*
X131835040Y-77841219D01*
X131831770Y-77826465D01*
X131827544Y-77812290D01*
X131822406Y-77798677D01*
X131816398Y-77785614D01*
X131809564Y-77773084D01*
X131801946Y-77761072D01*
X131793588Y-77749564D01*
X131784532Y-77738545D01*
X131774821Y-77728000D01*
X131764498Y-77717914D01*
X131742189Y-77699058D01*
X131717949Y-77681860D01*
X131692120Y-77666198D01*
X131665047Y-77651955D01*
X131637074Y-77639010D01*
X131608543Y-77627245D01*
X131579799Y-77616539D01*
X131523045Y-77597830D01*
X131469561Y-77581928D01*
X131372636Y-77555381D01*
X131322321Y-77540950D01*
X131297106Y-77533242D01*
X131272006Y-77525130D01*
X131221066Y-77509927D01*
X131171236Y-77493799D01*
X131122817Y-77476513D01*
X131076109Y-77457838D01*
X131031413Y-77437542D01*
X130989027Y-77415394D01*
X130968795Y-77403554D01*
X130949254Y-77391163D01*
X130930441Y-77378194D01*
X130912393Y-77364617D01*
X130895148Y-77350403D01*
X130878743Y-77335524D01*
X130863217Y-77319950D01*
X130848607Y-77303652D01*
X130834949Y-77286603D01*
X130822283Y-77268772D01*
X130810644Y-77250130D01*
X130800072Y-77230649D01*
X130790602Y-77210301D01*
X130782274Y-77189055D01*
X130775123Y-77166883D01*
X130769189Y-77143756D01*
X130764508Y-77119645D01*
X130761118Y-77094521D01*
X130759057Y-77068356D01*
X130758361Y-77041119D01*
X130759355Y-77009748D01*
X130762293Y-76979524D01*
X130767105Y-76950438D01*
X130773723Y-76922480D01*
X130782079Y-76895639D01*
X130792106Y-76869906D01*
X130803734Y-76845271D01*
X130816895Y-76821724D01*
X130831521Y-76799255D01*
X130847544Y-76777854D01*
X130864896Y-76757511D01*
X130883507Y-76738216D01*
X130903311Y-76719960D01*
X130924238Y-76702731D01*
X130946221Y-76686521D01*
X130969190Y-76671319D01*
X131017818Y-76643901D01*
X131069574Y-76620397D01*
X131123914Y-76600727D01*
X131180290Y-76584811D01*
X131238156Y-76572572D01*
X131296966Y-76563927D01*
X131356174Y-76558799D01*
X131415234Y-76557107D01*
X131485618Y-76558813D01*
G36*
X131485618Y-76558813D02*
G01*
X131553952Y-76564038D01*
X131619920Y-76572946D01*
X131651918Y-76578832D01*
X131683207Y-76585699D01*
X131713747Y-76593568D01*
X131743499Y-76602460D01*
X131772424Y-76612394D01*
X131800482Y-76623392D01*
X131827633Y-76635472D01*
X131853840Y-76648657D01*
X131879061Y-76662966D01*
X131903258Y-76678419D01*
X131926392Y-76695037D01*
X131948423Y-76712840D01*
X131969311Y-76731848D01*
X131989018Y-76752083D01*
X132007505Y-76773563D01*
X132024731Y-76796310D01*
X132040657Y-76820344D01*
X132055245Y-76845685D01*
X132068454Y-76872354D01*
X132080246Y-76900370D01*
X132090581Y-76929755D01*
X132099420Y-76960529D01*
X132106723Y-76992711D01*
X132112452Y-77026323D01*
X132116566Y-77061384D01*
X132119026Y-77097915D01*
X131844919Y-77097918D01*
X131842782Y-77076097D01*
X131839634Y-77055079D01*
X131835503Y-77034856D01*
X131830420Y-77015423D01*
X131824415Y-76996771D01*
X131817517Y-76978892D01*
X131809756Y-76961781D01*
X131801163Y-76945430D01*
X131791766Y-76929830D01*
X131781597Y-76914976D01*
X131770684Y-76900860D01*
X131759057Y-76887475D01*
X131746747Y-76874813D01*
X131733783Y-76862867D01*
X131720194Y-76851630D01*
X131706012Y-76841095D01*
X131691266Y-76831255D01*
X131675984Y-76822102D01*
X131660199Y-76813628D01*
X131643938Y-76805828D01*
X131610113Y-76792217D01*
X131574746Y-76781211D01*
X131538077Y-76772751D01*
X131500344Y-76766780D01*
X131461787Y-76763239D01*
X131422643Y-76762072D01*
X131395389Y-76762737D01*
X131365856Y-76764846D01*
X131334601Y-76768567D01*
X131302181Y-76774072D01*
X131269153Y-76781531D01*
X131236075Y-76791113D01*
X131219691Y-76796753D01*
X131203503Y-76802988D01*
X131187581Y-76809839D01*
X131171994Y-76817326D01*
X131156813Y-76825473D01*
X131142107Y-76834298D01*
X131127944Y-76843825D01*
X131114396Y-76854074D01*
X131101532Y-76865066D01*
X131089421Y-76876823D01*
X131078133Y-76889365D01*
X131067737Y-76902715D01*
X131058304Y-76916893D01*
X131049903Y-76931921D01*
X131042603Y-76947820D01*
X131036474Y-76964610D01*
X131031586Y-76982314D01*
X131028008Y-77000953D01*
X131025810Y-77020548D01*
X131025062Y-77041119D01*
X131025299Y-77053224D01*
X131026003Y-77065002D01*
X131027164Y-77076460D01*
X131028771Y-77087605D01*
X131030814Y-77098442D01*
X131033283Y-77108977D01*
X131036166Y-77119218D01*
X131039454Y-77129170D01*
X131043137Y-77138841D01*
X131047203Y-77148235D01*
X131051643Y-77157360D01*
X131056446Y-77166222D01*
X131061602Y-77174826D01*
X131067100Y-77183181D01*
X131072930Y-77191291D01*
X131079081Y-77199163D01*
X131092307Y-77214220D01*
X131106694Y-77228401D01*
X131122158Y-77241758D01*
X131138618Y-77254340D01*
X131155989Y-77266199D01*
X131174188Y-77277385D01*
X131193133Y-77287949D01*
X131212740Y-77297941D01*
X131233344Y-77306169D01*
X131254411Y-77314223D01*
X131297935Y-77330043D01*
X131390540Y-77362146D01*
X131438038Y-77374802D01*
X131487157Y-77387458D01*
X131511962Y-77394076D01*
X131536739Y-77401040D01*
X131561342Y-77408468D01*
X131585626Y-77416474D01*
X131633824Y-77430199D01*
X131681008Y-77444665D01*
X131726920Y-77460094D01*
X131771298Y-77476705D01*
X131813881Y-77494720D01*
X131854410Y-77514360D01*
X131873822Y-77524857D01*
X131892624Y-77535844D01*
X131910781Y-77547347D01*
X131928262Y-77559393D01*
X131945034Y-77572012D01*
X131961064Y-77585229D01*
X131976320Y-77599073D01*
X131990770Y-77613572D01*
X132004380Y-77628752D01*
X132017118Y-77644642D01*
X132028953Y-77661269D01*
X132039850Y-77678660D01*
X132049778Y-77696844D01*
X132058703Y-77715847D01*
X132066595Y-77735698D01*
X132073419Y-77756424D01*
X132079143Y-77778052D01*
X132083735Y-77800610D01*
X132087163Y-77824126D01*
X132089393Y-77848627D01*
X131835040Y-77841219D01*
X131831770Y-77826465D01*
X131827544Y-77812290D01*
X131822406Y-77798677D01*
X131816398Y-77785614D01*
X131809564Y-77773084D01*
X131801946Y-77761072D01*
X131793588Y-77749564D01*
X131784532Y-77738545D01*
X131774821Y-77728000D01*
X131764498Y-77717914D01*
X131742189Y-77699058D01*
X131717949Y-77681860D01*
X131692120Y-77666198D01*
X131665047Y-77651955D01*
X131637074Y-77639010D01*
X131608543Y-77627245D01*
X131579799Y-77616539D01*
X131523045Y-77597830D01*
X131469561Y-77581928D01*
X131372636Y-77555381D01*
X131322321Y-77540950D01*
X131297106Y-77533242D01*
X131272006Y-77525130D01*
X131221066Y-77509927D01*
X131171236Y-77493799D01*
X131122817Y-77476513D01*
X131076109Y-77457838D01*
X131031413Y-77437542D01*
X130989027Y-77415394D01*
X130968795Y-77403554D01*
X130949254Y-77391163D01*
X130930441Y-77378194D01*
X130912393Y-77364617D01*
X130895148Y-77350403D01*
X130878743Y-77335524D01*
X130863217Y-77319950D01*
X130848607Y-77303652D01*
X130834949Y-77286603D01*
X130822283Y-77268772D01*
X130810644Y-77250130D01*
X130800072Y-77230649D01*
X130790602Y-77210301D01*
X130782274Y-77189055D01*
X130775123Y-77166883D01*
X130769189Y-77143756D01*
X130764508Y-77119645D01*
X130761118Y-77094521D01*
X130759057Y-77068356D01*
X130758361Y-77041119D01*
X130759355Y-77009748D01*
X130762293Y-76979524D01*
X130767105Y-76950438D01*
X130773723Y-76922480D01*
X130782079Y-76895639D01*
X130792106Y-76869906D01*
X130803734Y-76845271D01*
X130816895Y-76821724D01*
X130831521Y-76799255D01*
X130847544Y-76777854D01*
X130864896Y-76757511D01*
X130883507Y-76738216D01*
X130903311Y-76719960D01*
X130924238Y-76702731D01*
X130946221Y-76686521D01*
X130969190Y-76671319D01*
X131017818Y-76643901D01*
X131069574Y-76620397D01*
X131123914Y-76600727D01*
X131180290Y-76584811D01*
X131238156Y-76572572D01*
X131296966Y-76563927D01*
X131356174Y-76558799D01*
X131415234Y-76557107D01*
X131485618Y-76558813D01*
G37*
X138334618Y-77781951D02*
X138077795Y-77411536D01*
X138077795Y-76581800D01*
X138334618Y-76581800D01*
X138334618Y-77781951D01*
G36*
X138334618Y-77781951D02*
G01*
X138077795Y-77411536D01*
X138077795Y-76581800D01*
X138334618Y-76581800D01*
X138334618Y-77781951D01*
G37*
X129805156Y-78090632D02*
X129819973Y-78090632D01*
X130321269Y-76581800D01*
X130610194Y-76581800D01*
X130002711Y-78305473D01*
X129622416Y-78305473D01*
X128960605Y-76581800D01*
X129269286Y-76581800D01*
X129805156Y-78090632D01*
G36*
X129805156Y-78090632D02*
G01*
X129819973Y-78090632D01*
X130321269Y-76581800D01*
X130610194Y-76581800D01*
X130002711Y-78305473D01*
X129622416Y-78305473D01*
X128960605Y-76581800D01*
X129269286Y-76581800D01*
X129805156Y-78090632D01*
G37*
X135083105Y-76558077D02*
X135129770Y-76560975D01*
X135175404Y-76565769D01*
X135219978Y-76572433D01*
X135263462Y-76580938D01*
X135305825Y-76591257D01*
X135347036Y-76603360D01*
X135387066Y-76617221D01*
X135425884Y-76632811D01*
X135463460Y-76650101D01*
X135499764Y-76669065D01*
X135534765Y-76689674D01*
X135568433Y-76711900D01*
X135600738Y-76735715D01*
X135631649Y-76761090D01*
X135661136Y-76787999D01*
X135689169Y-76816412D01*
X135715718Y-76846302D01*
X135740751Y-76877641D01*
X135764240Y-76910400D01*
X135786154Y-76944552D01*
X135806461Y-76980069D01*
X135825133Y-77016923D01*
X135842139Y-77055085D01*
X135857448Y-77094527D01*
X135871030Y-77135222D01*
X135882855Y-77177142D01*
X135892892Y-77220258D01*
X135901112Y-77264542D01*
X135907484Y-77309967D01*
X135911978Y-77356504D01*
X135914563Y-77404125D01*
X135645394Y-77404127D01*
X135643385Y-77370475D01*
X135640145Y-77337594D01*
X135635687Y-77305504D01*
X135630023Y-77274226D01*
X135623168Y-77243777D01*
X135615134Y-77214178D01*
X135605934Y-77185449D01*
X135595581Y-77157607D01*
X135584089Y-77130674D01*
X135571471Y-77104668D01*
X135557740Y-77079609D01*
X135542908Y-77055516D01*
X135526989Y-77032409D01*
X135509997Y-77010307D01*
X135491943Y-76989229D01*
X135472842Y-76969196D01*
X135452707Y-76950226D01*
X135431550Y-76932339D01*
X135409384Y-76915555D01*
X135386224Y-76899892D01*
X135362081Y-76885371D01*
X135336969Y-76872010D01*
X135310902Y-76859830D01*
X135283891Y-76848849D01*
X135255951Y-76839087D01*
X135227095Y-76830564D01*
X135197335Y-76823298D01*
X135166684Y-76817310D01*
X135135157Y-76812619D01*
X135102765Y-76809244D01*
X135069522Y-76807205D01*
X135035442Y-76806521D01*
X134999980Y-76807241D01*
X134965375Y-76809389D01*
X134931645Y-76812947D01*
X134898807Y-76817894D01*
X134866879Y-76824212D01*
X134835878Y-76831882D01*
X134805822Y-76840885D01*
X134776728Y-76851202D01*
X134748615Y-76862814D01*
X134721500Y-76875703D01*
X134695401Y-76889848D01*
X134670335Y-76905231D01*
X134646319Y-76921833D01*
X134623372Y-76939636D01*
X134601512Y-76958619D01*
X134580755Y-76978765D01*
X134561119Y-77000053D01*
X134542622Y-77022466D01*
X134525282Y-77045984D01*
X134509116Y-77070587D01*
X134494143Y-77096259D01*
X134480378Y-77122978D01*
X134467841Y-77150726D01*
X134456549Y-77179484D01*
X134446519Y-77209234D01*
X134437769Y-77239956D01*
X134430317Y-77271631D01*
X134424181Y-77304240D01*
X134419377Y-77337764D01*
X134415924Y-77372185D01*
X134413840Y-77407483D01*
X134413141Y-77443639D01*
X134413796Y-77478659D01*
X134415752Y-77512867D01*
X134418993Y-77546245D01*
X134423501Y-77578778D01*
X134429261Y-77610448D01*
X134436256Y-77641238D01*
X134444470Y-77671132D01*
X134453887Y-77700113D01*
X134464490Y-77728165D01*
X134476264Y-77755270D01*
X134489191Y-77781412D01*
X134503256Y-77806574D01*
X134518443Y-77830740D01*
X134534734Y-77853892D01*
X134552115Y-77876014D01*
X134570568Y-77897090D01*
X134590077Y-77917102D01*
X134610627Y-77936033D01*
X134632199Y-77953868D01*
X134654780Y-77970589D01*
X134678351Y-77986180D01*
X134702898Y-78000624D01*
X134728403Y-78013903D01*
X134754850Y-78026002D01*
X134782224Y-78036904D01*
X134810507Y-78046592D01*
X134839684Y-78055048D01*
X134869737Y-78062258D01*
X134900652Y-78068203D01*
X134932412Y-78072867D01*
X134965000Y-78076233D01*
X134998399Y-78078285D01*
X134998399Y-78330168D01*
X134951423Y-78327828D01*
X134905434Y-78323603D01*
X134860466Y-78317518D01*
X134816553Y-78309597D01*
X134773726Y-78299866D01*
X134732019Y-78288349D01*
X134691466Y-78275072D01*
X134652098Y-78260059D01*
X134613950Y-78243334D01*
X134577053Y-78224924D01*
X134541442Y-78204852D01*
X134507148Y-78183144D01*
X134474206Y-78159824D01*
X134442648Y-78134918D01*
X134412507Y-78108450D01*
X134383816Y-78080445D01*
X134356608Y-78050928D01*
X134330916Y-78019923D01*
X134306773Y-77987457D01*
X134284213Y-77953553D01*
X134263268Y-77918236D01*
X134243970Y-77881532D01*
X134226354Y-77843465D01*
X134210453Y-77804060D01*
X134196298Y-77763342D01*
X134183924Y-77721335D01*
X134173362Y-77678065D01*
X134164647Y-77633557D01*
X134157811Y-77587835D01*
X134152888Y-77540925D01*
X134149909Y-77492850D01*
X134148909Y-77443637D01*
X134149918Y-77391991D01*
X134152924Y-77341709D01*
X134157901Y-77292809D01*
X134164821Y-77245309D01*
X134173656Y-77199227D01*
X134184379Y-77154581D01*
X134196963Y-77111389D01*
X134211379Y-77069669D01*
X134227600Y-77029440D01*
X134245598Y-76990719D01*
X134265346Y-76953525D01*
X134286817Y-76917875D01*
X134309983Y-76883788D01*
X134334815Y-76851282D01*
X134361287Y-76820375D01*
X134389372Y-76791085D01*
X134419040Y-76763429D01*
X134450265Y-76737427D01*
X134483020Y-76713096D01*
X134517276Y-76690455D01*
X134553007Y-76669521D01*
X134590183Y-76650312D01*
X134628779Y-76632847D01*
X134668766Y-76617143D01*
X134710117Y-76603220D01*
X134752804Y-76591094D01*
X134796800Y-76580784D01*
X134842076Y-76572308D01*
X134888606Y-76565684D01*
X134936362Y-76560930D01*
X134985316Y-76558064D01*
X135035441Y-76557105D01*
X135083105Y-76558077D01*
G36*
X135083105Y-76558077D02*
G01*
X135129770Y-76560975D01*
X135175404Y-76565769D01*
X135219978Y-76572433D01*
X135263462Y-76580938D01*
X135305825Y-76591257D01*
X135347036Y-76603360D01*
X135387066Y-76617221D01*
X135425884Y-76632811D01*
X135463460Y-76650101D01*
X135499764Y-76669065D01*
X135534765Y-76689674D01*
X135568433Y-76711900D01*
X135600738Y-76735715D01*
X135631649Y-76761090D01*
X135661136Y-76787999D01*
X135689169Y-76816412D01*
X135715718Y-76846302D01*
X135740751Y-76877641D01*
X135764240Y-76910400D01*
X135786154Y-76944552D01*
X135806461Y-76980069D01*
X135825133Y-77016923D01*
X135842139Y-77055085D01*
X135857448Y-77094527D01*
X135871030Y-77135222D01*
X135882855Y-77177142D01*
X135892892Y-77220258D01*
X135901112Y-77264542D01*
X135907484Y-77309967D01*
X135911978Y-77356504D01*
X135914563Y-77404125D01*
X135645394Y-77404127D01*
X135643385Y-77370475D01*
X135640145Y-77337594D01*
X135635687Y-77305504D01*
X135630023Y-77274226D01*
X135623168Y-77243777D01*
X135615134Y-77214178D01*
X135605934Y-77185449D01*
X135595581Y-77157607D01*
X135584089Y-77130674D01*
X135571471Y-77104668D01*
X135557740Y-77079609D01*
X135542908Y-77055516D01*
X135526989Y-77032409D01*
X135509997Y-77010307D01*
X135491943Y-76989229D01*
X135472842Y-76969196D01*
X135452707Y-76950226D01*
X135431550Y-76932339D01*
X135409384Y-76915555D01*
X135386224Y-76899892D01*
X135362081Y-76885371D01*
X135336969Y-76872010D01*
X135310902Y-76859830D01*
X135283891Y-76848849D01*
X135255951Y-76839087D01*
X135227095Y-76830564D01*
X135197335Y-76823298D01*
X135166684Y-76817310D01*
X135135157Y-76812619D01*
X135102765Y-76809244D01*
X135069522Y-76807205D01*
X135035442Y-76806521D01*
X134999980Y-76807241D01*
X134965375Y-76809389D01*
X134931645Y-76812947D01*
X134898807Y-76817894D01*
X134866879Y-76824212D01*
X134835878Y-76831882D01*
X134805822Y-76840885D01*
X134776728Y-76851202D01*
X134748615Y-76862814D01*
X134721500Y-76875703D01*
X134695401Y-76889848D01*
X134670335Y-76905231D01*
X134646319Y-76921833D01*
X134623372Y-76939636D01*
X134601512Y-76958619D01*
X134580755Y-76978765D01*
X134561119Y-77000053D01*
X134542622Y-77022466D01*
X134525282Y-77045984D01*
X134509116Y-77070587D01*
X134494143Y-77096259D01*
X134480378Y-77122978D01*
X134467841Y-77150726D01*
X134456549Y-77179484D01*
X134446519Y-77209234D01*
X134437769Y-77239956D01*
X134430317Y-77271631D01*
X134424181Y-77304240D01*
X134419377Y-77337764D01*
X134415924Y-77372185D01*
X134413840Y-77407483D01*
X134413141Y-77443639D01*
X134413796Y-77478659D01*
X134415752Y-77512867D01*
X134418993Y-77546245D01*
X134423501Y-77578778D01*
X134429261Y-77610448D01*
X134436256Y-77641238D01*
X134444470Y-77671132D01*
X134453887Y-77700113D01*
X134464490Y-77728165D01*
X134476264Y-77755270D01*
X134489191Y-77781412D01*
X134503256Y-77806574D01*
X134518443Y-77830740D01*
X134534734Y-77853892D01*
X134552115Y-77876014D01*
X134570568Y-77897090D01*
X134590077Y-77917102D01*
X134610627Y-77936033D01*
X134632199Y-77953868D01*
X134654780Y-77970589D01*
X134678351Y-77986180D01*
X134702898Y-78000624D01*
X134728403Y-78013903D01*
X134754850Y-78026002D01*
X134782224Y-78036904D01*
X134810507Y-78046592D01*
X134839684Y-78055048D01*
X134869737Y-78062258D01*
X134900652Y-78068203D01*
X134932412Y-78072867D01*
X134965000Y-78076233D01*
X134998399Y-78078285D01*
X134998399Y-78330168D01*
X134951423Y-78327828D01*
X134905434Y-78323603D01*
X134860466Y-78317518D01*
X134816553Y-78309597D01*
X134773726Y-78299866D01*
X134732019Y-78288349D01*
X134691466Y-78275072D01*
X134652098Y-78260059D01*
X134613950Y-78243334D01*
X134577053Y-78224924D01*
X134541442Y-78204852D01*
X134507148Y-78183144D01*
X134474206Y-78159824D01*
X134442648Y-78134918D01*
X134412507Y-78108450D01*
X134383816Y-78080445D01*
X134356608Y-78050928D01*
X134330916Y-78019923D01*
X134306773Y-77987457D01*
X134284213Y-77953553D01*
X134263268Y-77918236D01*
X134243970Y-77881532D01*
X134226354Y-77843465D01*
X134210453Y-77804060D01*
X134196298Y-77763342D01*
X134183924Y-77721335D01*
X134173362Y-77678065D01*
X134164647Y-77633557D01*
X134157811Y-77587835D01*
X134152888Y-77540925D01*
X134149909Y-77492850D01*
X134148909Y-77443637D01*
X134149918Y-77391991D01*
X134152924Y-77341709D01*
X134157901Y-77292809D01*
X134164821Y-77245309D01*
X134173656Y-77199227D01*
X134184379Y-77154581D01*
X134196963Y-77111389D01*
X134211379Y-77069669D01*
X134227600Y-77029440D01*
X134245598Y-76990719D01*
X134265346Y-76953525D01*
X134286817Y-76917875D01*
X134309983Y-76883788D01*
X134334815Y-76851282D01*
X134361287Y-76820375D01*
X134389372Y-76791085D01*
X134419040Y-76763429D01*
X134450265Y-76737427D01*
X134483020Y-76713096D01*
X134517276Y-76690455D01*
X134553007Y-76669521D01*
X134590183Y-76650312D01*
X134628779Y-76632847D01*
X134668766Y-76617143D01*
X134710117Y-76603220D01*
X134752804Y-76591094D01*
X134796800Y-76580784D01*
X134842076Y-76572308D01*
X134888606Y-76565684D01*
X134936362Y-76560930D01*
X134985316Y-76558064D01*
X135035441Y-76557105D01*
X135083105Y-76558077D01*
G37*
D13*
X139912795Y-75638704D02*
X139784223Y-75595847D01*
X139784223Y-75595847D02*
X139741366Y-75552990D01*
X139741366Y-75552990D02*
X139698509Y-75467275D01*
X139698509Y-75467275D02*
X139698509Y-75338704D01*
X139698509Y-75338704D02*
X139741366Y-75252990D01*
X139741366Y-75252990D02*
X139784223Y-75210133D01*
X139784223Y-75210133D02*
X139869938Y-75167275D01*
X139869938Y-75167275D02*
X140212795Y-75167275D01*
X140212795Y-75167275D02*
X140212795Y-76067275D01*
X140212795Y-76067275D02*
X139912795Y-76067275D01*
X139912795Y-76067275D02*
X139827081Y-76024418D01*
X139827081Y-76024418D02*
X139784223Y-75981561D01*
X139784223Y-75981561D02*
X139741366Y-75895847D01*
X139741366Y-75895847D02*
X139741366Y-75810133D01*
X139741366Y-75810133D02*
X139784223Y-75724418D01*
X139784223Y-75724418D02*
X139827081Y-75681561D01*
X139827081Y-75681561D02*
X139912795Y-75638704D01*
X139912795Y-75638704D02*
X140212795Y-75638704D01*
X138927081Y-75167275D02*
X138927081Y-75638704D01*
X138927081Y-75638704D02*
X138969938Y-75724418D01*
X138969938Y-75724418D02*
X139055652Y-75767275D01*
X139055652Y-75767275D02*
X139227081Y-75767275D01*
X139227081Y-75767275D02*
X139312795Y-75724418D01*
X138927081Y-75210133D02*
X139012795Y-75167275D01*
X139012795Y-75167275D02*
X139227081Y-75167275D01*
X139227081Y-75167275D02*
X139312795Y-75210133D01*
X139312795Y-75210133D02*
X139355652Y-75295847D01*
X139355652Y-75295847D02*
X139355652Y-75381561D01*
X139355652Y-75381561D02*
X139312795Y-75467275D01*
X139312795Y-75467275D02*
X139227081Y-75510133D01*
X139227081Y-75510133D02*
X139012795Y-75510133D01*
X139012795Y-75510133D02*
X138927081Y-75552990D01*
X138627080Y-75767275D02*
X138284223Y-75767275D01*
X138498509Y-76067275D02*
X138498509Y-75295847D01*
X138498509Y-75295847D02*
X138455652Y-75210133D01*
X138455652Y-75210133D02*
X138369937Y-75167275D01*
X138369937Y-75167275D02*
X138284223Y-75167275D01*
X138112794Y-75767275D02*
X137769937Y-75767275D01*
X137984223Y-76067275D02*
X137984223Y-75295847D01*
X137984223Y-75295847D02*
X137941366Y-75210133D01*
X137941366Y-75210133D02*
X137855651Y-75167275D01*
X137855651Y-75167275D02*
X137769937Y-75167275D01*
X137127080Y-75210133D02*
X137212794Y-75167275D01*
X137212794Y-75167275D02*
X137384223Y-75167275D01*
X137384223Y-75167275D02*
X137469937Y-75210133D01*
X137469937Y-75210133D02*
X137512794Y-75295847D01*
X137512794Y-75295847D02*
X137512794Y-75638704D01*
X137512794Y-75638704D02*
X137469937Y-75724418D01*
X137469937Y-75724418D02*
X137384223Y-75767275D01*
X137384223Y-75767275D02*
X137212794Y-75767275D01*
X137212794Y-75767275D02*
X137127080Y-75724418D01*
X137127080Y-75724418D02*
X137084223Y-75638704D01*
X137084223Y-75638704D02*
X137084223Y-75552990D01*
X137084223Y-75552990D02*
X137512794Y-75467275D01*
X136698508Y-75167275D02*
X136698508Y-75767275D01*
X136698508Y-75595847D02*
X136655651Y-75681561D01*
X136655651Y-75681561D02*
X136612794Y-75724418D01*
X136612794Y-75724418D02*
X136527079Y-75767275D01*
X136527079Y-75767275D02*
X136441365Y-75767275D01*
X136227079Y-75767275D02*
X136012793Y-75167275D01*
X135798508Y-75767275D02*
X136012793Y-75167275D01*
X136012793Y-75167275D02*
X136098508Y-74952990D01*
X136098508Y-74952990D02*
X136141365Y-74910133D01*
X136141365Y-74910133D02*
X136227079Y-74867275D01*
X134255651Y-75252990D02*
X134298508Y-75210133D01*
X134298508Y-75210133D02*
X134427080Y-75167275D01*
X134427080Y-75167275D02*
X134512794Y-75167275D01*
X134512794Y-75167275D02*
X134641365Y-75210133D01*
X134641365Y-75210133D02*
X134727080Y-75295847D01*
X134727080Y-75295847D02*
X134769937Y-75381561D01*
X134769937Y-75381561D02*
X134812794Y-75552990D01*
X134812794Y-75552990D02*
X134812794Y-75681561D01*
X134812794Y-75681561D02*
X134769937Y-75852990D01*
X134769937Y-75852990D02*
X134727080Y-75938704D01*
X134727080Y-75938704D02*
X134641365Y-76024418D01*
X134641365Y-76024418D02*
X134512794Y-76067275D01*
X134512794Y-76067275D02*
X134427080Y-76067275D01*
X134427080Y-76067275D02*
X134298508Y-76024418D01*
X134298508Y-76024418D02*
X134255651Y-75981561D01*
X133741365Y-75167275D02*
X133827080Y-75210133D01*
X133827080Y-75210133D02*
X133869937Y-75252990D01*
X133869937Y-75252990D02*
X133912794Y-75338704D01*
X133912794Y-75338704D02*
X133912794Y-75595847D01*
X133912794Y-75595847D02*
X133869937Y-75681561D01*
X133869937Y-75681561D02*
X133827080Y-75724418D01*
X133827080Y-75724418D02*
X133741365Y-75767275D01*
X133741365Y-75767275D02*
X133612794Y-75767275D01*
X133612794Y-75767275D02*
X133527080Y-75724418D01*
X133527080Y-75724418D02*
X133484223Y-75681561D01*
X133484223Y-75681561D02*
X133441365Y-75595847D01*
X133441365Y-75595847D02*
X133441365Y-75338704D01*
X133441365Y-75338704D02*
X133484223Y-75252990D01*
X133484223Y-75252990D02*
X133527080Y-75210133D01*
X133527080Y-75210133D02*
X133612794Y-75167275D01*
X133612794Y-75167275D02*
X133741365Y-75167275D01*
X133055651Y-75767275D02*
X133055651Y-75167275D01*
X133055651Y-75681561D02*
X133012794Y-75724418D01*
X133012794Y-75724418D02*
X132927079Y-75767275D01*
X132927079Y-75767275D02*
X132798508Y-75767275D01*
X132798508Y-75767275D02*
X132712794Y-75724418D01*
X132712794Y-75724418D02*
X132669937Y-75638704D01*
X132669937Y-75638704D02*
X132669937Y-75167275D01*
X132241365Y-75767275D02*
X132241365Y-75167275D01*
X132241365Y-75681561D02*
X132198508Y-75724418D01*
X132198508Y-75724418D02*
X132112793Y-75767275D01*
X132112793Y-75767275D02*
X131984222Y-75767275D01*
X131984222Y-75767275D02*
X131898508Y-75724418D01*
X131898508Y-75724418D02*
X131855651Y-75638704D01*
X131855651Y-75638704D02*
X131855651Y-75167275D01*
X131084222Y-75210133D02*
X131169936Y-75167275D01*
X131169936Y-75167275D02*
X131341365Y-75167275D01*
X131341365Y-75167275D02*
X131427079Y-75210133D01*
X131427079Y-75210133D02*
X131469936Y-75295847D01*
X131469936Y-75295847D02*
X131469936Y-75638704D01*
X131469936Y-75638704D02*
X131427079Y-75724418D01*
X131427079Y-75724418D02*
X131341365Y-75767275D01*
X131341365Y-75767275D02*
X131169936Y-75767275D01*
X131169936Y-75767275D02*
X131084222Y-75724418D01*
X131084222Y-75724418D02*
X131041365Y-75638704D01*
X131041365Y-75638704D02*
X131041365Y-75552990D01*
X131041365Y-75552990D02*
X131469936Y-75467275D01*
X130269936Y-75210133D02*
X130355650Y-75167275D01*
X130355650Y-75167275D02*
X130527078Y-75167275D01*
X130527078Y-75167275D02*
X130612793Y-75210133D01*
X130612793Y-75210133D02*
X130655650Y-75252990D01*
X130655650Y-75252990D02*
X130698507Y-75338704D01*
X130698507Y-75338704D02*
X130698507Y-75595847D01*
X130698507Y-75595847D02*
X130655650Y-75681561D01*
X130655650Y-75681561D02*
X130612793Y-75724418D01*
X130612793Y-75724418D02*
X130527078Y-75767275D01*
X130527078Y-75767275D02*
X130355650Y-75767275D01*
X130355650Y-75767275D02*
X130269936Y-75724418D01*
X130012792Y-75767275D02*
X129669935Y-75767275D01*
X129884221Y-76067275D02*
X129884221Y-75295847D01*
X129884221Y-75295847D02*
X129841364Y-75210133D01*
X129841364Y-75210133D02*
X129755649Y-75167275D01*
X129755649Y-75167275D02*
X129669935Y-75167275D01*
X129369935Y-75167275D02*
X129369935Y-75767275D01*
X129369935Y-76067275D02*
X129412792Y-76024418D01*
X129412792Y-76024418D02*
X129369935Y-75981561D01*
X129369935Y-75981561D02*
X129327078Y-76024418D01*
X129327078Y-76024418D02*
X129369935Y-76067275D01*
X129369935Y-76067275D02*
X129369935Y-75981561D01*
X128812792Y-75167275D02*
X128898507Y-75210133D01*
X128898507Y-75210133D02*
X128941364Y-75252990D01*
X128941364Y-75252990D02*
X128984221Y-75338704D01*
X128984221Y-75338704D02*
X128984221Y-75595847D01*
X128984221Y-75595847D02*
X128941364Y-75681561D01*
X128941364Y-75681561D02*
X128898507Y-75724418D01*
X128898507Y-75724418D02*
X128812792Y-75767275D01*
X128812792Y-75767275D02*
X128684221Y-75767275D01*
X128684221Y-75767275D02*
X128598507Y-75724418D01*
X128598507Y-75724418D02*
X128555650Y-75681561D01*
X128555650Y-75681561D02*
X128512792Y-75595847D01*
X128512792Y-75595847D02*
X128512792Y-75338704D01*
X128512792Y-75338704D02*
X128555650Y-75252990D01*
X128555650Y-75252990D02*
X128598507Y-75210133D01*
X128598507Y-75210133D02*
X128684221Y-75167275D01*
X128684221Y-75167275D02*
X128812792Y-75167275D01*
X128127078Y-75767275D02*
X128127078Y-75167275D01*
X128127078Y-75681561D02*
X128084221Y-75724418D01*
X128084221Y-75724418D02*
X127998506Y-75767275D01*
X127998506Y-75767275D02*
X127869935Y-75767275D01*
X127869935Y-75767275D02*
X127784221Y-75724418D01*
X127784221Y-75724418D02*
X127741364Y-75638704D01*
X127741364Y-75638704D02*
X127741364Y-75167275D01*
D14*
X136727104Y-73263584D02*
X136727104Y-73696917D01*
X136727104Y-73573108D02*
X136696151Y-73635013D01*
X136696151Y-73635013D02*
X136665199Y-73665965D01*
X136665199Y-73665965D02*
X136603294Y-73696917D01*
X136603294Y-73696917D02*
X136541389Y-73696917D01*
X136077104Y-73294537D02*
X136139008Y-73263584D01*
X136139008Y-73263584D02*
X136262818Y-73263584D01*
X136262818Y-73263584D02*
X136324723Y-73294537D01*
X136324723Y-73294537D02*
X136355675Y-73356441D01*
X136355675Y-73356441D02*
X136355675Y-73604060D01*
X136355675Y-73604060D02*
X136324723Y-73665965D01*
X136324723Y-73665965D02*
X136262818Y-73696917D01*
X136262818Y-73696917D02*
X136139008Y-73696917D01*
X136139008Y-73696917D02*
X136077104Y-73665965D01*
X136077104Y-73665965D02*
X136046151Y-73604060D01*
X136046151Y-73604060D02*
X136046151Y-73542156D01*
X136046151Y-73542156D02*
X136355675Y-73480251D01*
X135829484Y-73696917D02*
X135674722Y-73263584D01*
X135674722Y-73263584D02*
X135519961Y-73696917D01*
X135272342Y-73263584D02*
X135272342Y-73696917D01*
X135272342Y-73913584D02*
X135303294Y-73882632D01*
X135303294Y-73882632D02*
X135272342Y-73851679D01*
X135272342Y-73851679D02*
X135241389Y-73882632D01*
X135241389Y-73882632D02*
X135272342Y-73913584D01*
X135272342Y-73913584D02*
X135272342Y-73851679D01*
X134993770Y-73294537D02*
X134931865Y-73263584D01*
X134931865Y-73263584D02*
X134808056Y-73263584D01*
X134808056Y-73263584D02*
X134746151Y-73294537D01*
X134746151Y-73294537D02*
X134715199Y-73356441D01*
X134715199Y-73356441D02*
X134715199Y-73387394D01*
X134715199Y-73387394D02*
X134746151Y-73449298D01*
X134746151Y-73449298D02*
X134808056Y-73480251D01*
X134808056Y-73480251D02*
X134900913Y-73480251D01*
X134900913Y-73480251D02*
X134962818Y-73511203D01*
X134962818Y-73511203D02*
X134993770Y-73573108D01*
X134993770Y-73573108D02*
X134993770Y-73604060D01*
X134993770Y-73604060D02*
X134962818Y-73665965D01*
X134962818Y-73665965D02*
X134900913Y-73696917D01*
X134900913Y-73696917D02*
X134808056Y-73696917D01*
X134808056Y-73696917D02*
X134746151Y-73665965D01*
X134436628Y-73263584D02*
X134436628Y-73696917D01*
X134436628Y-73913584D02*
X134467580Y-73882632D01*
X134467580Y-73882632D02*
X134436628Y-73851679D01*
X134436628Y-73851679D02*
X134405675Y-73882632D01*
X134405675Y-73882632D02*
X134436628Y-73913584D01*
X134436628Y-73913584D02*
X134436628Y-73851679D01*
X134034246Y-73263584D02*
X134096151Y-73294537D01*
X134096151Y-73294537D02*
X134127104Y-73325489D01*
X134127104Y-73325489D02*
X134158056Y-73387394D01*
X134158056Y-73387394D02*
X134158056Y-73573108D01*
X134158056Y-73573108D02*
X134127104Y-73635013D01*
X134127104Y-73635013D02*
X134096151Y-73665965D01*
X134096151Y-73665965D02*
X134034246Y-73696917D01*
X134034246Y-73696917D02*
X133941389Y-73696917D01*
X133941389Y-73696917D02*
X133879485Y-73665965D01*
X133879485Y-73665965D02*
X133848532Y-73635013D01*
X133848532Y-73635013D02*
X133817580Y-73573108D01*
X133817580Y-73573108D02*
X133817580Y-73387394D01*
X133817580Y-73387394D02*
X133848532Y-73325489D01*
X133848532Y-73325489D02*
X133879485Y-73294537D01*
X133879485Y-73294537D02*
X133941389Y-73263584D01*
X133941389Y-73263584D02*
X134034246Y-73263584D01*
X133539009Y-73696917D02*
X133539009Y-73263584D01*
X133539009Y-73635013D02*
X133508056Y-73665965D01*
X133508056Y-73665965D02*
X133446151Y-73696917D01*
X133446151Y-73696917D02*
X133353294Y-73696917D01*
X133353294Y-73696917D02*
X133291390Y-73665965D01*
X133291390Y-73665965D02*
X133260437Y-73604060D01*
X133260437Y-73604060D02*
X133260437Y-73263584D01*
X132115199Y-73263584D02*
X132486628Y-73263584D01*
X132300914Y-73263584D02*
X132300914Y-73913584D01*
X132300914Y-73913584D02*
X132362818Y-73820727D01*
X132362818Y-73820727D02*
X132424723Y-73758822D01*
X132424723Y-73758822D02*
X132486628Y-73727870D01*
X131836628Y-73325489D02*
X131805675Y-73294537D01*
X131805675Y-73294537D02*
X131836628Y-73263584D01*
X131836628Y-73263584D02*
X131867580Y-73294537D01*
X131867580Y-73294537D02*
X131836628Y-73325489D01*
X131836628Y-73325489D02*
X131836628Y-73263584D01*
X131403294Y-73913584D02*
X131341389Y-73913584D01*
X131341389Y-73913584D02*
X131279485Y-73882632D01*
X131279485Y-73882632D02*
X131248532Y-73851679D01*
X131248532Y-73851679D02*
X131217580Y-73789775D01*
X131217580Y-73789775D02*
X131186627Y-73665965D01*
X131186627Y-73665965D02*
X131186627Y-73511203D01*
X131186627Y-73511203D02*
X131217580Y-73387394D01*
X131217580Y-73387394D02*
X131248532Y-73325489D01*
X131248532Y-73325489D02*
X131279485Y-73294537D01*
X131279485Y-73294537D02*
X131341389Y-73263584D01*
X131341389Y-73263584D02*
X131403294Y-73263584D01*
X131403294Y-73263584D02*
X131465199Y-73294537D01*
X131465199Y-73294537D02*
X131496151Y-73325489D01*
X131496151Y-73325489D02*
X131527104Y-73387394D01*
X131527104Y-73387394D02*
X131558056Y-73511203D01*
X131558056Y-73511203D02*
X131558056Y-73665965D01*
X131558056Y-73665965D02*
X131527104Y-73789775D01*
X131527104Y-73789775D02*
X131496151Y-73851679D01*
X131496151Y-73851679D02*
X131465199Y-73882632D01*
X131465199Y-73882632D02*
X131403294Y-73913584D01*
D15*
%TO.C,REF\u002A\u002A*%
G36*
X131414346Y-117629768D02*
G01*
X131280572Y-117629768D01*
X131280572Y-117405348D01*
X131280572Y-117180928D01*
X131414346Y-117180928D01*
X131414346Y-117629768D01*
G37*
G36*
X131416515Y-117122665D02*
G01*
X131280572Y-117122665D01*
X131280572Y-117066574D01*
X131280572Y-117010481D01*
X131416515Y-117010481D01*
X131416515Y-117122665D01*
G37*
G36*
X134128863Y-117629767D02*
G01*
X133992921Y-117629767D01*
X133992921Y-117413972D01*
X133992921Y-117198178D01*
X134128863Y-117198178D01*
X134128863Y-117629767D01*
G37*
G36*
X134303700Y-117142088D02*
G01*
X133816020Y-117142088D01*
X133816020Y-117076311D01*
X133816020Y-117010482D01*
X134303700Y-117010482D01*
X134303700Y-117142088D01*
G37*
G36*
X130682351Y-117146585D02*
G01*
X130748179Y-117241623D01*
X130805804Y-117324966D01*
X130805804Y-117629767D01*
X130674200Y-117629767D01*
X130674202Y-117382328D01*
X130674202Y-117134890D01*
X130682351Y-117146585D01*
G37*
G36*
X132183661Y-117163981D02*
G01*
X132229791Y-117230509D01*
X132294773Y-117324330D01*
X132294773Y-117629712D01*
X132163169Y-117629712D01*
X132163169Y-117382274D01*
X132163116Y-117382328D01*
X132163361Y-117207842D01*
X132163962Y-117135789D01*
X132183661Y-117163981D01*
G37*
G36*
X119767298Y-115584319D02*
G01*
X119767298Y-114256323D01*
X120276092Y-114256323D01*
X120276092Y-116425906D01*
X119735283Y-116425906D01*
X118839298Y-115097910D01*
X118839298Y-116425906D01*
X118330505Y-116425906D01*
X118330505Y-114256323D01*
X118871313Y-114256323D01*
X119767298Y-115584319D01*
G37*
G36*
X131200670Y-117629716D02*
G01*
X131074305Y-117629716D01*
X130868302Y-117322060D01*
X130868352Y-117322110D01*
X130661606Y-117012442D01*
X130661647Y-117012329D01*
X130661847Y-117012221D01*
X130662715Y-117012016D01*
X130664196Y-117011826D01*
X130666271Y-117011653D01*
X130672141Y-117011357D01*
X130680193Y-117011132D01*
X130690294Y-117010981D01*
X130702311Y-117010908D01*
X130716111Y-117010917D01*
X130731562Y-117011012D01*
X130802206Y-117011596D01*
X130935080Y-117204000D01*
X131067955Y-117396406D01*
X131069331Y-117377674D01*
X131069877Y-117356642D01*
X131070369Y-117313247D01*
X131070752Y-117253818D01*
X131070972Y-117184686D01*
X131071183Y-117010432D01*
X131200670Y-117010432D01*
X131200670Y-117629716D01*
G37*
G36*
X132689636Y-117629768D02*
G01*
X132626507Y-117629768D01*
X132563378Y-117629662D01*
X132357320Y-117321845D01*
X132150522Y-117012229D01*
X132150576Y-117012136D01*
X132150812Y-117012046D01*
X132151816Y-117011875D01*
X132155822Y-117011571D01*
X132162251Y-117011319D01*
X132170815Y-117011125D01*
X132181224Y-117010993D01*
X132193190Y-117010927D01*
X132206424Y-117010932D01*
X132220636Y-117011012D01*
X132291492Y-117011596D01*
X132424206Y-117204054D01*
X132518411Y-117340023D01*
X132547451Y-117381397D01*
X132558562Y-117396616D01*
X132558728Y-117395727D01*
X132558890Y-117393099D01*
X132559197Y-117382978D01*
X132559719Y-117345771D01*
X132560073Y-117290674D01*
X132560203Y-117223368D01*
X132560613Y-117095124D01*
X132561051Y-117051591D01*
X132561578Y-117030222D01*
X132562954Y-117010484D01*
X132689636Y-117010484D01*
X132689636Y-117629768D01*
G37*
G36*
X133527837Y-117011066D02*
G01*
X133607583Y-117011596D01*
X133724686Y-117316924D01*
X133843061Y-117626010D01*
X133843152Y-117626332D01*
X133843182Y-117626487D01*
X133843198Y-117626636D01*
X133843201Y-117626781D01*
X133843189Y-117626921D01*
X133843160Y-117627057D01*
X133843113Y-117627189D01*
X133843046Y-117627316D01*
X133842958Y-117627439D01*
X133842848Y-117627558D01*
X133842714Y-117627673D01*
X133842555Y-117627784D01*
X133842369Y-117627890D01*
X133842156Y-117627993D01*
X133841913Y-117628092D01*
X133841639Y-117628188D01*
X133841333Y-117628279D01*
X133840993Y-117628367D01*
X133840618Y-117628452D01*
X133840207Y-117628533D01*
X133839758Y-117628611D01*
X133838740Y-117628756D01*
X133837555Y-117628889D01*
X133836190Y-117629010D01*
X133834634Y-117629119D01*
X133832876Y-117629218D01*
X133830904Y-117629306D01*
X133828709Y-117629384D01*
X133826277Y-117629453D01*
X133823598Y-117629513D01*
X133820661Y-117629565D01*
X133817454Y-117629610D01*
X133813966Y-117629647D01*
X133810186Y-117629678D01*
X133801705Y-117629724D01*
X133791921Y-117629751D01*
X133780742Y-117629764D01*
X133768080Y-117629767D01*
X133691880Y-117629767D01*
X133611129Y-117401590D01*
X133529479Y-117171720D01*
X133527741Y-117176066D01*
X133523097Y-117189193D01*
X133506361Y-117238044D01*
X133481817Y-117310777D01*
X133452009Y-117399896D01*
X133375439Y-117629820D01*
X133303155Y-117629820D01*
X133266660Y-117629700D01*
X133254071Y-117629526D01*
X133244716Y-117629257D01*
X133238190Y-117628876D01*
X133234092Y-117628368D01*
X133232826Y-117628062D01*
X133232016Y-117627718D01*
X133231610Y-117627334D01*
X133231559Y-117626909D01*
X133231610Y-117626856D01*
X133340195Y-117317240D01*
X133448091Y-117010536D01*
X133527837Y-117011066D01*
G37*
G36*
X133002267Y-117002650D02*
G01*
X133017628Y-117003626D01*
X133032443Y-117005066D01*
X133046719Y-117006973D01*
X133060466Y-117009352D01*
X133073691Y-117012206D01*
X133086402Y-117015537D01*
X133098608Y-117019349D01*
X133110316Y-117023645D01*
X133121535Y-117028428D01*
X133132273Y-117033702D01*
X133142538Y-117039471D01*
X133152338Y-117045736D01*
X133161681Y-117052502D01*
X133170576Y-117059771D01*
X133179030Y-117067547D01*
X133187052Y-117075834D01*
X133192584Y-117082155D01*
X133197773Y-117088662D01*
X133202623Y-117095367D01*
X133207138Y-117102279D01*
X133211322Y-117109410D01*
X133215179Y-117116769D01*
X133218714Y-117124368D01*
X133221930Y-117132217D01*
X133224832Y-117140326D01*
X133227423Y-117148706D01*
X133229709Y-117157367D01*
X133231692Y-117166321D01*
X133233377Y-117175577D01*
X133234769Y-117185147D01*
X133235871Y-117195040D01*
X133236687Y-117205268D01*
X133238221Y-117228445D01*
X133171388Y-117228445D01*
X133145319Y-117228333D01*
X133123764Y-117228028D01*
X133108955Y-117227574D01*
X133104779Y-117227305D01*
X133103126Y-117227016D01*
X133103133Y-117227010D01*
X133103140Y-117227003D01*
X133103154Y-117226990D01*
X133103167Y-117226977D01*
X133103181Y-117226964D01*
X133103107Y-117226876D01*
X133103034Y-117226760D01*
X133102892Y-117226449D01*
X133102755Y-117226039D01*
X133102623Y-117225534D01*
X133102498Y-117224942D01*
X133102380Y-117224269D01*
X133102270Y-117223521D01*
X133102169Y-117222705D01*
X133102077Y-117221826D01*
X133101995Y-117220892D01*
X133101923Y-117219909D01*
X133101863Y-117218883D01*
X133101816Y-117217820D01*
X133101781Y-117216727D01*
X133101759Y-117215610D01*
X133101752Y-117214475D01*
X133101624Y-117209725D01*
X133101245Y-117204986D01*
X133100619Y-117200269D01*
X133099751Y-117195587D01*
X133098646Y-117190952D01*
X133097309Y-117186373D01*
X133095745Y-117181863D01*
X133093960Y-117177434D01*
X133091957Y-117173096D01*
X133089742Y-117168862D01*
X133087320Y-117164742D01*
X133084696Y-117160748D01*
X133081874Y-117156893D01*
X133078861Y-117153186D01*
X133075660Y-117149640D01*
X133072277Y-117146266D01*
X133068688Y-117143018D01*
X133065005Y-117139993D01*
X133061197Y-117137179D01*
X133057234Y-117134565D01*
X133053083Y-117132140D01*
X133048716Y-117129892D01*
X133044099Y-117127809D01*
X133039204Y-117125881D01*
X133033999Y-117124095D01*
X133028453Y-117122440D01*
X133022534Y-117120905D01*
X133016214Y-117119478D01*
X133009460Y-117118148D01*
X133002241Y-117116903D01*
X132994527Y-117115732D01*
X132986288Y-117114623D01*
X132973323Y-117112981D01*
X132972740Y-117057101D01*
X132972158Y-117001221D01*
X133002267Y-117002650D01*
G37*
G36*
X129689241Y-117351623D02*
G01*
X129743921Y-117185376D01*
X129808082Y-117185376D01*
X129725400Y-117410713D01*
X129710629Y-117451503D01*
X129708599Y-117456477D01*
X129706591Y-117461149D01*
X129704603Y-117465517D01*
X129702636Y-117469582D01*
X129700689Y-117473344D01*
X129698763Y-117476803D01*
X129696858Y-117479959D01*
X129694973Y-117482811D01*
X129694054Y-117484146D01*
X129693116Y-117485447D01*
X129692159Y-117486716D01*
X129691183Y-117487952D01*
X129690188Y-117489155D01*
X129689175Y-117490326D01*
X129688142Y-117491463D01*
X129687090Y-117492568D01*
X129686020Y-117493641D01*
X129684930Y-117494680D01*
X129683822Y-117495687D01*
X129682694Y-117496661D01*
X129681548Y-117497602D01*
X129680383Y-117498511D01*
X129679199Y-117499387D01*
X129677996Y-117500230D01*
X129676792Y-117501072D01*
X129675553Y-117501890D01*
X129674277Y-117502684D01*
X129672966Y-117503454D01*
X129671618Y-117504200D01*
X129670234Y-117504922D01*
X129668813Y-117505619D01*
X129667357Y-117506293D01*
X129665865Y-117506942D01*
X129664336Y-117507568D01*
X129662771Y-117508169D01*
X129661170Y-117508746D01*
X129659533Y-117509299D01*
X129657859Y-117509828D01*
X129656150Y-117510333D01*
X129654404Y-117510813D01*
X129650873Y-117511692D01*
X129647225Y-117512453D01*
X129643459Y-117513097D01*
X129639576Y-117513625D01*
X129635577Y-117514035D01*
X129631460Y-117514328D01*
X129627226Y-117514503D01*
X129622875Y-117514562D01*
X129618420Y-117514503D01*
X129613987Y-117514328D01*
X129609574Y-117514035D01*
X129605181Y-117513625D01*
X129600810Y-117513097D01*
X129596459Y-117512453D01*
X129592128Y-117511692D01*
X129587819Y-117510813D01*
X129582306Y-117462306D01*
X129585899Y-117462978D01*
X129589403Y-117463560D01*
X129592817Y-117464053D01*
X129596141Y-117464456D01*
X129599376Y-117464769D01*
X129602521Y-117464993D01*
X129605577Y-117465128D01*
X129608542Y-117465172D01*
X129611200Y-117465122D01*
X129613769Y-117464972D01*
X129616250Y-117464723D01*
X129618644Y-117464373D01*
X129620949Y-117463923D01*
X129623167Y-117463374D01*
X129625297Y-117462725D01*
X129627339Y-117461975D01*
X129629294Y-117461126D01*
X129631160Y-117460177D01*
X129632939Y-117459128D01*
X129634629Y-117457979D01*
X129636232Y-117456730D01*
X129637747Y-117455381D01*
X129639174Y-117453933D01*
X129640514Y-117452384D01*
X129641790Y-117450786D01*
X129643029Y-117449132D01*
X129644229Y-117447424D01*
X129645392Y-117445660D01*
X129646517Y-117443841D01*
X129647603Y-117441967D01*
X129648652Y-117440038D01*
X129649664Y-117438053D01*
X129650637Y-117436014D01*
X129651572Y-117433919D01*
X129652470Y-117431769D01*
X129653329Y-117429564D01*
X129654151Y-117427304D01*
X129654935Y-117424989D01*
X129655681Y-117422619D01*
X129656389Y-117420193D01*
X129567313Y-117185376D01*
X129633237Y-117185376D01*
X129689241Y-117351623D01*
G37*
G36*
X131901315Y-114816889D02*
G01*
X131930524Y-114818540D01*
X131959381Y-114821292D01*
X131987811Y-114825142D01*
X132015743Y-114830092D01*
X132043103Y-114836140D01*
X132069820Y-114843285D01*
X132082915Y-114847270D01*
X132095821Y-114851528D01*
X132108583Y-114856158D01*
X132121269Y-114861237D01*
X132133879Y-114866765D01*
X132146414Y-114872742D01*
X132158874Y-114879168D01*
X132171260Y-114886044D01*
X132183571Y-114893369D01*
X132195807Y-114901144D01*
X132207968Y-114909368D01*
X132220056Y-114918042D01*
X132232069Y-114927166D01*
X132244009Y-114936740D01*
X132255874Y-114946763D01*
X132267666Y-114957236D01*
X132279385Y-114968160D01*
X132291030Y-114979533D01*
X132302745Y-114991636D01*
X132313898Y-115003953D01*
X132324489Y-115016484D01*
X132334518Y-115029228D01*
X132343985Y-115042186D01*
X132352891Y-115055357D01*
X132361234Y-115068741D01*
X132369016Y-115082337D01*
X132376236Y-115096145D01*
X132382894Y-115110165D01*
X132388991Y-115124396D01*
X132394525Y-115138839D01*
X132399498Y-115153492D01*
X132403909Y-115168356D01*
X132407758Y-115183431D01*
X132411045Y-115198715D01*
X132416665Y-115229688D01*
X132421540Y-115261013D01*
X132425669Y-115292689D01*
X132429050Y-115324716D01*
X132431681Y-115357092D01*
X132433563Y-115389817D01*
X132434693Y-115422891D01*
X132435070Y-115456312D01*
X132435070Y-116425905D01*
X131923047Y-116425905D01*
X131922944Y-116425906D01*
X131922944Y-115545902D01*
X131922768Y-115526091D01*
X131922241Y-115506623D01*
X131921362Y-115487500D01*
X131920133Y-115468723D01*
X131918554Y-115450293D01*
X131916626Y-115432212D01*
X131914349Y-115414480D01*
X131911725Y-115397100D01*
X131910111Y-115388613D01*
X131908086Y-115380337D01*
X131905650Y-115372273D01*
X131902804Y-115364419D01*
X131899546Y-115356777D01*
X131895877Y-115349347D01*
X131891797Y-115342128D01*
X131887304Y-115335122D01*
X131882401Y-115328327D01*
X131877085Y-115321745D01*
X131871357Y-115315375D01*
X131865217Y-115309218D01*
X131858664Y-115303273D01*
X131851699Y-115297541D01*
X131844321Y-115292022D01*
X131836531Y-115286717D01*
X131833270Y-115284341D01*
X131829898Y-115282016D01*
X131826414Y-115279741D01*
X131822818Y-115277517D01*
X131819110Y-115275343D01*
X131815290Y-115273219D01*
X131811358Y-115271145D01*
X131807314Y-115269121D01*
X131803157Y-115267147D01*
X131798889Y-115265222D01*
X131794508Y-115263346D01*
X131790014Y-115261519D01*
X131785408Y-115259742D01*
X131780689Y-115258013D01*
X131775858Y-115256333D01*
X131770914Y-115254701D01*
X131765857Y-115253153D01*
X131760687Y-115251705D01*
X131755405Y-115250356D01*
X131750010Y-115249106D01*
X131744502Y-115247956D01*
X131738882Y-115246905D01*
X131727304Y-115245103D01*
X131715278Y-115243700D01*
X131702803Y-115242698D01*
X131689881Y-115242096D01*
X131676511Y-115241895D01*
X131669708Y-115241970D01*
X131662891Y-115242195D01*
X131656061Y-115242570D01*
X131649217Y-115243095D01*
X131642361Y-115243771D01*
X131635492Y-115244596D01*
X131628610Y-115245571D01*
X131621715Y-115246697D01*
X131607889Y-115249398D01*
X131594015Y-115252700D01*
X131580094Y-115256601D01*
X131566127Y-115261104D01*
X131559178Y-115263592D01*
X131552343Y-115266256D01*
X131545620Y-115269094D01*
X131539011Y-115272107D01*
X131532514Y-115275295D01*
X131526132Y-115278658D01*
X131519862Y-115282196D01*
X131513706Y-115285909D01*
X131507663Y-115289796D01*
X131501734Y-115293858D01*
X131495918Y-115298096D01*
X131490217Y-115302508D01*
X131484629Y-115307095D01*
X131479155Y-115311857D01*
X131473795Y-115316794D01*
X131468549Y-115321906D01*
X131461149Y-115329624D01*
X131454149Y-115337580D01*
X131447550Y-115345772D01*
X131441351Y-115354202D01*
X131435553Y-115362869D01*
X131430155Y-115371773D01*
X131425157Y-115380914D01*
X131420559Y-115390293D01*
X131416361Y-115399910D01*
X131412563Y-115409764D01*
X131409165Y-115419855D01*
X131406167Y-115430185D01*
X131403568Y-115440752D01*
X131401369Y-115451557D01*
X131399569Y-115462601D01*
X131398169Y-115473882D01*
X131395919Y-115496757D01*
X131393971Y-115519781D01*
X131392324Y-115542956D01*
X131390978Y-115566281D01*
X131389933Y-115589757D01*
X131389186Y-115613386D01*
X131388739Y-115637167D01*
X131388590Y-115661101D01*
X131388590Y-116425905D01*
X130876622Y-116425905D01*
X130876622Y-114877088D01*
X131356628Y-114877088D01*
X131363031Y-115043510D01*
X131368012Y-115038430D01*
X131376604Y-115029540D01*
X131404624Y-115000330D01*
X131409132Y-114995723D01*
X131413866Y-114991090D01*
X131418826Y-114986431D01*
X131424011Y-114981747D01*
X131429423Y-114977037D01*
X131435059Y-114972301D01*
X131440922Y-114967539D01*
X131447010Y-114962752D01*
X131453324Y-114957940D01*
X131459864Y-114953102D01*
X131473621Y-114943351D01*
X131488280Y-114933499D01*
X131503843Y-114923548D01*
X131520286Y-114913646D01*
X131537628Y-114903943D01*
X131555871Y-114894439D01*
X131575016Y-114885137D01*
X131595063Y-114876035D01*
X131616014Y-114867134D01*
X131637871Y-114858436D01*
X131660635Y-114849940D01*
X131672333Y-114845874D01*
X131684231Y-114842070D01*
X131696329Y-114838528D01*
X131708627Y-114835247D01*
X131721125Y-114832229D01*
X131733824Y-114829472D01*
X131746722Y-114826978D01*
X131759820Y-114824746D01*
X131773119Y-114822776D01*
X131786618Y-114821069D01*
X131800318Y-114819624D01*
X131814218Y-114818441D01*
X131828318Y-114817522D01*
X131842620Y-114816864D01*
X131857122Y-114816470D01*
X131871825Y-114816339D01*
X131901315Y-114816889D01*
G37*
G36*
X129484703Y-115741164D02*
G01*
X129484852Y-115758616D01*
X129485299Y-115775770D01*
X129486046Y-115792623D01*
X129487091Y-115809175D01*
X129488437Y-115825424D01*
X129490083Y-115841369D01*
X129492031Y-115857010D01*
X129494281Y-115872344D01*
X129495618Y-115879882D01*
X129497230Y-115887294D01*
X129499116Y-115894581D01*
X129501277Y-115901743D01*
X129503713Y-115908779D01*
X129506423Y-115915690D01*
X129509408Y-115922476D01*
X129512669Y-115929137D01*
X129516205Y-115935672D01*
X129520016Y-115942083D01*
X129524103Y-115948367D01*
X129528466Y-115954527D01*
X129533105Y-115960561D01*
X129538020Y-115966470D01*
X129543211Y-115972254D01*
X129548679Y-115977913D01*
X129553513Y-115982621D01*
X129558408Y-115987140D01*
X129563365Y-115991472D01*
X129568385Y-115995615D01*
X129573466Y-115999570D01*
X129578609Y-116003338D01*
X129583814Y-116006918D01*
X129589082Y-116010311D01*
X129594411Y-116013516D01*
X129599802Y-116016535D01*
X129605255Y-116019366D01*
X129610771Y-116022011D01*
X129616348Y-116024469D01*
X129621987Y-116026740D01*
X129627689Y-116028825D01*
X129633452Y-116030724D01*
X129645118Y-116034092D01*
X129656936Y-116037013D01*
X129668908Y-116039487D01*
X129681031Y-116041512D01*
X129693305Y-116043088D01*
X129705730Y-116044214D01*
X129718306Y-116044891D01*
X129731030Y-116045116D01*
X129737833Y-116045041D01*
X129744648Y-116044816D01*
X129751476Y-116044441D01*
X129758317Y-116043916D01*
X129765170Y-116043240D01*
X129772036Y-116042415D01*
X129778914Y-116041440D01*
X129785806Y-116040314D01*
X129799628Y-116037613D01*
X129813504Y-116034312D01*
X129827432Y-116030410D01*
X129841415Y-116025908D01*
X129848354Y-116023420D01*
X129855181Y-116020757D01*
X129861897Y-116017918D01*
X129868501Y-116014905D01*
X129874993Y-116011717D01*
X129881373Y-116008355D01*
X129887640Y-116004817D01*
X129893796Y-116001104D01*
X129899839Y-115997217D01*
X129905770Y-115993154D01*
X129911589Y-115988917D01*
X129917295Y-115984505D01*
X129922888Y-115979918D01*
X129928369Y-115975156D01*
X129933737Y-115970219D01*
X129938993Y-115965108D01*
X129946014Y-115957824D01*
X129952671Y-115950378D01*
X129958963Y-115942771D01*
X129964893Y-115935003D01*
X129970458Y-115927072D01*
X129975661Y-115918980D01*
X129980500Y-115910725D01*
X129984978Y-115902308D01*
X129989093Y-115893729D01*
X129992846Y-115884987D01*
X129996238Y-115876082D01*
X129999268Y-115867015D01*
X130001938Y-115857784D01*
X130004247Y-115848390D01*
X130006196Y-115838832D01*
X130007784Y-115829112D01*
X130010409Y-115809000D01*
X130012685Y-115787836D01*
X130014613Y-115765619D01*
X130016192Y-115742348D01*
X130017421Y-115718023D01*
X130018300Y-115692644D01*
X130018828Y-115666209D01*
X130019004Y-115638717D01*
X130019004Y-114877141D01*
X130531025Y-114877141D01*
X130531025Y-116425960D01*
X130057421Y-116425960D01*
X130057419Y-116425906D01*
X130044614Y-116243502D01*
X130042608Y-116245584D01*
X130039802Y-116248613D01*
X130036198Y-116252589D01*
X130031795Y-116257513D01*
X130020593Y-116270203D01*
X130006196Y-116286682D01*
X130002085Y-116291304D01*
X129997748Y-116295964D01*
X129993186Y-116300661D01*
X129988398Y-116305394D01*
X129983384Y-116310166D01*
X129978146Y-116314974D01*
X129972682Y-116319820D01*
X129966993Y-116324703D01*
X129961078Y-116329623D01*
X129954939Y-116334580D01*
X129948575Y-116339575D01*
X129941985Y-116344606D01*
X129928133Y-116354781D01*
X129913381Y-116365105D01*
X129905663Y-116370267D01*
X129897707Y-116375354D01*
X129889514Y-116380367D01*
X129881085Y-116385305D01*
X129863513Y-116394957D01*
X129844993Y-116404309D01*
X129825522Y-116413361D01*
X129805101Y-116422113D01*
X129783728Y-116430563D01*
X129761404Y-116438711D01*
X129749885Y-116442585D01*
X129738127Y-116446210D01*
X129726132Y-116449585D01*
X129713900Y-116452710D01*
X129701430Y-116455586D01*
X129688722Y-116458213D01*
X129675777Y-116460589D01*
X129662596Y-116462716D01*
X129649177Y-116464593D01*
X129635522Y-116466220D01*
X129621630Y-116467596D01*
X129607501Y-116468723D01*
X129578536Y-116470226D01*
X129548627Y-116470727D01*
X129516635Y-116470152D01*
X129485469Y-116468427D01*
X129455129Y-116465553D01*
X129425614Y-116461528D01*
X129396926Y-116456354D01*
X129369063Y-116450029D01*
X129342025Y-116442554D01*
X129315813Y-116433929D01*
X129290427Y-116424154D01*
X129265865Y-116413229D01*
X129242129Y-116401152D01*
X129219218Y-116387926D01*
X129197132Y-116373549D01*
X129175871Y-116358021D01*
X129155435Y-116341342D01*
X129135824Y-116323512D01*
X129128715Y-116316278D01*
X129121794Y-116308984D01*
X129115062Y-116301628D01*
X129108518Y-116294210D01*
X129102162Y-116286731D01*
X129095995Y-116279190D01*
X129090015Y-116271586D01*
X129084223Y-116263921D01*
X129078620Y-116256192D01*
X129073204Y-116248401D01*
X129067976Y-116240547D01*
X129062935Y-116232629D01*
X129058082Y-116224648D01*
X129053417Y-116216603D01*
X129048939Y-116208494D01*
X129044648Y-116200321D01*
X129036527Y-116183829D01*
X129028953Y-116167134D01*
X129021927Y-116150236D01*
X129015451Y-116133137D01*
X129009525Y-116115837D01*
X129004151Y-116098337D01*
X128999331Y-116080637D01*
X128995065Y-116062738D01*
X128991257Y-116044665D01*
X128987851Y-116026443D01*
X128984847Y-116008071D01*
X128982245Y-115989548D01*
X128980045Y-115970873D01*
X128978247Y-115952047D01*
X128976851Y-115933068D01*
X128975857Y-115913936D01*
X128974445Y-115875351D01*
X128973455Y-115836354D01*
X128972872Y-115796950D01*
X128972681Y-115757145D01*
X128972681Y-114877140D01*
X129484703Y-114877140D01*
X129484703Y-115741164D01*
G37*
G36*
X129380120Y-117212716D02*
G01*
X129383744Y-117208765D01*
X129387451Y-117205068D01*
X129391240Y-117201626D01*
X129395113Y-117198439D01*
X129399067Y-117195508D01*
X129403105Y-117192831D01*
X129407225Y-117190409D01*
X129411428Y-117188242D01*
X129415714Y-117186330D01*
X129420082Y-117184673D01*
X129424533Y-117183271D01*
X129429067Y-117182124D01*
X129433684Y-117181232D01*
X129438383Y-117180594D01*
X129443165Y-117180212D01*
X129448030Y-117180084D01*
X129453319Y-117180206D01*
X129458492Y-117180570D01*
X129463550Y-117181177D01*
X129468493Y-117182027D01*
X129473320Y-117183120D01*
X129478032Y-117184456D01*
X129482629Y-117186035D01*
X129487110Y-117187856D01*
X129491476Y-117189921D01*
X129495726Y-117192228D01*
X129499861Y-117194779D01*
X129503881Y-117197572D01*
X129507785Y-117200608D01*
X129511574Y-117203887D01*
X129515247Y-117207409D01*
X129518805Y-117211173D01*
X129522196Y-117215138D01*
X129525368Y-117219314D01*
X129528321Y-117223702D01*
X129531056Y-117228302D01*
X129533572Y-117233114D01*
X129535869Y-117238138D01*
X129537947Y-117243374D01*
X129539807Y-117248821D01*
X129541448Y-117254481D01*
X129542870Y-117260352D01*
X129544073Y-117266435D01*
X129545058Y-117272730D01*
X129545823Y-117279237D01*
X129546370Y-117285955D01*
X129546698Y-117292886D01*
X129546808Y-117300028D01*
X129546696Y-117307417D01*
X129546360Y-117314590D01*
X129545800Y-117321549D01*
X129545016Y-117328291D01*
X129544008Y-117334819D01*
X129542777Y-117341131D01*
X129541321Y-117347228D01*
X129539641Y-117353110D01*
X129537738Y-117358776D01*
X129535611Y-117364227D01*
X129533259Y-117369463D01*
X129530684Y-117374483D01*
X129527885Y-117379288D01*
X129524862Y-117383878D01*
X129521615Y-117388252D01*
X129518144Y-117392411D01*
X129514541Y-117396336D01*
X129510841Y-117400008D01*
X129507044Y-117403426D01*
X129503151Y-117406591D01*
X129499162Y-117409503D01*
X129495076Y-117412162D01*
X129490893Y-117414568D01*
X129486615Y-117416720D01*
X129482239Y-117418619D01*
X129477768Y-117420265D01*
X129473200Y-117421658D01*
X129468535Y-117422797D01*
X129463774Y-117423684D01*
X129458917Y-117424317D01*
X129453963Y-117424697D01*
X129448912Y-117424823D01*
X129446406Y-117424784D01*
X129443903Y-117424668D01*
X129441403Y-117424474D01*
X129438907Y-117424203D01*
X129436415Y-117423854D01*
X129433926Y-117423428D01*
X129431440Y-117422924D01*
X129428958Y-117422343D01*
X129426479Y-117421684D01*
X129424004Y-117420948D01*
X129421532Y-117420134D01*
X129419063Y-117419242D01*
X129416599Y-117418273D01*
X129414137Y-117417227D01*
X129411679Y-117416103D01*
X129409225Y-117414901D01*
X129406820Y-117413597D01*
X129404456Y-117412218D01*
X129402134Y-117410765D01*
X129399853Y-117409238D01*
X129397614Y-117407637D01*
X129395416Y-117405962D01*
X129393259Y-117404213D01*
X129391144Y-117402390D01*
X129389070Y-117400492D01*
X129387037Y-117398521D01*
X129385046Y-117396475D01*
X129383096Y-117394356D01*
X129381187Y-117392162D01*
X129379320Y-117389894D01*
X129377494Y-117387552D01*
X129375709Y-117385136D01*
X129375709Y-117419531D01*
X129318163Y-117419531D01*
X129318163Y-117297383D01*
X129379678Y-117297383D01*
X129379722Y-117301856D01*
X129379857Y-117306182D01*
X129380081Y-117310359D01*
X129380394Y-117314388D01*
X129380797Y-117318268D01*
X129381290Y-117322001D01*
X129381872Y-117325586D01*
X129382544Y-117329022D01*
X129383306Y-117332310D01*
X129384157Y-117335451D01*
X129385097Y-117338443D01*
X129386127Y-117341287D01*
X129387247Y-117343983D01*
X129388456Y-117346530D01*
X129389755Y-117348930D01*
X129391144Y-117351182D01*
X129393197Y-117354172D01*
X129395333Y-117356969D01*
X129397552Y-117359574D01*
X129399853Y-117361985D01*
X129402237Y-117364204D01*
X129403460Y-117365241D01*
X129404704Y-117366229D01*
X129405968Y-117367170D01*
X129407253Y-117368062D01*
X129408559Y-117368906D01*
X129409885Y-117369702D01*
X129411232Y-117370450D01*
X129412600Y-117371149D01*
X129413988Y-117371800D01*
X129415397Y-117372403D01*
X129416827Y-117372958D01*
X129418277Y-117373464D01*
X129419748Y-117373922D01*
X129421240Y-117374332D01*
X129422752Y-117374694D01*
X129424286Y-117375007D01*
X129425839Y-117375273D01*
X129427414Y-117375490D01*
X129430625Y-117375779D01*
X129433918Y-117375875D01*
X129436457Y-117375807D01*
X129438948Y-117375603D01*
X129441391Y-117375263D01*
X129443785Y-117374787D01*
X129446131Y-117374175D01*
X129448429Y-117373426D01*
X129450678Y-117372542D01*
X129452880Y-117371521D01*
X129455033Y-117370364D01*
X129457138Y-117369072D01*
X129459195Y-117367643D01*
X129461204Y-117366078D01*
X129463164Y-117364377D01*
X129465076Y-117362540D01*
X129466940Y-117360567D01*
X129468756Y-117358457D01*
X129470518Y-117356174D01*
X129472167Y-117353734D01*
X129473701Y-117351137D01*
X129475122Y-117348383D01*
X129476430Y-117345473D01*
X129477623Y-117342406D01*
X129478704Y-117339182D01*
X129479670Y-117335801D01*
X129480523Y-117332264D01*
X129481262Y-117328570D01*
X129481887Y-117324719D01*
X129482398Y-117320712D01*
X129482796Y-117316548D01*
X129483081Y-117312227D01*
X129483251Y-117307749D01*
X129483308Y-117303114D01*
X129483251Y-117298186D01*
X129483081Y-117293434D01*
X129482796Y-117288857D01*
X129482398Y-117284457D01*
X129481887Y-117280231D01*
X129481262Y-117276182D01*
X129480523Y-117272308D01*
X129479670Y-117268609D01*
X129478704Y-117265087D01*
X129477623Y-117261740D01*
X129476430Y-117258569D01*
X129475122Y-117255573D01*
X129473701Y-117252753D01*
X129472167Y-117250109D01*
X129470518Y-117247641D01*
X129468756Y-117245348D01*
X129466905Y-117243186D01*
X129464991Y-117241163D01*
X129463012Y-117239279D01*
X129460970Y-117237535D01*
X129458864Y-117235931D01*
X129456695Y-117234466D01*
X129454461Y-117233140D01*
X129452164Y-117231954D01*
X129449803Y-117230908D01*
X129447379Y-117230001D01*
X129444890Y-117229233D01*
X129442338Y-117228605D01*
X129439723Y-117228117D01*
X129437043Y-117227768D01*
X129434300Y-117227559D01*
X129431493Y-117227489D01*
X129428739Y-117227557D01*
X129426043Y-117227761D01*
X129423406Y-117228102D01*
X129420827Y-117228578D01*
X129418307Y-117229190D01*
X129415846Y-117229938D01*
X129413443Y-117230823D01*
X129411098Y-117231843D01*
X129408812Y-117233000D01*
X129406585Y-117234293D01*
X129404416Y-117235721D01*
X129402306Y-117237286D01*
X129400254Y-117238987D01*
X129398261Y-117240824D01*
X129396327Y-117242797D01*
X129394451Y-117244906D01*
X129392662Y-117247127D01*
X129390989Y-117249488D01*
X129389431Y-117251991D01*
X129387988Y-117254636D01*
X129386661Y-117257421D01*
X129385449Y-117260348D01*
X129384352Y-117263416D01*
X129383371Y-117266625D01*
X129382506Y-117269975D01*
X129381755Y-117273467D01*
X129381121Y-117277100D01*
X129380601Y-117280874D01*
X129380197Y-117284789D01*
X129379909Y-117288846D01*
X129379735Y-117293044D01*
X129379678Y-117297383D01*
X129318163Y-117297383D01*
X129318163Y-117096299D01*
X129380120Y-117096299D01*
X129380120Y-117212716D01*
G37*
G36*
X131810609Y-117002080D02*
G01*
X131821266Y-117002673D01*
X131832038Y-117003630D01*
X131842884Y-117004939D01*
X131853761Y-117006589D01*
X131864628Y-117008570D01*
X131875443Y-117010871D01*
X131886165Y-117013481D01*
X131896752Y-117016389D01*
X131907161Y-117019584D01*
X131917352Y-117023057D01*
X131927283Y-117026795D01*
X131936911Y-117030788D01*
X131946196Y-117035026D01*
X131955096Y-117039498D01*
X131963568Y-117044192D01*
X131972971Y-117049901D01*
X131982079Y-117055894D01*
X131990891Y-117062166D01*
X131999404Y-117068715D01*
X132007616Y-117075534D01*
X132015526Y-117082622D01*
X132023132Y-117089974D01*
X132030432Y-117097586D01*
X132037424Y-117105454D01*
X132044106Y-117113574D01*
X132050477Y-117121943D01*
X132056534Y-117130556D01*
X132062276Y-117139410D01*
X132067700Y-117148500D01*
X132072806Y-117157824D01*
X132077591Y-117167376D01*
X132082052Y-117177153D01*
X132086190Y-117187151D01*
X132090000Y-117197366D01*
X132093483Y-117207794D01*
X132096635Y-117218432D01*
X132099455Y-117229275D01*
X132101941Y-117240320D01*
X132104092Y-117251562D01*
X132105904Y-117262998D01*
X132107378Y-117274624D01*
X132108510Y-117286436D01*
X132109298Y-117298429D01*
X132109742Y-117310601D01*
X132109838Y-117322947D01*
X132109586Y-117335463D01*
X132108983Y-117348146D01*
X132106751Y-117372731D01*
X132103126Y-117396423D01*
X132098126Y-117419193D01*
X132091771Y-117441013D01*
X132084082Y-117461855D01*
X132075077Y-117481691D01*
X132064777Y-117500493D01*
X132053202Y-117518233D01*
X132040371Y-117534883D01*
X132026304Y-117550415D01*
X132011021Y-117564800D01*
X131994542Y-117578011D01*
X131976885Y-117590019D01*
X131958072Y-117600797D01*
X131938122Y-117610317D01*
X131917054Y-117618550D01*
X131908008Y-117621540D01*
X131898615Y-117624297D01*
X131888913Y-117626816D01*
X131878939Y-117629094D01*
X131868732Y-117631127D01*
X131858329Y-117632911D01*
X131847767Y-117634441D01*
X131837084Y-117635715D01*
X131826318Y-117636727D01*
X131815507Y-117637474D01*
X131804688Y-117637953D01*
X131793899Y-117638158D01*
X131783178Y-117638087D01*
X131772562Y-117637735D01*
X131762088Y-117637098D01*
X131751796Y-117636172D01*
X131751744Y-117636170D01*
X131744553Y-117635319D01*
X131737263Y-117634278D01*
X131729899Y-117633056D01*
X131722485Y-117631658D01*
X131707604Y-117628363D01*
X131692815Y-117624448D01*
X131678310Y-117619968D01*
X131664285Y-117614976D01*
X131657513Y-117612306D01*
X131650933Y-117609529D01*
X131644571Y-117606651D01*
X131638450Y-117603679D01*
X131623919Y-117595838D01*
X131609964Y-117587232D01*
X131596605Y-117577886D01*
X131583860Y-117567826D01*
X131571747Y-117557076D01*
X131560285Y-117545660D01*
X131549493Y-117533604D01*
X131539390Y-117520931D01*
X131529993Y-117507666D01*
X131521322Y-117493835D01*
X131513395Y-117479461D01*
X131506231Y-117464570D01*
X131499848Y-117449186D01*
X131494265Y-117433333D01*
X131489501Y-117417037D01*
X131485574Y-117400321D01*
X131483881Y-117391374D01*
X131482284Y-117381516D01*
X131480821Y-117371102D01*
X131479535Y-117360488D01*
X131478464Y-117350027D01*
X131477649Y-117340075D01*
X131477131Y-117330986D01*
X131476949Y-117323115D01*
X131476949Y-117310415D01*
X131612892Y-117310415D01*
X131612892Y-117324967D01*
X131612953Y-117328894D01*
X131613131Y-117333069D01*
X131613815Y-117342004D01*
X131614893Y-117351462D01*
X131616312Y-117361130D01*
X131618021Y-117370696D01*
X131619969Y-117379848D01*
X131622104Y-117388275D01*
X131623226Y-117392119D01*
X131624375Y-117395664D01*
X131627334Y-117403769D01*
X131630537Y-117411553D01*
X131633987Y-117419021D01*
X131637687Y-117426176D01*
X131641638Y-117433019D01*
X131645843Y-117439554D01*
X131650305Y-117445783D01*
X131655026Y-117451711D01*
X131660009Y-117457338D01*
X131665257Y-117462669D01*
X131670770Y-117467707D01*
X131676553Y-117472453D01*
X131682608Y-117476911D01*
X131688937Y-117481084D01*
X131695542Y-117484975D01*
X131702427Y-117488587D01*
X131707033Y-117490795D01*
X131711614Y-117492857D01*
X131716181Y-117494777D01*
X131720748Y-117496558D01*
X131725327Y-117498203D01*
X131729931Y-117499714D01*
X131734572Y-117501096D01*
X131739263Y-117502351D01*
X131744017Y-117503483D01*
X131748846Y-117504495D01*
X131753763Y-117505389D01*
X131758780Y-117506170D01*
X131763911Y-117506840D01*
X131769167Y-117507403D01*
X131774562Y-117507861D01*
X131780107Y-117508218D01*
X131792551Y-117508592D01*
X131804765Y-117508350D01*
X131816723Y-117507503D01*
X131828401Y-117506061D01*
X131839775Y-117504033D01*
X131850819Y-117501429D01*
X131861508Y-117498259D01*
X131871819Y-117494533D01*
X131881726Y-117490260D01*
X131891204Y-117485451D01*
X131900230Y-117480116D01*
X131908777Y-117474264D01*
X131916822Y-117467904D01*
X131924340Y-117461048D01*
X131931305Y-117453704D01*
X131937694Y-117445883D01*
X131940109Y-117442586D01*
X131942507Y-117439098D01*
X131944878Y-117435438D01*
X131947215Y-117431623D01*
X131949508Y-117427673D01*
X131951748Y-117423605D01*
X131953927Y-117419438D01*
X131956036Y-117415191D01*
X131958067Y-117410882D01*
X131960009Y-117406529D01*
X131961856Y-117402151D01*
X131963598Y-117397766D01*
X131965225Y-117393393D01*
X131966731Y-117389051D01*
X131968104Y-117384757D01*
X131969338Y-117380530D01*
X131970081Y-117377774D01*
X131970743Y-117375142D01*
X131971330Y-117372580D01*
X131971846Y-117370031D01*
X131972295Y-117367439D01*
X131972682Y-117364749D01*
X131973011Y-117361903D01*
X131973287Y-117358847D01*
X131973513Y-117355525D01*
X131973696Y-117351879D01*
X131973838Y-117347856D01*
X131973944Y-117343397D01*
X131974067Y-117332953D01*
X131974100Y-117320099D01*
X131973955Y-117303197D01*
X131973751Y-117295782D01*
X131973442Y-117288955D01*
X131973012Y-117282640D01*
X131972448Y-117276761D01*
X131971735Y-117271242D01*
X131970859Y-117266006D01*
X131969805Y-117260977D01*
X131968560Y-117256079D01*
X131967109Y-117251236D01*
X131965438Y-117246371D01*
X131963532Y-117241407D01*
X131961378Y-117236270D01*
X131956266Y-117225167D01*
X131953184Y-117219006D01*
X131949984Y-117213115D01*
X131946655Y-117207485D01*
X131943187Y-117202103D01*
X131939569Y-117196960D01*
X131935790Y-117192045D01*
X131931841Y-117187346D01*
X131927711Y-117182854D01*
X131923389Y-117178557D01*
X131918865Y-117174445D01*
X131914129Y-117170506D01*
X131909169Y-117166730D01*
X131903976Y-117163107D01*
X131898540Y-117159625D01*
X131892848Y-117156274D01*
X131886892Y-117153042D01*
X131882744Y-117150940D01*
X131878600Y-117148975D01*
X131874441Y-117147142D01*
X131870247Y-117145436D01*
X131865996Y-117143851D01*
X131861669Y-117142383D01*
X131857247Y-117141026D01*
X131852708Y-117139774D01*
X131848033Y-117138623D01*
X131843201Y-117137567D01*
X131838192Y-117136601D01*
X131832986Y-117135719D01*
X131827564Y-117134917D01*
X131821904Y-117134189D01*
X131815987Y-117133529D01*
X131809792Y-117132934D01*
X131781217Y-117130394D01*
X131781217Y-117001859D01*
X131800109Y-117001859D01*
X131810609Y-117002080D01*
G37*
G36*
X130317912Y-117001971D02*
G01*
X130325535Y-117002307D01*
X130333384Y-117002858D01*
X130341416Y-117003614D01*
X130357853Y-117005711D01*
X130374496Y-117008531D01*
X130390995Y-117012009D01*
X130407000Y-117016077D01*
X130414708Y-117018312D01*
X130422162Y-117020670D01*
X130429317Y-117023143D01*
X130436130Y-117025722D01*
X130448211Y-117030837D01*
X130460013Y-117036489D01*
X130471521Y-117042664D01*
X130482718Y-117049346D01*
X130493588Y-117056521D01*
X130504114Y-117064174D01*
X130514281Y-117072290D01*
X130524071Y-117080854D01*
X130533469Y-117089852D01*
X130542458Y-117099268D01*
X130551022Y-117109089D01*
X130559144Y-117119298D01*
X130566809Y-117129882D01*
X130573998Y-117140824D01*
X130580698Y-117152112D01*
X130586890Y-117163729D01*
X130590863Y-117172160D01*
X130594835Y-117181584D01*
X130598728Y-117191774D01*
X130602467Y-117202504D01*
X130605975Y-117213546D01*
X130609176Y-117224674D01*
X130611994Y-117235661D01*
X130614353Y-117246279D01*
X130615795Y-117253770D01*
X130616929Y-117260696D01*
X130617391Y-117264119D01*
X130617789Y-117267607D01*
X130618126Y-117271229D01*
X130618408Y-117275053D01*
X130618639Y-117279149D01*
X130618822Y-117283586D01*
X130619064Y-117293756D01*
X130619168Y-117306114D01*
X130619169Y-117321210D01*
X130618832Y-117344479D01*
X130618422Y-117355141D01*
X130617834Y-117365246D01*
X130617056Y-117374864D01*
X130616075Y-117384063D01*
X130614878Y-117392913D01*
X130613453Y-117401484D01*
X130611788Y-117409843D01*
X130609870Y-117418061D01*
X130607685Y-117426206D01*
X130605223Y-117434348D01*
X130602470Y-117442556D01*
X130599413Y-117450898D01*
X130596040Y-117459445D01*
X130592339Y-117468264D01*
X130588828Y-117475999D01*
X130584975Y-117483728D01*
X130580798Y-117491429D01*
X130576318Y-117499076D01*
X130571551Y-117506646D01*
X130566518Y-117514115D01*
X130561238Y-117521460D01*
X130555728Y-117528656D01*
X130550007Y-117535680D01*
X130544096Y-117542508D01*
X130538012Y-117549115D01*
X130531774Y-117555478D01*
X130525401Y-117561574D01*
X130518913Y-117567377D01*
X130512327Y-117572866D01*
X130505663Y-117578014D01*
X130498995Y-117582778D01*
X130492025Y-117587399D01*
X130484774Y-117591868D01*
X130477261Y-117596176D01*
X130469508Y-117600316D01*
X130461536Y-117604277D01*
X130453367Y-117608051D01*
X130445020Y-117611630D01*
X130436516Y-117615003D01*
X130427878Y-117618163D01*
X130419125Y-117621101D01*
X130410278Y-117623808D01*
X130401359Y-117626275D01*
X130392389Y-117628493D01*
X130383387Y-117630453D01*
X130374376Y-117632147D01*
X130362312Y-117633887D01*
X130348219Y-117635320D01*
X130332801Y-117636422D01*
X130316763Y-117637168D01*
X130300810Y-117637535D01*
X130285645Y-117637498D01*
X130271973Y-117637033D01*
X130260499Y-117636116D01*
X130260447Y-117636116D01*
X130250819Y-117634881D01*
X130241213Y-117633362D01*
X130231642Y-117631563D01*
X130222120Y-117629490D01*
X130212658Y-117627147D01*
X130203272Y-117624539D01*
X130193973Y-117621671D01*
X130184775Y-117618548D01*
X130175691Y-117615174D01*
X130166735Y-117611555D01*
X130157919Y-117607694D01*
X130149256Y-117603598D01*
X130140761Y-117599270D01*
X130132446Y-117594715D01*
X130124323Y-117589939D01*
X130116407Y-117584946D01*
X130112486Y-117582224D01*
X130108148Y-117578925D01*
X130103464Y-117575118D01*
X130098503Y-117570874D01*
X130093335Y-117566261D01*
X130088028Y-117561350D01*
X130077275Y-117550908D01*
X130066801Y-117540103D01*
X130061841Y-117534739D01*
X130057159Y-117529493D01*
X130052823Y-117524434D01*
X130048903Y-117519631D01*
X130045469Y-117515155D01*
X130042589Y-117511074D01*
X130038930Y-117505469D01*
X130035393Y-117499784D01*
X130031980Y-117494022D01*
X130028691Y-117488183D01*
X130025525Y-117482268D01*
X130022483Y-117476277D01*
X130019565Y-117470211D01*
X130016772Y-117464071D01*
X130014103Y-117457859D01*
X130011559Y-117451573D01*
X130009141Y-117445217D01*
X130006847Y-117438789D01*
X130004679Y-117432291D01*
X130002637Y-117425724D01*
X130000721Y-117419089D01*
X129998932Y-117412385D01*
X129996851Y-117403319D01*
X129994854Y-117392896D01*
X129993001Y-117381575D01*
X129991352Y-117369815D01*
X129989965Y-117358074D01*
X129988901Y-117346812D01*
X129988219Y-117336488D01*
X129987978Y-117327560D01*
X129987978Y-117310415D01*
X130123286Y-117310415D01*
X130124557Y-117335763D01*
X130125546Y-117349108D01*
X130127181Y-117362009D01*
X130129452Y-117374452D01*
X130132354Y-117386424D01*
X130135877Y-117397913D01*
X130140014Y-117408905D01*
X130144759Y-117419387D01*
X130150102Y-117429346D01*
X130156037Y-117438770D01*
X130162557Y-117447644D01*
X130169652Y-117455957D01*
X130177316Y-117463695D01*
X130185542Y-117470845D01*
X130194321Y-117477395D01*
X130203646Y-117483330D01*
X130213509Y-117488638D01*
X130218125Y-117490846D01*
X130222714Y-117492909D01*
X130227288Y-117494829D01*
X130231861Y-117496609D01*
X130236444Y-117498253D01*
X130241051Y-117499763D01*
X130245694Y-117501143D01*
X130250386Y-117502397D01*
X130255139Y-117503526D01*
X130259966Y-117504534D01*
X130264880Y-117505424D01*
X130269893Y-117506200D01*
X130275018Y-117506864D01*
X130280268Y-117507419D01*
X130285655Y-117507869D01*
X130291191Y-117508217D01*
X130309061Y-117508575D01*
X130326277Y-117507701D01*
X130342804Y-117505615D01*
X130358613Y-117502341D01*
X130373669Y-117497900D01*
X130380905Y-117495249D01*
X130387941Y-117492314D01*
X130394773Y-117489099D01*
X130401397Y-117485606D01*
X130407809Y-117481838D01*
X130414004Y-117477797D01*
X130419979Y-117473487D01*
X130425730Y-117468910D01*
X130431252Y-117464069D01*
X130436542Y-117458966D01*
X130441595Y-117453605D01*
X130446408Y-117447989D01*
X130450977Y-117442119D01*
X130455296Y-117435999D01*
X130459364Y-117429631D01*
X130463174Y-117423019D01*
X130466724Y-117416165D01*
X130470009Y-117409071D01*
X130473025Y-117401741D01*
X130475769Y-117394177D01*
X130480421Y-117378360D01*
X130481831Y-117372462D01*
X130482423Y-117369676D01*
X130482946Y-117366935D01*
X130483403Y-117364190D01*
X130483799Y-117361395D01*
X130484137Y-117358501D01*
X130484423Y-117355460D01*
X130484660Y-117352224D01*
X130484851Y-117348746D01*
X130485117Y-117340869D01*
X130485252Y-117331448D01*
X130485289Y-117320098D01*
X130485249Y-117308748D01*
X130485110Y-117299331D01*
X130484840Y-117291465D01*
X130484409Y-117284770D01*
X130483788Y-117278867D01*
X130482945Y-117273374D01*
X130481850Y-117267913D01*
X130480474Y-117262102D01*
X130477843Y-117252591D01*
X130474833Y-117243410D01*
X130471448Y-117234562D01*
X130467691Y-117226051D01*
X130463565Y-117217882D01*
X130459074Y-117210059D01*
X130454221Y-117202585D01*
X130449009Y-117195467D01*
X130443442Y-117188706D01*
X130437522Y-117182308D01*
X130431255Y-117176277D01*
X130424641Y-117170617D01*
X130417686Y-117165332D01*
X130410392Y-117160427D01*
X130402763Y-117155905D01*
X130394802Y-117151770D01*
X130390233Y-117149597D01*
X130385879Y-117147614D01*
X130381692Y-117145809D01*
X130377626Y-117144169D01*
X130373632Y-117142683D01*
X130369663Y-117141338D01*
X130365672Y-117140123D01*
X130361610Y-117139024D01*
X130357431Y-117138030D01*
X130353086Y-117137129D01*
X130348528Y-117136308D01*
X130343709Y-117135555D01*
X130338583Y-117134859D01*
X130333100Y-117134207D01*
X130320878Y-117132985D01*
X130292303Y-117130392D01*
X130292303Y-117001857D01*
X130310559Y-117001857D01*
X130317912Y-117001971D01*
G37*
G36*
X132795579Y-117162456D02*
G01*
X132815576Y-117163046D01*
X132834313Y-117163720D01*
X132849677Y-117164384D01*
X132859554Y-117164944D01*
X132864486Y-117165337D01*
X132866515Y-117165529D01*
X132868280Y-117165729D01*
X132869802Y-117165946D01*
X132871103Y-117166189D01*
X132872202Y-117166465D01*
X132873121Y-117166783D01*
X132873881Y-117167152D01*
X132874502Y-117167581D01*
X132874767Y-117167820D01*
X132875006Y-117168077D01*
X132875412Y-117168650D01*
X132875743Y-117169308D01*
X132876019Y-117170059D01*
X132876260Y-117170913D01*
X132876488Y-117171876D01*
X132878204Y-117179327D01*
X132879028Y-117182581D01*
X132879847Y-117185557D01*
X132880673Y-117188283D01*
X132881519Y-117190787D01*
X132882397Y-117193096D01*
X132883320Y-117195239D01*
X132884301Y-117197243D01*
X132885353Y-117199136D01*
X132886487Y-117200945D01*
X132887717Y-117202698D01*
X132889055Y-117204424D01*
X132890514Y-117206150D01*
X132892106Y-117207903D01*
X132893845Y-117209711D01*
X132896970Y-117212682D01*
X132900428Y-117215590D01*
X132904240Y-117218445D01*
X132908428Y-117221255D01*
X132913014Y-117224031D01*
X132918021Y-117226783D01*
X132923471Y-117229521D01*
X132929385Y-117232253D01*
X132935786Y-117234991D01*
X132942696Y-117237743D01*
X132950137Y-117240520D01*
X132958131Y-117243331D01*
X132966701Y-117246186D01*
X132975867Y-117249095D01*
X132985653Y-117252068D01*
X132996080Y-117255114D01*
X133036899Y-117266957D01*
X133065936Y-117275758D01*
X133077377Y-117279439D01*
X133087482Y-117282863D01*
X133105829Y-117289616D01*
X133121770Y-117296198D01*
X133136639Y-117303213D01*
X133150441Y-117310668D01*
X133163185Y-117318573D01*
X133174878Y-117326935D01*
X133185526Y-117335765D01*
X133190461Y-117340358D01*
X133195137Y-117345071D01*
X133199556Y-117349905D01*
X133203719Y-117354862D01*
X133207625Y-117359942D01*
X133211277Y-117365146D01*
X133214676Y-117370476D01*
X133217821Y-117375933D01*
X133220714Y-117381517D01*
X133223356Y-117387231D01*
X133225748Y-117393074D01*
X133227890Y-117399049D01*
X133229785Y-117405155D01*
X133231431Y-117411396D01*
X133232831Y-117417770D01*
X133233985Y-117424280D01*
X133235560Y-117437711D01*
X133236162Y-117451698D01*
X133236098Y-117461106D01*
X133235952Y-117465515D01*
X133235726Y-117469757D01*
X133235415Y-117473852D01*
X133235016Y-117477822D01*
X133234526Y-117481689D01*
X133233940Y-117485473D01*
X133233254Y-117489197D01*
X133232466Y-117492881D01*
X133231571Y-117496547D01*
X133230566Y-117500217D01*
X133229447Y-117503912D01*
X133228210Y-117507652D01*
X133226851Y-117511461D01*
X133225367Y-117515358D01*
X133223054Y-117520928D01*
X133220522Y-117526395D01*
X133217774Y-117531757D01*
X133214813Y-117537012D01*
X133211641Y-117542158D01*
X133208261Y-117547193D01*
X133204676Y-117552116D01*
X133200888Y-117556925D01*
X133196902Y-117561617D01*
X133192718Y-117566190D01*
X133188341Y-117570643D01*
X133183772Y-117574974D01*
X133179015Y-117579180D01*
X133174072Y-117583260D01*
X133168946Y-117587213D01*
X133163640Y-117591035D01*
X133158157Y-117594725D01*
X133152499Y-117598282D01*
X133140671Y-117604986D01*
X133128177Y-117611131D01*
X133115041Y-117616702D01*
X133101284Y-117621684D01*
X133086928Y-117626061D01*
X133071996Y-117629817D01*
X133056510Y-117632938D01*
X133046077Y-117634405D01*
X133033239Y-117635616D01*
X133018783Y-117636546D01*
X133003494Y-117637172D01*
X132988159Y-117637470D01*
X132973561Y-117637418D01*
X132960488Y-117636992D01*
X132949725Y-117636167D01*
X132949618Y-117636222D01*
X132936885Y-117634631D01*
X132924560Y-117632714D01*
X132912641Y-117630470D01*
X132901128Y-117627899D01*
X132890016Y-117624999D01*
X132879305Y-117621770D01*
X132868993Y-117618211D01*
X132859077Y-117614321D01*
X132849555Y-117610100D01*
X132840426Y-117605546D01*
X132831687Y-117600658D01*
X132823337Y-117595436D01*
X132815373Y-117589879D01*
X132807793Y-117583986D01*
X132800595Y-117577756D01*
X132793778Y-117571188D01*
X132787777Y-117564976D01*
X132785135Y-117562146D01*
X132782699Y-117559454D01*
X132780445Y-117556867D01*
X132778347Y-117554350D01*
X132776382Y-117551870D01*
X132774523Y-117549392D01*
X132772747Y-117546883D01*
X132771029Y-117544307D01*
X132769343Y-117541633D01*
X132767666Y-117538824D01*
X132765973Y-117535848D01*
X132764238Y-117532670D01*
X132760547Y-117525573D01*
X132758040Y-117520361D01*
X132755661Y-117514853D01*
X132753412Y-117509062D01*
X132751295Y-117503000D01*
X132749314Y-117496679D01*
X132747469Y-117490110D01*
X132745765Y-117483307D01*
X132744202Y-117476280D01*
X132742784Y-117469043D01*
X132741513Y-117461607D01*
X132740391Y-117453985D01*
X132739421Y-117446188D01*
X132738605Y-117438228D01*
X132737945Y-117430118D01*
X132737444Y-117421870D01*
X132737104Y-117413495D01*
X132737194Y-117413411D01*
X132737461Y-117413329D01*
X132738506Y-117413167D01*
X132742524Y-117412860D01*
X132748875Y-117412581D01*
X132757279Y-117412338D01*
X132767455Y-117412137D01*
X132779119Y-117411984D01*
X132791992Y-117411888D01*
X132805791Y-117411854D01*
X132874529Y-117411854D01*
X132875799Y-117429899D01*
X132876772Y-117439364D01*
X132877476Y-117443896D01*
X132878326Y-117448296D01*
X132879322Y-117452564D01*
X132880467Y-117456702D01*
X132881759Y-117460710D01*
X132883201Y-117464589D01*
X132884793Y-117468340D01*
X132886536Y-117471964D01*
X132888431Y-117475462D01*
X132890478Y-117478834D01*
X132892678Y-117482081D01*
X132895033Y-117485205D01*
X132897542Y-117488206D01*
X132900207Y-117491084D01*
X132903029Y-117493842D01*
X132906008Y-117496478D01*
X132909146Y-117498996D01*
X132912442Y-117501395D01*
X132915899Y-117503676D01*
X132919515Y-117505840D01*
X132923294Y-117507887D01*
X132927235Y-117509820D01*
X132931338Y-117511638D01*
X132935606Y-117513343D01*
X132944636Y-117516415D01*
X132954332Y-117519042D01*
X132964700Y-117521233D01*
X132972511Y-117522431D01*
X132980548Y-117523197D01*
X132988749Y-117523544D01*
X132997057Y-117523483D01*
X133005412Y-117523028D01*
X133013754Y-117522192D01*
X133022025Y-117520988D01*
X133030164Y-117519428D01*
X133038113Y-117517524D01*
X133045813Y-117515291D01*
X133053203Y-117512740D01*
X133060225Y-117509885D01*
X133066820Y-117506738D01*
X133072927Y-117503312D01*
X133078489Y-117499620D01*
X133083445Y-117495674D01*
X133084943Y-117494302D01*
X133086381Y-117492865D01*
X133087759Y-117491368D01*
X133089076Y-117489812D01*
X133090331Y-117488199D01*
X133091523Y-117486534D01*
X133093718Y-117483054D01*
X133095655Y-117479392D01*
X133097329Y-117475571D01*
X133098735Y-117471612D01*
X133099868Y-117467536D01*
X133100723Y-117463364D01*
X133101294Y-117459118D01*
X133101576Y-117454820D01*
X133101564Y-117450490D01*
X133101253Y-117446150D01*
X133100638Y-117441822D01*
X133099713Y-117437526D01*
X133099132Y-117435398D01*
X133098473Y-117433285D01*
X133097554Y-117430815D01*
X133096430Y-117428311D01*
X133095111Y-117425787D01*
X133093607Y-117423251D01*
X133091928Y-117420715D01*
X133090083Y-117418190D01*
X133088084Y-117415687D01*
X133085938Y-117413216D01*
X133083657Y-117410789D01*
X133081250Y-117408416D01*
X133078726Y-117406108D01*
X133076097Y-117403876D01*
X133073371Y-117401731D01*
X133070558Y-117399684D01*
X133067669Y-117397745D01*
X133064713Y-117395925D01*
X133061911Y-117394395D01*
X133058449Y-117392695D01*
X133049801Y-117388880D01*
X133039282Y-117384665D01*
X133027407Y-117380236D01*
X133014688Y-117375777D01*
X133001640Y-117371474D01*
X132988775Y-117367509D01*
X132976608Y-117364070D01*
X132945767Y-117355448D01*
X132915230Y-117346250D01*
X132901149Y-117341770D01*
X132888433Y-117337548D01*
X132877512Y-117333718D01*
X132868815Y-117330414D01*
X132858699Y-117326168D01*
X132849100Y-117321797D01*
X132840008Y-117317293D01*
X132831412Y-117312646D01*
X132823300Y-117307847D01*
X132815662Y-117302886D01*
X132808487Y-117297756D01*
X132801763Y-117292446D01*
X132795481Y-117286948D01*
X132789628Y-117281252D01*
X132784194Y-117275350D01*
X132779169Y-117269231D01*
X132774540Y-117262887D01*
X132770298Y-117256310D01*
X132766431Y-117249488D01*
X132762928Y-117242415D01*
X132759491Y-117234701D01*
X132758007Y-117231119D01*
X132756669Y-117227669D01*
X132755466Y-117224312D01*
X132754389Y-117221011D01*
X132753429Y-117217727D01*
X132752577Y-117214421D01*
X132751824Y-117211056D01*
X132751160Y-117207594D01*
X132750576Y-117203995D01*
X132750063Y-117200222D01*
X132749612Y-117196236D01*
X132749213Y-117191999D01*
X132748536Y-117182619D01*
X132747213Y-117161187D01*
X132795579Y-117162456D01*
G37*
G36*
X121283079Y-114816361D02*
G01*
X121297274Y-114816739D01*
X121311872Y-114817367D01*
X121326871Y-114818245D01*
X121342273Y-114819371D01*
X121358076Y-114820744D01*
X121374281Y-114822362D01*
X121390887Y-114824225D01*
X121407742Y-114826428D01*
X121424693Y-114829028D01*
X121441740Y-114832026D01*
X121458885Y-114835423D01*
X121476130Y-114839219D01*
X121493474Y-114843416D01*
X121510921Y-114848013D01*
X121528470Y-114853011D01*
X121546054Y-114858526D01*
X121563643Y-114864632D01*
X121581237Y-114871333D01*
X121598836Y-114878629D01*
X121616440Y-114886524D01*
X121634049Y-114895018D01*
X121651663Y-114904114D01*
X121669282Y-114913812D01*
X121678061Y-114918919D01*
X121686818Y-114924238D01*
X121695552Y-114929769D01*
X121704263Y-114935512D01*
X121712950Y-114941468D01*
X121721613Y-114947636D01*
X121738867Y-114960611D01*
X121756022Y-114974436D01*
X121773075Y-114989112D01*
X121790023Y-115004641D01*
X121806865Y-115021022D01*
X121826351Y-115041935D01*
X121844844Y-115063042D01*
X121862342Y-115084346D01*
X121870718Y-115095072D01*
X121878845Y-115105847D01*
X121886722Y-115116672D01*
X121894350Y-115127547D01*
X121901728Y-115138471D01*
X121908857Y-115149446D01*
X121915735Y-115160470D01*
X121922364Y-115171546D01*
X121928742Y-115182671D01*
X121934870Y-115193848D01*
X121946499Y-115216375D01*
X121957374Y-115239152D01*
X121967499Y-115262177D01*
X121976873Y-115285453D01*
X121985497Y-115308979D01*
X121993374Y-115332756D01*
X122000505Y-115356786D01*
X122006890Y-115381067D01*
X122012607Y-115405599D01*
X122017775Y-115430379D01*
X122022393Y-115455407D01*
X122026462Y-115480683D01*
X122029983Y-115506207D01*
X122032957Y-115531979D01*
X122035384Y-115557999D01*
X122037264Y-115584267D01*
X122040050Y-115637259D01*
X122042053Y-115690662D01*
X122043261Y-115744473D01*
X122043666Y-115798684D01*
X120942895Y-115798684D01*
X120942957Y-115803921D01*
X120943143Y-115809234D01*
X120943454Y-115814622D01*
X120943889Y-115820085D01*
X120945133Y-115831238D01*
X120946877Y-115842691D01*
X120949122Y-115854445D01*
X120951869Y-115866498D01*
X120955120Y-115878850D01*
X120958876Y-115891500D01*
X120960964Y-115897875D01*
X120963241Y-115904200D01*
X120965706Y-115910476D01*
X120968360Y-115916701D01*
X120971202Y-115922877D01*
X120974232Y-115929002D01*
X120977450Y-115935078D01*
X120980856Y-115941103D01*
X120984450Y-115947078D01*
X120988231Y-115953003D01*
X120992201Y-115958878D01*
X120996358Y-115964702D01*
X121000703Y-115970475D01*
X121005235Y-115976198D01*
X121009954Y-115981870D01*
X121014861Y-115987492D01*
X121019974Y-115993040D01*
X121025312Y-115998475D01*
X121030874Y-116003796D01*
X121036661Y-116009003D01*
X121042672Y-116014097D01*
X121048909Y-116019078D01*
X121055370Y-116023945D01*
X121062056Y-116028700D01*
X121068968Y-116033341D01*
X121076105Y-116037870D01*
X121083467Y-116042287D01*
X121091054Y-116046591D01*
X121098867Y-116050782D01*
X121106905Y-116054862D01*
X121115168Y-116058830D01*
X121123658Y-116062686D01*
X121132407Y-116066375D01*
X121141470Y-116069825D01*
X121150847Y-116073034D01*
X121160537Y-116076004D01*
X121170540Y-116078734D01*
X121180857Y-116081226D01*
X121191488Y-116083478D01*
X121202431Y-116085492D01*
X121213688Y-116087268D01*
X121225258Y-116088807D01*
X121237140Y-116090107D01*
X121249336Y-116091171D01*
X121261845Y-116091998D01*
X121274666Y-116092588D01*
X121287800Y-116092941D01*
X121301247Y-116093059D01*
X121325659Y-116092685D01*
X121349327Y-116091560D01*
X121372250Y-116089685D01*
X121394426Y-116087060D01*
X121415856Y-116083682D01*
X121436539Y-116079553D01*
X121456473Y-116074670D01*
X121475660Y-116069035D01*
X121494127Y-116062916D01*
X121511945Y-116056544D01*
X121529114Y-116049921D01*
X121545635Y-116043046D01*
X121561509Y-116035921D01*
X121576736Y-116028546D01*
X121591317Y-116020922D01*
X121605253Y-116013050D01*
X121618496Y-116005127D01*
X121631040Y-115997353D01*
X121642886Y-115989728D01*
X121654035Y-115982251D01*
X121664487Y-115974924D01*
X121674242Y-115967746D01*
X121683301Y-115960716D01*
X121691666Y-115953836D01*
X121706260Y-115941355D01*
X121718057Y-115931062D01*
X121727057Y-115922961D01*
X121730507Y-115919735D01*
X121733258Y-115917058D01*
X122002075Y-116179473D01*
X121983552Y-116199497D01*
X121964793Y-116218771D01*
X121945798Y-116237295D01*
X121926567Y-116255068D01*
X121907099Y-116272092D01*
X121887394Y-116288366D01*
X121867452Y-116303889D01*
X121847273Y-116318663D01*
X121826857Y-116332688D01*
X121806203Y-116345962D01*
X121785311Y-116358487D01*
X121764180Y-116370263D01*
X121742811Y-116381289D01*
X121721204Y-116391566D01*
X121699358Y-116401094D01*
X121677272Y-116409872D01*
X121654920Y-116418013D01*
X121632254Y-116425628D01*
X121609275Y-116432718D01*
X121585983Y-116439281D01*
X121562377Y-116445320D01*
X121538458Y-116450833D01*
X121514227Y-116455820D01*
X121489683Y-116460282D01*
X121464826Y-116464219D01*
X121439657Y-116467631D01*
X121414175Y-116470517D01*
X121388382Y-116472879D01*
X121362276Y-116474715D01*
X121335859Y-116476027D01*
X121309131Y-116476814D01*
X121282090Y-116477077D01*
X121224030Y-116475951D01*
X121195864Y-116474543D01*
X121168275Y-116472573D01*
X121141262Y-116470040D01*
X121114824Y-116466944D01*
X121088963Y-116463286D01*
X121063677Y-116459065D01*
X121038966Y-116454282D01*
X121014831Y-116448936D01*
X120991271Y-116443028D01*
X120968286Y-116436558D01*
X120945876Y-116429525D01*
X120924041Y-116421931D01*
X120902780Y-116413775D01*
X120882093Y-116405056D01*
X120861938Y-116395882D01*
X120842269Y-116386358D01*
X120823089Y-116376485D01*
X120804395Y-116366261D01*
X120786189Y-116355687D01*
X120768471Y-116344763D01*
X120751239Y-116333489D01*
X120734496Y-116321865D01*
X120718239Y-116309890D01*
X120702470Y-116297565D01*
X120687189Y-116284889D01*
X120672394Y-116271863D01*
X120658088Y-116258486D01*
X120644268Y-116244758D01*
X120630936Y-116230680D01*
X120618092Y-116216250D01*
X120605703Y-116201536D01*
X120593739Y-116186584D01*
X120582199Y-116171393D01*
X120571084Y-116155965D01*
X120560393Y-116140298D01*
X120550128Y-116124393D01*
X120540287Y-116108250D01*
X120530872Y-116091869D01*
X120521882Y-116075250D01*
X120513318Y-116058392D01*
X120505180Y-116041297D01*
X120497467Y-116023964D01*
X120490180Y-116006392D01*
X120483320Y-115988582D01*
X120476886Y-115970535D01*
X120470878Y-115952249D01*
X120459996Y-115915408D01*
X120450567Y-115878468D01*
X120442590Y-115841426D01*
X120436065Y-115804281D01*
X120430991Y-115767031D01*
X120427368Y-115729677D01*
X120425194Y-115692215D01*
X120424470Y-115654646D01*
X120425194Y-115617190D01*
X120427368Y-115580019D01*
X120430991Y-115543056D01*
X120436065Y-115506221D01*
X120441511Y-115475524D01*
X120942895Y-115475524D01*
X121554083Y-115475524D01*
X121554082Y-115475523D01*
X121553980Y-115471802D01*
X121553677Y-115467030D01*
X121553172Y-115461206D01*
X121552468Y-115454330D01*
X121551565Y-115446403D01*
X121550465Y-115437423D01*
X121547679Y-115416310D01*
X121546782Y-115410490D01*
X121545697Y-115404620D01*
X121544426Y-115398698D01*
X121542967Y-115392726D01*
X121541322Y-115386702D01*
X121539489Y-115380628D01*
X121537470Y-115374503D01*
X121535264Y-115368328D01*
X121532871Y-115362101D01*
X121530292Y-115355823D01*
X121527526Y-115349495D01*
X121524574Y-115343116D01*
X121521435Y-115336686D01*
X121518111Y-115330205D01*
X121514600Y-115323674D01*
X121510903Y-115317091D01*
X121506975Y-115310537D01*
X121502811Y-115304071D01*
X121498412Y-115297692D01*
X121493776Y-115291401D01*
X121488904Y-115285198D01*
X121483796Y-115279082D01*
X121478451Y-115273053D01*
X121472869Y-115267111D01*
X121467050Y-115261256D01*
X121460995Y-115255488D01*
X121454702Y-115249806D01*
X121448172Y-115244210D01*
X121441404Y-115238701D01*
X121434398Y-115233277D01*
X121427155Y-115227940D01*
X121419674Y-115222688D01*
X121411886Y-115217660D01*
X121403722Y-115212955D01*
X121395183Y-115208573D01*
X121386269Y-115204514D01*
X121376979Y-115200778D01*
X121367314Y-115197366D01*
X121357275Y-115194277D01*
X121346861Y-115191513D01*
X121336072Y-115189073D01*
X121324909Y-115186958D01*
X121313371Y-115185168D01*
X121301460Y-115183702D01*
X121289174Y-115182562D01*
X121276515Y-115181747D01*
X121263482Y-115181258D01*
X121250076Y-115181095D01*
X121237437Y-115181258D01*
X121225137Y-115181747D01*
X121213177Y-115182562D01*
X121201555Y-115183702D01*
X121190273Y-115185168D01*
X121179329Y-115186958D01*
X121168724Y-115189073D01*
X121158457Y-115191513D01*
X121148528Y-115194277D01*
X121138937Y-115197366D01*
X121129683Y-115200778D01*
X121120767Y-115204514D01*
X121112187Y-115208573D01*
X121103944Y-115212955D01*
X121096038Y-115217660D01*
X121088469Y-115222688D01*
X121081167Y-115227925D01*
X121074067Y-115233237D01*
X121067167Y-115238625D01*
X121060467Y-115244089D01*
X121053968Y-115249627D01*
X121047669Y-115255241D01*
X121041570Y-115260930D01*
X121035671Y-115266695D01*
X121029972Y-115272534D01*
X121024472Y-115278448D01*
X121019171Y-115284437D01*
X121014070Y-115290501D01*
X121009167Y-115296640D01*
X121004464Y-115302853D01*
X120999959Y-115309141D01*
X120995653Y-115315503D01*
X120991550Y-115321890D01*
X120987634Y-115328253D01*
X120983905Y-115334591D01*
X120980363Y-115340904D01*
X120977009Y-115347192D01*
X120973842Y-115353455D01*
X120970863Y-115359693D01*
X120968070Y-115365907D01*
X120965465Y-115372095D01*
X120963047Y-115378259D01*
X120960817Y-115384398D01*
X120958773Y-115390513D01*
X120956917Y-115396602D01*
X120955249Y-115402667D01*
X120953767Y-115408707D01*
X120952473Y-115414722D01*
X120948275Y-115436531D01*
X120946629Y-115445783D01*
X120945283Y-115453934D01*
X120944238Y-115460983D01*
X120943491Y-115466932D01*
X120943044Y-115471778D01*
X120942895Y-115475524D01*
X120441511Y-115475524D01*
X120442590Y-115469439D01*
X120450567Y-115432632D01*
X120459996Y-115395721D01*
X120470878Y-115358631D01*
X120476886Y-115340140D01*
X120483320Y-115321875D01*
X120490180Y-115303835D01*
X120497467Y-115286021D01*
X120505180Y-115268433D01*
X120513318Y-115251069D01*
X120521882Y-115233931D01*
X120530872Y-115217019D01*
X120540287Y-115200331D01*
X120550128Y-115183868D01*
X120560393Y-115167630D01*
X120571084Y-115151618D01*
X120582199Y-115135830D01*
X120593739Y-115120266D01*
X120605703Y-115104928D01*
X120618092Y-115089813D01*
X120630930Y-115074981D01*
X120644241Y-115060487D01*
X120658027Y-115046331D01*
X120672288Y-115032513D01*
X120687023Y-115019033D01*
X120702233Y-115005891D01*
X120717918Y-114993087D01*
X120734079Y-114980620D01*
X120750715Y-114968490D01*
X120767827Y-114956698D01*
X120785415Y-114945243D01*
X120803480Y-114934124D01*
X120822021Y-114923343D01*
X120841039Y-114912898D01*
X120860534Y-114902789D01*
X120880506Y-114893017D01*
X120900954Y-114883713D01*
X120921915Y-114875010D01*
X120943390Y-114866909D01*
X120965378Y-114859409D01*
X120987879Y-114852510D01*
X121010894Y-114846212D01*
X121034423Y-114840514D01*
X121058465Y-114835417D01*
X121083020Y-114830919D01*
X121108089Y-114827022D01*
X121133671Y-114823725D01*
X121159767Y-114821028D01*
X121186376Y-114818931D01*
X121213499Y-114817433D01*
X121241135Y-114816534D01*
X121269285Y-114816234D01*
X121283079Y-114816361D01*
G37*
G36*
X133543132Y-114816361D02*
G01*
X133557328Y-114816739D01*
X133571926Y-114817367D01*
X133586925Y-114818245D01*
X133602326Y-114819371D01*
X133618129Y-114820744D01*
X133634334Y-114822362D01*
X133650941Y-114824225D01*
X133667796Y-114826428D01*
X133684746Y-114829028D01*
X133701793Y-114832026D01*
X133718938Y-114835423D01*
X133736182Y-114839219D01*
X133753527Y-114843416D01*
X133770974Y-114848013D01*
X133788524Y-114853011D01*
X133806108Y-114858526D01*
X133823697Y-114864632D01*
X133841291Y-114871333D01*
X133858890Y-114878629D01*
X133876494Y-114886524D01*
X133894103Y-114895018D01*
X133911717Y-114904114D01*
X133929336Y-114913812D01*
X133938116Y-114918919D01*
X133946873Y-114924238D01*
X133955607Y-114929769D01*
X133964317Y-114935512D01*
X133973005Y-114941468D01*
X133981668Y-114947636D01*
X133998922Y-114960611D01*
X134016076Y-114974436D01*
X134033129Y-114989112D01*
X134050077Y-115004641D01*
X134066919Y-115021022D01*
X134086405Y-115041935D01*
X134104898Y-115063042D01*
X134122396Y-115084346D01*
X134130772Y-115095072D01*
X134138899Y-115105847D01*
X134146776Y-115116672D01*
X134154404Y-115127547D01*
X134161782Y-115138471D01*
X134168910Y-115149446D01*
X134175789Y-115160470D01*
X134182418Y-115171546D01*
X134188796Y-115182671D01*
X134194924Y-115193848D01*
X134206553Y-115216375D01*
X134217429Y-115239152D01*
X134227553Y-115262177D01*
X134236927Y-115285453D01*
X134245552Y-115308979D01*
X134253429Y-115332756D01*
X134260559Y-115356786D01*
X134266945Y-115381067D01*
X134272662Y-115405599D01*
X134277829Y-115430379D01*
X134282447Y-115455407D01*
X134286517Y-115480683D01*
X134290038Y-115506207D01*
X134293011Y-115531979D01*
X134295438Y-115557999D01*
X134297318Y-115584267D01*
X134300104Y-115637259D01*
X134302107Y-115690662D01*
X134303316Y-115744473D01*
X134303721Y-115798684D01*
X133202948Y-115798684D01*
X133202944Y-115798684D01*
X133203006Y-115803921D01*
X133203193Y-115809234D01*
X133203503Y-115814622D01*
X133203938Y-115820085D01*
X133205182Y-115831238D01*
X133206926Y-115842691D01*
X133209171Y-115854445D01*
X133211919Y-115866498D01*
X133215170Y-115878850D01*
X133218926Y-115891500D01*
X133221014Y-115897875D01*
X133223291Y-115904200D01*
X133225757Y-115910476D01*
X133228410Y-115916701D01*
X133231252Y-115922877D01*
X133234282Y-115929002D01*
X133237500Y-115935078D01*
X133240906Y-115941103D01*
X133244500Y-115947078D01*
X133248282Y-115953003D01*
X133252251Y-115958878D01*
X133256408Y-115964702D01*
X133260753Y-115970475D01*
X133265285Y-115976198D01*
X133270005Y-115981870D01*
X133274912Y-115987492D01*
X133280025Y-115993040D01*
X133285362Y-115998475D01*
X133290924Y-116003796D01*
X133296711Y-116009003D01*
X133302723Y-116014097D01*
X133308959Y-116019078D01*
X133315420Y-116023945D01*
X133322107Y-116028700D01*
X133329018Y-116033341D01*
X133336155Y-116037870D01*
X133343517Y-116042287D01*
X133351104Y-116046591D01*
X133358917Y-116050782D01*
X133366955Y-116054862D01*
X133375219Y-116058830D01*
X133383708Y-116062686D01*
X133392458Y-116066375D01*
X133401520Y-116069825D01*
X133410897Y-116073034D01*
X133420587Y-116076004D01*
X133430591Y-116078734D01*
X133440908Y-116081226D01*
X133451538Y-116083478D01*
X133462482Y-116085492D01*
X133473738Y-116087268D01*
X133485308Y-116088807D01*
X133497191Y-116090107D01*
X133509387Y-116091171D01*
X133521895Y-116091998D01*
X133534717Y-116092588D01*
X133547851Y-116092941D01*
X133561298Y-116093059D01*
X133585710Y-116092685D01*
X133609378Y-116091560D01*
X133632300Y-116089685D01*
X133654477Y-116087060D01*
X133675907Y-116083682D01*
X133696589Y-116079553D01*
X133716524Y-116074670D01*
X133735710Y-116069035D01*
X133754178Y-116062916D01*
X133771995Y-116056544D01*
X133789165Y-116049921D01*
X133805686Y-116043046D01*
X133821560Y-116035921D01*
X133836787Y-116028546D01*
X133851368Y-116020922D01*
X133865304Y-116013050D01*
X133878547Y-116005127D01*
X133891091Y-115997353D01*
X133902938Y-115989728D01*
X133914086Y-115982251D01*
X133924538Y-115974924D01*
X133934293Y-115967746D01*
X133943352Y-115960716D01*
X133951716Y-115953836D01*
X133966311Y-115941355D01*
X133978108Y-115931062D01*
X133987108Y-115922961D01*
X133990558Y-115919735D01*
X133993309Y-115917058D01*
X134262126Y-116179473D01*
X134243603Y-116199497D01*
X134224845Y-116218771D01*
X134205850Y-116237295D01*
X134186619Y-116255068D01*
X134167151Y-116272092D01*
X134147446Y-116288366D01*
X134127505Y-116303889D01*
X134107326Y-116318663D01*
X134086909Y-116332688D01*
X134066255Y-116345962D01*
X134045363Y-116358487D01*
X134024233Y-116370263D01*
X134002864Y-116381289D01*
X133981257Y-116391566D01*
X133959411Y-116401094D01*
X133937325Y-116409872D01*
X133914973Y-116418013D01*
X133892307Y-116425628D01*
X133869328Y-116432718D01*
X133846035Y-116439281D01*
X133822430Y-116445320D01*
X133798511Y-116450833D01*
X133774279Y-116455820D01*
X133749735Y-116460282D01*
X133724878Y-116464219D01*
X133699709Y-116467631D01*
X133674228Y-116470517D01*
X133648435Y-116472879D01*
X133622329Y-116474715D01*
X133595912Y-116476027D01*
X133569184Y-116476814D01*
X133542143Y-116477077D01*
X133484083Y-116475951D01*
X133455917Y-116474543D01*
X133428328Y-116472573D01*
X133401314Y-116470040D01*
X133374877Y-116466944D01*
X133349016Y-116463286D01*
X133323730Y-116459065D01*
X133299019Y-116454282D01*
X133274884Y-116448936D01*
X133251324Y-116443028D01*
X133228339Y-116436558D01*
X133205929Y-116429525D01*
X133184094Y-116421931D01*
X133162833Y-116413775D01*
X133142146Y-116405056D01*
X133121990Y-116395882D01*
X133102322Y-116386358D01*
X133083141Y-116376485D01*
X133064448Y-116366261D01*
X133046242Y-116355687D01*
X133028523Y-116344763D01*
X133011292Y-116333489D01*
X132994548Y-116321865D01*
X132978292Y-116309890D01*
X132962523Y-116297565D01*
X132947242Y-116284889D01*
X132932448Y-116271863D01*
X132918141Y-116258486D01*
X132904322Y-116244758D01*
X132890990Y-116230680D01*
X132878146Y-116216250D01*
X132865757Y-116201536D01*
X132853793Y-116186584D01*
X132842253Y-116171393D01*
X132831137Y-116155965D01*
X132820447Y-116140298D01*
X132810181Y-116124393D01*
X132800341Y-116108250D01*
X132790926Y-116091869D01*
X132781936Y-116075250D01*
X132773371Y-116058392D01*
X132765233Y-116041297D01*
X132757520Y-116023964D01*
X132750234Y-116006392D01*
X132743373Y-115988582D01*
X132736939Y-115970535D01*
X132730931Y-115952249D01*
X132720049Y-115915408D01*
X132710620Y-115878468D01*
X132702643Y-115841426D01*
X132696118Y-115804281D01*
X132691044Y-115767031D01*
X132687421Y-115729677D01*
X132685247Y-115692215D01*
X132684523Y-115654646D01*
X132685247Y-115617190D01*
X132687421Y-115580019D01*
X132691044Y-115543056D01*
X132696118Y-115506221D01*
X132701564Y-115475524D01*
X133202944Y-115475524D01*
X133814132Y-115475524D01*
X133814132Y-115475523D01*
X133814031Y-115471802D01*
X133813727Y-115467030D01*
X133813222Y-115461206D01*
X133812518Y-115454330D01*
X133811616Y-115446403D01*
X133810516Y-115437423D01*
X133807729Y-115416310D01*
X133806832Y-115410490D01*
X133805747Y-115404620D01*
X133804476Y-115398698D01*
X133803017Y-115392726D01*
X133801371Y-115386702D01*
X133799539Y-115380628D01*
X133797520Y-115374503D01*
X133795314Y-115368328D01*
X133792921Y-115362101D01*
X133790342Y-115355823D01*
X133787576Y-115349495D01*
X133784624Y-115343116D01*
X133781485Y-115336686D01*
X133778160Y-115330205D01*
X133774649Y-115323674D01*
X133770952Y-115317091D01*
X133767024Y-115310537D01*
X133762861Y-115304071D01*
X133758461Y-115297692D01*
X133753825Y-115291401D01*
X133748953Y-115285198D01*
X133743845Y-115279082D01*
X133738500Y-115273053D01*
X133732918Y-115267111D01*
X133727100Y-115261256D01*
X133721044Y-115255488D01*
X133714751Y-115249806D01*
X133708221Y-115244210D01*
X133701453Y-115238701D01*
X133694448Y-115233277D01*
X133687205Y-115227940D01*
X133679724Y-115222688D01*
X133671936Y-115217660D01*
X133663773Y-115212955D01*
X133655233Y-115208573D01*
X133646319Y-115204514D01*
X133637029Y-115200778D01*
X133627365Y-115197366D01*
X133617325Y-115194277D01*
X133606911Y-115191513D01*
X133596122Y-115189073D01*
X133584959Y-115186958D01*
X133573421Y-115185168D01*
X133561510Y-115183702D01*
X133549224Y-115182562D01*
X133536565Y-115181747D01*
X133523532Y-115181258D01*
X133510126Y-115181095D01*
X133497487Y-115181258D01*
X133485187Y-115181747D01*
X133473227Y-115182562D01*
X133461606Y-115183702D01*
X133450324Y-115185168D01*
X133439380Y-115186958D01*
X133428775Y-115189073D01*
X133418508Y-115191513D01*
X133408579Y-115194277D01*
X133398987Y-115197366D01*
X133389733Y-115200778D01*
X133380817Y-115204514D01*
X133372237Y-115208573D01*
X133363994Y-115212955D01*
X133356088Y-115217660D01*
X133348518Y-115222688D01*
X133341217Y-115227925D01*
X133334116Y-115233237D01*
X133327217Y-115238625D01*
X133320517Y-115244089D01*
X133314018Y-115249627D01*
X133307719Y-115255241D01*
X133301620Y-115260930D01*
X133295721Y-115266695D01*
X133290021Y-115272534D01*
X133284521Y-115278448D01*
X133279221Y-115284437D01*
X133274119Y-115290501D01*
X133269217Y-115296640D01*
X133264513Y-115302853D01*
X133260008Y-115309141D01*
X133255702Y-115315503D01*
X133251599Y-115321890D01*
X133247683Y-115328253D01*
X133243954Y-115334591D01*
X133240413Y-115340904D01*
X133237059Y-115347192D01*
X133233892Y-115353455D01*
X133230912Y-115359693D01*
X133228120Y-115365907D01*
X133225515Y-115372095D01*
X133223097Y-115378259D01*
X133220867Y-115384398D01*
X133218823Y-115390513D01*
X133216967Y-115396602D01*
X133215299Y-115402667D01*
X133213817Y-115408707D01*
X133212523Y-115414722D01*
X133208325Y-115436531D01*
X133206679Y-115445783D01*
X133205333Y-115453934D01*
X133204287Y-115460983D01*
X133203541Y-115466932D01*
X133203093Y-115471778D01*
X133202944Y-115475524D01*
X132701564Y-115475524D01*
X132702643Y-115469439D01*
X132710620Y-115432632D01*
X132720049Y-115395721D01*
X132730931Y-115358631D01*
X132736939Y-115340140D01*
X132743373Y-115321875D01*
X132750234Y-115303835D01*
X132757520Y-115286021D01*
X132765233Y-115268433D01*
X132773371Y-115251069D01*
X132781936Y-115233931D01*
X132790926Y-115217019D01*
X132800341Y-115200331D01*
X132810181Y-115183868D01*
X132820447Y-115167630D01*
X132831137Y-115151618D01*
X132842253Y-115135830D01*
X132853793Y-115120266D01*
X132865757Y-115104928D01*
X132878146Y-115089813D01*
X132890983Y-115074981D01*
X132904295Y-115060487D01*
X132918081Y-115046331D01*
X132932341Y-115032513D01*
X132947076Y-115019033D01*
X132962286Y-115005891D01*
X132977971Y-114993087D01*
X132994132Y-114980620D01*
X133010768Y-114968490D01*
X133027880Y-114956698D01*
X133045468Y-114945243D01*
X133063533Y-114934124D01*
X133082074Y-114923343D01*
X133101092Y-114912898D01*
X133120587Y-114902789D01*
X133140559Y-114893017D01*
X133161007Y-114883713D01*
X133181968Y-114875010D01*
X133203443Y-114866909D01*
X133225431Y-114859409D01*
X133247933Y-114852510D01*
X133270948Y-114846212D01*
X133294477Y-114840514D01*
X133318519Y-114835417D01*
X133343074Y-114830919D01*
X133368143Y-114827022D01*
X133393725Y-114823725D01*
X133419821Y-114821028D01*
X133446430Y-114818931D01*
X133473553Y-114817433D01*
X133501189Y-114816534D01*
X133529338Y-114816234D01*
X133543132Y-114816361D01*
G37*
G36*
X123364492Y-114816580D02*
G01*
X123379730Y-114817142D01*
X123394992Y-114818078D01*
X123410279Y-114819390D01*
X123425591Y-114821076D01*
X123440928Y-114823137D01*
X123456290Y-114825574D01*
X123471676Y-114828385D01*
X123487087Y-114831571D01*
X123502523Y-114835133D01*
X123517984Y-114839070D01*
X123533470Y-114843383D01*
X123548980Y-114848071D01*
X123564515Y-114853134D01*
X123580075Y-114858573D01*
X123595660Y-114864388D01*
X123611170Y-114870597D01*
X123626505Y-114877217D01*
X123641665Y-114884250D01*
X123656651Y-114891694D01*
X123671462Y-114899550D01*
X123686098Y-114907819D01*
X123700561Y-114916500D01*
X123714848Y-114925593D01*
X123728962Y-114935098D01*
X123742901Y-114945016D01*
X123756666Y-114955346D01*
X123770258Y-114966089D01*
X123783675Y-114977245D01*
X123796918Y-114988814D01*
X123809988Y-115000795D01*
X123822884Y-115013189D01*
X123835539Y-115026021D01*
X123847907Y-115039316D01*
X123859987Y-115053073D01*
X123871780Y-115067292D01*
X123883285Y-115081974D01*
X123894503Y-115097118D01*
X123905433Y-115112724D01*
X123916077Y-115128792D01*
X123926433Y-115145322D01*
X123936502Y-115162314D01*
X123946284Y-115179768D01*
X123955780Y-115197684D01*
X123964988Y-115216061D01*
X123973910Y-115234900D01*
X123982545Y-115254201D01*
X123990894Y-115273963D01*
X123998834Y-115294215D01*
X124006263Y-115314967D01*
X124013181Y-115336220D01*
X124019587Y-115357971D01*
X124025481Y-115380223D01*
X124030864Y-115402975D01*
X124035735Y-115426226D01*
X124040094Y-115449977D01*
X124043940Y-115474228D01*
X124047275Y-115498978D01*
X124050096Y-115524229D01*
X124052405Y-115549979D01*
X124054201Y-115576229D01*
X124055484Y-115602979D01*
X124056254Y-115630229D01*
X124056511Y-115657979D01*
X124056498Y-115657966D01*
X124056485Y-115657953D01*
X124056471Y-115657940D01*
X124056458Y-115657926D01*
X124055731Y-115694709D01*
X124053553Y-115731438D01*
X124049923Y-115768114D01*
X124044843Y-115804737D01*
X124038314Y-115841308D01*
X124030339Y-115877828D01*
X124020917Y-115914296D01*
X124010050Y-115950714D01*
X124004058Y-115968801D01*
X123997692Y-115986649D01*
X123990952Y-116004258D01*
X123983837Y-116021628D01*
X123976347Y-116038760D01*
X123968483Y-116055654D01*
X123960244Y-116072310D01*
X123951630Y-116088728D01*
X123942642Y-116104908D01*
X123933280Y-116120851D01*
X123923543Y-116136558D01*
X123913431Y-116152027D01*
X123902945Y-116167260D01*
X123892084Y-116182256D01*
X123880849Y-116197016D01*
X123869239Y-116211541D01*
X123857260Y-116225769D01*
X123844918Y-116239659D01*
X123832213Y-116253213D01*
X123819144Y-116266429D01*
X123805713Y-116279309D01*
X123791918Y-116291851D01*
X123777761Y-116304057D01*
X123763240Y-116315925D01*
X123748357Y-116327457D01*
X123733112Y-116338653D01*
X123717503Y-116349511D01*
X123701532Y-116360034D01*
X123685199Y-116370219D01*
X123668503Y-116380069D01*
X123651445Y-116389582D01*
X123634025Y-116398759D01*
X123616227Y-116407477D01*
X123598055Y-116415634D01*
X123579510Y-116423228D01*
X123560592Y-116430261D01*
X123541300Y-116436731D01*
X123521634Y-116442639D01*
X123501595Y-116447984D01*
X123481182Y-116452768D01*
X123460394Y-116456988D01*
X123439233Y-116460647D01*
X123417698Y-116463742D01*
X123395788Y-116466275D01*
X123373504Y-116468246D01*
X123350846Y-116469653D01*
X123327814Y-116470497D01*
X123304407Y-116470779D01*
X123277627Y-116470427D01*
X123251701Y-116469373D01*
X123226626Y-116467618D01*
X123202403Y-116465164D01*
X123179031Y-116462013D01*
X123156509Y-116458167D01*
X123134836Y-116453627D01*
X123114012Y-116448396D01*
X123093988Y-116442649D01*
X123074713Y-116436600D01*
X123056188Y-116430249D01*
X123038414Y-116423597D01*
X123021392Y-116416646D01*
X123005122Y-116409395D01*
X122989605Y-116401845D01*
X122974841Y-116393997D01*
X122960760Y-116385975D01*
X122947329Y-116377903D01*
X122934549Y-116369780D01*
X122922421Y-116361606D01*
X122910945Y-116353379D01*
X122900122Y-116345100D01*
X122889953Y-116336768D01*
X122880438Y-116328382D01*
X122871508Y-116320161D01*
X122863133Y-116312289D01*
X122855310Y-116304765D01*
X122848040Y-116297591D01*
X122841320Y-116290766D01*
X122835150Y-116284291D01*
X122829528Y-116278167D01*
X122824452Y-116272395D01*
X122824452Y-117021166D01*
X122312484Y-117021166D01*
X122312484Y-115651524D01*
X122814927Y-115651524D01*
X122815277Y-115672221D01*
X122816326Y-115692718D01*
X122818075Y-115713016D01*
X122820523Y-115733114D01*
X122823671Y-115753011D01*
X122827518Y-115772707D01*
X122832065Y-115792200D01*
X122837311Y-115811491D01*
X122840197Y-115821019D01*
X122843257Y-115830397D01*
X122846492Y-115839623D01*
X122849903Y-115848699D01*
X122853488Y-115857624D01*
X122857249Y-115866398D01*
X122861186Y-115875022D01*
X122865297Y-115883496D01*
X122869585Y-115891820D01*
X122874047Y-115899994D01*
X122878686Y-115908018D01*
X122883500Y-115915892D01*
X122888490Y-115923617D01*
X122893655Y-115931193D01*
X122898997Y-115938620D01*
X122904515Y-115945897D01*
X122910199Y-115953013D01*
X122916059Y-115959954D01*
X122922095Y-115966720D01*
X122928306Y-115973311D01*
X122934693Y-115979727D01*
X122941255Y-115985967D01*
X122947992Y-115992032D01*
X122954905Y-115997922D01*
X122961992Y-116003636D01*
X122969254Y-116009174D01*
X122976691Y-116014537D01*
X122984302Y-116019724D01*
X122992087Y-116024736D01*
X123000046Y-116029571D01*
X123008180Y-116034230D01*
X123016487Y-116038714D01*
X123024977Y-116042981D01*
X123033642Y-116046971D01*
X123042480Y-116050686D01*
X123051493Y-116054124D01*
X123060680Y-116057286D01*
X123070041Y-116060173D01*
X123079576Y-116062783D01*
X123089287Y-116065119D01*
X123099172Y-116067179D01*
X123109232Y-116068964D01*
X123119468Y-116070473D01*
X123129879Y-116071708D01*
X123140465Y-116072669D01*
X123151227Y-116073354D01*
X123162165Y-116073766D01*
X123173279Y-116073903D01*
X123184393Y-116073766D01*
X123195333Y-116073354D01*
X123206097Y-116072669D01*
X123216686Y-116071708D01*
X123227100Y-116070473D01*
X123237339Y-116068964D01*
X123247403Y-116067179D01*
X123257291Y-116065119D01*
X123267003Y-116062783D01*
X123276541Y-116060173D01*
X123285902Y-116057286D01*
X123295088Y-116054124D01*
X123304097Y-116050686D01*
X123312931Y-116046971D01*
X123321589Y-116042981D01*
X123330071Y-116038714D01*
X123338386Y-116034230D01*
X123346525Y-116029571D01*
X123354486Y-116024736D01*
X123362272Y-116019724D01*
X123369881Y-116014537D01*
X123377316Y-116009174D01*
X123384575Y-116003636D01*
X123391659Y-115997922D01*
X123398570Y-115992032D01*
X123405306Y-115985967D01*
X123411869Y-115979727D01*
X123418259Y-115973311D01*
X123424476Y-115966720D01*
X123430521Y-115959954D01*
X123436394Y-115953013D01*
X123442096Y-115945897D01*
X123447604Y-115938620D01*
X123452938Y-115931193D01*
X123458097Y-115923617D01*
X123463081Y-115915892D01*
X123467891Y-115908018D01*
X123472526Y-115899994D01*
X123476987Y-115891820D01*
X123481274Y-115883496D01*
X123485386Y-115875022D01*
X123489324Y-115866398D01*
X123493088Y-115857624D01*
X123496678Y-115848699D01*
X123500094Y-115839623D01*
X123503337Y-115830397D01*
X123506405Y-115821019D01*
X123509300Y-115811491D01*
X123514546Y-115792200D01*
X123519092Y-115772707D01*
X123522940Y-115753011D01*
X123526087Y-115733114D01*
X123528535Y-115713016D01*
X123530284Y-115692718D01*
X123531334Y-115672221D01*
X123531683Y-115651524D01*
X123531331Y-115630802D01*
X123530277Y-115610229D01*
X123528522Y-115589805D01*
X123526068Y-115569529D01*
X123522917Y-115549403D01*
X123519070Y-115529425D01*
X123514531Y-115509596D01*
X123509300Y-115489916D01*
X123506405Y-115480197D01*
X123503337Y-115470628D01*
X123500094Y-115461207D01*
X123496678Y-115451936D01*
X123493088Y-115442813D01*
X123489324Y-115433840D01*
X123485386Y-115425016D01*
X123481274Y-115416342D01*
X123476987Y-115407816D01*
X123472526Y-115399441D01*
X123467891Y-115391215D01*
X123463081Y-115383139D01*
X123458097Y-115375212D01*
X123452938Y-115367435D01*
X123447604Y-115359809D01*
X123442096Y-115352332D01*
X123436403Y-115345027D01*
X123430537Y-115337896D01*
X123424496Y-115330938D01*
X123418282Y-115324155D01*
X123411893Y-115317545D01*
X123405330Y-115311110D01*
X123398592Y-115304848D01*
X123391680Y-115298761D01*
X123384592Y-115292848D01*
X123377330Y-115287109D01*
X123369892Y-115281545D01*
X123362279Y-115276155D01*
X123354491Y-115270939D01*
X123346527Y-115265899D01*
X123338387Y-115261033D01*
X123330071Y-115256342D01*
X123321580Y-115251891D01*
X123312914Y-115247727D01*
X123304073Y-115243850D01*
X123295058Y-115240259D01*
X123285868Y-115236955D01*
X123276503Y-115233938D01*
X123266964Y-115231208D01*
X123257251Y-115228765D01*
X123247364Y-115226609D01*
X123237302Y-115224741D01*
X123227066Y-115223159D01*
X123216657Y-115221865D01*
X123206073Y-115220859D01*
X123195315Y-115220140D01*
X123184384Y-115219708D01*
X123173279Y-115219564D01*
X123162174Y-115219708D01*
X123151242Y-115220140D01*
X123140485Y-115220859D01*
X123129901Y-115221865D01*
X123119491Y-115223159D01*
X123109256Y-115224741D01*
X123099194Y-115226609D01*
X123089307Y-115228765D01*
X123079594Y-115231208D01*
X123070055Y-115233938D01*
X123060690Y-115236955D01*
X123051500Y-115240259D01*
X123042485Y-115243850D01*
X123033644Y-115247727D01*
X123024978Y-115251891D01*
X123016487Y-115256342D01*
X123008171Y-115261033D01*
X123000031Y-115265899D01*
X122992068Y-115270939D01*
X122984280Y-115276155D01*
X122976668Y-115281545D01*
X122969231Y-115287109D01*
X122961971Y-115292848D01*
X122954885Y-115298761D01*
X122947976Y-115304848D01*
X122941241Y-115311110D01*
X122934682Y-115317545D01*
X122928299Y-115324155D01*
X122922090Y-115330938D01*
X122916057Y-115337896D01*
X122910198Y-115345027D01*
X122904515Y-115352332D01*
X122898997Y-115359809D01*
X122893655Y-115367435D01*
X122888489Y-115375212D01*
X122883500Y-115383139D01*
X122878685Y-115391215D01*
X122874047Y-115399441D01*
X122869584Y-115407816D01*
X122865297Y-115416342D01*
X122861185Y-115425016D01*
X122857249Y-115433840D01*
X122853488Y-115442813D01*
X122849903Y-115451936D01*
X122846492Y-115461207D01*
X122843257Y-115470628D01*
X122840197Y-115480197D01*
X122837311Y-115489916D01*
X122832065Y-115509596D01*
X122827518Y-115529425D01*
X122823671Y-115549403D01*
X122820523Y-115569529D01*
X122818075Y-115589805D01*
X122816326Y-115610229D01*
X122815277Y-115630802D01*
X122814927Y-115651524D01*
X122312484Y-115651524D01*
X122312484Y-114877194D01*
X122792491Y-114877194D01*
X122798893Y-115078806D01*
X122800933Y-115076666D01*
X122803875Y-115073420D01*
X122807719Y-115069071D01*
X122812467Y-115063619D01*
X122824671Y-115049413D01*
X122840486Y-115030811D01*
X122845006Y-115025596D01*
X122849778Y-115020329D01*
X122854799Y-115015010D01*
X122860072Y-115009639D01*
X122865595Y-115004217D01*
X122871368Y-114998744D01*
X122877392Y-114993220D01*
X122883666Y-114987644D01*
X122890191Y-114982018D01*
X122896966Y-114976341D01*
X122903992Y-114970613D01*
X122911269Y-114964835D01*
X122926573Y-114953129D01*
X122942880Y-114941223D01*
X122951414Y-114935258D01*
X122960211Y-114929368D01*
X122969269Y-114923555D01*
X122978589Y-114917816D01*
X122998016Y-114906565D01*
X123018491Y-114895615D01*
X123040015Y-114884965D01*
X123062589Y-114874615D01*
X123086214Y-114864564D01*
X123110890Y-114854810D01*
X123123634Y-114850158D01*
X123136665Y-114845806D01*
X123149982Y-114841754D01*
X123163586Y-114838003D01*
X123177478Y-114834551D01*
X123191657Y-114831400D01*
X123206123Y-114828548D01*
X123220877Y-114825997D01*
X123235919Y-114823746D01*
X123251248Y-114821795D01*
X123266866Y-114820144D01*
X123282772Y-114818794D01*
X123298966Y-114817743D01*
X123315448Y-114816993D01*
X123332220Y-114816542D01*
X123349280Y-114816392D01*
X123364492Y-114816580D01*
G37*
D16*
%TO.C,J1*%
X115999852Y-104994319D02*
X115999852Y-105294319D01*
X115999852Y-102994319D02*
X115999852Y-103374319D01*
X115999852Y-100994319D02*
X115999852Y-101374319D01*
X115999852Y-98994319D02*
X115999852Y-99374319D01*
X115999852Y-96994319D02*
X115999852Y-97374319D01*
X115999852Y-94994319D02*
X115999852Y-95374319D01*
X115999852Y-92994319D02*
X115999852Y-93374319D01*
X115999852Y-90994319D02*
X115999852Y-91374319D01*
X115999852Y-88994319D02*
X115999852Y-89374319D01*
X115999852Y-86994319D02*
X115999852Y-87374319D01*
X115999852Y-85074319D02*
X115999852Y-85374319D01*
X111779852Y-105294319D02*
X115999852Y-105294319D01*
X111779852Y-104994319D02*
X111779852Y-105294319D01*
X111779852Y-102994319D02*
X111779852Y-103374319D01*
X111779852Y-100994319D02*
X111779852Y-101374319D01*
X111779852Y-98994319D02*
X111779852Y-99374319D01*
X111779852Y-96994319D02*
X111779852Y-97374319D01*
X111779852Y-94994319D02*
X111779852Y-95374319D01*
X111779852Y-92994319D02*
X111779852Y-93374319D01*
X111779852Y-90994319D02*
X111779852Y-91374319D01*
X111779852Y-88994319D02*
X111779852Y-89374319D01*
X111779852Y-86994319D02*
X111779852Y-87374319D01*
X111779852Y-85074319D02*
X115999852Y-85074319D01*
X111779852Y-85074319D02*
X111779852Y-85374319D01*
%TO.C,J2*%
X156389852Y-104994319D02*
X156389852Y-105294319D01*
X156389852Y-102994319D02*
X156389852Y-103374319D01*
X156389852Y-100994319D02*
X156389852Y-101374319D01*
X156389852Y-98994319D02*
X156389852Y-99374319D01*
X156389852Y-96994319D02*
X156389852Y-97374319D01*
X156389852Y-94994319D02*
X156389852Y-95374319D01*
X156389852Y-92994319D02*
X156389852Y-93374319D01*
X156389852Y-90994319D02*
X156389852Y-91374319D01*
X156389852Y-88994319D02*
X156389852Y-89374319D01*
X156389852Y-86994319D02*
X156389852Y-87374319D01*
X156389852Y-85074319D02*
X156389852Y-85374319D01*
X152169852Y-105294319D02*
X156389852Y-105294319D01*
X152169852Y-104994319D02*
X152169852Y-105294319D01*
X152169852Y-102994319D02*
X152169852Y-103374319D01*
X152169852Y-100994319D02*
X152169852Y-101374319D01*
X152169852Y-98994319D02*
X152169852Y-99374319D01*
X152169852Y-96994319D02*
X152169852Y-97374319D01*
X152169852Y-94994319D02*
X152169852Y-95374319D01*
X152169852Y-92994319D02*
X152169852Y-93374319D01*
X152169852Y-90994319D02*
X152169852Y-91374319D01*
X152169852Y-88994319D02*
X152169852Y-89374319D01*
X152169852Y-86994319D02*
X152169852Y-87374319D01*
X152169852Y-85074319D02*
X156389852Y-85074319D01*
X152169852Y-85074319D02*
X152169852Y-85374319D01*
D11*
%TO.C,J3*%
X146783852Y-119575319D02*
X135283852Y-119575319D01*
X146783852Y-112075319D02*
X135283852Y-112075319D01*
X135283852Y-112075319D02*
X135283852Y-119575319D01*
%TD*%
M02*
