%TF.GenerationSoftware,KiCad,Pcbnew,9.0.6*%
%TF.CreationDate,2025-12-28T23:08:32+01:00*%
%TF.ProjectId,gaia-battery,67616961-2d62-4617-9474-6572792e6b69,1.0*%
%TF.SameCoordinates,Original*%
%TF.FileFunction,Copper,L3,Inr*%
%TF.FilePolarity,Positive*%
%FSLAX46Y46*%
G04 Gerber Fmt 4.6, Leading zero omitted, Abs format (unit mm)*
G04 Created by KiCad (PCBNEW 9.0.6) date 2025-12-28 23:08:32*
%MOMM*%
%LPD*%
G01*
G04 APERTURE LIST*
%TA.AperFunction,ComponentPad*%
%ADD10R,2.580000X1.000000*%
%TD*%
%TA.AperFunction,ComponentPad*%
%ADD11C,1.900000*%
%TD*%
G04 APERTURE END LIST*
D10*
%TO.N,unconnected-(J1-Pin_1-Pad1)*%
%TO.C,J1*%
X111804852Y-86184319D03*
%TO.N,unconnected-(J1-Pin_2-Pad2)*%
X115974852Y-86184319D03*
%TO.N,unconnected-(J1-Pin_3-Pad3)*%
X111804852Y-88184319D03*
%TO.N,unconnected-(J1-Pin_4-Pad4)*%
X115974852Y-88184319D03*
%TO.N,unconnected-(J1-Pin_5-Pad5)*%
X111804852Y-90184319D03*
%TO.N,Net-(BTc1-+)*%
X115974852Y-90184319D03*
%TO.N,GND*%
X111804852Y-92184319D03*
%TO.N,unconnected-(J1-Pin_8-Pad8)*%
X115974852Y-92184319D03*
%TO.N,unconnected-(J1-Pin_9-Pad9)*%
X111804852Y-94184319D03*
%TO.N,GND*%
X115974852Y-94184319D03*
%TO.N,unconnected-(J1-Pin_11-Pad11)*%
X111804852Y-96184319D03*
%TO.N,unconnected-(J1-Pin_12-Pad12)*%
X115974852Y-96184319D03*
%TO.N,unconnected-(J1-Pin_13-Pad13)*%
X111804852Y-98184319D03*
%TO.N,unconnected-(J1-Pin_14-Pad14)*%
X115974852Y-98184319D03*
%TO.N,unconnected-(J1-Pin_15-Pad15)*%
X111804852Y-100184319D03*
%TO.N,unconnected-(J1-Pin_16-Pad16)*%
X115974852Y-100184319D03*
%TO.N,GND*%
X111804852Y-102184319D03*
X115974852Y-102184319D03*
X111804852Y-104184319D03*
X115974852Y-104184319D03*
%TD*%
D11*
%TO.N,+BATT*%
%TO.C,J3*%
X144483852Y-117075319D03*
%TO.N,-BATT*%
X144483852Y-114575319D03*
%TD*%
D10*
%TO.N,unconnected-(J2-Pin_1-Pad1)*%
%TO.C,J2*%
X152194852Y-86184319D03*
%TO.N,unconnected-(J2-Pin_2-Pad2)*%
X156364852Y-86184319D03*
%TO.N,unconnected-(J2-Pin_3-Pad3)*%
X152194852Y-88184319D03*
%TO.N,unconnected-(J2-Pin_4-Pad4)*%
X156364852Y-88184319D03*
%TO.N,unconnected-(J2-Pin_5-Pad5)*%
X152194852Y-90184319D03*
%TO.N,unconnected-(J2-Pin_6-Pad6)*%
X156364852Y-90184319D03*
%TO.N,unconnected-(J2-Pin_7-Pad7)*%
X152194852Y-92184319D03*
%TO.N,unconnected-(J2-Pin_8-Pad8)*%
X156364852Y-92184319D03*
%TO.N,unconnected-(J2-Pin_9-Pad9)*%
X152194852Y-94184319D03*
%TO.N,unconnected-(J2-Pin_10-Pad10)*%
X156364852Y-94184319D03*
%TO.N,unconnected-(J2-Pin_11-Pad11)*%
X152194852Y-96184319D03*
%TO.N,unconnected-(J2-Pin_12-Pad12)*%
X156364852Y-96184319D03*
%TO.N,GND*%
X152194852Y-98184319D03*
X156364852Y-98184319D03*
X152194852Y-100184319D03*
X156364852Y-100184319D03*
%TO.N,+BATT*%
X152194852Y-102184319D03*
X156364852Y-102184319D03*
%TO.N,-BATT*%
X152194852Y-104184319D03*
X156364852Y-104184319D03*
%TD*%
%TA.AperFunction,Conductor*%
%TO.N,GND*%
G36*
X148670911Y-70703001D02*
G01*
X149349785Y-71117715D01*
X149353283Y-71119934D01*
X150155735Y-71648253D01*
X150155737Y-71648254D01*
X150159199Y-71650618D01*
X150159202Y-71650621D01*
X150159204Y-71650622D01*
X150943287Y-72205786D01*
X150946671Y-72208270D01*
X151711481Y-72789636D01*
X151714780Y-72792233D01*
X152459489Y-73399170D01*
X152462698Y-73401877D01*
X153186424Y-74033670D01*
X153189540Y-74036484D01*
X153891488Y-74692437D01*
X153894506Y-74695355D01*
X154573817Y-75374665D01*
X154576735Y-75377683D01*
X155232689Y-76079630D01*
X155235503Y-76082746D01*
X155867296Y-76806472D01*
X155870003Y-76809681D01*
X156476942Y-77554388D01*
X156479539Y-77557687D01*
X157060906Y-78322497D01*
X157063390Y-78325881D01*
X157618555Y-79109962D01*
X157620923Y-79113429D01*
X158149234Y-79915868D01*
X158151482Y-79919413D01*
X158418143Y-80355925D01*
X158536296Y-80549338D01*
X158566169Y-80598238D01*
X158584352Y-80662881D01*
X158584352Y-109705733D01*
X158566169Y-109770376D01*
X158151459Y-110449236D01*
X158149210Y-110452781D01*
X157620923Y-111255178D01*
X157618556Y-111258645D01*
X157063386Y-112042731D01*
X157060902Y-112046115D01*
X156479513Y-112810953D01*
X156476916Y-112814252D01*
X155869989Y-113558945D01*
X155867282Y-113562154D01*
X155235489Y-114285880D01*
X155232675Y-114288996D01*
X154576721Y-114990943D01*
X154573803Y-114993961D01*
X153894493Y-115673273D01*
X153891475Y-115676191D01*
X153189528Y-116332145D01*
X153186412Y-116334959D01*
X152462701Y-116966741D01*
X152459493Y-116969448D01*
X151714773Y-117576400D01*
X151711474Y-117578997D01*
X150946651Y-118160376D01*
X150943266Y-118162860D01*
X150159181Y-118718032D01*
X150155714Y-118720399D01*
X149353319Y-119248686D01*
X149349774Y-119250935D01*
X148670933Y-119665636D01*
X148606290Y-119683819D01*
X119563436Y-119683819D01*
X119498794Y-119665637D01*
X118841592Y-119264162D01*
X118819935Y-119250932D01*
X118816397Y-119248688D01*
X118013966Y-118720383D01*
X118010499Y-118718015D01*
X117226417Y-118162851D01*
X117223033Y-118160367D01*
X116458223Y-117579000D01*
X116454924Y-117576403D01*
X115710217Y-116969466D01*
X115707008Y-116966759D01*
X114983282Y-116334966D01*
X114980166Y-116332152D01*
X114278219Y-115676199D01*
X114275201Y-115673281D01*
X113595891Y-114993970D01*
X113592973Y-114990952D01*
X113172461Y-114540953D01*
X113097893Y-114461156D01*
X143033352Y-114461156D01*
X143033352Y-114689481D01*
X143069067Y-114914979D01*
X143139622Y-115132122D01*
X143239977Y-115329079D01*
X143243273Y-115335547D01*
X143377473Y-115520256D01*
X143538915Y-115681698D01*
X143538921Y-115681702D01*
X143598516Y-115725002D01*
X143641182Y-115780332D01*
X143647160Y-115849946D01*
X143614553Y-115911740D01*
X143598516Y-115925636D01*
X143538921Y-115968935D01*
X143538912Y-115968942D01*
X143377474Y-116130380D01*
X143243273Y-116315090D01*
X143139622Y-116518515D01*
X143069067Y-116735658D01*
X143033352Y-116961156D01*
X143033352Y-117189481D01*
X143069067Y-117414979D01*
X143139622Y-117632122D01*
X143243273Y-117835547D01*
X143377473Y-118020256D01*
X143538915Y-118181698D01*
X143723624Y-118315898D01*
X143819736Y-118364869D01*
X143927048Y-118419548D01*
X143927050Y-118419548D01*
X143927053Y-118419550D01*
X144043444Y-118457368D01*
X144144191Y-118490103D01*
X144369690Y-118525819D01*
X144369695Y-118525819D01*
X144598014Y-118525819D01*
X144823512Y-118490103D01*
X145040651Y-118419550D01*
X145244080Y-118315898D01*
X145428789Y-118181698D01*
X145590231Y-118020256D01*
X145724431Y-117835547D01*
X145828083Y-117632118D01*
X145898636Y-117414979D01*
X145899237Y-117411185D01*
X145934352Y-117189481D01*
X145934352Y-116961156D01*
X145898636Y-116735658D01*
X145828081Y-116518515D01*
X145773402Y-116411203D01*
X145724431Y-116315091D01*
X145590231Y-116130382D01*
X145428789Y-115968940D01*
X145369185Y-115925635D01*
X145326522Y-115870307D01*
X145320543Y-115800693D01*
X145353149Y-115738898D01*
X145369181Y-115725005D01*
X145428789Y-115681698D01*
X145590231Y-115520256D01*
X145724431Y-115335547D01*
X145828083Y-115132118D01*
X145898636Y-114914979D01*
X145934352Y-114689481D01*
X145934352Y-114461156D01*
X145898636Y-114235658D01*
X145828081Y-114018515D01*
X145773402Y-113911203D01*
X145724431Y-113815091D01*
X145590231Y-113630382D01*
X145428789Y-113468940D01*
X145244080Y-113334740D01*
X145040655Y-113231089D01*
X144823512Y-113160534D01*
X144598014Y-113124819D01*
X144598009Y-113124819D01*
X144369695Y-113124819D01*
X144369690Y-113124819D01*
X144144191Y-113160534D01*
X143927048Y-113231089D01*
X143723623Y-113334740D01*
X143538913Y-113468941D01*
X143377474Y-113630380D01*
X143243273Y-113815090D01*
X143139622Y-114018515D01*
X143069067Y-114235658D01*
X143033352Y-114461156D01*
X113097893Y-114461156D01*
X112937021Y-114289004D01*
X112934207Y-114285888D01*
X112700803Y-114018520D01*
X112302409Y-113562154D01*
X112299708Y-113558952D01*
X111692771Y-112814244D01*
X111690174Y-112810945D01*
X111108799Y-112046121D01*
X111106315Y-112042736D01*
X111106311Y-112042731D01*
X110551147Y-111258645D01*
X110548794Y-111255200D01*
X110020499Y-110452782D01*
X110018250Y-110449237D01*
X110018249Y-110449236D01*
X109751595Y-110012729D01*
X109603534Y-109770357D01*
X109585352Y-109705715D01*
X109585352Y-104732163D01*
X110014852Y-104732163D01*
X110021253Y-104791691D01*
X110021255Y-104791698D01*
X110071497Y-104926405D01*
X110071501Y-104926412D01*
X110157661Y-105041506D01*
X110157664Y-105041509D01*
X110272758Y-105127669D01*
X110272765Y-105127673D01*
X110407472Y-105177915D01*
X110407479Y-105177917D01*
X110467007Y-105184318D01*
X110467024Y-105184319D01*
X111554852Y-105184319D01*
X112054852Y-105184319D01*
X113142680Y-105184319D01*
X113142696Y-105184318D01*
X113202224Y-105177917D01*
X113202231Y-105177915D01*
X113336938Y-105127673D01*
X113336945Y-105127669D01*
X113452039Y-105041509D01*
X113452042Y-105041506D01*
X113538202Y-104926412D01*
X113538206Y-104926405D01*
X113588448Y-104791698D01*
X113588450Y-104791691D01*
X113594851Y-104732163D01*
X114184852Y-104732163D01*
X114191253Y-104791691D01*
X114191255Y-104791698D01*
X114241497Y-104926405D01*
X114241501Y-104926412D01*
X114327661Y-105041506D01*
X114327664Y-105041509D01*
X114442758Y-105127669D01*
X114442765Y-105127673D01*
X114577472Y-105177915D01*
X114577479Y-105177917D01*
X114637007Y-105184318D01*
X114637024Y-105184319D01*
X115724852Y-105184319D01*
X116224852Y-105184319D01*
X117312680Y-105184319D01*
X117312696Y-105184318D01*
X117372224Y-105177917D01*
X117372231Y-105177915D01*
X117506938Y-105127673D01*
X117506945Y-105127669D01*
X117622039Y-105041509D01*
X117622042Y-105041506D01*
X117708202Y-104926412D01*
X117708206Y-104926405D01*
X117758448Y-104791698D01*
X117758450Y-104791691D01*
X117764851Y-104732163D01*
X117764852Y-104732146D01*
X117764852Y-104434319D01*
X116224852Y-104434319D01*
X116224852Y-105184319D01*
X115724852Y-105184319D01*
X115724852Y-104434319D01*
X114184852Y-104434319D01*
X114184852Y-104732163D01*
X113594851Y-104732163D01*
X113594852Y-104732146D01*
X113594852Y-104434319D01*
X112054852Y-104434319D01*
X112054852Y-105184319D01*
X111554852Y-105184319D01*
X111554852Y-104434319D01*
X110014852Y-104434319D01*
X110014852Y-104732163D01*
X109585352Y-104732163D01*
X109585352Y-104138241D01*
X111454852Y-104138241D01*
X111454852Y-104230397D01*
X111478704Y-104319414D01*
X111524782Y-104399224D01*
X111589947Y-104464389D01*
X111669757Y-104510467D01*
X111758774Y-104534319D01*
X111850930Y-104534319D01*
X111939947Y-104510467D01*
X112019757Y-104464389D01*
X112084922Y-104399224D01*
X112131000Y-104319414D01*
X112154852Y-104230397D01*
X112154852Y-104138241D01*
X115624852Y-104138241D01*
X115624852Y-104230397D01*
X115648704Y-104319414D01*
X115694782Y-104399224D01*
X115759947Y-104464389D01*
X115839757Y-104510467D01*
X115928774Y-104534319D01*
X116020930Y-104534319D01*
X116109947Y-104510467D01*
X116189757Y-104464389D01*
X116254922Y-104399224D01*
X116301000Y-104319414D01*
X116324852Y-104230397D01*
X116324852Y-104138241D01*
X116301000Y-104049224D01*
X116254922Y-103969414D01*
X116219827Y-103934319D01*
X116224852Y-103934319D01*
X117764852Y-103934319D01*
X117764852Y-103636491D01*
X117764851Y-103636474D01*
X117758450Y-103576946D01*
X117758448Y-103576939D01*
X117708206Y-103442232D01*
X117708202Y-103442225D01*
X117622042Y-103327132D01*
X117563873Y-103283586D01*
X117522002Y-103227652D01*
X117517018Y-103157960D01*
X117550503Y-103096637D01*
X117563873Y-103085052D01*
X117622042Y-103041505D01*
X117708202Y-102926412D01*
X117708206Y-102926405D01*
X117758448Y-102791698D01*
X117758450Y-102791691D01*
X117764851Y-102732163D01*
X117764852Y-102732146D01*
X117764852Y-102434319D01*
X116224852Y-102434319D01*
X116224852Y-103934319D01*
X116219827Y-103934319D01*
X116189757Y-103904249D01*
X116109947Y-103858171D01*
X116020930Y-103834319D01*
X115928774Y-103834319D01*
X115839757Y-103858171D01*
X115759947Y-103904249D01*
X115694782Y-103969414D01*
X115648704Y-104049224D01*
X115624852Y-104138241D01*
X112154852Y-104138241D01*
X112131000Y-104049224D01*
X112084922Y-103969414D01*
X112049827Y-103934319D01*
X112054852Y-103934319D01*
X113594852Y-103934319D01*
X113594852Y-103636491D01*
X113594851Y-103636474D01*
X113588450Y-103576946D01*
X113588448Y-103576939D01*
X113538206Y-103442232D01*
X113538202Y-103442225D01*
X113452042Y-103327132D01*
X113393873Y-103283586D01*
X113352002Y-103227652D01*
X113347018Y-103157960D01*
X113380503Y-103096637D01*
X113393873Y-103085052D01*
X113452042Y-103041505D01*
X113538202Y-102926412D01*
X113538206Y-102926405D01*
X113588448Y-102791698D01*
X113588450Y-102791691D01*
X113594851Y-102732163D01*
X114184852Y-102732163D01*
X114191253Y-102791691D01*
X114191255Y-102791698D01*
X114241497Y-102926405D01*
X114241501Y-102926412D01*
X114327661Y-103041506D01*
X114385831Y-103085053D01*
X114427701Y-103140987D01*
X114432685Y-103210679D01*
X114399199Y-103272002D01*
X114385831Y-103283585D01*
X114327661Y-103327131D01*
X114241501Y-103442225D01*
X114241497Y-103442232D01*
X114191255Y-103576939D01*
X114191253Y-103576946D01*
X114184852Y-103636474D01*
X114184852Y-103934319D01*
X115724852Y-103934319D01*
X115724852Y-102434319D01*
X114184852Y-102434319D01*
X114184852Y-102732163D01*
X113594851Y-102732163D01*
X113594852Y-102732146D01*
X113594852Y-102434319D01*
X112054852Y-102434319D01*
X112054852Y-103934319D01*
X112049827Y-103934319D01*
X112019757Y-103904249D01*
X111939947Y-103858171D01*
X111850930Y-103834319D01*
X111758774Y-103834319D01*
X111669757Y-103858171D01*
X111589947Y-103904249D01*
X111524782Y-103969414D01*
X111478704Y-104049224D01*
X111454852Y-104138241D01*
X109585352Y-104138241D01*
X109585352Y-102732163D01*
X110014852Y-102732163D01*
X110021253Y-102791691D01*
X110021255Y-102791698D01*
X110071497Y-102926405D01*
X110071501Y-102926412D01*
X110157661Y-103041506D01*
X110215831Y-103085053D01*
X110257701Y-103140987D01*
X110262685Y-103210679D01*
X110229199Y-103272002D01*
X110215831Y-103283585D01*
X110157661Y-103327131D01*
X110071501Y-103442225D01*
X110071497Y-103442232D01*
X110021255Y-103576939D01*
X110021253Y-103576946D01*
X110014852Y-103636474D01*
X110014852Y-103934319D01*
X111554852Y-103934319D01*
X111554852Y-102434319D01*
X110014852Y-102434319D01*
X110014852Y-102732163D01*
X109585352Y-102732163D01*
X109585352Y-85636454D01*
X110014352Y-85636454D01*
X110014352Y-86732189D01*
X110014353Y-86732195D01*
X110020760Y-86791802D01*
X110071054Y-86926647D01*
X110071058Y-86926654D01*
X110157304Y-87041863D01*
X110157305Y-87041863D01*
X110157306Y-87041865D01*
X110186467Y-87063695D01*
X110214997Y-87085053D01*
X110256867Y-87140987D01*
X110261851Y-87210679D01*
X110228365Y-87272002D01*
X110214997Y-87283585D01*
X110157304Y-87326774D01*
X110071058Y-87441983D01*
X110071054Y-87441990D01*
X110020760Y-87576836D01*
X110014353Y-87636435D01*
X110014353Y-87636442D01*
X110014352Y-87636454D01*
X110014352Y-88732189D01*
X110014353Y-88732195D01*
X110020760Y-88791802D01*
X110071054Y-88926647D01*
X110071058Y-88926654D01*
X110157304Y-89041863D01*
X110157305Y-89041863D01*
X110157306Y-89041865D01*
X110186467Y-89063695D01*
X110214997Y-89085053D01*
X110256867Y-89140987D01*
X110261851Y-89210679D01*
X110228365Y-89272002D01*
X110214997Y-89283585D01*
X110157304Y-89326774D01*
X110071058Y-89441983D01*
X110071054Y-89441990D01*
X110020760Y-89576836D01*
X110014353Y-89636435D01*
X110014353Y-89636442D01*
X110014352Y-89636454D01*
X110014352Y-90732189D01*
X110014353Y-90732195D01*
X110020760Y-90791802D01*
X110071054Y-90926647D01*
X110071058Y-90926654D01*
X110157304Y-91041863D01*
X110157305Y-91041863D01*
X110157306Y-91041865D01*
X110192579Y-91068270D01*
X110215414Y-91085365D01*
X110257284Y-91141299D01*
X110262268Y-91210991D01*
X110228782Y-91272313D01*
X110215414Y-91283897D01*
X110157661Y-91327131D01*
X110071501Y-91442225D01*
X110071497Y-91442232D01*
X110021255Y-91576939D01*
X110021253Y-91576946D01*
X110014852Y-91636474D01*
X110014852Y-91934319D01*
X111559877Y-91934319D01*
X111524782Y-91969414D01*
X111478704Y-92049224D01*
X111454852Y-92138241D01*
X111454852Y-92230397D01*
X111478704Y-92319414D01*
X111524782Y-92399224D01*
X111559877Y-92434319D01*
X110014852Y-92434319D01*
X110014852Y-92732163D01*
X110021253Y-92791691D01*
X110021255Y-92791698D01*
X110071497Y-92926405D01*
X110071501Y-92926412D01*
X110157661Y-93041505D01*
X110215413Y-93084739D01*
X110257284Y-93140673D01*
X110262268Y-93210365D01*
X110228783Y-93271688D01*
X110215415Y-93283271D01*
X110157306Y-93326772D01*
X110157304Y-93326774D01*
X110071058Y-93441983D01*
X110071054Y-93441990D01*
X110020760Y-93576836D01*
X110014353Y-93636435D01*
X110014353Y-93636442D01*
X110014352Y-93636454D01*
X110014352Y-94732189D01*
X110014353Y-94732195D01*
X110020760Y-94791802D01*
X110071054Y-94926647D01*
X110071058Y-94926654D01*
X110157304Y-95041863D01*
X110157305Y-95041863D01*
X110157306Y-95041865D01*
X110186467Y-95063695D01*
X110214997Y-95085053D01*
X110256867Y-95140987D01*
X110261851Y-95210679D01*
X110228365Y-95272002D01*
X110214997Y-95283585D01*
X110157304Y-95326774D01*
X110071058Y-95441983D01*
X110071054Y-95441990D01*
X110020760Y-95576836D01*
X110014353Y-95636435D01*
X110014353Y-95636442D01*
X110014352Y-95636454D01*
X110014352Y-96732189D01*
X110014353Y-96732195D01*
X110020760Y-96791802D01*
X110071054Y-96926647D01*
X110071058Y-96926654D01*
X110157304Y-97041863D01*
X110157305Y-97041863D01*
X110157306Y-97041865D01*
X110186467Y-97063695D01*
X110214997Y-97085053D01*
X110256867Y-97140987D01*
X110261851Y-97210679D01*
X110228365Y-97272002D01*
X110214997Y-97283585D01*
X110157304Y-97326774D01*
X110071058Y-97441983D01*
X110071054Y-97441990D01*
X110020760Y-97576836D01*
X110014353Y-97636435D01*
X110014353Y-97636442D01*
X110014352Y-97636454D01*
X110014352Y-98732189D01*
X110014353Y-98732195D01*
X110020760Y-98791802D01*
X110071054Y-98926647D01*
X110071058Y-98926654D01*
X110157304Y-99041863D01*
X110157305Y-99041863D01*
X110157306Y-99041865D01*
X110186467Y-99063695D01*
X110214997Y-99085053D01*
X110256867Y-99140987D01*
X110261851Y-99210679D01*
X110228365Y-99272002D01*
X110214997Y-99283585D01*
X110157304Y-99326774D01*
X110071058Y-99441983D01*
X110071054Y-99441990D01*
X110020760Y-99576836D01*
X110018763Y-99595416D01*
X110014353Y-99636442D01*
X110014352Y-99636454D01*
X110014352Y-100732189D01*
X110014353Y-100732195D01*
X110020760Y-100791802D01*
X110071054Y-100926647D01*
X110071058Y-100926654D01*
X110157304Y-101041863D01*
X110157305Y-101041863D01*
X110157306Y-101041865D01*
X110192579Y-101068270D01*
X110215414Y-101085365D01*
X110257284Y-101141299D01*
X110262268Y-101210991D01*
X110228782Y-101272313D01*
X110215414Y-101283897D01*
X110157661Y-101327131D01*
X110071501Y-101442225D01*
X110071497Y-101442232D01*
X110021255Y-101576939D01*
X110021253Y-101576946D01*
X110014852Y-101636474D01*
X110014852Y-101934319D01*
X111559877Y-101934319D01*
X111524782Y-101969414D01*
X111478704Y-102049224D01*
X111454852Y-102138241D01*
X111454852Y-102230397D01*
X111478704Y-102319414D01*
X111524782Y-102399224D01*
X111589947Y-102464389D01*
X111669757Y-102510467D01*
X111758774Y-102534319D01*
X111850930Y-102534319D01*
X111939947Y-102510467D01*
X112019757Y-102464389D01*
X112084922Y-102399224D01*
X112131000Y-102319414D01*
X112154852Y-102230397D01*
X112154852Y-102138241D01*
X112131000Y-102049224D01*
X112084922Y-101969414D01*
X112049827Y-101934319D01*
X113594852Y-101934319D01*
X113594852Y-101636491D01*
X113594851Y-101636474D01*
X113588450Y-101576946D01*
X113588448Y-101576939D01*
X113538206Y-101442232D01*
X113538202Y-101442225D01*
X113452042Y-101327131D01*
X113452039Y-101327128D01*
X113394290Y-101283897D01*
X113352419Y-101227964D01*
X113347435Y-101158272D01*
X113380921Y-101096949D01*
X113394284Y-101085368D01*
X113452398Y-101041865D01*
X113538648Y-100926650D01*
X113588943Y-100791802D01*
X113595352Y-100732192D01*
X113595351Y-99636447D01*
X113588943Y-99576836D01*
X113538736Y-99442225D01*
X113538649Y-99441990D01*
X113538645Y-99441983D01*
X113486975Y-99372962D01*
X113452398Y-99326773D01*
X113394706Y-99283584D01*
X113352836Y-99227652D01*
X113347852Y-99157960D01*
X113381337Y-99096637D01*
X113394706Y-99085053D01*
X113452398Y-99041865D01*
X113538648Y-98926650D01*
X113588943Y-98791802D01*
X113595352Y-98732192D01*
X113595351Y-97636447D01*
X113588943Y-97576836D01*
X113586622Y-97570614D01*
X113538649Y-97441990D01*
X113538645Y-97441983D01*
X113452666Y-97327131D01*
X113452398Y-97326773D01*
X113394706Y-97283584D01*
X113352836Y-97227652D01*
X113347852Y-97157960D01*
X113381337Y-97096637D01*
X113394706Y-97085053D01*
X113452398Y-97041865D01*
X113538648Y-96926650D01*
X113588943Y-96791802D01*
X113595352Y-96732192D01*
X113595351Y-95636447D01*
X113588943Y-95576836D01*
X113538648Y-95441988D01*
X113538647Y-95441987D01*
X113538645Y-95441983D01*
X113452399Y-95326775D01*
X113452400Y-95326775D01*
X113452398Y-95326773D01*
X113394706Y-95283584D01*
X113352836Y-95227652D01*
X113347852Y-95157960D01*
X113381337Y-95096637D01*
X113394706Y-95085053D01*
X113452398Y-95041865D01*
X113538648Y-94926650D01*
X113588943Y-94791802D01*
X113595352Y-94732192D01*
X113595351Y-93636447D01*
X113588943Y-93576836D01*
X113555794Y-93487960D01*
X113538649Y-93441990D01*
X113538645Y-93441983D01*
X113452399Y-93326774D01*
X113452396Y-93326772D01*
X113434761Y-93313570D01*
X113394289Y-93283272D01*
X113352419Y-93227338D01*
X113347435Y-93157646D01*
X113380921Y-93096323D01*
X113394291Y-93084739D01*
X113452041Y-93041507D01*
X113452042Y-93041506D01*
X113538202Y-92926412D01*
X113538206Y-92926405D01*
X113588448Y-92791698D01*
X113588450Y-92791691D01*
X113594851Y-92732163D01*
X113594852Y-92732146D01*
X113594852Y-92434319D01*
X112049827Y-92434319D01*
X112084922Y-92399224D01*
X112131000Y-92319414D01*
X112154852Y-92230397D01*
X112154852Y-92138241D01*
X112131000Y-92049224D01*
X112084922Y-91969414D01*
X112049827Y-91934319D01*
X113594852Y-91934319D01*
X113594852Y-91636491D01*
X113594851Y-91636474D01*
X113588450Y-91576946D01*
X113588448Y-91576939D01*
X113538206Y-91442232D01*
X113538202Y-91442225D01*
X113452042Y-91327131D01*
X113452039Y-91327128D01*
X113394290Y-91283897D01*
X113352419Y-91227964D01*
X113347435Y-91158272D01*
X113380921Y-91096949D01*
X113394284Y-91085368D01*
X113452398Y-91041865D01*
X113538648Y-90926650D01*
X113588943Y-90791802D01*
X113595352Y-90732192D01*
X113595351Y-89636447D01*
X113588943Y-89576836D01*
X113538648Y-89441988D01*
X113538647Y-89441987D01*
X113538645Y-89441983D01*
X113452399Y-89326775D01*
X113452400Y-89326775D01*
X113452398Y-89326773D01*
X113394706Y-89283584D01*
X113352836Y-89227652D01*
X113347852Y-89157960D01*
X113381337Y-89096637D01*
X113394706Y-89085053D01*
X113452398Y-89041865D01*
X113538648Y-88926650D01*
X113588943Y-88791802D01*
X113595352Y-88732192D01*
X113595351Y-87636447D01*
X113588943Y-87576836D01*
X113539022Y-87442992D01*
X113538649Y-87441990D01*
X113538645Y-87441983D01*
X113452399Y-87326775D01*
X113452400Y-87326775D01*
X113452398Y-87326773D01*
X113394706Y-87283584D01*
X113352836Y-87227652D01*
X113347852Y-87157960D01*
X113381337Y-87096637D01*
X113394706Y-87085053D01*
X113452398Y-87041865D01*
X113538648Y-86926650D01*
X113588943Y-86791802D01*
X113595352Y-86732192D01*
X113595351Y-85636454D01*
X114184352Y-85636454D01*
X114184352Y-86732189D01*
X114184353Y-86732195D01*
X114190760Y-86791802D01*
X114241054Y-86926647D01*
X114241058Y-86926654D01*
X114327304Y-87041863D01*
X114327305Y-87041863D01*
X114327306Y-87041865D01*
X114356467Y-87063695D01*
X114384997Y-87085053D01*
X114426867Y-87140987D01*
X114431851Y-87210679D01*
X114398365Y-87272002D01*
X114384997Y-87283585D01*
X114327304Y-87326774D01*
X114241058Y-87441983D01*
X114241054Y-87441990D01*
X114190760Y-87576836D01*
X114184353Y-87636435D01*
X114184353Y-87636442D01*
X114184352Y-87636454D01*
X114184352Y-88732189D01*
X114184353Y-88732195D01*
X114190760Y-88791802D01*
X114241054Y-88926647D01*
X114241058Y-88926654D01*
X114327304Y-89041863D01*
X114327305Y-89041863D01*
X114327306Y-89041865D01*
X114356467Y-89063695D01*
X114384997Y-89085053D01*
X114426867Y-89140987D01*
X114431851Y-89210679D01*
X114398365Y-89272002D01*
X114384997Y-89283585D01*
X114327304Y-89326774D01*
X114241058Y-89441983D01*
X114241054Y-89441990D01*
X114190760Y-89576836D01*
X114184353Y-89636435D01*
X114184353Y-89636442D01*
X114184352Y-89636454D01*
X114184352Y-90732189D01*
X114184353Y-90732195D01*
X114190760Y-90791802D01*
X114241054Y-90926647D01*
X114241058Y-90926654D01*
X114327304Y-91041863D01*
X114327305Y-91041863D01*
X114327306Y-91041865D01*
X114356467Y-91063695D01*
X114384997Y-91085053D01*
X114426867Y-91140987D01*
X114431851Y-91210679D01*
X114398365Y-91272002D01*
X114384997Y-91283585D01*
X114327304Y-91326774D01*
X114241058Y-91441983D01*
X114241054Y-91441990D01*
X114190760Y-91576836D01*
X114184353Y-91636435D01*
X114184353Y-91636442D01*
X114184352Y-91636454D01*
X114184352Y-92732189D01*
X114184353Y-92732195D01*
X114190760Y-92791802D01*
X114241054Y-92926647D01*
X114241058Y-92926654D01*
X114327304Y-93041863D01*
X114327305Y-93041863D01*
X114327306Y-93041865D01*
X114362579Y-93068270D01*
X114385414Y-93085365D01*
X114427284Y-93141299D01*
X114432268Y-93210991D01*
X114398782Y-93272313D01*
X114385414Y-93283897D01*
X114327661Y-93327131D01*
X114241501Y-93442225D01*
X114241497Y-93442232D01*
X114191255Y-93576939D01*
X114191253Y-93576946D01*
X114184852Y-93636474D01*
X114184852Y-93934319D01*
X115729877Y-93934319D01*
X115694782Y-93969414D01*
X115648704Y-94049224D01*
X115624852Y-94138241D01*
X115624852Y-94230397D01*
X115648704Y-94319414D01*
X115694782Y-94399224D01*
X115729877Y-94434319D01*
X114184852Y-94434319D01*
X114184852Y-94732163D01*
X114191253Y-94791691D01*
X114191255Y-94791698D01*
X114241497Y-94926405D01*
X114241501Y-94926412D01*
X114327661Y-95041505D01*
X114385413Y-95084739D01*
X114427284Y-95140673D01*
X114432268Y-95210365D01*
X114398783Y-95271688D01*
X114385415Y-95283271D01*
X114327306Y-95326772D01*
X114327304Y-95326774D01*
X114241058Y-95441983D01*
X114241054Y-95441990D01*
X114190760Y-95576836D01*
X114184353Y-95636435D01*
X114184353Y-95636442D01*
X114184352Y-95636454D01*
X114184352Y-96732189D01*
X114184353Y-96732195D01*
X114190760Y-96791802D01*
X114241054Y-96926647D01*
X114241058Y-96926654D01*
X114327304Y-97041863D01*
X114327305Y-97041863D01*
X114327306Y-97041865D01*
X114356467Y-97063695D01*
X114384997Y-97085053D01*
X114426867Y-97140987D01*
X114431851Y-97210679D01*
X114398365Y-97272002D01*
X114384997Y-97283585D01*
X114327304Y-97326774D01*
X114241058Y-97441983D01*
X114241054Y-97441990D01*
X114190760Y-97576836D01*
X114184353Y-97636435D01*
X114184353Y-97636442D01*
X114184352Y-97636454D01*
X114184352Y-98732189D01*
X114184353Y-98732195D01*
X114190760Y-98791802D01*
X114241054Y-98926647D01*
X114241058Y-98926654D01*
X114327304Y-99041863D01*
X114327305Y-99041863D01*
X114327306Y-99041865D01*
X114356467Y-99063695D01*
X114384997Y-99085053D01*
X114426867Y-99140987D01*
X114431851Y-99210679D01*
X114398365Y-99272002D01*
X114384997Y-99283585D01*
X114327304Y-99326774D01*
X114241058Y-99441983D01*
X114241054Y-99441990D01*
X114190760Y-99576836D01*
X114188763Y-99595416D01*
X114184353Y-99636442D01*
X114184352Y-99636454D01*
X114184352Y-100732189D01*
X114184353Y-100732195D01*
X114190760Y-100791802D01*
X114241054Y-100926647D01*
X114241058Y-100926654D01*
X114327304Y-101041863D01*
X114327305Y-101041863D01*
X114327306Y-101041865D01*
X114362579Y-101068270D01*
X114385414Y-101085365D01*
X114427284Y-101141299D01*
X114432268Y-101210991D01*
X114398782Y-101272313D01*
X114385414Y-101283897D01*
X114327661Y-101327131D01*
X114241501Y-101442225D01*
X114241497Y-101442232D01*
X114191255Y-101576939D01*
X114191253Y-101576946D01*
X114184852Y-101636474D01*
X114184852Y-101934319D01*
X115729877Y-101934319D01*
X115694782Y-101969414D01*
X115648704Y-102049224D01*
X115624852Y-102138241D01*
X115624852Y-102230397D01*
X115648704Y-102319414D01*
X115694782Y-102399224D01*
X115759947Y-102464389D01*
X115839757Y-102510467D01*
X115928774Y-102534319D01*
X116020930Y-102534319D01*
X116109947Y-102510467D01*
X116189757Y-102464389D01*
X116254922Y-102399224D01*
X116301000Y-102319414D01*
X116324852Y-102230397D01*
X116324852Y-102138241D01*
X116301000Y-102049224D01*
X116254922Y-101969414D01*
X116219827Y-101934319D01*
X117764852Y-101934319D01*
X117764852Y-101636491D01*
X117764851Y-101636474D01*
X117758450Y-101576946D01*
X117758448Y-101576939D01*
X117708206Y-101442232D01*
X117708202Y-101442225D01*
X117622042Y-101327131D01*
X117622039Y-101327128D01*
X117564290Y-101283897D01*
X117522419Y-101227964D01*
X117517435Y-101158272D01*
X117550921Y-101096949D01*
X117564284Y-101085368D01*
X117622398Y-101041865D01*
X117708648Y-100926650D01*
X117758943Y-100791802D01*
X117765352Y-100732192D01*
X117765351Y-99636447D01*
X117758943Y-99576836D01*
X117708736Y-99442225D01*
X117708649Y-99441990D01*
X117708645Y-99441983D01*
X117656975Y-99372962D01*
X117622398Y-99326773D01*
X117564706Y-99283584D01*
X117522836Y-99227652D01*
X117517852Y-99157960D01*
X117551337Y-99096637D01*
X117564706Y-99085053D01*
X117622398Y-99041865D01*
X117708648Y-98926650D01*
X117758943Y-98791802D01*
X117765352Y-98732192D01*
X117765351Y-97636447D01*
X117758943Y-97576836D01*
X117756622Y-97570614D01*
X117708649Y-97441990D01*
X117708645Y-97441983D01*
X117622666Y-97327131D01*
X117622398Y-97326773D01*
X117564706Y-97283584D01*
X117522836Y-97227652D01*
X117517852Y-97157960D01*
X117551337Y-97096637D01*
X117564706Y-97085053D01*
X117622398Y-97041865D01*
X117708648Y-96926650D01*
X117758943Y-96791802D01*
X117765352Y-96732192D01*
X117765351Y-95636447D01*
X117758943Y-95576836D01*
X117708648Y-95441988D01*
X117708647Y-95441987D01*
X117708645Y-95441983D01*
X117622399Y-95326774D01*
X117622396Y-95326771D01*
X117593242Y-95304946D01*
X117593233Y-95304940D01*
X117564288Y-95283271D01*
X117522418Y-95227337D01*
X117520990Y-95207364D01*
X125070664Y-95207364D01*
X125070664Y-95207408D01*
X125091604Y-95798803D01*
X125091607Y-95798841D01*
X125151306Y-96387583D01*
X125249515Y-96971179D01*
X125385801Y-97547055D01*
X125385805Y-97547071D01*
X125559585Y-98112766D01*
X125559591Y-98112784D01*
X125770106Y-98665832D01*
X125770112Y-98665847D01*
X126016466Y-99203899D01*
X126016469Y-99203905D01*
X126016472Y-99203911D01*
X126297610Y-99724660D01*
X126410378Y-99904249D01*
X126612316Y-100225846D01*
X126959220Y-100705288D01*
X126959223Y-100705291D01*
X127077082Y-100847505D01*
X127334109Y-101157646D01*
X127336842Y-101160943D01*
X127730400Y-101576939D01*
X127743547Y-101590835D01*
X127792761Y-101636448D01*
X128177578Y-101993112D01*
X128177586Y-101993119D01*
X128579619Y-102319414D01*
X128637080Y-102366050D01*
X129120057Y-102708030D01*
X129624433Y-103017583D01*
X130148034Y-103293373D01*
X130688602Y-103534212D01*
X131017166Y-103655439D01*
X131243801Y-103739060D01*
X131243808Y-103739062D01*
X131811259Y-103907040D01*
X131932033Y-103934319D01*
X132388504Y-104037422D01*
X132388510Y-104037423D01*
X132973071Y-104129648D01*
X133415085Y-104169899D01*
X133562422Y-104183317D01*
X133653440Y-104185606D01*
X134154029Y-104198200D01*
X134154033Y-104198199D01*
X134154040Y-104198200D01*
X134745317Y-104174233D01*
X134745321Y-104174232D01*
X134745335Y-104174232D01*
X135333794Y-104111517D01*
X135916870Y-104010324D01*
X136492050Y-103871091D01*
X137056854Y-103694417D01*
X137608848Y-103481063D01*
X138145654Y-103231949D01*
X138664956Y-102948149D01*
X139164518Y-102630887D01*
X139418243Y-102445315D01*
X139483969Y-102421630D01*
X139552073Y-102437240D01*
X139579121Y-102457724D01*
X143523392Y-106401995D01*
X143692056Y-106522419D01*
X143692063Y-106522423D01*
X143878236Y-106613438D01*
X143985079Y-106645245D01*
X144076861Y-106672570D01*
X144282508Y-106698204D01*
X144489570Y-106689640D01*
X144692398Y-106647111D01*
X144885459Y-106571779D01*
X145063488Y-106465696D01*
X145221629Y-106331758D01*
X145355567Y-106173617D01*
X145461650Y-105995588D01*
X145536982Y-105802527D01*
X145579511Y-105599699D01*
X145588075Y-105392637D01*
X145562441Y-105186990D01*
X145519236Y-105041865D01*
X145503309Y-104988365D01*
X145412294Y-104802192D01*
X145412290Y-104802185D01*
X145291866Y-104633521D01*
X145275401Y-104617056D01*
X144294780Y-103636435D01*
X142294800Y-101636454D01*
X150404352Y-101636454D01*
X150404352Y-102732189D01*
X150404353Y-102732195D01*
X150410760Y-102791802D01*
X150461054Y-102926647D01*
X150461058Y-102926654D01*
X150547304Y-103041863D01*
X150547305Y-103041863D01*
X150547306Y-103041865D01*
X150576467Y-103063695D01*
X150604997Y-103085053D01*
X150646867Y-103140987D01*
X150651851Y-103210679D01*
X150618365Y-103272002D01*
X150604997Y-103283585D01*
X150547304Y-103326774D01*
X150461058Y-103441983D01*
X150461054Y-103441990D01*
X150410760Y-103576836D01*
X150404353Y-103636435D01*
X150404353Y-103636442D01*
X150404352Y-103636454D01*
X150404352Y-104732189D01*
X150404353Y-104732195D01*
X150410760Y-104791802D01*
X150461054Y-104926647D01*
X150461058Y-104926654D01*
X150547304Y-105041863D01*
X150547307Y-105041866D01*
X150662516Y-105128112D01*
X150662523Y-105128116D01*
X150797369Y-105178410D01*
X150797368Y-105178410D01*
X150804296Y-105179154D01*
X150856979Y-105184819D01*
X153532724Y-105184818D01*
X153592335Y-105178410D01*
X153727183Y-105128115D01*
X153842398Y-105041865D01*
X153928648Y-104926650D01*
X153978943Y-104791802D01*
X153985352Y-104732192D01*
X153985351Y-103636447D01*
X153978943Y-103576836D01*
X153963045Y-103534212D01*
X153928649Y-103441990D01*
X153928645Y-103441983D01*
X153876975Y-103372962D01*
X153842398Y-103326773D01*
X153784706Y-103283584D01*
X153742836Y-103227652D01*
X153737852Y-103157960D01*
X153771337Y-103096637D01*
X153784706Y-103085053D01*
X153842398Y-103041865D01*
X153928648Y-102926650D01*
X153978943Y-102791802D01*
X153985352Y-102732192D01*
X153985351Y-101636454D01*
X154574352Y-101636454D01*
X154574352Y-102732189D01*
X154574353Y-102732195D01*
X154580760Y-102791802D01*
X154631054Y-102926647D01*
X154631058Y-102926654D01*
X154717304Y-103041863D01*
X154717305Y-103041863D01*
X154717306Y-103041865D01*
X154746467Y-103063695D01*
X154774997Y-103085053D01*
X154816867Y-103140987D01*
X154821851Y-103210679D01*
X154788365Y-103272002D01*
X154774997Y-103283585D01*
X154717304Y-103326774D01*
X154631058Y-103441983D01*
X154631054Y-103441990D01*
X154580760Y-103576836D01*
X154574353Y-103636435D01*
X154574353Y-103636442D01*
X154574352Y-103636454D01*
X154574352Y-104732189D01*
X154574353Y-104732195D01*
X154580760Y-104791802D01*
X154631054Y-104926647D01*
X154631058Y-104926654D01*
X154717304Y-105041863D01*
X154717307Y-105041866D01*
X154832516Y-105128112D01*
X154832523Y-105128116D01*
X154967369Y-105178410D01*
X154967368Y-105178410D01*
X154974296Y-105179154D01*
X155026979Y-105184819D01*
X157702724Y-105184818D01*
X157762335Y-105178410D01*
X157897183Y-105128115D01*
X158012398Y-105041865D01*
X158098648Y-104926650D01*
X158148943Y-104791802D01*
X158155352Y-104732192D01*
X158155351Y-103636447D01*
X158148943Y-103576836D01*
X158133045Y-103534212D01*
X158098649Y-103441990D01*
X158098645Y-103441983D01*
X158046975Y-103372962D01*
X158012398Y-103326773D01*
X157954706Y-103283584D01*
X157912836Y-103227652D01*
X157907852Y-103157960D01*
X157941337Y-103096637D01*
X157954706Y-103085053D01*
X158012398Y-103041865D01*
X158098648Y-102926650D01*
X158148943Y-102791802D01*
X158155352Y-102732192D01*
X158155351Y-101636447D01*
X158148943Y-101576836D01*
X158098736Y-101442225D01*
X158098649Y-101441990D01*
X158098645Y-101441983D01*
X158012399Y-101326774D01*
X158012396Y-101326772D01*
X157993348Y-101312512D01*
X157954289Y-101283272D01*
X157912419Y-101227338D01*
X157907435Y-101157646D01*
X157940921Y-101096323D01*
X157954291Y-101084739D01*
X158012041Y-101041507D01*
X158012042Y-101041506D01*
X158098202Y-100926412D01*
X158098206Y-100926405D01*
X158148448Y-100791698D01*
X158148450Y-100791691D01*
X158154851Y-100732163D01*
X158154852Y-100732146D01*
X158154852Y-100434319D01*
X156609827Y-100434319D01*
X156644922Y-100399224D01*
X156691000Y-100319414D01*
X156714852Y-100230397D01*
X156714852Y-100138241D01*
X156691000Y-100049224D01*
X156644922Y-99969414D01*
X156609827Y-99934319D01*
X156614852Y-99934319D01*
X158154852Y-99934319D01*
X158154852Y-99636491D01*
X158154851Y-99636474D01*
X158148450Y-99576946D01*
X158148448Y-99576939D01*
X158098206Y-99442232D01*
X158098202Y-99442225D01*
X158012042Y-99327132D01*
X157953873Y-99283586D01*
X157912002Y-99227652D01*
X157907018Y-99157960D01*
X157940503Y-99096637D01*
X157953873Y-99085052D01*
X158012042Y-99041505D01*
X158098202Y-98926412D01*
X158098206Y-98926405D01*
X158148448Y-98791698D01*
X158148450Y-98791691D01*
X158154851Y-98732163D01*
X158154852Y-98732146D01*
X158154852Y-98434319D01*
X156614852Y-98434319D01*
X156614852Y-99934319D01*
X156609827Y-99934319D01*
X156579757Y-99904249D01*
X156499947Y-99858171D01*
X156410930Y-99834319D01*
X156318774Y-99834319D01*
X156229757Y-99858171D01*
X156149947Y-99904249D01*
X156084782Y-99969414D01*
X156038704Y-100049224D01*
X156014852Y-100138241D01*
X156014852Y-100230397D01*
X156038704Y-100319414D01*
X156084782Y-100399224D01*
X156119877Y-100434319D01*
X154574852Y-100434319D01*
X154574852Y-100732163D01*
X154581253Y-100791691D01*
X154581255Y-100791698D01*
X154631497Y-100926405D01*
X154631501Y-100926412D01*
X154717661Y-101041505D01*
X154775413Y-101084739D01*
X154817284Y-101140673D01*
X154822268Y-101210365D01*
X154788783Y-101271688D01*
X154775415Y-101283271D01*
X154717306Y-101326772D01*
X154717304Y-101326774D01*
X154631058Y-101441983D01*
X154631054Y-101441990D01*
X154580760Y-101576836D01*
X154575640Y-101624466D01*
X154574353Y-101636442D01*
X154574352Y-101636454D01*
X153985351Y-101636454D01*
X153985351Y-101636447D01*
X153978943Y-101576836D01*
X153928736Y-101442225D01*
X153928649Y-101441990D01*
X153928645Y-101441983D01*
X153842399Y-101326774D01*
X153842396Y-101326772D01*
X153823348Y-101312512D01*
X153784289Y-101283272D01*
X153742419Y-101227338D01*
X153737435Y-101157646D01*
X153770921Y-101096323D01*
X153784291Y-101084739D01*
X153842041Y-101041507D01*
X153842042Y-101041506D01*
X153928202Y-100926412D01*
X153928206Y-100926405D01*
X153978448Y-100791698D01*
X153978450Y-100791691D01*
X153984851Y-100732163D01*
X153984852Y-100732146D01*
X153984852Y-100434319D01*
X152439827Y-100434319D01*
X152474922Y-100399224D01*
X152521000Y-100319414D01*
X152544852Y-100230397D01*
X152544852Y-100138241D01*
X152521000Y-100049224D01*
X152474922Y-99969414D01*
X152439827Y-99934319D01*
X152444852Y-99934319D01*
X153984852Y-99934319D01*
X153984852Y-99636491D01*
X153984851Y-99636474D01*
X153978450Y-99576946D01*
X153978448Y-99576939D01*
X153928206Y-99442232D01*
X153928202Y-99442225D01*
X153842042Y-99327132D01*
X153783873Y-99283586D01*
X153742002Y-99227652D01*
X153737018Y-99157960D01*
X153770503Y-99096637D01*
X153783873Y-99085052D01*
X153842042Y-99041505D01*
X153928202Y-98926412D01*
X153928206Y-98926405D01*
X153978448Y-98791698D01*
X153978450Y-98791691D01*
X153984851Y-98732163D01*
X154574852Y-98732163D01*
X154581253Y-98791691D01*
X154581255Y-98791698D01*
X154631497Y-98926405D01*
X154631501Y-98926412D01*
X154717661Y-99041506D01*
X154775831Y-99085053D01*
X154817701Y-99140987D01*
X154822685Y-99210679D01*
X154789199Y-99272002D01*
X154775831Y-99283585D01*
X154717661Y-99327131D01*
X154631501Y-99442225D01*
X154631497Y-99442232D01*
X154581255Y-99576939D01*
X154581253Y-99576946D01*
X154574852Y-99636474D01*
X154574852Y-99934319D01*
X156114852Y-99934319D01*
X156114852Y-98434319D01*
X154574852Y-98434319D01*
X154574852Y-98732163D01*
X153984851Y-98732163D01*
X153984852Y-98732146D01*
X153984852Y-98434319D01*
X152444852Y-98434319D01*
X152444852Y-99934319D01*
X152439827Y-99934319D01*
X152409757Y-99904249D01*
X152329947Y-99858171D01*
X152240930Y-99834319D01*
X152148774Y-99834319D01*
X152059757Y-99858171D01*
X151979947Y-99904249D01*
X151914782Y-99969414D01*
X151868704Y-100049224D01*
X151844852Y-100138241D01*
X151844852Y-100230397D01*
X151868704Y-100319414D01*
X151914782Y-100399224D01*
X151949877Y-100434319D01*
X150404852Y-100434319D01*
X150404852Y-100732163D01*
X150411253Y-100791691D01*
X150411255Y-100791698D01*
X150461497Y-100926405D01*
X150461501Y-100926412D01*
X150547661Y-101041505D01*
X150605413Y-101084739D01*
X150647284Y-101140673D01*
X150652268Y-101210365D01*
X150618783Y-101271688D01*
X150605415Y-101283271D01*
X150547306Y-101326772D01*
X150547304Y-101326774D01*
X150461058Y-101441983D01*
X150461054Y-101441990D01*
X150410760Y-101576836D01*
X150405640Y-101624466D01*
X150404353Y-101636442D01*
X150404352Y-101636454D01*
X142294800Y-101636454D01*
X141349245Y-100690898D01*
X141315760Y-100629575D01*
X141320744Y-100559883D01*
X141336836Y-100530020D01*
X141531415Y-100263977D01*
X141848675Y-99764413D01*
X142132472Y-99245109D01*
X142370509Y-98732163D01*
X150404852Y-98732163D01*
X150411253Y-98791691D01*
X150411255Y-98791698D01*
X150461497Y-98926405D01*
X150461501Y-98926412D01*
X150547661Y-99041506D01*
X150605831Y-99085053D01*
X150647701Y-99140987D01*
X150652685Y-99210679D01*
X150619199Y-99272002D01*
X150605831Y-99283585D01*
X150547661Y-99327131D01*
X150461501Y-99442225D01*
X150461497Y-99442232D01*
X150411255Y-99576939D01*
X150411253Y-99576946D01*
X150404852Y-99636474D01*
X150404852Y-99934319D01*
X151944852Y-99934319D01*
X151944852Y-98434319D01*
X150404852Y-98434319D01*
X150404852Y-98732163D01*
X142370509Y-98732163D01*
X142381582Y-98708302D01*
X142594933Y-98156307D01*
X142594935Y-98156298D01*
X142594938Y-98156293D01*
X142757531Y-97636491D01*
X142771604Y-97591502D01*
X142910835Y-97016321D01*
X143012024Y-96433245D01*
X143074736Y-95844785D01*
X143080289Y-95707774D01*
X143098701Y-95253490D01*
X143097541Y-95207408D01*
X143083814Y-94661874D01*
X143030142Y-94072521D01*
X142937914Y-93487960D01*
X142807528Y-92910711D01*
X142639546Y-92343261D01*
X142434693Y-91788056D01*
X142193851Y-91247489D01*
X142193847Y-91247480D01*
X141918061Y-90723896D01*
X141918061Y-90723894D01*
X141608501Y-90219513D01*
X141608499Y-90219511D01*
X141581304Y-90181104D01*
X141266520Y-89736540D01*
X141266518Y-89736537D01*
X140893591Y-89277054D01*
X140861390Y-89242312D01*
X140491300Y-88843011D01*
X140061404Y-88436308D01*
X140024637Y-88405838D01*
X139605756Y-88058696D01*
X139605729Y-88058676D01*
X139126300Y-87711786D01*
X138625122Y-87397088D01*
X138104367Y-87115950D01*
X138104354Y-87115944D01*
X137566316Y-86869600D01*
X137566306Y-86869596D01*
X137566300Y-86869593D01*
X137566292Y-86869590D01*
X137013212Y-86659067D01*
X137013210Y-86659066D01*
X137013196Y-86659061D01*
X136447531Y-86485295D01*
X136447499Y-86485286D01*
X135871630Y-86349005D01*
X135288033Y-86250800D01*
X134699294Y-86191103D01*
X134699252Y-86191100D01*
X134107859Y-86170163D01*
X134107815Y-86170163D01*
X133516337Y-86188075D01*
X133516325Y-86188076D01*
X132927248Y-86244766D01*
X132343199Y-86339979D01*
X132343181Y-86339983D01*
X132343175Y-86339984D01*
X132343171Y-86339985D01*
X131885631Y-86445794D01*
X131766587Y-86473325D01*
X131200015Y-86644206D01*
X130645864Y-86851898D01*
X130106532Y-87095507D01*
X129584373Y-87373964D01*
X129584368Y-87373967D01*
X129584361Y-87373971D01*
X129584356Y-87373974D01*
X129474807Y-87441983D01*
X129081580Y-87686101D01*
X129081573Y-87686106D01*
X128600368Y-88030546D01*
X128600331Y-88030575D01*
X128142779Y-88405835D01*
X128142776Y-88405838D01*
X127710803Y-88810340D01*
X127306311Y-89242306D01*
X126931029Y-89699889D01*
X126586586Y-90181104D01*
X126586580Y-90181113D01*
X126586579Y-90181115D01*
X126562740Y-90219516D01*
X126274450Y-90683897D01*
X125995979Y-91206089D01*
X125752387Y-91745392D01*
X125752381Y-91745407D01*
X125544688Y-92299568D01*
X125373811Y-92866138D01*
X125373811Y-92866140D01*
X125320508Y-93096637D01*
X125240590Y-93442225D01*
X125240474Y-93442725D01*
X125240470Y-93442745D01*
X125145261Y-94026786D01*
X125145258Y-94026804D01*
X125088574Y-94615869D01*
X125088572Y-94615891D01*
X125070664Y-95207364D01*
X117520990Y-95207364D01*
X117517435Y-95157645D01*
X117550922Y-95096323D01*
X117564291Y-95084739D01*
X117622041Y-95041507D01*
X117622042Y-95041506D01*
X117708202Y-94926412D01*
X117708206Y-94926405D01*
X117758448Y-94791698D01*
X117758450Y-94791691D01*
X117764851Y-94732163D01*
X117764852Y-94732146D01*
X117764852Y-94434319D01*
X116219827Y-94434319D01*
X116254922Y-94399224D01*
X116301000Y-94319414D01*
X116324852Y-94230397D01*
X116324852Y-94138241D01*
X116301000Y-94049224D01*
X116254922Y-93969414D01*
X116219827Y-93934319D01*
X117764852Y-93934319D01*
X117764852Y-93636491D01*
X117764851Y-93636474D01*
X117758450Y-93576946D01*
X117758448Y-93576939D01*
X117708206Y-93442232D01*
X117708202Y-93442225D01*
X117622042Y-93327131D01*
X117622039Y-93327128D01*
X117564290Y-93283897D01*
X117522419Y-93227964D01*
X117517435Y-93158272D01*
X117550921Y-93096949D01*
X117564284Y-93085368D01*
X117622398Y-93041865D01*
X117708648Y-92926650D01*
X117758943Y-92791802D01*
X117765352Y-92732192D01*
X117765351Y-91636447D01*
X117758943Y-91576836D01*
X117752949Y-91560766D01*
X117708649Y-91441990D01*
X117708645Y-91441983D01*
X117622666Y-91327131D01*
X117622398Y-91326773D01*
X117564706Y-91283584D01*
X117522836Y-91227652D01*
X117517852Y-91157960D01*
X117551337Y-91096637D01*
X117564706Y-91085053D01*
X117622398Y-91041865D01*
X117708648Y-90926650D01*
X117758943Y-90791802D01*
X117765352Y-90732192D01*
X117765351Y-89636447D01*
X117758943Y-89576836D01*
X117708648Y-89441988D01*
X117708647Y-89441987D01*
X117708645Y-89441983D01*
X117622399Y-89326775D01*
X117622400Y-89326775D01*
X117622398Y-89326773D01*
X117564706Y-89283584D01*
X117522836Y-89227652D01*
X117517852Y-89157960D01*
X117551337Y-89096637D01*
X117564706Y-89085053D01*
X117622398Y-89041865D01*
X117708648Y-88926650D01*
X117758943Y-88791802D01*
X117765352Y-88732192D01*
X117765351Y-87636447D01*
X117758943Y-87576836D01*
X117709022Y-87442992D01*
X117708649Y-87441990D01*
X117708645Y-87441983D01*
X117622399Y-87326775D01*
X117622400Y-87326775D01*
X117622398Y-87326773D01*
X117564706Y-87283584D01*
X117522836Y-87227652D01*
X117517852Y-87157960D01*
X117551337Y-87096637D01*
X117564706Y-87085053D01*
X117622398Y-87041865D01*
X117708648Y-86926650D01*
X117758943Y-86791802D01*
X117765352Y-86732192D01*
X117765351Y-85636454D01*
X150404352Y-85636454D01*
X150404352Y-86732189D01*
X150404353Y-86732195D01*
X150410760Y-86791802D01*
X150461054Y-86926647D01*
X150461058Y-86926654D01*
X150547304Y-87041863D01*
X150547305Y-87041863D01*
X150547306Y-87041865D01*
X150576467Y-87063695D01*
X150604997Y-87085053D01*
X150646867Y-87140987D01*
X150651851Y-87210679D01*
X150618365Y-87272002D01*
X150604997Y-87283585D01*
X150547304Y-87326774D01*
X150461058Y-87441983D01*
X150461054Y-87441990D01*
X150410760Y-87576836D01*
X150404353Y-87636435D01*
X150404353Y-87636442D01*
X150404352Y-87636454D01*
X150404352Y-88732189D01*
X150404353Y-88732195D01*
X150410760Y-88791802D01*
X150461054Y-88926647D01*
X150461058Y-88926654D01*
X150547304Y-89041863D01*
X150547305Y-89041863D01*
X150547306Y-89041865D01*
X150576467Y-89063695D01*
X150604997Y-89085053D01*
X150646867Y-89140987D01*
X150651851Y-89210679D01*
X150618365Y-89272002D01*
X150604997Y-89283585D01*
X150547304Y-89326774D01*
X150461058Y-89441983D01*
X150461054Y-89441990D01*
X150410760Y-89576836D01*
X150404353Y-89636435D01*
X150404353Y-89636442D01*
X150404352Y-89636454D01*
X150404352Y-90732189D01*
X150404353Y-90732195D01*
X150410760Y-90791802D01*
X150461054Y-90926647D01*
X150461058Y-90926654D01*
X150547304Y-91041863D01*
X150547305Y-91041863D01*
X150547306Y-91041865D01*
X150576467Y-91063695D01*
X150604997Y-91085053D01*
X150646867Y-91140987D01*
X150651851Y-91210679D01*
X150618365Y-91272002D01*
X150604997Y-91283585D01*
X150547304Y-91326774D01*
X150461058Y-91441983D01*
X150461054Y-91441990D01*
X150410760Y-91576836D01*
X150404353Y-91636435D01*
X150404353Y-91636442D01*
X150404352Y-91636454D01*
X150404352Y-92732189D01*
X150404353Y-92732195D01*
X150410760Y-92791802D01*
X150461054Y-92926647D01*
X150461058Y-92926654D01*
X150547304Y-93041863D01*
X150547305Y-93041863D01*
X150547306Y-93041865D01*
X150576467Y-93063695D01*
X150604997Y-93085053D01*
X150646867Y-93140987D01*
X150651851Y-93210679D01*
X150618365Y-93272002D01*
X150604997Y-93283585D01*
X150547304Y-93326774D01*
X150461058Y-93441983D01*
X150461054Y-93441990D01*
X150410760Y-93576836D01*
X150404353Y-93636435D01*
X150404353Y-93636442D01*
X150404352Y-93636454D01*
X150404352Y-94732189D01*
X150404353Y-94732195D01*
X150410760Y-94791802D01*
X150461054Y-94926647D01*
X150461058Y-94926654D01*
X150547304Y-95041863D01*
X150547305Y-95041863D01*
X150547306Y-95041865D01*
X150576467Y-95063695D01*
X150604997Y-95085053D01*
X150646867Y-95140987D01*
X150651851Y-95210679D01*
X150618365Y-95272002D01*
X150604997Y-95283585D01*
X150547304Y-95326774D01*
X150461058Y-95441983D01*
X150461054Y-95441990D01*
X150410760Y-95576836D01*
X150404353Y-95636435D01*
X150404353Y-95636442D01*
X150404352Y-95636454D01*
X150404352Y-96732189D01*
X150404353Y-96732195D01*
X150410760Y-96791802D01*
X150461054Y-96926647D01*
X150461058Y-96926654D01*
X150547304Y-97041863D01*
X150547305Y-97041863D01*
X150547306Y-97041865D01*
X150582579Y-97068270D01*
X150605414Y-97085365D01*
X150647284Y-97141299D01*
X150652268Y-97210991D01*
X150618782Y-97272313D01*
X150605414Y-97283897D01*
X150547661Y-97327131D01*
X150461501Y-97442225D01*
X150461497Y-97442232D01*
X150411255Y-97576939D01*
X150411253Y-97576946D01*
X150404852Y-97636474D01*
X150404852Y-97934319D01*
X151949877Y-97934319D01*
X151914782Y-97969414D01*
X151868704Y-98049224D01*
X151844852Y-98138241D01*
X151844852Y-98230397D01*
X151868704Y-98319414D01*
X151914782Y-98399224D01*
X151979947Y-98464389D01*
X152059757Y-98510467D01*
X152148774Y-98534319D01*
X152240930Y-98534319D01*
X152329947Y-98510467D01*
X152409757Y-98464389D01*
X152474922Y-98399224D01*
X152521000Y-98319414D01*
X152544852Y-98230397D01*
X152544852Y-98138241D01*
X152521000Y-98049224D01*
X152474922Y-97969414D01*
X152439827Y-97934319D01*
X153984852Y-97934319D01*
X153984852Y-97636491D01*
X153984851Y-97636474D01*
X153978450Y-97576946D01*
X153978448Y-97576939D01*
X153928206Y-97442232D01*
X153928202Y-97442225D01*
X153842042Y-97327131D01*
X153842039Y-97327128D01*
X153784290Y-97283897D01*
X153742419Y-97227964D01*
X153737435Y-97158272D01*
X153770921Y-97096949D01*
X153784284Y-97085368D01*
X153842398Y-97041865D01*
X153928648Y-96926650D01*
X153978943Y-96791802D01*
X153985352Y-96732192D01*
X153985351Y-95636447D01*
X153978943Y-95576836D01*
X153928648Y-95441988D01*
X153928647Y-95441987D01*
X153928645Y-95441983D01*
X153842399Y-95326775D01*
X153842400Y-95326775D01*
X153842398Y-95326773D01*
X153784706Y-95283584D01*
X153742836Y-95227652D01*
X153737852Y-95157960D01*
X153771337Y-95096637D01*
X153784706Y-95085053D01*
X153842398Y-95041865D01*
X153928648Y-94926650D01*
X153978943Y-94791802D01*
X153985352Y-94732192D01*
X153985351Y-93636447D01*
X153978943Y-93576836D01*
X153945794Y-93487960D01*
X153928649Y-93441990D01*
X153928645Y-93441983D01*
X153842666Y-93327131D01*
X153842398Y-93326773D01*
X153784706Y-93283584D01*
X153742836Y-93227652D01*
X153737852Y-93157960D01*
X153771337Y-93096637D01*
X153784706Y-93085053D01*
X153842398Y-93041865D01*
X153928648Y-92926650D01*
X153978943Y-92791802D01*
X153985352Y-92732192D01*
X153985351Y-91636447D01*
X153978943Y-91576836D01*
X153972949Y-91560766D01*
X153928649Y-91441990D01*
X153928645Y-91441983D01*
X153842666Y-91327131D01*
X153842398Y-91326773D01*
X153784706Y-91283584D01*
X153742836Y-91227652D01*
X153737852Y-91157960D01*
X153771337Y-91096637D01*
X153784706Y-91085053D01*
X153842398Y-91041865D01*
X153928648Y-90926650D01*
X153978943Y-90791802D01*
X153985352Y-90732192D01*
X153985351Y-89636447D01*
X153978943Y-89576836D01*
X153928648Y-89441988D01*
X153928647Y-89441987D01*
X153928645Y-89441983D01*
X153842399Y-89326775D01*
X153842400Y-89326775D01*
X153842398Y-89326773D01*
X153784706Y-89283584D01*
X153742836Y-89227652D01*
X153737852Y-89157960D01*
X153771337Y-89096637D01*
X153784706Y-89085053D01*
X153842398Y-89041865D01*
X153928648Y-88926650D01*
X153978943Y-88791802D01*
X153985352Y-88732192D01*
X153985351Y-87636447D01*
X153978943Y-87576836D01*
X153929022Y-87442992D01*
X153928649Y-87441990D01*
X153928645Y-87441983D01*
X153842399Y-87326775D01*
X153842400Y-87326775D01*
X153842398Y-87326773D01*
X153784706Y-87283584D01*
X153742836Y-87227652D01*
X153737852Y-87157960D01*
X153771337Y-87096637D01*
X153784706Y-87085053D01*
X153842398Y-87041865D01*
X153928648Y-86926650D01*
X153978943Y-86791802D01*
X153985352Y-86732192D01*
X153985351Y-85636454D01*
X154574352Y-85636454D01*
X154574352Y-86732189D01*
X154574353Y-86732195D01*
X154580760Y-86791802D01*
X154631054Y-86926647D01*
X154631058Y-86926654D01*
X154717304Y-87041863D01*
X154717305Y-87041863D01*
X154717306Y-87041865D01*
X154746467Y-87063695D01*
X154774997Y-87085053D01*
X154816867Y-87140987D01*
X154821851Y-87210679D01*
X154788365Y-87272002D01*
X154774997Y-87283585D01*
X154717304Y-87326774D01*
X154631058Y-87441983D01*
X154631054Y-87441990D01*
X154580760Y-87576836D01*
X154574353Y-87636435D01*
X154574353Y-87636442D01*
X154574352Y-87636454D01*
X154574352Y-88732189D01*
X154574353Y-88732195D01*
X154580760Y-88791802D01*
X154631054Y-88926647D01*
X154631058Y-88926654D01*
X154717304Y-89041863D01*
X154717305Y-89041863D01*
X154717306Y-89041865D01*
X154746467Y-89063695D01*
X154774997Y-89085053D01*
X154816867Y-89140987D01*
X154821851Y-89210679D01*
X154788365Y-89272002D01*
X154774997Y-89283585D01*
X154717304Y-89326774D01*
X154631058Y-89441983D01*
X154631054Y-89441990D01*
X154580760Y-89576836D01*
X154574353Y-89636435D01*
X154574353Y-89636442D01*
X154574352Y-89636454D01*
X154574352Y-90732189D01*
X154574353Y-90732195D01*
X154580760Y-90791802D01*
X154631054Y-90926647D01*
X154631058Y-90926654D01*
X154717304Y-91041863D01*
X154717305Y-91041863D01*
X154717306Y-91041865D01*
X154746467Y-91063695D01*
X154774997Y-91085053D01*
X154816867Y-91140987D01*
X154821851Y-91210679D01*
X154788365Y-91272002D01*
X154774997Y-91283585D01*
X154717304Y-91326774D01*
X154631058Y-91441983D01*
X154631054Y-91441990D01*
X154580760Y-91576836D01*
X154574353Y-91636435D01*
X154574353Y-91636442D01*
X154574352Y-91636454D01*
X154574352Y-92732189D01*
X154574353Y-92732195D01*
X154580760Y-92791802D01*
X154631054Y-92926647D01*
X154631058Y-92926654D01*
X154717304Y-93041863D01*
X154717305Y-93041863D01*
X154717306Y-93041865D01*
X154746467Y-93063695D01*
X154774997Y-93085053D01*
X154816867Y-93140987D01*
X154821851Y-93210679D01*
X154788365Y-93272002D01*
X154774997Y-93283585D01*
X154717304Y-93326774D01*
X154631058Y-93441983D01*
X154631054Y-93441990D01*
X154580760Y-93576836D01*
X154574353Y-93636435D01*
X154574353Y-93636442D01*
X154574352Y-93636454D01*
X154574352Y-94732189D01*
X154574353Y-94732195D01*
X154580760Y-94791802D01*
X154631054Y-94926647D01*
X154631058Y-94926654D01*
X154717304Y-95041863D01*
X154717305Y-95041863D01*
X154717306Y-95041865D01*
X154746467Y-95063695D01*
X154774997Y-95085053D01*
X154816867Y-95140987D01*
X154821851Y-95210679D01*
X154788365Y-95272002D01*
X154774997Y-95283585D01*
X154717304Y-95326774D01*
X154631058Y-95441983D01*
X154631054Y-95441990D01*
X154580760Y-95576836D01*
X154574353Y-95636435D01*
X154574353Y-95636442D01*
X154574352Y-95636454D01*
X154574352Y-96732189D01*
X154574353Y-96732195D01*
X154580760Y-96791802D01*
X154631054Y-96926647D01*
X154631058Y-96926654D01*
X154717304Y-97041863D01*
X154717305Y-97041863D01*
X154717306Y-97041865D01*
X154752579Y-97068270D01*
X154775414Y-97085365D01*
X154817284Y-97141299D01*
X154822268Y-97210991D01*
X154788782Y-97272313D01*
X154775414Y-97283897D01*
X154717661Y-97327131D01*
X154631501Y-97442225D01*
X154631497Y-97442232D01*
X154581255Y-97576939D01*
X154581253Y-97576946D01*
X154574852Y-97636474D01*
X154574852Y-97934319D01*
X156119877Y-97934319D01*
X156084782Y-97969414D01*
X156038704Y-98049224D01*
X156014852Y-98138241D01*
X156014852Y-98230397D01*
X156038704Y-98319414D01*
X156084782Y-98399224D01*
X156149947Y-98464389D01*
X156229757Y-98510467D01*
X156318774Y-98534319D01*
X156410930Y-98534319D01*
X156499947Y-98510467D01*
X156579757Y-98464389D01*
X156644922Y-98399224D01*
X156691000Y-98319414D01*
X156714852Y-98230397D01*
X156714852Y-98138241D01*
X156691000Y-98049224D01*
X156644922Y-97969414D01*
X156609827Y-97934319D01*
X158154852Y-97934319D01*
X158154852Y-97636491D01*
X158154851Y-97636474D01*
X158148450Y-97576946D01*
X158148448Y-97576939D01*
X158098206Y-97442232D01*
X158098202Y-97442225D01*
X158012042Y-97327131D01*
X158012039Y-97327128D01*
X157954290Y-97283897D01*
X157912419Y-97227964D01*
X157907435Y-97158272D01*
X157940921Y-97096949D01*
X157954284Y-97085368D01*
X158012398Y-97041865D01*
X158098648Y-96926650D01*
X158148943Y-96791802D01*
X158155352Y-96732192D01*
X158155351Y-95636447D01*
X158148943Y-95576836D01*
X158098648Y-95441988D01*
X158098647Y-95441987D01*
X158098645Y-95441983D01*
X158012399Y-95326775D01*
X158012400Y-95326775D01*
X158012398Y-95326773D01*
X157954706Y-95283584D01*
X157912836Y-95227652D01*
X157907852Y-95157960D01*
X157941337Y-95096637D01*
X157954706Y-95085053D01*
X158012398Y-95041865D01*
X158098648Y-94926650D01*
X158148943Y-94791802D01*
X158155352Y-94732192D01*
X158155351Y-93636447D01*
X158148943Y-93576836D01*
X158115794Y-93487960D01*
X158098649Y-93441990D01*
X158098645Y-93441983D01*
X158012666Y-93327131D01*
X158012398Y-93326773D01*
X157954706Y-93283584D01*
X157912836Y-93227652D01*
X157907852Y-93157960D01*
X157941337Y-93096637D01*
X157954706Y-93085053D01*
X158012398Y-93041865D01*
X158098648Y-92926650D01*
X158148943Y-92791802D01*
X158155352Y-92732192D01*
X158155351Y-91636447D01*
X158148943Y-91576836D01*
X158142949Y-91560766D01*
X158098649Y-91441990D01*
X158098645Y-91441983D01*
X158012666Y-91327131D01*
X158012398Y-91326773D01*
X157954706Y-91283584D01*
X157912836Y-91227652D01*
X157907852Y-91157960D01*
X157941337Y-91096637D01*
X157954706Y-91085053D01*
X158012398Y-91041865D01*
X158098648Y-90926650D01*
X158148943Y-90791802D01*
X158155352Y-90732192D01*
X158155351Y-89636447D01*
X158148943Y-89576836D01*
X158098648Y-89441988D01*
X158098647Y-89441987D01*
X158098645Y-89441983D01*
X158012399Y-89326775D01*
X158012400Y-89326775D01*
X158012398Y-89326773D01*
X157954706Y-89283584D01*
X157912836Y-89227652D01*
X157907852Y-89157960D01*
X157941337Y-89096637D01*
X157954706Y-89085053D01*
X158012398Y-89041865D01*
X158098648Y-88926650D01*
X158148943Y-88791802D01*
X158155352Y-88732192D01*
X158155351Y-87636447D01*
X158148943Y-87576836D01*
X158099022Y-87442992D01*
X158098649Y-87441990D01*
X158098645Y-87441983D01*
X158012399Y-87326775D01*
X158012400Y-87326775D01*
X158012398Y-87326773D01*
X157954706Y-87283584D01*
X157912836Y-87227652D01*
X157907852Y-87157960D01*
X157941337Y-87096637D01*
X157954706Y-87085053D01*
X158012398Y-87041865D01*
X158098648Y-86926650D01*
X158148943Y-86791802D01*
X158155352Y-86732192D01*
X158155351Y-85636447D01*
X158148943Y-85576836D01*
X158098648Y-85441988D01*
X158098647Y-85441987D01*
X158098645Y-85441983D01*
X158012399Y-85326774D01*
X158012396Y-85326771D01*
X157897187Y-85240525D01*
X157897180Y-85240521D01*
X157762334Y-85190227D01*
X157762335Y-85190227D01*
X157702735Y-85183820D01*
X157702733Y-85183819D01*
X157702725Y-85183819D01*
X157702716Y-85183819D01*
X155026981Y-85183819D01*
X155026975Y-85183820D01*
X154967368Y-85190227D01*
X154832523Y-85240521D01*
X154832516Y-85240525D01*
X154717307Y-85326771D01*
X154717304Y-85326774D01*
X154631058Y-85441983D01*
X154631054Y-85441990D01*
X154580760Y-85576836D01*
X154574353Y-85636435D01*
X154574353Y-85636442D01*
X154574352Y-85636454D01*
X153985351Y-85636454D01*
X153985351Y-85636447D01*
X153978943Y-85576836D01*
X153928648Y-85441988D01*
X153928647Y-85441987D01*
X153928645Y-85441983D01*
X153842399Y-85326774D01*
X153842396Y-85326771D01*
X153727187Y-85240525D01*
X153727180Y-85240521D01*
X153592334Y-85190227D01*
X153592335Y-85190227D01*
X153532735Y-85183820D01*
X153532733Y-85183819D01*
X153532725Y-85183819D01*
X153532716Y-85183819D01*
X150856981Y-85183819D01*
X150856975Y-85183820D01*
X150797368Y-85190227D01*
X150662523Y-85240521D01*
X150662516Y-85240525D01*
X150547307Y-85326771D01*
X150547304Y-85326774D01*
X150461058Y-85441983D01*
X150461054Y-85441990D01*
X150410760Y-85576836D01*
X150404353Y-85636435D01*
X150404353Y-85636442D01*
X150404352Y-85636454D01*
X117765351Y-85636454D01*
X117765351Y-85636447D01*
X117758943Y-85576836D01*
X117708648Y-85441988D01*
X117708647Y-85441987D01*
X117708645Y-85441983D01*
X117622399Y-85326774D01*
X117622396Y-85326771D01*
X117507187Y-85240525D01*
X117507180Y-85240521D01*
X117372334Y-85190227D01*
X117372335Y-85190227D01*
X117312735Y-85183820D01*
X117312733Y-85183819D01*
X117312725Y-85183819D01*
X117312716Y-85183819D01*
X114636981Y-85183819D01*
X114636975Y-85183820D01*
X114577368Y-85190227D01*
X114442523Y-85240521D01*
X114442516Y-85240525D01*
X114327307Y-85326771D01*
X114327304Y-85326774D01*
X114241058Y-85441983D01*
X114241054Y-85441990D01*
X114190760Y-85576836D01*
X114184353Y-85636435D01*
X114184353Y-85636442D01*
X114184352Y-85636454D01*
X113595351Y-85636454D01*
X113595351Y-85636447D01*
X113588943Y-85576836D01*
X113538648Y-85441988D01*
X113538647Y-85441987D01*
X113538645Y-85441983D01*
X113452399Y-85326774D01*
X113452396Y-85326771D01*
X113337187Y-85240525D01*
X113337180Y-85240521D01*
X113202334Y-85190227D01*
X113202335Y-85190227D01*
X113142735Y-85183820D01*
X113142733Y-85183819D01*
X113142725Y-85183819D01*
X113142716Y-85183819D01*
X110466981Y-85183819D01*
X110466975Y-85183820D01*
X110407368Y-85190227D01*
X110272523Y-85240521D01*
X110272516Y-85240525D01*
X110157307Y-85326771D01*
X110157304Y-85326774D01*
X110071058Y-85441983D01*
X110071054Y-85441990D01*
X110020760Y-85576836D01*
X110014353Y-85636435D01*
X110014353Y-85636442D01*
X110014352Y-85636454D01*
X109585352Y-85636454D01*
X109585352Y-80662901D01*
X109603535Y-80598258D01*
X109632236Y-80551276D01*
X110018273Y-79919352D01*
X110020462Y-79915901D01*
X110548799Y-79113429D01*
X110551127Y-79110018D01*
X111106333Y-78325881D01*
X111108799Y-78322521D01*
X111108817Y-78322497D01*
X111690223Y-77557640D01*
X111692750Y-77554430D01*
X112299742Y-76809658D01*
X112302389Y-76806519D01*
X112934243Y-76082727D01*
X112936998Y-76079676D01*
X113593011Y-75377666D01*
X113595870Y-75374709D01*
X114275241Y-74695339D01*
X114278198Y-74692480D01*
X114980209Y-74036468D01*
X114983260Y-74033713D01*
X115707053Y-73401862D01*
X115710192Y-73399214D01*
X116454964Y-72792223D01*
X116458176Y-72789694D01*
X117223104Y-72208237D01*
X117226393Y-72205823D01*
X118010554Y-71650602D01*
X118013928Y-71648298D01*
X118816439Y-71119938D01*
X118819938Y-71117720D01*
X119498815Y-70703002D01*
X119563458Y-70684819D01*
X148606269Y-70684819D01*
X148670911Y-70703001D01*
G37*
%TD.AperFunction*%
%TD*%
M02*
